%TF.GenerationSoftware,KiCad,Pcbnew,7.0.6*%
%TF.CreationDate,2023-10-07T14:34:09+02:00*%
%TF.ProjectId,TPA3116 amplifier,54504133-3131-4362-9061-6d706c696669,rev?*%
%TF.SameCoordinates,Original*%
%TF.FileFunction,Soldermask,Bot*%
%TF.FilePolarity,Negative*%
%FSLAX46Y46*%
G04 Gerber Fmt 4.6, Leading zero omitted, Abs format (unit mm)*
G04 Created by KiCad (PCBNEW 7.0.6) date 2023-10-07 14:34:09*
%MOMM*%
%LPD*%
G01*
G04 APERTURE LIST*
%ADD10C,1.950000*%
%ADD11C,0.800000*%
%ADD12C,6.400000*%
%ADD13R,2.400000X2.400000*%
%ADD14C,2.400000*%
%ADD15R,1.700000X1.700000*%
%ADD16O,1.700000X1.700000*%
G04 APERTURE END LIST*
D10*
%TO.C,J5*%
X176000000Y-100500000D03*
X176000000Y-105500000D03*
%TD*%
D11*
%TO.C,H1*%
X177600000Y-120000000D03*
X178302944Y-118302944D03*
X178302944Y-121697056D03*
X180000000Y-117600000D03*
D12*
X180000000Y-120000000D03*
D11*
X180000000Y-122400000D03*
X181697056Y-118302944D03*
X181697056Y-121697056D03*
X182400000Y-120000000D03*
%TD*%
D13*
%TO.C,C12*%
X144000000Y-107500000D03*
D14*
X144000000Y-115000000D03*
%TD*%
D13*
%TO.C,C9*%
X144000000Y-67500000D03*
D14*
X144000000Y-60000000D03*
%TD*%
D11*
%TO.C,H4*%
X102600000Y-55000000D03*
X103302944Y-53302944D03*
X103302944Y-56697056D03*
X105000000Y-52600000D03*
D12*
X105000000Y-55000000D03*
D11*
X105000000Y-57400000D03*
X106697056Y-53302944D03*
X106697056Y-56697056D03*
X107400000Y-55000000D03*
%TD*%
D10*
%TO.C,J3*%
X109000000Y-105500000D03*
X109000000Y-100500000D03*
%TD*%
D11*
%TO.C,H2*%
X102600000Y-120000000D03*
X103302944Y-118302944D03*
X103302944Y-121697056D03*
X105000000Y-117600000D03*
D12*
X105000000Y-120000000D03*
D11*
X105000000Y-122400000D03*
X106697056Y-118302944D03*
X106697056Y-121697056D03*
X107400000Y-120000000D03*
%TD*%
D10*
%TO.C,J4*%
X176000000Y-69500000D03*
X176000000Y-74500000D03*
%TD*%
D15*
%TO.C,J1*%
X122000000Y-90460000D03*
D16*
X122000000Y-93000000D03*
%TD*%
D10*
%TO.C,J2*%
X109000000Y-84500000D03*
X109000000Y-79500000D03*
X109000000Y-74500000D03*
X109000000Y-69500000D03*
%TD*%
D11*
%TO.C,H3*%
X177600000Y-55000000D03*
X178302944Y-53302944D03*
X178302944Y-56697056D03*
X180000000Y-52600000D03*
D12*
X180000000Y-55000000D03*
D11*
X180000000Y-57400000D03*
X181697056Y-53302944D03*
X181697056Y-56697056D03*
X182400000Y-55000000D03*
%TD*%
D13*
%TO.C,C8*%
X124550000Y-67512755D03*
D14*
X124550000Y-60012755D03*
%TD*%
D13*
%TO.C,C13*%
X125000000Y-107500000D03*
D14*
X125000000Y-115000000D03*
%TD*%
M02*
