%TF.GenerationSoftware,KiCad,Pcbnew,7.0.6*%
%TF.CreationDate,2023-10-07T14:34:09+02:00*%
%TF.ProjectId,TPA3116 amplifier,54504133-3131-4362-9061-6d706c696669,rev?*%
%TF.SameCoordinates,Original*%
%TF.FileFunction,Legend,Top*%
%TF.FilePolarity,Positive*%
%FSLAX46Y46*%
G04 Gerber Fmt 4.6, Leading zero omitted, Abs format (unit mm)*
G04 Created by KiCad (PCBNEW 7.0.6) date 2023-10-07 14:34:09*
%MOMM*%
%LPD*%
G01*
G04 APERTURE LIST*
%ADD10C,0.150000*%
%ADD11C,0.250000*%
%ADD12C,0.254000*%
%ADD13C,0.300000*%
%ADD14C,0.120000*%
%ADD15C,0.100000*%
%ADD16C,0.200000*%
G04 APERTURE END LIST*
D10*
X112698932Y-122818411D02*
X112698932Y-121818411D01*
X112698932Y-121818411D02*
X113079884Y-121818411D01*
X113079884Y-121818411D02*
X113175122Y-121866030D01*
X113175122Y-121866030D02*
X113222741Y-121913649D01*
X113222741Y-121913649D02*
X113270360Y-122008887D01*
X113270360Y-122008887D02*
X113270360Y-122151744D01*
X113270360Y-122151744D02*
X113222741Y-122246982D01*
X113222741Y-122246982D02*
X113175122Y-122294601D01*
X113175122Y-122294601D02*
X113079884Y-122342220D01*
X113079884Y-122342220D02*
X112698932Y-122342220D01*
X113603694Y-121818411D02*
X113841789Y-122818411D01*
X113841789Y-122818411D02*
X114032265Y-122104125D01*
X114032265Y-122104125D02*
X114222741Y-122818411D01*
X114222741Y-122818411D02*
X114460837Y-121818411D01*
X115413217Y-122818411D02*
X115079884Y-122342220D01*
X114841789Y-122818411D02*
X114841789Y-121818411D01*
X114841789Y-121818411D02*
X115222741Y-121818411D01*
X115222741Y-121818411D02*
X115317979Y-121866030D01*
X115317979Y-121866030D02*
X115365598Y-121913649D01*
X115365598Y-121913649D02*
X115413217Y-122008887D01*
X115413217Y-122008887D02*
X115413217Y-122151744D01*
X115413217Y-122151744D02*
X115365598Y-122246982D01*
X115365598Y-122246982D02*
X115317979Y-122294601D01*
X115317979Y-122294601D02*
X115222741Y-122342220D01*
X115222741Y-122342220D02*
X114841789Y-122342220D01*
X117079884Y-122818411D02*
X116603694Y-122818411D01*
X116603694Y-122818411D02*
X116603694Y-121818411D01*
X117413218Y-122294601D02*
X117746551Y-122294601D01*
X117889408Y-122818411D02*
X117413218Y-122818411D01*
X117413218Y-122818411D02*
X117413218Y-121818411D01*
X117413218Y-121818411D02*
X117889408Y-121818411D01*
X118317980Y-122818411D02*
X118317980Y-121818411D01*
X118317980Y-121818411D02*
X118556075Y-121818411D01*
X118556075Y-121818411D02*
X118698932Y-121866030D01*
X118698932Y-121866030D02*
X118794170Y-121961268D01*
X118794170Y-121961268D02*
X118841789Y-122056506D01*
X118841789Y-122056506D02*
X118889408Y-122246982D01*
X118889408Y-122246982D02*
X118889408Y-122389839D01*
X118889408Y-122389839D02*
X118841789Y-122580315D01*
X118841789Y-122580315D02*
X118794170Y-122675553D01*
X118794170Y-122675553D02*
X118698932Y-122770792D01*
X118698932Y-122770792D02*
X118556075Y-122818411D01*
X118556075Y-122818411D02*
X118317980Y-122818411D01*
D11*
X183967668Y-106094168D02*
X183967668Y-107046549D01*
X183967668Y-107046549D02*
X181967668Y-107046549D01*
X183205763Y-105427501D02*
X183205763Y-103903692D01*
X183866259Y-101101282D02*
X183866259Y-102053663D01*
X183866259Y-102053663D02*
X181866259Y-102053663D01*
X183104354Y-100434615D02*
X183104354Y-98910806D01*
X183866259Y-99672710D02*
X182342449Y-99672710D01*
D10*
X181000000Y-103000000D02*
X185000000Y-103000000D01*
X181000000Y-108000000D02*
X185000000Y-108000000D01*
X181000000Y-98000000D02*
X185000000Y-98000000D01*
D11*
X184013195Y-74900721D02*
X183060814Y-75567388D01*
X184013195Y-76043578D02*
X182013195Y-76043578D01*
X182013195Y-76043578D02*
X182013195Y-75281673D01*
X182013195Y-75281673D02*
X182108433Y-75091197D01*
X182108433Y-75091197D02*
X182203671Y-74995959D01*
X182203671Y-74995959D02*
X182394147Y-74900721D01*
X182394147Y-74900721D02*
X182679861Y-74900721D01*
X182679861Y-74900721D02*
X182870337Y-74995959D01*
X182870337Y-74995959D02*
X182965576Y-75091197D01*
X182965576Y-75091197D02*
X183060814Y-75281673D01*
X183060814Y-75281673D02*
X183060814Y-76043578D01*
X183251290Y-74043578D02*
X183251290Y-72519769D01*
X183953947Y-69983097D02*
X183001566Y-70649764D01*
X183953947Y-71125954D02*
X181953947Y-71125954D01*
X181953947Y-71125954D02*
X181953947Y-70364049D01*
X181953947Y-70364049D02*
X182049185Y-70173573D01*
X182049185Y-70173573D02*
X182144423Y-70078335D01*
X182144423Y-70078335D02*
X182334899Y-69983097D01*
X182334899Y-69983097D02*
X182620613Y-69983097D01*
X182620613Y-69983097D02*
X182811089Y-70078335D01*
X182811089Y-70078335D02*
X182906328Y-70173573D01*
X182906328Y-70173573D02*
X183001566Y-70364049D01*
X183001566Y-70364049D02*
X183001566Y-71125954D01*
X183192042Y-69125954D02*
X183192042Y-67602145D01*
X183953947Y-68364049D02*
X182430137Y-68364049D01*
D10*
X181000000Y-72000000D02*
X185000000Y-72000000D01*
X181000000Y-67000000D02*
X185000000Y-67000000D01*
X181000000Y-77000000D02*
X185000000Y-77000000D01*
D11*
X102730581Y-108718494D02*
X102825819Y-108789922D01*
X102825819Y-108789922D02*
X102921057Y-108932780D01*
X102921057Y-108932780D02*
X102921057Y-109289922D01*
X102921057Y-109289922D02*
X102825819Y-109432780D01*
X102825819Y-109432780D02*
X102730581Y-109504208D01*
X102730581Y-109504208D02*
X102540105Y-109575637D01*
X102540105Y-109575637D02*
X102349629Y-109575637D01*
X102349629Y-109575637D02*
X102063915Y-109504208D01*
X102063915Y-109504208D02*
X100921057Y-108647065D01*
X100921057Y-108647065D02*
X100921057Y-109575637D01*
X102254391Y-110861351D02*
X100921057Y-110861351D01*
X103016296Y-110504208D02*
X101587724Y-110147065D01*
X101587724Y-110147065D02*
X101587724Y-111075636D01*
X102921057Y-111432779D02*
X100921057Y-111932779D01*
X100921057Y-111932779D02*
X102921057Y-112432779D01*
D10*
X104000000Y-113000000D02*
X100000000Y-113000000D01*
X104000000Y-108000000D02*
X104000000Y-113000000D01*
D11*
X102019666Y-105140663D02*
X102019666Y-106664473D01*
X102019666Y-99640663D02*
X102019666Y-101164473D01*
X101257761Y-100402568D02*
X102781571Y-100402568D01*
D10*
X104000000Y-108000000D02*
X100000000Y-108000000D01*
X104000000Y-98000000D02*
X100000000Y-98000000D01*
X110087969Y-94369819D02*
X109611779Y-94369819D01*
X109611779Y-94369819D02*
X109611779Y-93369819D01*
X110421303Y-93988866D02*
X111183208Y-93988866D01*
X112278446Y-93703152D02*
X112659398Y-93703152D01*
X112421303Y-93369819D02*
X112421303Y-94226961D01*
X112421303Y-94226961D02*
X112468922Y-94322200D01*
X112468922Y-94322200D02*
X112564160Y-94369819D01*
X112564160Y-94369819D02*
X112659398Y-94369819D01*
X113135589Y-94369819D02*
X113040351Y-94322200D01*
X113040351Y-94322200D02*
X112992732Y-94274580D01*
X112992732Y-94274580D02*
X112945113Y-94179342D01*
X112945113Y-94179342D02*
X112945113Y-93893628D01*
X112945113Y-93893628D02*
X112992732Y-93798390D01*
X112992732Y-93798390D02*
X113040351Y-93750771D01*
X113040351Y-93750771D02*
X113135589Y-93703152D01*
X113135589Y-93703152D02*
X113278446Y-93703152D01*
X113278446Y-93703152D02*
X113373684Y-93750771D01*
X113373684Y-93750771D02*
X113421303Y-93798390D01*
X113421303Y-93798390D02*
X113468922Y-93893628D01*
X113468922Y-93893628D02*
X113468922Y-94179342D01*
X113468922Y-94179342D02*
X113421303Y-94274580D01*
X113421303Y-94274580D02*
X113373684Y-94322200D01*
X113373684Y-94322200D02*
X113278446Y-94369819D01*
X113278446Y-94369819D02*
X113135589Y-94369819D01*
X115183208Y-93417438D02*
X115087970Y-93369819D01*
X115087970Y-93369819D02*
X114945113Y-93369819D01*
X114945113Y-93369819D02*
X114802256Y-93417438D01*
X114802256Y-93417438D02*
X114707018Y-93512676D01*
X114707018Y-93512676D02*
X114659399Y-93607914D01*
X114659399Y-93607914D02*
X114611780Y-93798390D01*
X114611780Y-93798390D02*
X114611780Y-93941247D01*
X114611780Y-93941247D02*
X114659399Y-94131723D01*
X114659399Y-94131723D02*
X114707018Y-94226961D01*
X114707018Y-94226961D02*
X114802256Y-94322200D01*
X114802256Y-94322200D02*
X114945113Y-94369819D01*
X114945113Y-94369819D02*
X115040351Y-94369819D01*
X115040351Y-94369819D02*
X115183208Y-94322200D01*
X115183208Y-94322200D02*
X115230827Y-94274580D01*
X115230827Y-94274580D02*
X115230827Y-93941247D01*
X115230827Y-93941247D02*
X115040351Y-93941247D01*
X115659399Y-94369819D02*
X115659399Y-93369819D01*
X115659399Y-93369819D02*
X116230827Y-94369819D01*
X116230827Y-94369819D02*
X116230827Y-93369819D01*
X116707018Y-94369819D02*
X116707018Y-93369819D01*
X116707018Y-93369819D02*
X116945113Y-93369819D01*
X116945113Y-93369819D02*
X117087970Y-93417438D01*
X117087970Y-93417438D02*
X117183208Y-93512676D01*
X117183208Y-93512676D02*
X117230827Y-93607914D01*
X117230827Y-93607914D02*
X117278446Y-93798390D01*
X117278446Y-93798390D02*
X117278446Y-93941247D01*
X117278446Y-93941247D02*
X117230827Y-94131723D01*
X117230827Y-94131723D02*
X117183208Y-94226961D01*
X117183208Y-94226961D02*
X117087970Y-94322200D01*
X117087970Y-94322200D02*
X116945113Y-94369819D01*
X116945113Y-94369819D02*
X116707018Y-94369819D01*
X110183207Y-90869819D02*
X109849874Y-90393628D01*
X109611779Y-90869819D02*
X109611779Y-89869819D01*
X109611779Y-89869819D02*
X109992731Y-89869819D01*
X109992731Y-89869819D02*
X110087969Y-89917438D01*
X110087969Y-89917438D02*
X110135588Y-89965057D01*
X110135588Y-89965057D02*
X110183207Y-90060295D01*
X110183207Y-90060295D02*
X110183207Y-90203152D01*
X110183207Y-90203152D02*
X110135588Y-90298390D01*
X110135588Y-90298390D02*
X110087969Y-90346009D01*
X110087969Y-90346009D02*
X109992731Y-90393628D01*
X109992731Y-90393628D02*
X109611779Y-90393628D01*
X110611779Y-90488866D02*
X111373684Y-90488866D01*
X112468922Y-90203152D02*
X112849874Y-90203152D01*
X112611779Y-89869819D02*
X112611779Y-90726961D01*
X112611779Y-90726961D02*
X112659398Y-90822200D01*
X112659398Y-90822200D02*
X112754636Y-90869819D01*
X112754636Y-90869819D02*
X112849874Y-90869819D01*
X113326065Y-90869819D02*
X113230827Y-90822200D01*
X113230827Y-90822200D02*
X113183208Y-90774580D01*
X113183208Y-90774580D02*
X113135589Y-90679342D01*
X113135589Y-90679342D02*
X113135589Y-90393628D01*
X113135589Y-90393628D02*
X113183208Y-90298390D01*
X113183208Y-90298390D02*
X113230827Y-90250771D01*
X113230827Y-90250771D02*
X113326065Y-90203152D01*
X113326065Y-90203152D02*
X113468922Y-90203152D01*
X113468922Y-90203152D02*
X113564160Y-90250771D01*
X113564160Y-90250771D02*
X113611779Y-90298390D01*
X113611779Y-90298390D02*
X113659398Y-90393628D01*
X113659398Y-90393628D02*
X113659398Y-90679342D01*
X113659398Y-90679342D02*
X113611779Y-90774580D01*
X113611779Y-90774580D02*
X113564160Y-90822200D01*
X113564160Y-90822200D02*
X113468922Y-90869819D01*
X113468922Y-90869819D02*
X113326065Y-90869819D01*
X115373684Y-89917438D02*
X115278446Y-89869819D01*
X115278446Y-89869819D02*
X115135589Y-89869819D01*
X115135589Y-89869819D02*
X114992732Y-89917438D01*
X114992732Y-89917438D02*
X114897494Y-90012676D01*
X114897494Y-90012676D02*
X114849875Y-90107914D01*
X114849875Y-90107914D02*
X114802256Y-90298390D01*
X114802256Y-90298390D02*
X114802256Y-90441247D01*
X114802256Y-90441247D02*
X114849875Y-90631723D01*
X114849875Y-90631723D02*
X114897494Y-90726961D01*
X114897494Y-90726961D02*
X114992732Y-90822200D01*
X114992732Y-90822200D02*
X115135589Y-90869819D01*
X115135589Y-90869819D02*
X115230827Y-90869819D01*
X115230827Y-90869819D02*
X115373684Y-90822200D01*
X115373684Y-90822200D02*
X115421303Y-90774580D01*
X115421303Y-90774580D02*
X115421303Y-90441247D01*
X115421303Y-90441247D02*
X115230827Y-90441247D01*
X115849875Y-90869819D02*
X115849875Y-89869819D01*
X115849875Y-89869819D02*
X116421303Y-90869819D01*
X116421303Y-90869819D02*
X116421303Y-89869819D01*
X116897494Y-90869819D02*
X116897494Y-89869819D01*
X116897494Y-89869819D02*
X117135589Y-89869819D01*
X117135589Y-89869819D02*
X117278446Y-89917438D01*
X117278446Y-89917438D02*
X117373684Y-90012676D01*
X117373684Y-90012676D02*
X117421303Y-90107914D01*
X117421303Y-90107914D02*
X117468922Y-90298390D01*
X117468922Y-90298390D02*
X117468922Y-90441247D01*
X117468922Y-90441247D02*
X117421303Y-90631723D01*
X117421303Y-90631723D02*
X117373684Y-90726961D01*
X117373684Y-90726961D02*
X117278446Y-90822200D01*
X117278446Y-90822200D02*
X117135589Y-90869819D01*
X117135589Y-90869819D02*
X116897494Y-90869819D01*
X120336779Y-96369819D02*
X120336779Y-95369819D01*
X120336779Y-95369819D02*
X120670112Y-96084104D01*
X120670112Y-96084104D02*
X121003445Y-95369819D01*
X121003445Y-95369819D02*
X121003445Y-96369819D01*
X121479636Y-95369819D02*
X121479636Y-96179342D01*
X121479636Y-96179342D02*
X121527255Y-96274580D01*
X121527255Y-96274580D02*
X121574874Y-96322200D01*
X121574874Y-96322200D02*
X121670112Y-96369819D01*
X121670112Y-96369819D02*
X121860588Y-96369819D01*
X121860588Y-96369819D02*
X121955826Y-96322200D01*
X121955826Y-96322200D02*
X122003445Y-96274580D01*
X122003445Y-96274580D02*
X122051064Y-96179342D01*
X122051064Y-96179342D02*
X122051064Y-95369819D01*
X122384398Y-95369819D02*
X122955826Y-95369819D01*
X122670112Y-96369819D02*
X122670112Y-95369819D01*
X123289160Y-95846009D02*
X123622493Y-95846009D01*
X123765350Y-96369819D02*
X123289160Y-96369819D01*
X123289160Y-96369819D02*
X123289160Y-95369819D01*
X123289160Y-95369819D02*
X123765350Y-95369819D01*
D11*
X102019666Y-68640663D02*
X102019666Y-70164473D01*
X101257761Y-69402568D02*
X102781571Y-69402568D01*
X101001251Y-89070643D02*
X101001251Y-88118262D01*
X101001251Y-88118262D02*
X103001251Y-88118262D01*
D10*
X104000000Y-90000000D02*
X100000000Y-90000000D01*
X104000000Y-87000000D02*
X104000000Y-90000000D01*
X104000000Y-87000000D02*
X100000000Y-87000000D01*
X104000000Y-64000000D02*
X100000000Y-64000000D01*
X104000000Y-67000000D02*
X104000000Y-64000000D01*
X104000000Y-67000000D02*
X100000000Y-67000000D01*
X104000000Y-77000000D02*
X100000000Y-77000000D01*
D11*
X102019666Y-73640663D02*
X102019666Y-75164473D01*
X102019666Y-84140663D02*
X102019666Y-85664473D01*
X102019666Y-78640663D02*
X102019666Y-80164473D01*
X101257761Y-79402568D02*
X102781571Y-79402568D01*
X100971627Y-66183835D02*
X101924008Y-65517168D01*
X100971627Y-65040978D02*
X102971627Y-65040978D01*
X102971627Y-65040978D02*
X102971627Y-65802883D01*
X102971627Y-65802883D02*
X102876389Y-65993359D01*
X102876389Y-65993359D02*
X102781151Y-66088597D01*
X102781151Y-66088597D02*
X102590675Y-66183835D01*
X102590675Y-66183835D02*
X102304961Y-66183835D01*
X102304961Y-66183835D02*
X102114485Y-66088597D01*
X102114485Y-66088597D02*
X102019246Y-65993359D01*
X102019246Y-65993359D02*
X101924008Y-65802883D01*
X101924008Y-65802883D02*
X101924008Y-65040978D01*
D10*
X106857142Y-109954819D02*
X106523809Y-109478628D01*
X106285714Y-109954819D02*
X106285714Y-108954819D01*
X106285714Y-108954819D02*
X106666666Y-108954819D01*
X106666666Y-108954819D02*
X106761904Y-109002438D01*
X106761904Y-109002438D02*
X106809523Y-109050057D01*
X106809523Y-109050057D02*
X106857142Y-109145295D01*
X106857142Y-109145295D02*
X106857142Y-109288152D01*
X106857142Y-109288152D02*
X106809523Y-109383390D01*
X106809523Y-109383390D02*
X106761904Y-109431009D01*
X106761904Y-109431009D02*
X106666666Y-109478628D01*
X106666666Y-109478628D02*
X106285714Y-109478628D01*
X107809523Y-109954819D02*
X107238095Y-109954819D01*
X107523809Y-109954819D02*
X107523809Y-108954819D01*
X107523809Y-108954819D02*
X107428571Y-109097676D01*
X107428571Y-109097676D02*
X107333333Y-109192914D01*
X107333333Y-109192914D02*
X107238095Y-109240533D01*
X108428571Y-108954819D02*
X108523809Y-108954819D01*
X108523809Y-108954819D02*
X108619047Y-109002438D01*
X108619047Y-109002438D02*
X108666666Y-109050057D01*
X108666666Y-109050057D02*
X108714285Y-109145295D01*
X108714285Y-109145295D02*
X108761904Y-109335771D01*
X108761904Y-109335771D02*
X108761904Y-109573866D01*
X108761904Y-109573866D02*
X108714285Y-109764342D01*
X108714285Y-109764342D02*
X108666666Y-109859580D01*
X108666666Y-109859580D02*
X108619047Y-109907200D01*
X108619047Y-109907200D02*
X108523809Y-109954819D01*
X108523809Y-109954819D02*
X108428571Y-109954819D01*
X108428571Y-109954819D02*
X108333333Y-109907200D01*
X108333333Y-109907200D02*
X108285714Y-109859580D01*
X108285714Y-109859580D02*
X108238095Y-109764342D01*
X108238095Y-109764342D02*
X108190476Y-109573866D01*
X108190476Y-109573866D02*
X108190476Y-109335771D01*
X108190476Y-109335771D02*
X108238095Y-109145295D01*
X108238095Y-109145295D02*
X108285714Y-109050057D01*
X108285714Y-109050057D02*
X108333333Y-109002438D01*
X108333333Y-109002438D02*
X108428571Y-108954819D01*
X110761905Y-109954819D02*
X110761905Y-108954819D01*
X110761905Y-108954819D02*
X111000000Y-108954819D01*
X111000000Y-108954819D02*
X111142857Y-109002438D01*
X111142857Y-109002438D02*
X111238095Y-109097676D01*
X111238095Y-109097676D02*
X111285714Y-109192914D01*
X111285714Y-109192914D02*
X111333333Y-109383390D01*
X111333333Y-109383390D02*
X111333333Y-109526247D01*
X111333333Y-109526247D02*
X111285714Y-109716723D01*
X111285714Y-109716723D02*
X111238095Y-109811961D01*
X111238095Y-109811961D02*
X111142857Y-109907200D01*
X111142857Y-109907200D02*
X111000000Y-109954819D01*
X111000000Y-109954819D02*
X110761905Y-109954819D01*
X112285714Y-109954819D02*
X111714286Y-109954819D01*
X112000000Y-109954819D02*
X112000000Y-108954819D01*
X112000000Y-108954819D02*
X111904762Y-109097676D01*
X111904762Y-109097676D02*
X111809524Y-109192914D01*
X111809524Y-109192914D02*
X111714286Y-109240533D01*
X178359580Y-115642857D02*
X178407200Y-115690476D01*
X178407200Y-115690476D02*
X178454819Y-115833333D01*
X178454819Y-115833333D02*
X178454819Y-115928571D01*
X178454819Y-115928571D02*
X178407200Y-116071428D01*
X178407200Y-116071428D02*
X178311961Y-116166666D01*
X178311961Y-116166666D02*
X178216723Y-116214285D01*
X178216723Y-116214285D02*
X178026247Y-116261904D01*
X178026247Y-116261904D02*
X177883390Y-116261904D01*
X177883390Y-116261904D02*
X177692914Y-116214285D01*
X177692914Y-116214285D02*
X177597676Y-116166666D01*
X177597676Y-116166666D02*
X177502438Y-116071428D01*
X177502438Y-116071428D02*
X177454819Y-115928571D01*
X177454819Y-115928571D02*
X177454819Y-115833333D01*
X177454819Y-115833333D02*
X177502438Y-115690476D01*
X177502438Y-115690476D02*
X177550057Y-115642857D01*
X177454819Y-115309523D02*
X177454819Y-114690476D01*
X177454819Y-114690476D02*
X177835771Y-115023809D01*
X177835771Y-115023809D02*
X177835771Y-114880952D01*
X177835771Y-114880952D02*
X177883390Y-114785714D01*
X177883390Y-114785714D02*
X177931009Y-114738095D01*
X177931009Y-114738095D02*
X178026247Y-114690476D01*
X178026247Y-114690476D02*
X178264342Y-114690476D01*
X178264342Y-114690476D02*
X178359580Y-114738095D01*
X178359580Y-114738095D02*
X178407200Y-114785714D01*
X178407200Y-114785714D02*
X178454819Y-114880952D01*
X178454819Y-114880952D02*
X178454819Y-115166666D01*
X178454819Y-115166666D02*
X178407200Y-115261904D01*
X178407200Y-115261904D02*
X178359580Y-115309523D01*
X177454819Y-114071428D02*
X177454819Y-113976190D01*
X177454819Y-113976190D02*
X177502438Y-113880952D01*
X177502438Y-113880952D02*
X177550057Y-113833333D01*
X177550057Y-113833333D02*
X177645295Y-113785714D01*
X177645295Y-113785714D02*
X177835771Y-113738095D01*
X177835771Y-113738095D02*
X178073866Y-113738095D01*
X178073866Y-113738095D02*
X178264342Y-113785714D01*
X178264342Y-113785714D02*
X178359580Y-113833333D01*
X178359580Y-113833333D02*
X178407200Y-113880952D01*
X178407200Y-113880952D02*
X178454819Y-113976190D01*
X178454819Y-113976190D02*
X178454819Y-114071428D01*
X178454819Y-114071428D02*
X178407200Y-114166666D01*
X178407200Y-114166666D02*
X178359580Y-114214285D01*
X178359580Y-114214285D02*
X178264342Y-114261904D01*
X178264342Y-114261904D02*
X178073866Y-114309523D01*
X178073866Y-114309523D02*
X177835771Y-114309523D01*
X177835771Y-114309523D02*
X177645295Y-114261904D01*
X177645295Y-114261904D02*
X177550057Y-114214285D01*
X177550057Y-114214285D02*
X177502438Y-114166666D01*
X177502438Y-114166666D02*
X177454819Y-114071428D01*
X140857142Y-97859580D02*
X140809523Y-97907200D01*
X140809523Y-97907200D02*
X140666666Y-97954819D01*
X140666666Y-97954819D02*
X140571428Y-97954819D01*
X140571428Y-97954819D02*
X140428571Y-97907200D01*
X140428571Y-97907200D02*
X140333333Y-97811961D01*
X140333333Y-97811961D02*
X140285714Y-97716723D01*
X140285714Y-97716723D02*
X140238095Y-97526247D01*
X140238095Y-97526247D02*
X140238095Y-97383390D01*
X140238095Y-97383390D02*
X140285714Y-97192914D01*
X140285714Y-97192914D02*
X140333333Y-97097676D01*
X140333333Y-97097676D02*
X140428571Y-97002438D01*
X140428571Y-97002438D02*
X140571428Y-96954819D01*
X140571428Y-96954819D02*
X140666666Y-96954819D01*
X140666666Y-96954819D02*
X140809523Y-97002438D01*
X140809523Y-97002438D02*
X140857142Y-97050057D01*
X141809523Y-97954819D02*
X141238095Y-97954819D01*
X141523809Y-97954819D02*
X141523809Y-96954819D01*
X141523809Y-96954819D02*
X141428571Y-97097676D01*
X141428571Y-97097676D02*
X141333333Y-97192914D01*
X141333333Y-97192914D02*
X141238095Y-97240533D01*
X142761904Y-97954819D02*
X142190476Y-97954819D01*
X142476190Y-97954819D02*
X142476190Y-96954819D01*
X142476190Y-96954819D02*
X142380952Y-97097676D01*
X142380952Y-97097676D02*
X142285714Y-97192914D01*
X142285714Y-97192914D02*
X142190476Y-97240533D01*
X146357142Y-97859580D02*
X146309523Y-97907200D01*
X146309523Y-97907200D02*
X146166666Y-97954819D01*
X146166666Y-97954819D02*
X146071428Y-97954819D01*
X146071428Y-97954819D02*
X145928571Y-97907200D01*
X145928571Y-97907200D02*
X145833333Y-97811961D01*
X145833333Y-97811961D02*
X145785714Y-97716723D01*
X145785714Y-97716723D02*
X145738095Y-97526247D01*
X145738095Y-97526247D02*
X145738095Y-97383390D01*
X145738095Y-97383390D02*
X145785714Y-97192914D01*
X145785714Y-97192914D02*
X145833333Y-97097676D01*
X145833333Y-97097676D02*
X145928571Y-97002438D01*
X145928571Y-97002438D02*
X146071428Y-96954819D01*
X146071428Y-96954819D02*
X146166666Y-96954819D01*
X146166666Y-96954819D02*
X146309523Y-97002438D01*
X146309523Y-97002438D02*
X146357142Y-97050057D01*
X147309523Y-97954819D02*
X146738095Y-97954819D01*
X147023809Y-97954819D02*
X147023809Y-96954819D01*
X147023809Y-96954819D02*
X146928571Y-97097676D01*
X146928571Y-97097676D02*
X146833333Y-97192914D01*
X146833333Y-97192914D02*
X146738095Y-97240533D01*
X147880952Y-97383390D02*
X147785714Y-97335771D01*
X147785714Y-97335771D02*
X147738095Y-97288152D01*
X147738095Y-97288152D02*
X147690476Y-97192914D01*
X147690476Y-97192914D02*
X147690476Y-97145295D01*
X147690476Y-97145295D02*
X147738095Y-97050057D01*
X147738095Y-97050057D02*
X147785714Y-97002438D01*
X147785714Y-97002438D02*
X147880952Y-96954819D01*
X147880952Y-96954819D02*
X148071428Y-96954819D01*
X148071428Y-96954819D02*
X148166666Y-97002438D01*
X148166666Y-97002438D02*
X148214285Y-97050057D01*
X148214285Y-97050057D02*
X148261904Y-97145295D01*
X148261904Y-97145295D02*
X148261904Y-97192914D01*
X148261904Y-97192914D02*
X148214285Y-97288152D01*
X148214285Y-97288152D02*
X148166666Y-97335771D01*
X148166666Y-97335771D02*
X148071428Y-97383390D01*
X148071428Y-97383390D02*
X147880952Y-97383390D01*
X147880952Y-97383390D02*
X147785714Y-97431009D01*
X147785714Y-97431009D02*
X147738095Y-97478628D01*
X147738095Y-97478628D02*
X147690476Y-97573866D01*
X147690476Y-97573866D02*
X147690476Y-97764342D01*
X147690476Y-97764342D02*
X147738095Y-97859580D01*
X147738095Y-97859580D02*
X147785714Y-97907200D01*
X147785714Y-97907200D02*
X147880952Y-97954819D01*
X147880952Y-97954819D02*
X148071428Y-97954819D01*
X148071428Y-97954819D02*
X148166666Y-97907200D01*
X148166666Y-97907200D02*
X148214285Y-97859580D01*
X148214285Y-97859580D02*
X148261904Y-97764342D01*
X148261904Y-97764342D02*
X148261904Y-97573866D01*
X148261904Y-97573866D02*
X148214285Y-97478628D01*
X148214285Y-97478628D02*
X148166666Y-97431009D01*
X148166666Y-97431009D02*
X148071428Y-97383390D01*
X141333333Y-80359580D02*
X141285714Y-80407200D01*
X141285714Y-80407200D02*
X141142857Y-80454819D01*
X141142857Y-80454819D02*
X141047619Y-80454819D01*
X141047619Y-80454819D02*
X140904762Y-80407200D01*
X140904762Y-80407200D02*
X140809524Y-80311961D01*
X140809524Y-80311961D02*
X140761905Y-80216723D01*
X140761905Y-80216723D02*
X140714286Y-80026247D01*
X140714286Y-80026247D02*
X140714286Y-79883390D01*
X140714286Y-79883390D02*
X140761905Y-79692914D01*
X140761905Y-79692914D02*
X140809524Y-79597676D01*
X140809524Y-79597676D02*
X140904762Y-79502438D01*
X140904762Y-79502438D02*
X141047619Y-79454819D01*
X141047619Y-79454819D02*
X141142857Y-79454819D01*
X141142857Y-79454819D02*
X141285714Y-79502438D01*
X141285714Y-79502438D02*
X141333333Y-79550057D01*
X142190476Y-79454819D02*
X142000000Y-79454819D01*
X142000000Y-79454819D02*
X141904762Y-79502438D01*
X141904762Y-79502438D02*
X141857143Y-79550057D01*
X141857143Y-79550057D02*
X141761905Y-79692914D01*
X141761905Y-79692914D02*
X141714286Y-79883390D01*
X141714286Y-79883390D02*
X141714286Y-80264342D01*
X141714286Y-80264342D02*
X141761905Y-80359580D01*
X141761905Y-80359580D02*
X141809524Y-80407200D01*
X141809524Y-80407200D02*
X141904762Y-80454819D01*
X141904762Y-80454819D02*
X142095238Y-80454819D01*
X142095238Y-80454819D02*
X142190476Y-80407200D01*
X142190476Y-80407200D02*
X142238095Y-80359580D01*
X142238095Y-80359580D02*
X142285714Y-80264342D01*
X142285714Y-80264342D02*
X142285714Y-80026247D01*
X142285714Y-80026247D02*
X142238095Y-79931009D01*
X142238095Y-79931009D02*
X142190476Y-79883390D01*
X142190476Y-79883390D02*
X142095238Y-79835771D01*
X142095238Y-79835771D02*
X141904762Y-79835771D01*
X141904762Y-79835771D02*
X141809524Y-79883390D01*
X141809524Y-79883390D02*
X141761905Y-79931009D01*
X141761905Y-79931009D02*
X141714286Y-80026247D01*
D12*
X178576667Y-105804318D02*
X178576667Y-106711461D01*
X178576667Y-106711461D02*
X178516190Y-106892889D01*
X178516190Y-106892889D02*
X178395238Y-107013842D01*
X178395238Y-107013842D02*
X178213809Y-107074318D01*
X178213809Y-107074318D02*
X178092857Y-107074318D01*
X179786190Y-105804318D02*
X179181428Y-105804318D01*
X179181428Y-105804318D02*
X179120952Y-106409080D01*
X179120952Y-106409080D02*
X179181428Y-106348603D01*
X179181428Y-106348603D02*
X179302381Y-106288127D01*
X179302381Y-106288127D02*
X179604762Y-106288127D01*
X179604762Y-106288127D02*
X179725714Y-106348603D01*
X179725714Y-106348603D02*
X179786190Y-106409080D01*
X179786190Y-106409080D02*
X179846667Y-106530032D01*
X179846667Y-106530032D02*
X179846667Y-106832413D01*
X179846667Y-106832413D02*
X179786190Y-106953365D01*
X179786190Y-106953365D02*
X179725714Y-107013842D01*
X179725714Y-107013842D02*
X179604762Y-107074318D01*
X179604762Y-107074318D02*
X179302381Y-107074318D01*
X179302381Y-107074318D02*
X179181428Y-107013842D01*
X179181428Y-107013842D02*
X179120952Y-106953365D01*
X134048237Y-83574318D02*
X134048237Y-82304318D01*
X135378714Y-83453365D02*
X135318238Y-83513842D01*
X135318238Y-83513842D02*
X135136809Y-83574318D01*
X135136809Y-83574318D02*
X135015857Y-83574318D01*
X135015857Y-83574318D02*
X134834428Y-83513842D01*
X134834428Y-83513842D02*
X134713476Y-83392889D01*
X134713476Y-83392889D02*
X134652999Y-83271937D01*
X134652999Y-83271937D02*
X134592523Y-83030032D01*
X134592523Y-83030032D02*
X134592523Y-82848603D01*
X134592523Y-82848603D02*
X134652999Y-82606699D01*
X134652999Y-82606699D02*
X134713476Y-82485746D01*
X134713476Y-82485746D02*
X134834428Y-82364794D01*
X134834428Y-82364794D02*
X135015857Y-82304318D01*
X135015857Y-82304318D02*
X135136809Y-82304318D01*
X135136809Y-82304318D02*
X135318238Y-82364794D01*
X135318238Y-82364794D02*
X135378714Y-82425270D01*
X136588238Y-83574318D02*
X135862523Y-83574318D01*
X136225380Y-83574318D02*
X136225380Y-82304318D01*
X136225380Y-82304318D02*
X136104428Y-82485746D01*
X136104428Y-82485746D02*
X135983476Y-82606699D01*
X135983476Y-82606699D02*
X135862523Y-82667175D01*
D10*
X181454819Y-115166666D02*
X180978628Y-115499999D01*
X181454819Y-115738094D02*
X180454819Y-115738094D01*
X180454819Y-115738094D02*
X180454819Y-115357142D01*
X180454819Y-115357142D02*
X180502438Y-115261904D01*
X180502438Y-115261904D02*
X180550057Y-115214285D01*
X180550057Y-115214285D02*
X180645295Y-115166666D01*
X180645295Y-115166666D02*
X180788152Y-115166666D01*
X180788152Y-115166666D02*
X180883390Y-115214285D01*
X180883390Y-115214285D02*
X180931009Y-115261904D01*
X180931009Y-115261904D02*
X180978628Y-115357142D01*
X180978628Y-115357142D02*
X180978628Y-115738094D01*
X181454819Y-114690475D02*
X181454819Y-114499999D01*
X181454819Y-114499999D02*
X181407200Y-114404761D01*
X181407200Y-114404761D02*
X181359580Y-114357142D01*
X181359580Y-114357142D02*
X181216723Y-114261904D01*
X181216723Y-114261904D02*
X181026247Y-114214285D01*
X181026247Y-114214285D02*
X180645295Y-114214285D01*
X180645295Y-114214285D02*
X180550057Y-114261904D01*
X180550057Y-114261904D02*
X180502438Y-114309523D01*
X180502438Y-114309523D02*
X180454819Y-114404761D01*
X180454819Y-114404761D02*
X180454819Y-114595237D01*
X180454819Y-114595237D02*
X180502438Y-114690475D01*
X180502438Y-114690475D02*
X180550057Y-114738094D01*
X180550057Y-114738094D02*
X180645295Y-114785713D01*
X180645295Y-114785713D02*
X180883390Y-114785713D01*
X180883390Y-114785713D02*
X180978628Y-114738094D01*
X180978628Y-114738094D02*
X181026247Y-114690475D01*
X181026247Y-114690475D02*
X181073866Y-114595237D01*
X181073866Y-114595237D02*
X181073866Y-114404761D01*
X181073866Y-114404761D02*
X181026247Y-114309523D01*
X181026247Y-114309523D02*
X180978628Y-114261904D01*
X180978628Y-114261904D02*
X180883390Y-114214285D01*
D13*
X138214285Y-110219161D02*
X138119047Y-110314400D01*
X138119047Y-110314400D02*
X137833333Y-110409638D01*
X137833333Y-110409638D02*
X137642857Y-110409638D01*
X137642857Y-110409638D02*
X137357142Y-110314400D01*
X137357142Y-110314400D02*
X137166666Y-110123923D01*
X137166666Y-110123923D02*
X137071428Y-109933447D01*
X137071428Y-109933447D02*
X136976190Y-109552495D01*
X136976190Y-109552495D02*
X136976190Y-109266780D01*
X136976190Y-109266780D02*
X137071428Y-108885828D01*
X137071428Y-108885828D02*
X137166666Y-108695352D01*
X137166666Y-108695352D02*
X137357142Y-108504876D01*
X137357142Y-108504876D02*
X137642857Y-108409638D01*
X137642857Y-108409638D02*
X137833333Y-108409638D01*
X137833333Y-108409638D02*
X138119047Y-108504876D01*
X138119047Y-108504876D02*
X138214285Y-108600114D01*
X140119047Y-110409638D02*
X138976190Y-110409638D01*
X139547618Y-110409638D02*
X139547618Y-108409638D01*
X139547618Y-108409638D02*
X139357142Y-108695352D01*
X139357142Y-108695352D02*
X139166666Y-108885828D01*
X139166666Y-108885828D02*
X138976190Y-108981066D01*
X140880952Y-108600114D02*
X140976190Y-108504876D01*
X140976190Y-108504876D02*
X141166666Y-108409638D01*
X141166666Y-108409638D02*
X141642857Y-108409638D01*
X141642857Y-108409638D02*
X141833333Y-108504876D01*
X141833333Y-108504876D02*
X141928571Y-108600114D01*
X141928571Y-108600114D02*
X142023809Y-108790590D01*
X142023809Y-108790590D02*
X142023809Y-108981066D01*
X142023809Y-108981066D02*
X141928571Y-109266780D01*
X141928571Y-109266780D02*
X140785714Y-110409638D01*
X140785714Y-110409638D02*
X142023809Y-110409638D01*
X139666666Y-68224184D02*
X139571428Y-68319423D01*
X139571428Y-68319423D02*
X139285714Y-68414661D01*
X139285714Y-68414661D02*
X139095238Y-68414661D01*
X139095238Y-68414661D02*
X138809523Y-68319423D01*
X138809523Y-68319423D02*
X138619047Y-68128946D01*
X138619047Y-68128946D02*
X138523809Y-67938470D01*
X138523809Y-67938470D02*
X138428571Y-67557518D01*
X138428571Y-67557518D02*
X138428571Y-67271803D01*
X138428571Y-67271803D02*
X138523809Y-66890851D01*
X138523809Y-66890851D02*
X138619047Y-66700375D01*
X138619047Y-66700375D02*
X138809523Y-66509899D01*
X138809523Y-66509899D02*
X139095238Y-66414661D01*
X139095238Y-66414661D02*
X139285714Y-66414661D01*
X139285714Y-66414661D02*
X139571428Y-66509899D01*
X139571428Y-66509899D02*
X139666666Y-66605137D01*
X140619047Y-68414661D02*
X140999999Y-68414661D01*
X140999999Y-68414661D02*
X141190476Y-68319423D01*
X141190476Y-68319423D02*
X141285714Y-68224184D01*
X141285714Y-68224184D02*
X141476190Y-67938470D01*
X141476190Y-67938470D02*
X141571428Y-67557518D01*
X141571428Y-67557518D02*
X141571428Y-66795613D01*
X141571428Y-66795613D02*
X141476190Y-66605137D01*
X141476190Y-66605137D02*
X141380952Y-66509899D01*
X141380952Y-66509899D02*
X141190476Y-66414661D01*
X141190476Y-66414661D02*
X140809523Y-66414661D01*
X140809523Y-66414661D02*
X140619047Y-66509899D01*
X140619047Y-66509899D02*
X140523809Y-66605137D01*
X140523809Y-66605137D02*
X140428571Y-66795613D01*
X140428571Y-66795613D02*
X140428571Y-67271803D01*
X140428571Y-67271803D02*
X140523809Y-67462280D01*
X140523809Y-67462280D02*
X140619047Y-67557518D01*
X140619047Y-67557518D02*
X140809523Y-67652756D01*
X140809523Y-67652756D02*
X141190476Y-67652756D01*
X141190476Y-67652756D02*
X141380952Y-67557518D01*
X141380952Y-67557518D02*
X141476190Y-67462280D01*
X141476190Y-67462280D02*
X141571428Y-67271803D01*
D10*
X126833333Y-89354819D02*
X126500000Y-88878628D01*
X126261905Y-89354819D02*
X126261905Y-88354819D01*
X126261905Y-88354819D02*
X126642857Y-88354819D01*
X126642857Y-88354819D02*
X126738095Y-88402438D01*
X126738095Y-88402438D02*
X126785714Y-88450057D01*
X126785714Y-88450057D02*
X126833333Y-88545295D01*
X126833333Y-88545295D02*
X126833333Y-88688152D01*
X126833333Y-88688152D02*
X126785714Y-88783390D01*
X126785714Y-88783390D02*
X126738095Y-88831009D01*
X126738095Y-88831009D02*
X126642857Y-88878628D01*
X126642857Y-88878628D02*
X126261905Y-88878628D01*
X127214286Y-88450057D02*
X127261905Y-88402438D01*
X127261905Y-88402438D02*
X127357143Y-88354819D01*
X127357143Y-88354819D02*
X127595238Y-88354819D01*
X127595238Y-88354819D02*
X127690476Y-88402438D01*
X127690476Y-88402438D02*
X127738095Y-88450057D01*
X127738095Y-88450057D02*
X127785714Y-88545295D01*
X127785714Y-88545295D02*
X127785714Y-88640533D01*
X127785714Y-88640533D02*
X127738095Y-88783390D01*
X127738095Y-88783390D02*
X127166667Y-89354819D01*
X127166667Y-89354819D02*
X127785714Y-89354819D01*
D12*
X162788333Y-66574318D02*
X162183571Y-66574318D01*
X162183571Y-66574318D02*
X162183571Y-65304318D01*
X163876905Y-66574318D02*
X163151190Y-66574318D01*
X163514047Y-66574318D02*
X163514047Y-65304318D01*
X163514047Y-65304318D02*
X163393095Y-65485746D01*
X163393095Y-65485746D02*
X163272143Y-65606699D01*
X163272143Y-65606699D02*
X163151190Y-65667175D01*
D10*
X181454819Y-84666666D02*
X180978628Y-84999999D01*
X181454819Y-85238094D02*
X180454819Y-85238094D01*
X180454819Y-85238094D02*
X180454819Y-84857142D01*
X180454819Y-84857142D02*
X180502438Y-84761904D01*
X180502438Y-84761904D02*
X180550057Y-84714285D01*
X180550057Y-84714285D02*
X180645295Y-84666666D01*
X180645295Y-84666666D02*
X180788152Y-84666666D01*
X180788152Y-84666666D02*
X180883390Y-84714285D01*
X180883390Y-84714285D02*
X180931009Y-84761904D01*
X180931009Y-84761904D02*
X180978628Y-84857142D01*
X180978628Y-84857142D02*
X180978628Y-85238094D01*
X180454819Y-84333332D02*
X180454819Y-83666666D01*
X180454819Y-83666666D02*
X181454819Y-84095237D01*
X120833333Y-83359580D02*
X120785714Y-83407200D01*
X120785714Y-83407200D02*
X120642857Y-83454819D01*
X120642857Y-83454819D02*
X120547619Y-83454819D01*
X120547619Y-83454819D02*
X120404762Y-83407200D01*
X120404762Y-83407200D02*
X120309524Y-83311961D01*
X120309524Y-83311961D02*
X120261905Y-83216723D01*
X120261905Y-83216723D02*
X120214286Y-83026247D01*
X120214286Y-83026247D02*
X120214286Y-82883390D01*
X120214286Y-82883390D02*
X120261905Y-82692914D01*
X120261905Y-82692914D02*
X120309524Y-82597676D01*
X120309524Y-82597676D02*
X120404762Y-82502438D01*
X120404762Y-82502438D02*
X120547619Y-82454819D01*
X120547619Y-82454819D02*
X120642857Y-82454819D01*
X120642857Y-82454819D02*
X120785714Y-82502438D01*
X120785714Y-82502438D02*
X120833333Y-82550057D01*
X121690476Y-82788152D02*
X121690476Y-83454819D01*
X121452381Y-82407200D02*
X121214286Y-83121485D01*
X121214286Y-83121485D02*
X121833333Y-83121485D01*
D12*
X162788333Y-97574318D02*
X162183571Y-97574318D01*
X162183571Y-97574318D02*
X162183571Y-96304318D01*
X163090714Y-96304318D02*
X163876905Y-96304318D01*
X163876905Y-96304318D02*
X163453571Y-96788127D01*
X163453571Y-96788127D02*
X163635000Y-96788127D01*
X163635000Y-96788127D02*
X163755952Y-96848603D01*
X163755952Y-96848603D02*
X163816428Y-96909080D01*
X163816428Y-96909080D02*
X163876905Y-97030032D01*
X163876905Y-97030032D02*
X163876905Y-97332413D01*
X163876905Y-97332413D02*
X163816428Y-97453365D01*
X163816428Y-97453365D02*
X163755952Y-97513842D01*
X163755952Y-97513842D02*
X163635000Y-97574318D01*
X163635000Y-97574318D02*
X163272143Y-97574318D01*
X163272143Y-97574318D02*
X163151190Y-97513842D01*
X163151190Y-97513842D02*
X163090714Y-97453365D01*
X105076667Y-105804318D02*
X105076667Y-106711461D01*
X105076667Y-106711461D02*
X105016190Y-106892889D01*
X105016190Y-106892889D02*
X104895238Y-107013842D01*
X104895238Y-107013842D02*
X104713809Y-107074318D01*
X104713809Y-107074318D02*
X104592857Y-107074318D01*
X105560476Y-105804318D02*
X106346667Y-105804318D01*
X106346667Y-105804318D02*
X105923333Y-106288127D01*
X105923333Y-106288127D02*
X106104762Y-106288127D01*
X106104762Y-106288127D02*
X106225714Y-106348603D01*
X106225714Y-106348603D02*
X106286190Y-106409080D01*
X106286190Y-106409080D02*
X106346667Y-106530032D01*
X106346667Y-106530032D02*
X106346667Y-106832413D01*
X106346667Y-106832413D02*
X106286190Y-106953365D01*
X106286190Y-106953365D02*
X106225714Y-107013842D01*
X106225714Y-107013842D02*
X106104762Y-107074318D01*
X106104762Y-107074318D02*
X105741905Y-107074318D01*
X105741905Y-107074318D02*
X105620952Y-107013842D01*
X105620952Y-107013842D02*
X105560476Y-106953365D01*
D10*
X120833333Y-74359580D02*
X120785714Y-74407200D01*
X120785714Y-74407200D02*
X120642857Y-74454819D01*
X120642857Y-74454819D02*
X120547619Y-74454819D01*
X120547619Y-74454819D02*
X120404762Y-74407200D01*
X120404762Y-74407200D02*
X120309524Y-74311961D01*
X120309524Y-74311961D02*
X120261905Y-74216723D01*
X120261905Y-74216723D02*
X120214286Y-74026247D01*
X120214286Y-74026247D02*
X120214286Y-73883390D01*
X120214286Y-73883390D02*
X120261905Y-73692914D01*
X120261905Y-73692914D02*
X120309524Y-73597676D01*
X120309524Y-73597676D02*
X120404762Y-73502438D01*
X120404762Y-73502438D02*
X120547619Y-73454819D01*
X120547619Y-73454819D02*
X120642857Y-73454819D01*
X120642857Y-73454819D02*
X120785714Y-73502438D01*
X120785714Y-73502438D02*
X120833333Y-73550057D01*
X121785714Y-74454819D02*
X121214286Y-74454819D01*
X121500000Y-74454819D02*
X121500000Y-73454819D01*
X121500000Y-73454819D02*
X121404762Y-73597676D01*
X121404762Y-73597676D02*
X121309524Y-73692914D01*
X121309524Y-73692914D02*
X121214286Y-73740533D01*
X120833333Y-77359580D02*
X120785714Y-77407200D01*
X120785714Y-77407200D02*
X120642857Y-77454819D01*
X120642857Y-77454819D02*
X120547619Y-77454819D01*
X120547619Y-77454819D02*
X120404762Y-77407200D01*
X120404762Y-77407200D02*
X120309524Y-77311961D01*
X120309524Y-77311961D02*
X120261905Y-77216723D01*
X120261905Y-77216723D02*
X120214286Y-77026247D01*
X120214286Y-77026247D02*
X120214286Y-76883390D01*
X120214286Y-76883390D02*
X120261905Y-76692914D01*
X120261905Y-76692914D02*
X120309524Y-76597676D01*
X120309524Y-76597676D02*
X120404762Y-76502438D01*
X120404762Y-76502438D02*
X120547619Y-76454819D01*
X120547619Y-76454819D02*
X120642857Y-76454819D01*
X120642857Y-76454819D02*
X120785714Y-76502438D01*
X120785714Y-76502438D02*
X120833333Y-76550057D01*
X121214286Y-76550057D02*
X121261905Y-76502438D01*
X121261905Y-76502438D02*
X121357143Y-76454819D01*
X121357143Y-76454819D02*
X121595238Y-76454819D01*
X121595238Y-76454819D02*
X121690476Y-76502438D01*
X121690476Y-76502438D02*
X121738095Y-76550057D01*
X121738095Y-76550057D02*
X121785714Y-76645295D01*
X121785714Y-76645295D02*
X121785714Y-76740533D01*
X121785714Y-76740533D02*
X121738095Y-76883390D01*
X121738095Y-76883390D02*
X121166667Y-77454819D01*
X121166667Y-77454819D02*
X121785714Y-77454819D01*
D12*
X162788333Y-109574318D02*
X162183571Y-109574318D01*
X162183571Y-109574318D02*
X162183571Y-108304318D01*
X163755952Y-108727651D02*
X163755952Y-109574318D01*
X163453571Y-108243842D02*
X163151190Y-109150984D01*
X163151190Y-109150984D02*
X163937381Y-109150984D01*
D10*
X175359580Y-116142857D02*
X175407200Y-116190476D01*
X175407200Y-116190476D02*
X175454819Y-116333333D01*
X175454819Y-116333333D02*
X175454819Y-116428571D01*
X175454819Y-116428571D02*
X175407200Y-116571428D01*
X175407200Y-116571428D02*
X175311961Y-116666666D01*
X175311961Y-116666666D02*
X175216723Y-116714285D01*
X175216723Y-116714285D02*
X175026247Y-116761904D01*
X175026247Y-116761904D02*
X174883390Y-116761904D01*
X174883390Y-116761904D02*
X174692914Y-116714285D01*
X174692914Y-116714285D02*
X174597676Y-116666666D01*
X174597676Y-116666666D02*
X174502438Y-116571428D01*
X174502438Y-116571428D02*
X174454819Y-116428571D01*
X174454819Y-116428571D02*
X174454819Y-116333333D01*
X174454819Y-116333333D02*
X174502438Y-116190476D01*
X174502438Y-116190476D02*
X174550057Y-116142857D01*
X174550057Y-115761904D02*
X174502438Y-115714285D01*
X174502438Y-115714285D02*
X174454819Y-115619047D01*
X174454819Y-115619047D02*
X174454819Y-115380952D01*
X174454819Y-115380952D02*
X174502438Y-115285714D01*
X174502438Y-115285714D02*
X174550057Y-115238095D01*
X174550057Y-115238095D02*
X174645295Y-115190476D01*
X174645295Y-115190476D02*
X174740533Y-115190476D01*
X174740533Y-115190476D02*
X174883390Y-115238095D01*
X174883390Y-115238095D02*
X175454819Y-115809523D01*
X175454819Y-115809523D02*
X175454819Y-115190476D01*
X174883390Y-114619047D02*
X174835771Y-114714285D01*
X174835771Y-114714285D02*
X174788152Y-114761904D01*
X174788152Y-114761904D02*
X174692914Y-114809523D01*
X174692914Y-114809523D02*
X174645295Y-114809523D01*
X174645295Y-114809523D02*
X174550057Y-114761904D01*
X174550057Y-114761904D02*
X174502438Y-114714285D01*
X174502438Y-114714285D02*
X174454819Y-114619047D01*
X174454819Y-114619047D02*
X174454819Y-114428571D01*
X174454819Y-114428571D02*
X174502438Y-114333333D01*
X174502438Y-114333333D02*
X174550057Y-114285714D01*
X174550057Y-114285714D02*
X174645295Y-114238095D01*
X174645295Y-114238095D02*
X174692914Y-114238095D01*
X174692914Y-114238095D02*
X174788152Y-114285714D01*
X174788152Y-114285714D02*
X174835771Y-114333333D01*
X174835771Y-114333333D02*
X174883390Y-114428571D01*
X174883390Y-114428571D02*
X174883390Y-114619047D01*
X174883390Y-114619047D02*
X174931009Y-114714285D01*
X174931009Y-114714285D02*
X174978628Y-114761904D01*
X174978628Y-114761904D02*
X175073866Y-114809523D01*
X175073866Y-114809523D02*
X175264342Y-114809523D01*
X175264342Y-114809523D02*
X175359580Y-114761904D01*
X175359580Y-114761904D02*
X175407200Y-114714285D01*
X175407200Y-114714285D02*
X175454819Y-114619047D01*
X175454819Y-114619047D02*
X175454819Y-114428571D01*
X175454819Y-114428571D02*
X175407200Y-114333333D01*
X175407200Y-114333333D02*
X175359580Y-114285714D01*
X175359580Y-114285714D02*
X175264342Y-114238095D01*
X175264342Y-114238095D02*
X175073866Y-114238095D01*
X175073866Y-114238095D02*
X174978628Y-114285714D01*
X174978628Y-114285714D02*
X174931009Y-114333333D01*
X174931009Y-114333333D02*
X174883390Y-114428571D01*
X178359580Y-85142857D02*
X178407200Y-85190476D01*
X178407200Y-85190476D02*
X178454819Y-85333333D01*
X178454819Y-85333333D02*
X178454819Y-85428571D01*
X178454819Y-85428571D02*
X178407200Y-85571428D01*
X178407200Y-85571428D02*
X178311961Y-85666666D01*
X178311961Y-85666666D02*
X178216723Y-85714285D01*
X178216723Y-85714285D02*
X178026247Y-85761904D01*
X178026247Y-85761904D02*
X177883390Y-85761904D01*
X177883390Y-85761904D02*
X177692914Y-85714285D01*
X177692914Y-85714285D02*
X177597676Y-85666666D01*
X177597676Y-85666666D02*
X177502438Y-85571428D01*
X177502438Y-85571428D02*
X177454819Y-85428571D01*
X177454819Y-85428571D02*
X177454819Y-85333333D01*
X177454819Y-85333333D02*
X177502438Y-85190476D01*
X177502438Y-85190476D02*
X177550057Y-85142857D01*
X177550057Y-84761904D02*
X177502438Y-84714285D01*
X177502438Y-84714285D02*
X177454819Y-84619047D01*
X177454819Y-84619047D02*
X177454819Y-84380952D01*
X177454819Y-84380952D02*
X177502438Y-84285714D01*
X177502438Y-84285714D02*
X177550057Y-84238095D01*
X177550057Y-84238095D02*
X177645295Y-84190476D01*
X177645295Y-84190476D02*
X177740533Y-84190476D01*
X177740533Y-84190476D02*
X177883390Y-84238095D01*
X177883390Y-84238095D02*
X178454819Y-84809523D01*
X178454819Y-84809523D02*
X178454819Y-84190476D01*
X177788152Y-83333333D02*
X178454819Y-83333333D01*
X177407200Y-83571428D02*
X178121485Y-83809523D01*
X178121485Y-83809523D02*
X178121485Y-83190476D01*
D12*
X178576667Y-74804318D02*
X178576667Y-75711461D01*
X178576667Y-75711461D02*
X178516190Y-75892889D01*
X178516190Y-75892889D02*
X178395238Y-76013842D01*
X178395238Y-76013842D02*
X178213809Y-76074318D01*
X178213809Y-76074318D02*
X178092857Y-76074318D01*
X179725714Y-75227651D02*
X179725714Y-76074318D01*
X179423333Y-74743842D02*
X179120952Y-75650984D01*
X179120952Y-75650984D02*
X179907143Y-75650984D01*
D10*
X140857142Y-94859580D02*
X140809523Y-94907200D01*
X140809523Y-94907200D02*
X140666666Y-94954819D01*
X140666666Y-94954819D02*
X140571428Y-94954819D01*
X140571428Y-94954819D02*
X140428571Y-94907200D01*
X140428571Y-94907200D02*
X140333333Y-94811961D01*
X140333333Y-94811961D02*
X140285714Y-94716723D01*
X140285714Y-94716723D02*
X140238095Y-94526247D01*
X140238095Y-94526247D02*
X140238095Y-94383390D01*
X140238095Y-94383390D02*
X140285714Y-94192914D01*
X140285714Y-94192914D02*
X140333333Y-94097676D01*
X140333333Y-94097676D02*
X140428571Y-94002438D01*
X140428571Y-94002438D02*
X140571428Y-93954819D01*
X140571428Y-93954819D02*
X140666666Y-93954819D01*
X140666666Y-93954819D02*
X140809523Y-94002438D01*
X140809523Y-94002438D02*
X140857142Y-94050057D01*
X141809523Y-94954819D02*
X141238095Y-94954819D01*
X141523809Y-94954819D02*
X141523809Y-93954819D01*
X141523809Y-93954819D02*
X141428571Y-94097676D01*
X141428571Y-94097676D02*
X141333333Y-94192914D01*
X141333333Y-94192914D02*
X141238095Y-94240533D01*
X142428571Y-93954819D02*
X142523809Y-93954819D01*
X142523809Y-93954819D02*
X142619047Y-94002438D01*
X142619047Y-94002438D02*
X142666666Y-94050057D01*
X142666666Y-94050057D02*
X142714285Y-94145295D01*
X142714285Y-94145295D02*
X142761904Y-94335771D01*
X142761904Y-94335771D02*
X142761904Y-94573866D01*
X142761904Y-94573866D02*
X142714285Y-94764342D01*
X142714285Y-94764342D02*
X142666666Y-94859580D01*
X142666666Y-94859580D02*
X142619047Y-94907200D01*
X142619047Y-94907200D02*
X142523809Y-94954819D01*
X142523809Y-94954819D02*
X142428571Y-94954819D01*
X142428571Y-94954819D02*
X142333333Y-94907200D01*
X142333333Y-94907200D02*
X142285714Y-94859580D01*
X142285714Y-94859580D02*
X142238095Y-94764342D01*
X142238095Y-94764342D02*
X142190476Y-94573866D01*
X142190476Y-94573866D02*
X142190476Y-94335771D01*
X142190476Y-94335771D02*
X142238095Y-94145295D01*
X142238095Y-94145295D02*
X142285714Y-94050057D01*
X142285714Y-94050057D02*
X142333333Y-94002438D01*
X142333333Y-94002438D02*
X142428571Y-93954819D01*
D12*
X162788333Y-78574318D02*
X162183571Y-78574318D01*
X162183571Y-78574318D02*
X162183571Y-77304318D01*
X163151190Y-77425270D02*
X163211666Y-77364794D01*
X163211666Y-77364794D02*
X163332619Y-77304318D01*
X163332619Y-77304318D02*
X163635000Y-77304318D01*
X163635000Y-77304318D02*
X163755952Y-77364794D01*
X163755952Y-77364794D02*
X163816428Y-77425270D01*
X163816428Y-77425270D02*
X163876905Y-77546222D01*
X163876905Y-77546222D02*
X163876905Y-77667175D01*
X163876905Y-77667175D02*
X163816428Y-77848603D01*
X163816428Y-77848603D02*
X163090714Y-78574318D01*
X163090714Y-78574318D02*
X163876905Y-78574318D01*
D10*
X120833333Y-80359580D02*
X120785714Y-80407200D01*
X120785714Y-80407200D02*
X120642857Y-80454819D01*
X120642857Y-80454819D02*
X120547619Y-80454819D01*
X120547619Y-80454819D02*
X120404762Y-80407200D01*
X120404762Y-80407200D02*
X120309524Y-80311961D01*
X120309524Y-80311961D02*
X120261905Y-80216723D01*
X120261905Y-80216723D02*
X120214286Y-80026247D01*
X120214286Y-80026247D02*
X120214286Y-79883390D01*
X120214286Y-79883390D02*
X120261905Y-79692914D01*
X120261905Y-79692914D02*
X120309524Y-79597676D01*
X120309524Y-79597676D02*
X120404762Y-79502438D01*
X120404762Y-79502438D02*
X120547619Y-79454819D01*
X120547619Y-79454819D02*
X120642857Y-79454819D01*
X120642857Y-79454819D02*
X120785714Y-79502438D01*
X120785714Y-79502438D02*
X120833333Y-79550057D01*
X121166667Y-79454819D02*
X121785714Y-79454819D01*
X121785714Y-79454819D02*
X121452381Y-79835771D01*
X121452381Y-79835771D02*
X121595238Y-79835771D01*
X121595238Y-79835771D02*
X121690476Y-79883390D01*
X121690476Y-79883390D02*
X121738095Y-79931009D01*
X121738095Y-79931009D02*
X121785714Y-80026247D01*
X121785714Y-80026247D02*
X121785714Y-80264342D01*
X121785714Y-80264342D02*
X121738095Y-80359580D01*
X121738095Y-80359580D02*
X121690476Y-80407200D01*
X121690476Y-80407200D02*
X121595238Y-80454819D01*
X121595238Y-80454819D02*
X121309524Y-80454819D01*
X121309524Y-80454819D02*
X121214286Y-80407200D01*
X121214286Y-80407200D02*
X121166667Y-80359580D01*
X178359580Y-60642857D02*
X178407200Y-60690476D01*
X178407200Y-60690476D02*
X178454819Y-60833333D01*
X178454819Y-60833333D02*
X178454819Y-60928571D01*
X178454819Y-60928571D02*
X178407200Y-61071428D01*
X178407200Y-61071428D02*
X178311961Y-61166666D01*
X178311961Y-61166666D02*
X178216723Y-61214285D01*
X178216723Y-61214285D02*
X178026247Y-61261904D01*
X178026247Y-61261904D02*
X177883390Y-61261904D01*
X177883390Y-61261904D02*
X177692914Y-61214285D01*
X177692914Y-61214285D02*
X177597676Y-61166666D01*
X177597676Y-61166666D02*
X177502438Y-61071428D01*
X177502438Y-61071428D02*
X177454819Y-60928571D01*
X177454819Y-60928571D02*
X177454819Y-60833333D01*
X177454819Y-60833333D02*
X177502438Y-60690476D01*
X177502438Y-60690476D02*
X177550057Y-60642857D01*
X177550057Y-60261904D02*
X177502438Y-60214285D01*
X177502438Y-60214285D02*
X177454819Y-60119047D01*
X177454819Y-60119047D02*
X177454819Y-59880952D01*
X177454819Y-59880952D02*
X177502438Y-59785714D01*
X177502438Y-59785714D02*
X177550057Y-59738095D01*
X177550057Y-59738095D02*
X177645295Y-59690476D01*
X177645295Y-59690476D02*
X177740533Y-59690476D01*
X177740533Y-59690476D02*
X177883390Y-59738095D01*
X177883390Y-59738095D02*
X178454819Y-60309523D01*
X178454819Y-60309523D02*
X178454819Y-59690476D01*
X177454819Y-59357142D02*
X177454819Y-58738095D01*
X177454819Y-58738095D02*
X177835771Y-59071428D01*
X177835771Y-59071428D02*
X177835771Y-58928571D01*
X177835771Y-58928571D02*
X177883390Y-58833333D01*
X177883390Y-58833333D02*
X177931009Y-58785714D01*
X177931009Y-58785714D02*
X178026247Y-58738095D01*
X178026247Y-58738095D02*
X178264342Y-58738095D01*
X178264342Y-58738095D02*
X178359580Y-58785714D01*
X178359580Y-58785714D02*
X178407200Y-58833333D01*
X178407200Y-58833333D02*
X178454819Y-58928571D01*
X178454819Y-58928571D02*
X178454819Y-59214285D01*
X178454819Y-59214285D02*
X178407200Y-59309523D01*
X178407200Y-59309523D02*
X178359580Y-59357142D01*
X178359580Y-91642857D02*
X178407200Y-91690476D01*
X178407200Y-91690476D02*
X178454819Y-91833333D01*
X178454819Y-91833333D02*
X178454819Y-91928571D01*
X178454819Y-91928571D02*
X178407200Y-92071428D01*
X178407200Y-92071428D02*
X178311961Y-92166666D01*
X178311961Y-92166666D02*
X178216723Y-92214285D01*
X178216723Y-92214285D02*
X178026247Y-92261904D01*
X178026247Y-92261904D02*
X177883390Y-92261904D01*
X177883390Y-92261904D02*
X177692914Y-92214285D01*
X177692914Y-92214285D02*
X177597676Y-92166666D01*
X177597676Y-92166666D02*
X177502438Y-92071428D01*
X177502438Y-92071428D02*
X177454819Y-91928571D01*
X177454819Y-91928571D02*
X177454819Y-91833333D01*
X177454819Y-91833333D02*
X177502438Y-91690476D01*
X177502438Y-91690476D02*
X177550057Y-91642857D01*
X177550057Y-91261904D02*
X177502438Y-91214285D01*
X177502438Y-91214285D02*
X177454819Y-91119047D01*
X177454819Y-91119047D02*
X177454819Y-90880952D01*
X177454819Y-90880952D02*
X177502438Y-90785714D01*
X177502438Y-90785714D02*
X177550057Y-90738095D01*
X177550057Y-90738095D02*
X177645295Y-90690476D01*
X177645295Y-90690476D02*
X177740533Y-90690476D01*
X177740533Y-90690476D02*
X177883390Y-90738095D01*
X177883390Y-90738095D02*
X178454819Y-91309523D01*
X178454819Y-91309523D02*
X178454819Y-90690476D01*
X178454819Y-90214285D02*
X178454819Y-90023809D01*
X178454819Y-90023809D02*
X178407200Y-89928571D01*
X178407200Y-89928571D02*
X178359580Y-89880952D01*
X178359580Y-89880952D02*
X178216723Y-89785714D01*
X178216723Y-89785714D02*
X178026247Y-89738095D01*
X178026247Y-89738095D02*
X177645295Y-89738095D01*
X177645295Y-89738095D02*
X177550057Y-89785714D01*
X177550057Y-89785714D02*
X177502438Y-89833333D01*
X177502438Y-89833333D02*
X177454819Y-89928571D01*
X177454819Y-89928571D02*
X177454819Y-90119047D01*
X177454819Y-90119047D02*
X177502438Y-90214285D01*
X177502438Y-90214285D02*
X177550057Y-90261904D01*
X177550057Y-90261904D02*
X177645295Y-90309523D01*
X177645295Y-90309523D02*
X177883390Y-90309523D01*
X177883390Y-90309523D02*
X177978628Y-90261904D01*
X177978628Y-90261904D02*
X178026247Y-90214285D01*
X178026247Y-90214285D02*
X178073866Y-90119047D01*
X178073866Y-90119047D02*
X178073866Y-89928571D01*
X178073866Y-89928571D02*
X178026247Y-89833333D01*
X178026247Y-89833333D02*
X177978628Y-89785714D01*
X177978628Y-89785714D02*
X177883390Y-89738095D01*
X124833333Y-83454819D02*
X124500000Y-82978628D01*
X124261905Y-83454819D02*
X124261905Y-82454819D01*
X124261905Y-82454819D02*
X124642857Y-82454819D01*
X124642857Y-82454819D02*
X124738095Y-82502438D01*
X124738095Y-82502438D02*
X124785714Y-82550057D01*
X124785714Y-82550057D02*
X124833333Y-82645295D01*
X124833333Y-82645295D02*
X124833333Y-82788152D01*
X124833333Y-82788152D02*
X124785714Y-82883390D01*
X124785714Y-82883390D02*
X124738095Y-82931009D01*
X124738095Y-82931009D02*
X124642857Y-82978628D01*
X124642857Y-82978628D02*
X124261905Y-82978628D01*
X125785714Y-83454819D02*
X125214286Y-83454819D01*
X125500000Y-83454819D02*
X125500000Y-82454819D01*
X125500000Y-82454819D02*
X125404762Y-82597676D01*
X125404762Y-82597676D02*
X125309524Y-82692914D01*
X125309524Y-82692914D02*
X125214286Y-82740533D01*
D12*
X105076667Y-84804318D02*
X105076667Y-85711461D01*
X105076667Y-85711461D02*
X105016190Y-85892889D01*
X105016190Y-85892889D02*
X104895238Y-86013842D01*
X104895238Y-86013842D02*
X104713809Y-86074318D01*
X104713809Y-86074318D02*
X104592857Y-86074318D01*
X105620952Y-84925270D02*
X105681428Y-84864794D01*
X105681428Y-84864794D02*
X105802381Y-84804318D01*
X105802381Y-84804318D02*
X106104762Y-84804318D01*
X106104762Y-84804318D02*
X106225714Y-84864794D01*
X106225714Y-84864794D02*
X106286190Y-84925270D01*
X106286190Y-84925270D02*
X106346667Y-85046222D01*
X106346667Y-85046222D02*
X106346667Y-85167175D01*
X106346667Y-85167175D02*
X106286190Y-85348603D01*
X106286190Y-85348603D02*
X105560476Y-86074318D01*
X105560476Y-86074318D02*
X106346667Y-86074318D01*
D10*
X140857142Y-74359580D02*
X140809523Y-74407200D01*
X140809523Y-74407200D02*
X140666666Y-74454819D01*
X140666666Y-74454819D02*
X140571428Y-74454819D01*
X140571428Y-74454819D02*
X140428571Y-74407200D01*
X140428571Y-74407200D02*
X140333333Y-74311961D01*
X140333333Y-74311961D02*
X140285714Y-74216723D01*
X140285714Y-74216723D02*
X140238095Y-74026247D01*
X140238095Y-74026247D02*
X140238095Y-73883390D01*
X140238095Y-73883390D02*
X140285714Y-73692914D01*
X140285714Y-73692914D02*
X140333333Y-73597676D01*
X140333333Y-73597676D02*
X140428571Y-73502438D01*
X140428571Y-73502438D02*
X140571428Y-73454819D01*
X140571428Y-73454819D02*
X140666666Y-73454819D01*
X140666666Y-73454819D02*
X140809523Y-73502438D01*
X140809523Y-73502438D02*
X140857142Y-73550057D01*
X141809523Y-74454819D02*
X141238095Y-74454819D01*
X141523809Y-74454819D02*
X141523809Y-73454819D01*
X141523809Y-73454819D02*
X141428571Y-73597676D01*
X141428571Y-73597676D02*
X141333333Y-73692914D01*
X141333333Y-73692914D02*
X141238095Y-73740533D01*
X142666666Y-73788152D02*
X142666666Y-74454819D01*
X142428571Y-73407200D02*
X142190476Y-74121485D01*
X142190476Y-74121485D02*
X142809523Y-74121485D01*
X143857142Y-87359580D02*
X143809523Y-87407200D01*
X143809523Y-87407200D02*
X143666666Y-87454819D01*
X143666666Y-87454819D02*
X143571428Y-87454819D01*
X143571428Y-87454819D02*
X143428571Y-87407200D01*
X143428571Y-87407200D02*
X143333333Y-87311961D01*
X143333333Y-87311961D02*
X143285714Y-87216723D01*
X143285714Y-87216723D02*
X143238095Y-87026247D01*
X143238095Y-87026247D02*
X143238095Y-86883390D01*
X143238095Y-86883390D02*
X143285714Y-86692914D01*
X143285714Y-86692914D02*
X143333333Y-86597676D01*
X143333333Y-86597676D02*
X143428571Y-86502438D01*
X143428571Y-86502438D02*
X143571428Y-86454819D01*
X143571428Y-86454819D02*
X143666666Y-86454819D01*
X143666666Y-86454819D02*
X143809523Y-86502438D01*
X143809523Y-86502438D02*
X143857142Y-86550057D01*
X144809523Y-87454819D02*
X144238095Y-87454819D01*
X144523809Y-87454819D02*
X144523809Y-86454819D01*
X144523809Y-86454819D02*
X144428571Y-86597676D01*
X144428571Y-86597676D02*
X144333333Y-86692914D01*
X144333333Y-86692914D02*
X144238095Y-86740533D01*
X145666666Y-86454819D02*
X145476190Y-86454819D01*
X145476190Y-86454819D02*
X145380952Y-86502438D01*
X145380952Y-86502438D02*
X145333333Y-86550057D01*
X145333333Y-86550057D02*
X145238095Y-86692914D01*
X145238095Y-86692914D02*
X145190476Y-86883390D01*
X145190476Y-86883390D02*
X145190476Y-87264342D01*
X145190476Y-87264342D02*
X145238095Y-87359580D01*
X145238095Y-87359580D02*
X145285714Y-87407200D01*
X145285714Y-87407200D02*
X145380952Y-87454819D01*
X145380952Y-87454819D02*
X145571428Y-87454819D01*
X145571428Y-87454819D02*
X145666666Y-87407200D01*
X145666666Y-87407200D02*
X145714285Y-87359580D01*
X145714285Y-87359580D02*
X145761904Y-87264342D01*
X145761904Y-87264342D02*
X145761904Y-87026247D01*
X145761904Y-87026247D02*
X145714285Y-86931009D01*
X145714285Y-86931009D02*
X145666666Y-86883390D01*
X145666666Y-86883390D02*
X145571428Y-86835771D01*
X145571428Y-86835771D02*
X145380952Y-86835771D01*
X145380952Y-86835771D02*
X145285714Y-86883390D01*
X145285714Y-86883390D02*
X145238095Y-86931009D01*
X145238095Y-86931009D02*
X145190476Y-87026247D01*
D13*
X120166666Y-68219161D02*
X120071428Y-68314400D01*
X120071428Y-68314400D02*
X119785714Y-68409638D01*
X119785714Y-68409638D02*
X119595238Y-68409638D01*
X119595238Y-68409638D02*
X119309523Y-68314400D01*
X119309523Y-68314400D02*
X119119047Y-68123923D01*
X119119047Y-68123923D02*
X119023809Y-67933447D01*
X119023809Y-67933447D02*
X118928571Y-67552495D01*
X118928571Y-67552495D02*
X118928571Y-67266780D01*
X118928571Y-67266780D02*
X119023809Y-66885828D01*
X119023809Y-66885828D02*
X119119047Y-66695352D01*
X119119047Y-66695352D02*
X119309523Y-66504876D01*
X119309523Y-66504876D02*
X119595238Y-66409638D01*
X119595238Y-66409638D02*
X119785714Y-66409638D01*
X119785714Y-66409638D02*
X120071428Y-66504876D01*
X120071428Y-66504876D02*
X120166666Y-66600114D01*
X121309523Y-67266780D02*
X121119047Y-67171542D01*
X121119047Y-67171542D02*
X121023809Y-67076304D01*
X121023809Y-67076304D02*
X120928571Y-66885828D01*
X120928571Y-66885828D02*
X120928571Y-66790590D01*
X120928571Y-66790590D02*
X121023809Y-66600114D01*
X121023809Y-66600114D02*
X121119047Y-66504876D01*
X121119047Y-66504876D02*
X121309523Y-66409638D01*
X121309523Y-66409638D02*
X121690476Y-66409638D01*
X121690476Y-66409638D02*
X121880952Y-66504876D01*
X121880952Y-66504876D02*
X121976190Y-66600114D01*
X121976190Y-66600114D02*
X122071428Y-66790590D01*
X122071428Y-66790590D02*
X122071428Y-66885828D01*
X122071428Y-66885828D02*
X121976190Y-67076304D01*
X121976190Y-67076304D02*
X121880952Y-67171542D01*
X121880952Y-67171542D02*
X121690476Y-67266780D01*
X121690476Y-67266780D02*
X121309523Y-67266780D01*
X121309523Y-67266780D02*
X121119047Y-67362019D01*
X121119047Y-67362019D02*
X121023809Y-67457257D01*
X121023809Y-67457257D02*
X120928571Y-67647733D01*
X120928571Y-67647733D02*
X120928571Y-68028685D01*
X120928571Y-68028685D02*
X121023809Y-68219161D01*
X121023809Y-68219161D02*
X121119047Y-68314400D01*
X121119047Y-68314400D02*
X121309523Y-68409638D01*
X121309523Y-68409638D02*
X121690476Y-68409638D01*
X121690476Y-68409638D02*
X121880952Y-68314400D01*
X121880952Y-68314400D02*
X121976190Y-68219161D01*
X121976190Y-68219161D02*
X122071428Y-68028685D01*
X122071428Y-68028685D02*
X122071428Y-67647733D01*
X122071428Y-67647733D02*
X121976190Y-67457257D01*
X121976190Y-67457257D02*
X121880952Y-67362019D01*
X121880952Y-67362019D02*
X121690476Y-67266780D01*
D10*
X175359580Y-85142857D02*
X175407200Y-85190476D01*
X175407200Y-85190476D02*
X175454819Y-85333333D01*
X175454819Y-85333333D02*
X175454819Y-85428571D01*
X175454819Y-85428571D02*
X175407200Y-85571428D01*
X175407200Y-85571428D02*
X175311961Y-85666666D01*
X175311961Y-85666666D02*
X175216723Y-85714285D01*
X175216723Y-85714285D02*
X175026247Y-85761904D01*
X175026247Y-85761904D02*
X174883390Y-85761904D01*
X174883390Y-85761904D02*
X174692914Y-85714285D01*
X174692914Y-85714285D02*
X174597676Y-85666666D01*
X174597676Y-85666666D02*
X174502438Y-85571428D01*
X174502438Y-85571428D02*
X174454819Y-85428571D01*
X174454819Y-85428571D02*
X174454819Y-85333333D01*
X174454819Y-85333333D02*
X174502438Y-85190476D01*
X174502438Y-85190476D02*
X174550057Y-85142857D01*
X174550057Y-84761904D02*
X174502438Y-84714285D01*
X174502438Y-84714285D02*
X174454819Y-84619047D01*
X174454819Y-84619047D02*
X174454819Y-84380952D01*
X174454819Y-84380952D02*
X174502438Y-84285714D01*
X174502438Y-84285714D02*
X174550057Y-84238095D01*
X174550057Y-84238095D02*
X174645295Y-84190476D01*
X174645295Y-84190476D02*
X174740533Y-84190476D01*
X174740533Y-84190476D02*
X174883390Y-84238095D01*
X174883390Y-84238095D02*
X175454819Y-84809523D01*
X175454819Y-84809523D02*
X175454819Y-84190476D01*
X174550057Y-83809523D02*
X174502438Y-83761904D01*
X174502438Y-83761904D02*
X174454819Y-83666666D01*
X174454819Y-83666666D02*
X174454819Y-83428571D01*
X174454819Y-83428571D02*
X174502438Y-83333333D01*
X174502438Y-83333333D02*
X174550057Y-83285714D01*
X174550057Y-83285714D02*
X174645295Y-83238095D01*
X174645295Y-83238095D02*
X174740533Y-83238095D01*
X174740533Y-83238095D02*
X174883390Y-83285714D01*
X174883390Y-83285714D02*
X175454819Y-83857142D01*
X175454819Y-83857142D02*
X175454819Y-83238095D01*
X181454819Y-60666666D02*
X180978628Y-60999999D01*
X181454819Y-61238094D02*
X180454819Y-61238094D01*
X180454819Y-61238094D02*
X180454819Y-60857142D01*
X180454819Y-60857142D02*
X180502438Y-60761904D01*
X180502438Y-60761904D02*
X180550057Y-60714285D01*
X180550057Y-60714285D02*
X180645295Y-60666666D01*
X180645295Y-60666666D02*
X180788152Y-60666666D01*
X180788152Y-60666666D02*
X180883390Y-60714285D01*
X180883390Y-60714285D02*
X180931009Y-60761904D01*
X180931009Y-60761904D02*
X180978628Y-60857142D01*
X180978628Y-60857142D02*
X180978628Y-61238094D01*
X180454819Y-59809523D02*
X180454819Y-59999999D01*
X180454819Y-59999999D02*
X180502438Y-60095237D01*
X180502438Y-60095237D02*
X180550057Y-60142856D01*
X180550057Y-60142856D02*
X180692914Y-60238094D01*
X180692914Y-60238094D02*
X180883390Y-60285713D01*
X180883390Y-60285713D02*
X181264342Y-60285713D01*
X181264342Y-60285713D02*
X181359580Y-60238094D01*
X181359580Y-60238094D02*
X181407200Y-60190475D01*
X181407200Y-60190475D02*
X181454819Y-60095237D01*
X181454819Y-60095237D02*
X181454819Y-59904761D01*
X181454819Y-59904761D02*
X181407200Y-59809523D01*
X181407200Y-59809523D02*
X181359580Y-59761904D01*
X181359580Y-59761904D02*
X181264342Y-59714285D01*
X181264342Y-59714285D02*
X181026247Y-59714285D01*
X181026247Y-59714285D02*
X180931009Y-59761904D01*
X180931009Y-59761904D02*
X180883390Y-59809523D01*
X180883390Y-59809523D02*
X180835771Y-59904761D01*
X180835771Y-59904761D02*
X180835771Y-60095237D01*
X180835771Y-60095237D02*
X180883390Y-60190475D01*
X180883390Y-60190475D02*
X180931009Y-60238094D01*
X180931009Y-60238094D02*
X181026247Y-60285713D01*
X172359580Y-91142857D02*
X172407200Y-91190476D01*
X172407200Y-91190476D02*
X172454819Y-91333333D01*
X172454819Y-91333333D02*
X172454819Y-91428571D01*
X172454819Y-91428571D02*
X172407200Y-91571428D01*
X172407200Y-91571428D02*
X172311961Y-91666666D01*
X172311961Y-91666666D02*
X172216723Y-91714285D01*
X172216723Y-91714285D02*
X172026247Y-91761904D01*
X172026247Y-91761904D02*
X171883390Y-91761904D01*
X171883390Y-91761904D02*
X171692914Y-91714285D01*
X171692914Y-91714285D02*
X171597676Y-91666666D01*
X171597676Y-91666666D02*
X171502438Y-91571428D01*
X171502438Y-91571428D02*
X171454819Y-91428571D01*
X171454819Y-91428571D02*
X171454819Y-91333333D01*
X171454819Y-91333333D02*
X171502438Y-91190476D01*
X171502438Y-91190476D02*
X171550057Y-91142857D01*
X171550057Y-90761904D02*
X171502438Y-90714285D01*
X171502438Y-90714285D02*
X171454819Y-90619047D01*
X171454819Y-90619047D02*
X171454819Y-90380952D01*
X171454819Y-90380952D02*
X171502438Y-90285714D01*
X171502438Y-90285714D02*
X171550057Y-90238095D01*
X171550057Y-90238095D02*
X171645295Y-90190476D01*
X171645295Y-90190476D02*
X171740533Y-90190476D01*
X171740533Y-90190476D02*
X171883390Y-90238095D01*
X171883390Y-90238095D02*
X172454819Y-90809523D01*
X172454819Y-90809523D02*
X172454819Y-90190476D01*
X171454819Y-89285714D02*
X171454819Y-89761904D01*
X171454819Y-89761904D02*
X171931009Y-89809523D01*
X171931009Y-89809523D02*
X171883390Y-89761904D01*
X171883390Y-89761904D02*
X171835771Y-89666666D01*
X171835771Y-89666666D02*
X171835771Y-89428571D01*
X171835771Y-89428571D02*
X171883390Y-89333333D01*
X171883390Y-89333333D02*
X171931009Y-89285714D01*
X171931009Y-89285714D02*
X172026247Y-89238095D01*
X172026247Y-89238095D02*
X172264342Y-89238095D01*
X172264342Y-89238095D02*
X172359580Y-89285714D01*
X172359580Y-89285714D02*
X172407200Y-89333333D01*
X172407200Y-89333333D02*
X172454819Y-89428571D01*
X172454819Y-89428571D02*
X172454819Y-89666666D01*
X172454819Y-89666666D02*
X172407200Y-89761904D01*
X172407200Y-89761904D02*
X172359580Y-89809523D01*
X175359580Y-91142857D02*
X175407200Y-91190476D01*
X175407200Y-91190476D02*
X175454819Y-91333333D01*
X175454819Y-91333333D02*
X175454819Y-91428571D01*
X175454819Y-91428571D02*
X175407200Y-91571428D01*
X175407200Y-91571428D02*
X175311961Y-91666666D01*
X175311961Y-91666666D02*
X175216723Y-91714285D01*
X175216723Y-91714285D02*
X175026247Y-91761904D01*
X175026247Y-91761904D02*
X174883390Y-91761904D01*
X174883390Y-91761904D02*
X174692914Y-91714285D01*
X174692914Y-91714285D02*
X174597676Y-91666666D01*
X174597676Y-91666666D02*
X174502438Y-91571428D01*
X174502438Y-91571428D02*
X174454819Y-91428571D01*
X174454819Y-91428571D02*
X174454819Y-91333333D01*
X174454819Y-91333333D02*
X174502438Y-91190476D01*
X174502438Y-91190476D02*
X174550057Y-91142857D01*
X174550057Y-90761904D02*
X174502438Y-90714285D01*
X174502438Y-90714285D02*
X174454819Y-90619047D01*
X174454819Y-90619047D02*
X174454819Y-90380952D01*
X174454819Y-90380952D02*
X174502438Y-90285714D01*
X174502438Y-90285714D02*
X174550057Y-90238095D01*
X174550057Y-90238095D02*
X174645295Y-90190476D01*
X174645295Y-90190476D02*
X174740533Y-90190476D01*
X174740533Y-90190476D02*
X174883390Y-90238095D01*
X174883390Y-90238095D02*
X175454819Y-90809523D01*
X175454819Y-90809523D02*
X175454819Y-90190476D01*
X174454819Y-89857142D02*
X174454819Y-89190476D01*
X174454819Y-89190476D02*
X175454819Y-89619047D01*
X172359580Y-59642857D02*
X172407200Y-59690476D01*
X172407200Y-59690476D02*
X172454819Y-59833333D01*
X172454819Y-59833333D02*
X172454819Y-59928571D01*
X172454819Y-59928571D02*
X172407200Y-60071428D01*
X172407200Y-60071428D02*
X172311961Y-60166666D01*
X172311961Y-60166666D02*
X172216723Y-60214285D01*
X172216723Y-60214285D02*
X172026247Y-60261904D01*
X172026247Y-60261904D02*
X171883390Y-60261904D01*
X171883390Y-60261904D02*
X171692914Y-60214285D01*
X171692914Y-60214285D02*
X171597676Y-60166666D01*
X171597676Y-60166666D02*
X171502438Y-60071428D01*
X171502438Y-60071428D02*
X171454819Y-59928571D01*
X171454819Y-59928571D02*
X171454819Y-59833333D01*
X171454819Y-59833333D02*
X171502438Y-59690476D01*
X171502438Y-59690476D02*
X171550057Y-59642857D01*
X172454819Y-58690476D02*
X172454819Y-59261904D01*
X172454819Y-58976190D02*
X171454819Y-58976190D01*
X171454819Y-58976190D02*
X171597676Y-59071428D01*
X171597676Y-59071428D02*
X171692914Y-59166666D01*
X171692914Y-59166666D02*
X171740533Y-59261904D01*
X172454819Y-58214285D02*
X172454819Y-58023809D01*
X172454819Y-58023809D02*
X172407200Y-57928571D01*
X172407200Y-57928571D02*
X172359580Y-57880952D01*
X172359580Y-57880952D02*
X172216723Y-57785714D01*
X172216723Y-57785714D02*
X172026247Y-57738095D01*
X172026247Y-57738095D02*
X171645295Y-57738095D01*
X171645295Y-57738095D02*
X171550057Y-57785714D01*
X171550057Y-57785714D02*
X171502438Y-57833333D01*
X171502438Y-57833333D02*
X171454819Y-57928571D01*
X171454819Y-57928571D02*
X171454819Y-58119047D01*
X171454819Y-58119047D02*
X171502438Y-58214285D01*
X171502438Y-58214285D02*
X171550057Y-58261904D01*
X171550057Y-58261904D02*
X171645295Y-58309523D01*
X171645295Y-58309523D02*
X171883390Y-58309523D01*
X171883390Y-58309523D02*
X171978628Y-58261904D01*
X171978628Y-58261904D02*
X172026247Y-58214285D01*
X172026247Y-58214285D02*
X172073866Y-58119047D01*
X172073866Y-58119047D02*
X172073866Y-57928571D01*
X172073866Y-57928571D02*
X172026247Y-57833333D01*
X172026247Y-57833333D02*
X171978628Y-57785714D01*
X171978628Y-57785714D02*
X171883390Y-57738095D01*
X175359580Y-59642857D02*
X175407200Y-59690476D01*
X175407200Y-59690476D02*
X175454819Y-59833333D01*
X175454819Y-59833333D02*
X175454819Y-59928571D01*
X175454819Y-59928571D02*
X175407200Y-60071428D01*
X175407200Y-60071428D02*
X175311961Y-60166666D01*
X175311961Y-60166666D02*
X175216723Y-60214285D01*
X175216723Y-60214285D02*
X175026247Y-60261904D01*
X175026247Y-60261904D02*
X174883390Y-60261904D01*
X174883390Y-60261904D02*
X174692914Y-60214285D01*
X174692914Y-60214285D02*
X174597676Y-60166666D01*
X174597676Y-60166666D02*
X174502438Y-60071428D01*
X174502438Y-60071428D02*
X174454819Y-59928571D01*
X174454819Y-59928571D02*
X174454819Y-59833333D01*
X174454819Y-59833333D02*
X174502438Y-59690476D01*
X174502438Y-59690476D02*
X174550057Y-59642857D01*
X174550057Y-59261904D02*
X174502438Y-59214285D01*
X174502438Y-59214285D02*
X174454819Y-59119047D01*
X174454819Y-59119047D02*
X174454819Y-58880952D01*
X174454819Y-58880952D02*
X174502438Y-58785714D01*
X174502438Y-58785714D02*
X174550057Y-58738095D01*
X174550057Y-58738095D02*
X174645295Y-58690476D01*
X174645295Y-58690476D02*
X174740533Y-58690476D01*
X174740533Y-58690476D02*
X174883390Y-58738095D01*
X174883390Y-58738095D02*
X175454819Y-59309523D01*
X175454819Y-59309523D02*
X175454819Y-58690476D01*
X175454819Y-57738095D02*
X175454819Y-58309523D01*
X175454819Y-58023809D02*
X174454819Y-58023809D01*
X174454819Y-58023809D02*
X174597676Y-58119047D01*
X174597676Y-58119047D02*
X174692914Y-58214285D01*
X174692914Y-58214285D02*
X174740533Y-58309523D01*
X124833333Y-86859580D02*
X124785714Y-86907200D01*
X124785714Y-86907200D02*
X124642857Y-86954819D01*
X124642857Y-86954819D02*
X124547619Y-86954819D01*
X124547619Y-86954819D02*
X124404762Y-86907200D01*
X124404762Y-86907200D02*
X124309524Y-86811961D01*
X124309524Y-86811961D02*
X124261905Y-86716723D01*
X124261905Y-86716723D02*
X124214286Y-86526247D01*
X124214286Y-86526247D02*
X124214286Y-86383390D01*
X124214286Y-86383390D02*
X124261905Y-86192914D01*
X124261905Y-86192914D02*
X124309524Y-86097676D01*
X124309524Y-86097676D02*
X124404762Y-86002438D01*
X124404762Y-86002438D02*
X124547619Y-85954819D01*
X124547619Y-85954819D02*
X124642857Y-85954819D01*
X124642857Y-85954819D02*
X124785714Y-86002438D01*
X124785714Y-86002438D02*
X124833333Y-86050057D01*
X125738095Y-85954819D02*
X125261905Y-85954819D01*
X125261905Y-85954819D02*
X125214286Y-86431009D01*
X125214286Y-86431009D02*
X125261905Y-86383390D01*
X125261905Y-86383390D02*
X125357143Y-86335771D01*
X125357143Y-86335771D02*
X125595238Y-86335771D01*
X125595238Y-86335771D02*
X125690476Y-86383390D01*
X125690476Y-86383390D02*
X125738095Y-86431009D01*
X125738095Y-86431009D02*
X125785714Y-86526247D01*
X125785714Y-86526247D02*
X125785714Y-86764342D01*
X125785714Y-86764342D02*
X125738095Y-86859580D01*
X125738095Y-86859580D02*
X125690476Y-86907200D01*
X125690476Y-86907200D02*
X125595238Y-86954819D01*
X125595238Y-86954819D02*
X125357143Y-86954819D01*
X125357143Y-86954819D02*
X125261905Y-86907200D01*
X125261905Y-86907200D02*
X125214286Y-86859580D01*
X140833333Y-77359580D02*
X140785714Y-77407200D01*
X140785714Y-77407200D02*
X140642857Y-77454819D01*
X140642857Y-77454819D02*
X140547619Y-77454819D01*
X140547619Y-77454819D02*
X140404762Y-77407200D01*
X140404762Y-77407200D02*
X140309524Y-77311961D01*
X140309524Y-77311961D02*
X140261905Y-77216723D01*
X140261905Y-77216723D02*
X140214286Y-77026247D01*
X140214286Y-77026247D02*
X140214286Y-76883390D01*
X140214286Y-76883390D02*
X140261905Y-76692914D01*
X140261905Y-76692914D02*
X140309524Y-76597676D01*
X140309524Y-76597676D02*
X140404762Y-76502438D01*
X140404762Y-76502438D02*
X140547619Y-76454819D01*
X140547619Y-76454819D02*
X140642857Y-76454819D01*
X140642857Y-76454819D02*
X140785714Y-76502438D01*
X140785714Y-76502438D02*
X140833333Y-76550057D01*
X141166667Y-76454819D02*
X141833333Y-76454819D01*
X141833333Y-76454819D02*
X141404762Y-77454819D01*
X181454819Y-91666666D02*
X180978628Y-91999999D01*
X181454819Y-92238094D02*
X180454819Y-92238094D01*
X180454819Y-92238094D02*
X180454819Y-91857142D01*
X180454819Y-91857142D02*
X180502438Y-91761904D01*
X180502438Y-91761904D02*
X180550057Y-91714285D01*
X180550057Y-91714285D02*
X180645295Y-91666666D01*
X180645295Y-91666666D02*
X180788152Y-91666666D01*
X180788152Y-91666666D02*
X180883390Y-91714285D01*
X180883390Y-91714285D02*
X180931009Y-91761904D01*
X180931009Y-91761904D02*
X180978628Y-91857142D01*
X180978628Y-91857142D02*
X180978628Y-92238094D01*
X180883390Y-91095237D02*
X180835771Y-91190475D01*
X180835771Y-91190475D02*
X180788152Y-91238094D01*
X180788152Y-91238094D02*
X180692914Y-91285713D01*
X180692914Y-91285713D02*
X180645295Y-91285713D01*
X180645295Y-91285713D02*
X180550057Y-91238094D01*
X180550057Y-91238094D02*
X180502438Y-91190475D01*
X180502438Y-91190475D02*
X180454819Y-91095237D01*
X180454819Y-91095237D02*
X180454819Y-90904761D01*
X180454819Y-90904761D02*
X180502438Y-90809523D01*
X180502438Y-90809523D02*
X180550057Y-90761904D01*
X180550057Y-90761904D02*
X180645295Y-90714285D01*
X180645295Y-90714285D02*
X180692914Y-90714285D01*
X180692914Y-90714285D02*
X180788152Y-90761904D01*
X180788152Y-90761904D02*
X180835771Y-90809523D01*
X180835771Y-90809523D02*
X180883390Y-90904761D01*
X180883390Y-90904761D02*
X180883390Y-91095237D01*
X180883390Y-91095237D02*
X180931009Y-91190475D01*
X180931009Y-91190475D02*
X180978628Y-91238094D01*
X180978628Y-91238094D02*
X181073866Y-91285713D01*
X181073866Y-91285713D02*
X181264342Y-91285713D01*
X181264342Y-91285713D02*
X181359580Y-91238094D01*
X181359580Y-91238094D02*
X181407200Y-91190475D01*
X181407200Y-91190475D02*
X181454819Y-91095237D01*
X181454819Y-91095237D02*
X181454819Y-90904761D01*
X181454819Y-90904761D02*
X181407200Y-90809523D01*
X181407200Y-90809523D02*
X181359580Y-90761904D01*
X181359580Y-90761904D02*
X181264342Y-90714285D01*
X181264342Y-90714285D02*
X181073866Y-90714285D01*
X181073866Y-90714285D02*
X180978628Y-90761904D01*
X180978628Y-90761904D02*
X180931009Y-90809523D01*
X180931009Y-90809523D02*
X180883390Y-90904761D01*
D13*
X119214285Y-110219161D02*
X119119047Y-110314400D01*
X119119047Y-110314400D02*
X118833333Y-110409638D01*
X118833333Y-110409638D02*
X118642857Y-110409638D01*
X118642857Y-110409638D02*
X118357142Y-110314400D01*
X118357142Y-110314400D02*
X118166666Y-110123923D01*
X118166666Y-110123923D02*
X118071428Y-109933447D01*
X118071428Y-109933447D02*
X117976190Y-109552495D01*
X117976190Y-109552495D02*
X117976190Y-109266780D01*
X117976190Y-109266780D02*
X118071428Y-108885828D01*
X118071428Y-108885828D02*
X118166666Y-108695352D01*
X118166666Y-108695352D02*
X118357142Y-108504876D01*
X118357142Y-108504876D02*
X118642857Y-108409638D01*
X118642857Y-108409638D02*
X118833333Y-108409638D01*
X118833333Y-108409638D02*
X119119047Y-108504876D01*
X119119047Y-108504876D02*
X119214285Y-108600114D01*
X121119047Y-110409638D02*
X119976190Y-110409638D01*
X120547618Y-110409638D02*
X120547618Y-108409638D01*
X120547618Y-108409638D02*
X120357142Y-108695352D01*
X120357142Y-108695352D02*
X120166666Y-108885828D01*
X120166666Y-108885828D02*
X119976190Y-108981066D01*
X121785714Y-108409638D02*
X123023809Y-108409638D01*
X123023809Y-108409638D02*
X122357142Y-109171542D01*
X122357142Y-109171542D02*
X122642857Y-109171542D01*
X122642857Y-109171542D02*
X122833333Y-109266780D01*
X122833333Y-109266780D02*
X122928571Y-109362019D01*
X122928571Y-109362019D02*
X123023809Y-109552495D01*
X123023809Y-109552495D02*
X123023809Y-110028685D01*
X123023809Y-110028685D02*
X122928571Y-110219161D01*
X122928571Y-110219161D02*
X122833333Y-110314400D01*
X122833333Y-110314400D02*
X122642857Y-110409638D01*
X122642857Y-110409638D02*
X122071428Y-110409638D01*
X122071428Y-110409638D02*
X121880952Y-110314400D01*
X121880952Y-110314400D02*
X121785714Y-110219161D01*
D10*
X172359580Y-116142857D02*
X172407200Y-116190476D01*
X172407200Y-116190476D02*
X172454819Y-116333333D01*
X172454819Y-116333333D02*
X172454819Y-116428571D01*
X172454819Y-116428571D02*
X172407200Y-116571428D01*
X172407200Y-116571428D02*
X172311961Y-116666666D01*
X172311961Y-116666666D02*
X172216723Y-116714285D01*
X172216723Y-116714285D02*
X172026247Y-116761904D01*
X172026247Y-116761904D02*
X171883390Y-116761904D01*
X171883390Y-116761904D02*
X171692914Y-116714285D01*
X171692914Y-116714285D02*
X171597676Y-116666666D01*
X171597676Y-116666666D02*
X171502438Y-116571428D01*
X171502438Y-116571428D02*
X171454819Y-116428571D01*
X171454819Y-116428571D02*
X171454819Y-116333333D01*
X171454819Y-116333333D02*
X171502438Y-116190476D01*
X171502438Y-116190476D02*
X171550057Y-116142857D01*
X171550057Y-115761904D02*
X171502438Y-115714285D01*
X171502438Y-115714285D02*
X171454819Y-115619047D01*
X171454819Y-115619047D02*
X171454819Y-115380952D01*
X171454819Y-115380952D02*
X171502438Y-115285714D01*
X171502438Y-115285714D02*
X171550057Y-115238095D01*
X171550057Y-115238095D02*
X171645295Y-115190476D01*
X171645295Y-115190476D02*
X171740533Y-115190476D01*
X171740533Y-115190476D02*
X171883390Y-115238095D01*
X171883390Y-115238095D02*
X172454819Y-115809523D01*
X172454819Y-115809523D02*
X172454819Y-115190476D01*
X171454819Y-114333333D02*
X171454819Y-114523809D01*
X171454819Y-114523809D02*
X171502438Y-114619047D01*
X171502438Y-114619047D02*
X171550057Y-114666666D01*
X171550057Y-114666666D02*
X171692914Y-114761904D01*
X171692914Y-114761904D02*
X171883390Y-114809523D01*
X171883390Y-114809523D02*
X172264342Y-114809523D01*
X172264342Y-114809523D02*
X172359580Y-114761904D01*
X172359580Y-114761904D02*
X172407200Y-114714285D01*
X172407200Y-114714285D02*
X172454819Y-114619047D01*
X172454819Y-114619047D02*
X172454819Y-114428571D01*
X172454819Y-114428571D02*
X172407200Y-114333333D01*
X172407200Y-114333333D02*
X172359580Y-114285714D01*
X172359580Y-114285714D02*
X172264342Y-114238095D01*
X172264342Y-114238095D02*
X172026247Y-114238095D01*
X172026247Y-114238095D02*
X171931009Y-114285714D01*
X171931009Y-114285714D02*
X171883390Y-114333333D01*
X171883390Y-114333333D02*
X171835771Y-114428571D01*
X171835771Y-114428571D02*
X171835771Y-114619047D01*
X171835771Y-114619047D02*
X171883390Y-114714285D01*
X171883390Y-114714285D02*
X171931009Y-114761904D01*
X171931009Y-114761904D02*
X172026247Y-114809523D01*
X172359580Y-85142857D02*
X172407200Y-85190476D01*
X172407200Y-85190476D02*
X172454819Y-85333333D01*
X172454819Y-85333333D02*
X172454819Y-85428571D01*
X172454819Y-85428571D02*
X172407200Y-85571428D01*
X172407200Y-85571428D02*
X172311961Y-85666666D01*
X172311961Y-85666666D02*
X172216723Y-85714285D01*
X172216723Y-85714285D02*
X172026247Y-85761904D01*
X172026247Y-85761904D02*
X171883390Y-85761904D01*
X171883390Y-85761904D02*
X171692914Y-85714285D01*
X171692914Y-85714285D02*
X171597676Y-85666666D01*
X171597676Y-85666666D02*
X171502438Y-85571428D01*
X171502438Y-85571428D02*
X171454819Y-85428571D01*
X171454819Y-85428571D02*
X171454819Y-85333333D01*
X171454819Y-85333333D02*
X171502438Y-85190476D01*
X171502438Y-85190476D02*
X171550057Y-85142857D01*
X171550057Y-84761904D02*
X171502438Y-84714285D01*
X171502438Y-84714285D02*
X171454819Y-84619047D01*
X171454819Y-84619047D02*
X171454819Y-84380952D01*
X171454819Y-84380952D02*
X171502438Y-84285714D01*
X171502438Y-84285714D02*
X171550057Y-84238095D01*
X171550057Y-84238095D02*
X171645295Y-84190476D01*
X171645295Y-84190476D02*
X171740533Y-84190476D01*
X171740533Y-84190476D02*
X171883390Y-84238095D01*
X171883390Y-84238095D02*
X172454819Y-84809523D01*
X172454819Y-84809523D02*
X172454819Y-84190476D01*
X171454819Y-83571428D02*
X171454819Y-83476190D01*
X171454819Y-83476190D02*
X171502438Y-83380952D01*
X171502438Y-83380952D02*
X171550057Y-83333333D01*
X171550057Y-83333333D02*
X171645295Y-83285714D01*
X171645295Y-83285714D02*
X171835771Y-83238095D01*
X171835771Y-83238095D02*
X172073866Y-83238095D01*
X172073866Y-83238095D02*
X172264342Y-83285714D01*
X172264342Y-83285714D02*
X172359580Y-83333333D01*
X172359580Y-83333333D02*
X172407200Y-83380952D01*
X172407200Y-83380952D02*
X172454819Y-83476190D01*
X172454819Y-83476190D02*
X172454819Y-83571428D01*
X172454819Y-83571428D02*
X172407200Y-83666666D01*
X172407200Y-83666666D02*
X172359580Y-83714285D01*
X172359580Y-83714285D02*
X172264342Y-83761904D01*
X172264342Y-83761904D02*
X172073866Y-83809523D01*
X172073866Y-83809523D02*
X171835771Y-83809523D01*
X171835771Y-83809523D02*
X171645295Y-83761904D01*
X171645295Y-83761904D02*
X171550057Y-83714285D01*
X171550057Y-83714285D02*
X171502438Y-83666666D01*
X171502438Y-83666666D02*
X171454819Y-83571428D01*
X130833333Y-96954819D02*
X130500000Y-96478628D01*
X130261905Y-96954819D02*
X130261905Y-95954819D01*
X130261905Y-95954819D02*
X130642857Y-95954819D01*
X130642857Y-95954819D02*
X130738095Y-96002438D01*
X130738095Y-96002438D02*
X130785714Y-96050057D01*
X130785714Y-96050057D02*
X130833333Y-96145295D01*
X130833333Y-96145295D02*
X130833333Y-96288152D01*
X130833333Y-96288152D02*
X130785714Y-96383390D01*
X130785714Y-96383390D02*
X130738095Y-96431009D01*
X130738095Y-96431009D02*
X130642857Y-96478628D01*
X130642857Y-96478628D02*
X130261905Y-96478628D01*
X131690476Y-96288152D02*
X131690476Y-96954819D01*
X131452381Y-95907200D02*
X131214286Y-96621485D01*
X131214286Y-96621485D02*
X131833333Y-96621485D01*
X143857142Y-91859580D02*
X143809523Y-91907200D01*
X143809523Y-91907200D02*
X143666666Y-91954819D01*
X143666666Y-91954819D02*
X143571428Y-91954819D01*
X143571428Y-91954819D02*
X143428571Y-91907200D01*
X143428571Y-91907200D02*
X143333333Y-91811961D01*
X143333333Y-91811961D02*
X143285714Y-91716723D01*
X143285714Y-91716723D02*
X143238095Y-91526247D01*
X143238095Y-91526247D02*
X143238095Y-91383390D01*
X143238095Y-91383390D02*
X143285714Y-91192914D01*
X143285714Y-91192914D02*
X143333333Y-91097676D01*
X143333333Y-91097676D02*
X143428571Y-91002438D01*
X143428571Y-91002438D02*
X143571428Y-90954819D01*
X143571428Y-90954819D02*
X143666666Y-90954819D01*
X143666666Y-90954819D02*
X143809523Y-91002438D01*
X143809523Y-91002438D02*
X143857142Y-91050057D01*
X144809523Y-91954819D02*
X144238095Y-91954819D01*
X144523809Y-91954819D02*
X144523809Y-90954819D01*
X144523809Y-90954819D02*
X144428571Y-91097676D01*
X144428571Y-91097676D02*
X144333333Y-91192914D01*
X144333333Y-91192914D02*
X144238095Y-91240533D01*
X145142857Y-90954819D02*
X145809523Y-90954819D01*
X145809523Y-90954819D02*
X145380952Y-91954819D01*
X130833333Y-94454819D02*
X130500000Y-93978628D01*
X130261905Y-94454819D02*
X130261905Y-93454819D01*
X130261905Y-93454819D02*
X130642857Y-93454819D01*
X130642857Y-93454819D02*
X130738095Y-93502438D01*
X130738095Y-93502438D02*
X130785714Y-93550057D01*
X130785714Y-93550057D02*
X130833333Y-93645295D01*
X130833333Y-93645295D02*
X130833333Y-93788152D01*
X130833333Y-93788152D02*
X130785714Y-93883390D01*
X130785714Y-93883390D02*
X130738095Y-93931009D01*
X130738095Y-93931009D02*
X130642857Y-93978628D01*
X130642857Y-93978628D02*
X130261905Y-93978628D01*
X131166667Y-93454819D02*
X131785714Y-93454819D01*
X131785714Y-93454819D02*
X131452381Y-93835771D01*
X131452381Y-93835771D02*
X131595238Y-93835771D01*
X131595238Y-93835771D02*
X131690476Y-93883390D01*
X131690476Y-93883390D02*
X131738095Y-93931009D01*
X131738095Y-93931009D02*
X131785714Y-94026247D01*
X131785714Y-94026247D02*
X131785714Y-94264342D01*
X131785714Y-94264342D02*
X131738095Y-94359580D01*
X131738095Y-94359580D02*
X131690476Y-94407200D01*
X131690476Y-94407200D02*
X131595238Y-94454819D01*
X131595238Y-94454819D02*
X131309524Y-94454819D01*
X131309524Y-94454819D02*
X131214286Y-94407200D01*
X131214286Y-94407200D02*
X131166667Y-94359580D01*
X131833333Y-76454819D02*
X131500000Y-75978628D01*
X131261905Y-76454819D02*
X131261905Y-75454819D01*
X131261905Y-75454819D02*
X131642857Y-75454819D01*
X131642857Y-75454819D02*
X131738095Y-75502438D01*
X131738095Y-75502438D02*
X131785714Y-75550057D01*
X131785714Y-75550057D02*
X131833333Y-75645295D01*
X131833333Y-75645295D02*
X131833333Y-75788152D01*
X131833333Y-75788152D02*
X131785714Y-75883390D01*
X131785714Y-75883390D02*
X131738095Y-75931009D01*
X131738095Y-75931009D02*
X131642857Y-75978628D01*
X131642857Y-75978628D02*
X131261905Y-75978628D01*
X132738095Y-75454819D02*
X132261905Y-75454819D01*
X132261905Y-75454819D02*
X132214286Y-75931009D01*
X132214286Y-75931009D02*
X132261905Y-75883390D01*
X132261905Y-75883390D02*
X132357143Y-75835771D01*
X132357143Y-75835771D02*
X132595238Y-75835771D01*
X132595238Y-75835771D02*
X132690476Y-75883390D01*
X132690476Y-75883390D02*
X132738095Y-75931009D01*
X132738095Y-75931009D02*
X132785714Y-76026247D01*
X132785714Y-76026247D02*
X132785714Y-76264342D01*
X132785714Y-76264342D02*
X132738095Y-76359580D01*
X132738095Y-76359580D02*
X132690476Y-76407200D01*
X132690476Y-76407200D02*
X132595238Y-76454819D01*
X132595238Y-76454819D02*
X132357143Y-76454819D01*
X132357143Y-76454819D02*
X132261905Y-76407200D01*
X132261905Y-76407200D02*
X132214286Y-76359580D01*
X143857142Y-83359580D02*
X143809523Y-83407200D01*
X143809523Y-83407200D02*
X143666666Y-83454819D01*
X143666666Y-83454819D02*
X143571428Y-83454819D01*
X143571428Y-83454819D02*
X143428571Y-83407200D01*
X143428571Y-83407200D02*
X143333333Y-83311961D01*
X143333333Y-83311961D02*
X143285714Y-83216723D01*
X143285714Y-83216723D02*
X143238095Y-83026247D01*
X143238095Y-83026247D02*
X143238095Y-82883390D01*
X143238095Y-82883390D02*
X143285714Y-82692914D01*
X143285714Y-82692914D02*
X143333333Y-82597676D01*
X143333333Y-82597676D02*
X143428571Y-82502438D01*
X143428571Y-82502438D02*
X143571428Y-82454819D01*
X143571428Y-82454819D02*
X143666666Y-82454819D01*
X143666666Y-82454819D02*
X143809523Y-82502438D01*
X143809523Y-82502438D02*
X143857142Y-82550057D01*
X144809523Y-83454819D02*
X144238095Y-83454819D01*
X144523809Y-83454819D02*
X144523809Y-82454819D01*
X144523809Y-82454819D02*
X144428571Y-82597676D01*
X144428571Y-82597676D02*
X144333333Y-82692914D01*
X144333333Y-82692914D02*
X144238095Y-82740533D01*
X145714285Y-82454819D02*
X145238095Y-82454819D01*
X145238095Y-82454819D02*
X145190476Y-82931009D01*
X145190476Y-82931009D02*
X145238095Y-82883390D01*
X145238095Y-82883390D02*
X145333333Y-82835771D01*
X145333333Y-82835771D02*
X145571428Y-82835771D01*
X145571428Y-82835771D02*
X145666666Y-82883390D01*
X145666666Y-82883390D02*
X145714285Y-82931009D01*
X145714285Y-82931009D02*
X145761904Y-83026247D01*
X145761904Y-83026247D02*
X145761904Y-83264342D01*
X145761904Y-83264342D02*
X145714285Y-83359580D01*
X145714285Y-83359580D02*
X145666666Y-83407200D01*
X145666666Y-83407200D02*
X145571428Y-83454819D01*
X145571428Y-83454819D02*
X145333333Y-83454819D01*
X145333333Y-83454819D02*
X145238095Y-83407200D01*
X145238095Y-83407200D02*
X145190476Y-83359580D01*
D14*
%TO.C,R10*%
X106590000Y-113227064D02*
X106590000Y-111772936D01*
X108410000Y-113227064D02*
X108410000Y-111772936D01*
%TO.C,JP3*%
X115400000Y-119000000D02*
X115400000Y-121000000D01*
X112600000Y-119000000D02*
X115400000Y-119000000D01*
X112600000Y-121000000D02*
X112600000Y-119000000D01*
X115400000Y-121000000D02*
X112600000Y-121000000D01*
%TO.C,D1*%
X110365000Y-114785000D02*
X112635000Y-114785000D01*
X110365000Y-110900000D02*
X110365000Y-114785000D01*
X112635000Y-114785000D02*
X112635000Y-110900000D01*
%TO.C,C30*%
X177265000Y-111761252D02*
X177265000Y-111238748D01*
X178735000Y-111761252D02*
X178735000Y-111238748D01*
%TO.C,C11*%
X137738748Y-97015000D02*
X138261252Y-97015000D01*
X137738748Y-98485000D02*
X138261252Y-98485000D01*
%TO.C,C18*%
X146515000Y-94723752D02*
X146515000Y-94201248D01*
X147985000Y-94723752D02*
X147985000Y-94201248D01*
%TO.C,C6*%
X137776248Y-79265000D02*
X138298752Y-79265000D01*
X137776248Y-80735000D02*
X138298752Y-80735000D01*
D15*
%TO.C,J5*%
X181000000Y-98000000D02*
X181000000Y-108000000D01*
X172000000Y-98000000D02*
X181000000Y-98000000D01*
X181000000Y-108000000D02*
X172000000Y-108000000D01*
X172000000Y-108000000D02*
X172000000Y-98000000D01*
D16*
%TO.C,IC1*%
X130763000Y-81975000D02*
X132238000Y-81975000D01*
D14*
%TO.C,R9*%
X180265000Y-111727064D02*
X180265000Y-111272936D01*
X181735000Y-111727064D02*
X181735000Y-111272936D01*
%TO.C,C12*%
X148555000Y-102560509D02*
X148555000Y-104160509D01*
X149355000Y-103360509D02*
X147755000Y-103360509D01*
X152081000Y-111250000D02*
X135919000Y-111250000D01*
X152080000Y-111290000D02*
X135920000Y-111290000D01*
X152080000Y-111330000D02*
X135920000Y-111330000D01*
X152080000Y-111370000D02*
X135920000Y-111370000D01*
X152079000Y-111410000D02*
X135921000Y-111410000D01*
X152078000Y-111450000D02*
X135922000Y-111450000D01*
X152077000Y-111490000D02*
X135923000Y-111490000D01*
X152076000Y-111530000D02*
X135924000Y-111530000D01*
X152074000Y-111570000D02*
X135926000Y-111570000D01*
X152073000Y-111610000D02*
X135927000Y-111610000D01*
X152071000Y-111650000D02*
X135929000Y-111650000D01*
X152069000Y-111690000D02*
X135931000Y-111690000D01*
X152066000Y-111730000D02*
X135934000Y-111730000D01*
X152064000Y-111770000D02*
X135936000Y-111770000D01*
X152061000Y-111810000D02*
X135939000Y-111810000D01*
X152058000Y-111850000D02*
X135942000Y-111850000D01*
X152055000Y-111890000D02*
X135945000Y-111890000D01*
X152052000Y-111930000D02*
X135948000Y-111930000D01*
X152049000Y-111971000D02*
X135951000Y-111971000D01*
X152045000Y-112011000D02*
X135955000Y-112011000D01*
X152041000Y-112051000D02*
X135959000Y-112051000D01*
X152037000Y-112091000D02*
X135963000Y-112091000D01*
X152033000Y-112131000D02*
X135967000Y-112131000D01*
X152028000Y-112171000D02*
X135972000Y-112171000D01*
X152024000Y-112211000D02*
X135976000Y-112211000D01*
X152019000Y-112251000D02*
X135981000Y-112251000D01*
X152014000Y-112291000D02*
X135986000Y-112291000D01*
X152008000Y-112331000D02*
X135992000Y-112331000D01*
X152003000Y-112371000D02*
X135997000Y-112371000D01*
X151997000Y-112411000D02*
X136003000Y-112411000D01*
X151991000Y-112451000D02*
X136009000Y-112451000D01*
X151985000Y-112491000D02*
X136015000Y-112491000D01*
X151979000Y-112531000D02*
X136021000Y-112531000D01*
X151972000Y-112571000D02*
X136028000Y-112571000D01*
X151966000Y-112611000D02*
X136034000Y-112611000D01*
X151959000Y-112651000D02*
X136041000Y-112651000D01*
X151952000Y-112691000D02*
X136048000Y-112691000D01*
X151944000Y-112731000D02*
X136056000Y-112731000D01*
X151937000Y-112771000D02*
X136063000Y-112771000D01*
X151929000Y-112811000D02*
X136071000Y-112811000D01*
X151921000Y-112851000D02*
X136079000Y-112851000D01*
X151913000Y-112891000D02*
X136087000Y-112891000D01*
X151905000Y-112931000D02*
X136095000Y-112931000D01*
X151896000Y-112971000D02*
X136104000Y-112971000D01*
X151887000Y-113011000D02*
X136113000Y-113011000D01*
X151878000Y-113051000D02*
X136122000Y-113051000D01*
X151869000Y-113091000D02*
X136131000Y-113091000D01*
X151860000Y-113131000D02*
X136140000Y-113131000D01*
X151850000Y-113171000D02*
X136150000Y-113171000D01*
X151840000Y-113211000D02*
X136160000Y-113211000D01*
X151830000Y-113251000D02*
X136170000Y-113251000D01*
X151820000Y-113291000D02*
X136180000Y-113291000D01*
X151810000Y-113331000D02*
X136190000Y-113331000D01*
X151799000Y-113371000D02*
X136201000Y-113371000D01*
X151788000Y-113411000D02*
X136212000Y-113411000D01*
X151777000Y-113451000D02*
X136223000Y-113451000D01*
X151765000Y-113491000D02*
X136235000Y-113491000D01*
X151754000Y-113531000D02*
X136246000Y-113531000D01*
X151742000Y-113571000D02*
X145440000Y-113571000D01*
X142560000Y-113571000D02*
X136258000Y-113571000D01*
X151730000Y-113611000D02*
X145440000Y-113611000D01*
X142560000Y-113611000D02*
X136270000Y-113611000D01*
X151718000Y-113651000D02*
X145440000Y-113651000D01*
X142560000Y-113651000D02*
X136282000Y-113651000D01*
X151705000Y-113691000D02*
X145440000Y-113691000D01*
X142560000Y-113691000D02*
X136295000Y-113691000D01*
X151693000Y-113731000D02*
X145440000Y-113731000D01*
X142560000Y-113731000D02*
X136307000Y-113731000D01*
X151680000Y-113771000D02*
X145440000Y-113771000D01*
X142560000Y-113771000D02*
X136320000Y-113771000D01*
X151666000Y-113811000D02*
X145440000Y-113811000D01*
X142560000Y-113811000D02*
X136334000Y-113811000D01*
X151653000Y-113851000D02*
X145440000Y-113851000D01*
X142560000Y-113851000D02*
X136347000Y-113851000D01*
X151639000Y-113891000D02*
X145440000Y-113891000D01*
X142560000Y-113891000D02*
X136361000Y-113891000D01*
X151625000Y-113931000D02*
X145440000Y-113931000D01*
X142560000Y-113931000D02*
X136375000Y-113931000D01*
X151611000Y-113971000D02*
X145440000Y-113971000D01*
X142560000Y-113971000D02*
X136389000Y-113971000D01*
X151597000Y-114011000D02*
X145440000Y-114011000D01*
X142560000Y-114011000D02*
X136403000Y-114011000D01*
X151582000Y-114051000D02*
X145440000Y-114051000D01*
X142560000Y-114051000D02*
X136418000Y-114051000D01*
X151568000Y-114091000D02*
X145440000Y-114091000D01*
X142560000Y-114091000D02*
X136432000Y-114091000D01*
X151553000Y-114131000D02*
X145440000Y-114131000D01*
X142560000Y-114131000D02*
X136447000Y-114131000D01*
X151537000Y-114171000D02*
X145440000Y-114171000D01*
X142560000Y-114171000D02*
X136463000Y-114171000D01*
X151522000Y-114211000D02*
X145440000Y-114211000D01*
X142560000Y-114211000D02*
X136478000Y-114211000D01*
X151506000Y-114251000D02*
X145440000Y-114251000D01*
X142560000Y-114251000D02*
X136494000Y-114251000D01*
X151490000Y-114291000D02*
X145440000Y-114291000D01*
X142560000Y-114291000D02*
X136510000Y-114291000D01*
X151474000Y-114331000D02*
X145440000Y-114331000D01*
X142560000Y-114331000D02*
X136526000Y-114331000D01*
X151457000Y-114371000D02*
X145440000Y-114371000D01*
X142560000Y-114371000D02*
X136543000Y-114371000D01*
X151440000Y-114411000D02*
X145440000Y-114411000D01*
X142560000Y-114411000D02*
X136560000Y-114411000D01*
X151423000Y-114451000D02*
X145440000Y-114451000D01*
X142560000Y-114451000D02*
X136577000Y-114451000D01*
X151406000Y-114491000D02*
X145440000Y-114491000D01*
X142560000Y-114491000D02*
X136594000Y-114491000D01*
X151389000Y-114531000D02*
X145440000Y-114531000D01*
X142560000Y-114531000D02*
X136611000Y-114531000D01*
X151371000Y-114571000D02*
X145440000Y-114571000D01*
X142560000Y-114571000D02*
X136629000Y-114571000D01*
X151353000Y-114611000D02*
X145440000Y-114611000D01*
X142560000Y-114611000D02*
X136647000Y-114611000D01*
X151334000Y-114651000D02*
X145440000Y-114651000D01*
X142560000Y-114651000D02*
X136666000Y-114651000D01*
X151316000Y-114691000D02*
X145440000Y-114691000D01*
X142560000Y-114691000D02*
X136684000Y-114691000D01*
X151297000Y-114731000D02*
X145440000Y-114731000D01*
X142560000Y-114731000D02*
X136703000Y-114731000D01*
X151278000Y-114771000D02*
X145440000Y-114771000D01*
X142560000Y-114771000D02*
X136722000Y-114771000D01*
X151258000Y-114811000D02*
X145440000Y-114811000D01*
X142560000Y-114811000D02*
X136742000Y-114811000D01*
X151239000Y-114851000D02*
X145440000Y-114851000D01*
X142560000Y-114851000D02*
X136761000Y-114851000D01*
X151219000Y-114891000D02*
X145440000Y-114891000D01*
X142560000Y-114891000D02*
X136781000Y-114891000D01*
X151199000Y-114931000D02*
X145440000Y-114931000D01*
X142560000Y-114931000D02*
X136801000Y-114931000D01*
X151178000Y-114971000D02*
X145440000Y-114971000D01*
X142560000Y-114971000D02*
X136822000Y-114971000D01*
X151157000Y-115011000D02*
X145440000Y-115011000D01*
X142560000Y-115011000D02*
X136843000Y-115011000D01*
X151136000Y-115051000D02*
X145440000Y-115051000D01*
X142560000Y-115051000D02*
X136864000Y-115051000D01*
X151115000Y-115091000D02*
X145440000Y-115091000D01*
X142560000Y-115091000D02*
X136885000Y-115091000D01*
X151094000Y-115131000D02*
X145440000Y-115131000D01*
X142560000Y-115131000D02*
X136906000Y-115131000D01*
X151072000Y-115171000D02*
X145440000Y-115171000D01*
X142560000Y-115171000D02*
X136928000Y-115171000D01*
X151049000Y-115211000D02*
X145440000Y-115211000D01*
X142560000Y-115211000D02*
X136951000Y-115211000D01*
X151027000Y-115251000D02*
X145440000Y-115251000D01*
X142560000Y-115251000D02*
X136973000Y-115251000D01*
X151004000Y-115291000D02*
X145440000Y-115291000D01*
X142560000Y-115291000D02*
X136996000Y-115291000D01*
X150981000Y-115331000D02*
X145440000Y-115331000D01*
X142560000Y-115331000D02*
X137019000Y-115331000D01*
X150958000Y-115371000D02*
X145440000Y-115371000D01*
X142560000Y-115371000D02*
X137042000Y-115371000D01*
X150934000Y-115411000D02*
X145440000Y-115411000D01*
X142560000Y-115411000D02*
X137066000Y-115411000D01*
X150910000Y-115451000D02*
X145440000Y-115451000D01*
X142560000Y-115451000D02*
X137090000Y-115451000D01*
X150886000Y-115491000D02*
X145440000Y-115491000D01*
X142560000Y-115491000D02*
X137114000Y-115491000D01*
X150861000Y-115531000D02*
X145440000Y-115531000D01*
X142560000Y-115531000D02*
X137139000Y-115531000D01*
X150836000Y-115571000D02*
X145440000Y-115571000D01*
X142560000Y-115571000D02*
X137164000Y-115571000D01*
X150811000Y-115611000D02*
X145440000Y-115611000D01*
X142560000Y-115611000D02*
X137189000Y-115611000D01*
X150785000Y-115651000D02*
X145440000Y-115651000D01*
X142560000Y-115651000D02*
X137215000Y-115651000D01*
X150759000Y-115691000D02*
X145440000Y-115691000D01*
X142560000Y-115691000D02*
X137241000Y-115691000D01*
X150733000Y-115731000D02*
X145440000Y-115731000D01*
X142560000Y-115731000D02*
X137267000Y-115731000D01*
X150706000Y-115771000D02*
X145440000Y-115771000D01*
X142560000Y-115771000D02*
X137294000Y-115771000D01*
X150679000Y-115811000D02*
X145440000Y-115811000D01*
X142560000Y-115811000D02*
X137321000Y-115811000D01*
X150652000Y-115851000D02*
X145440000Y-115851000D01*
X142560000Y-115851000D02*
X137348000Y-115851000D01*
X150624000Y-115891000D02*
X145440000Y-115891000D01*
X142560000Y-115891000D02*
X137376000Y-115891000D01*
X150596000Y-115931000D02*
X145440000Y-115931000D01*
X142560000Y-115931000D02*
X137404000Y-115931000D01*
X150568000Y-115971000D02*
X145440000Y-115971000D01*
X142560000Y-115971000D02*
X137432000Y-115971000D01*
X150539000Y-116011000D02*
X145440000Y-116011000D01*
X142560000Y-116011000D02*
X137461000Y-116011000D01*
X150510000Y-116051000D02*
X145440000Y-116051000D01*
X142560000Y-116051000D02*
X137490000Y-116051000D01*
X150480000Y-116091000D02*
X145440000Y-116091000D01*
X142560000Y-116091000D02*
X137520000Y-116091000D01*
X150450000Y-116131000D02*
X145440000Y-116131000D01*
X142560000Y-116131000D02*
X137550000Y-116131000D01*
X150420000Y-116171000D02*
X145440000Y-116171000D01*
X142560000Y-116171000D02*
X137580000Y-116171000D01*
X150390000Y-116211000D02*
X145440000Y-116211000D01*
X142560000Y-116211000D02*
X137610000Y-116211000D01*
X150358000Y-116251000D02*
X145440000Y-116251000D01*
X142560000Y-116251000D02*
X137642000Y-116251000D01*
X150327000Y-116291000D02*
X145440000Y-116291000D01*
X142560000Y-116291000D02*
X137673000Y-116291000D01*
X150295000Y-116331000D02*
X145440000Y-116331000D01*
X142560000Y-116331000D02*
X137705000Y-116331000D01*
X150263000Y-116371000D02*
X145440000Y-116371000D01*
X142560000Y-116371000D02*
X137737000Y-116371000D01*
X150230000Y-116411000D02*
X145440000Y-116411000D01*
X142560000Y-116411000D02*
X137770000Y-116411000D01*
X150197000Y-116451000D02*
X137803000Y-116451000D01*
X150163000Y-116491000D02*
X137837000Y-116491000D01*
X150129000Y-116531000D02*
X137871000Y-116531000D01*
X150095000Y-116571000D02*
X137905000Y-116571000D01*
X150060000Y-116611000D02*
X137940000Y-116611000D01*
X150025000Y-116651000D02*
X137975000Y-116651000D01*
X149989000Y-116691000D02*
X138011000Y-116691000D01*
X149952000Y-116731000D02*
X138048000Y-116731000D01*
X149916000Y-116771000D02*
X138084000Y-116771000D01*
X149878000Y-116811000D02*
X138122000Y-116811000D01*
X149840000Y-116851000D02*
X138160000Y-116851000D01*
X149802000Y-116891000D02*
X138198000Y-116891000D01*
X149763000Y-116931000D02*
X138237000Y-116931000D01*
X149724000Y-116971000D02*
X138276000Y-116971000D01*
X149684000Y-117011000D02*
X138316000Y-117011000D01*
X149643000Y-117051000D02*
X138357000Y-117051000D01*
X149602000Y-117091000D02*
X138398000Y-117091000D01*
X149560000Y-117131000D02*
X138440000Y-117131000D01*
X149518000Y-117171000D02*
X138482000Y-117171000D01*
X149475000Y-117211000D02*
X138525000Y-117211000D01*
X149432000Y-117251000D02*
X138568000Y-117251000D01*
X149388000Y-117291000D02*
X138612000Y-117291000D01*
X149343000Y-117331000D02*
X138657000Y-117331000D01*
X149297000Y-117371000D02*
X138703000Y-117371000D01*
X149251000Y-117411000D02*
X138749000Y-117411000D01*
X149204000Y-117451000D02*
X138796000Y-117451000D01*
X149156000Y-117491000D02*
X138844000Y-117491000D01*
X149108000Y-117531000D02*
X138892000Y-117531000D01*
X149059000Y-117571000D02*
X138941000Y-117571000D01*
X149009000Y-117611000D02*
X138991000Y-117611000D01*
X148958000Y-117651000D02*
X139042000Y-117651000D01*
X148906000Y-117691000D02*
X139094000Y-117691000D01*
X148854000Y-117731000D02*
X139146000Y-117731000D01*
X148800000Y-117771000D02*
X139200000Y-117771000D01*
X148746000Y-117811000D02*
X139254000Y-117811000D01*
X148691000Y-117851000D02*
X139309000Y-117851000D01*
X148634000Y-117891000D02*
X139366000Y-117891000D01*
X148577000Y-117931000D02*
X139423000Y-117931000D01*
X148519000Y-117971000D02*
X139481000Y-117971000D01*
X148459000Y-118011000D02*
X139541000Y-118011000D01*
X148398000Y-118051000D02*
X139602000Y-118051000D01*
X148336000Y-118091000D02*
X139664000Y-118091000D01*
X148273000Y-118131000D02*
X139727000Y-118131000D01*
X148209000Y-118171000D02*
X139791000Y-118171000D01*
X148143000Y-118211000D02*
X139857000Y-118211000D01*
X148076000Y-118251000D02*
X139924000Y-118251000D01*
X148007000Y-118291000D02*
X139993000Y-118291000D01*
X147936000Y-118331000D02*
X140064000Y-118331000D01*
X147864000Y-118371000D02*
X140136000Y-118371000D01*
X147790000Y-118411000D02*
X140210000Y-118411000D01*
X147715000Y-118451000D02*
X140285000Y-118451000D01*
X147637000Y-118491000D02*
X140363000Y-118491000D01*
X147557000Y-118531000D02*
X140443000Y-118531000D01*
X147475000Y-118571000D02*
X140525000Y-118571000D01*
X147390000Y-118611000D02*
X140610000Y-118611000D01*
X147303000Y-118651000D02*
X140697000Y-118651000D01*
X147213000Y-118691000D02*
X140787000Y-118691000D01*
X147120000Y-118731000D02*
X140880000Y-118731000D01*
X147024000Y-118771000D02*
X140976000Y-118771000D01*
X146924000Y-118811000D02*
X141076000Y-118811000D01*
X146820000Y-118851000D02*
X141180000Y-118851000D01*
X146711000Y-118891000D02*
X141289000Y-118891000D01*
X146597000Y-118931000D02*
X141403000Y-118931000D01*
X146478000Y-118971000D02*
X141522000Y-118971000D01*
X146351000Y-119011000D02*
X141649000Y-119011000D01*
X146218000Y-119051000D02*
X141782000Y-119051000D01*
X146074000Y-119091000D02*
X141926000Y-119091000D01*
X145920000Y-119131000D02*
X142080000Y-119131000D01*
X145752000Y-119171000D02*
X142248000Y-119171000D01*
X145564000Y-119211000D02*
X142436000Y-119211000D01*
X145351000Y-119251000D02*
X142649000Y-119251000D01*
X145098000Y-119291000D02*
X142902000Y-119291000D01*
X144765000Y-119331000D02*
X143235000Y-119331000D01*
X152120000Y-111250000D02*
G75*
G03*
X152120000Y-111250000I-8120000J0D01*
G01*
%TO.C,JP2*%
X105875000Y-93000000D02*
X108675000Y-93000000D01*
X105875000Y-95000000D02*
X105875000Y-93000000D01*
X108675000Y-93000000D02*
X108675000Y-95000000D01*
X108675000Y-95000000D02*
X105875000Y-95000000D01*
%TO.C,C9*%
X139445000Y-72439491D02*
X139445000Y-70839491D01*
X138645000Y-71639491D02*
X140245000Y-71639491D01*
X135919000Y-63750000D02*
X152081000Y-63750000D01*
X135920000Y-63710000D02*
X152080000Y-63710000D01*
X135920000Y-63670000D02*
X152080000Y-63670000D01*
X135920000Y-63630000D02*
X152080000Y-63630000D01*
X135921000Y-63590000D02*
X152079000Y-63590000D01*
X135922000Y-63550000D02*
X152078000Y-63550000D01*
X135923000Y-63510000D02*
X152077000Y-63510000D01*
X135924000Y-63470000D02*
X152076000Y-63470000D01*
X135926000Y-63430000D02*
X152074000Y-63430000D01*
X135927000Y-63390000D02*
X152073000Y-63390000D01*
X135929000Y-63350000D02*
X152071000Y-63350000D01*
X135931000Y-63310000D02*
X152069000Y-63310000D01*
X135934000Y-63270000D02*
X152066000Y-63270000D01*
X135936000Y-63230000D02*
X152064000Y-63230000D01*
X135939000Y-63190000D02*
X152061000Y-63190000D01*
X135942000Y-63150000D02*
X152058000Y-63150000D01*
X135945000Y-63110000D02*
X152055000Y-63110000D01*
X135948000Y-63070000D02*
X152052000Y-63070000D01*
X135951000Y-63029000D02*
X152049000Y-63029000D01*
X135955000Y-62989000D02*
X152045000Y-62989000D01*
X135959000Y-62949000D02*
X152041000Y-62949000D01*
X135963000Y-62909000D02*
X152037000Y-62909000D01*
X135967000Y-62869000D02*
X152033000Y-62869000D01*
X135972000Y-62829000D02*
X152028000Y-62829000D01*
X135976000Y-62789000D02*
X152024000Y-62789000D01*
X135981000Y-62749000D02*
X152019000Y-62749000D01*
X135986000Y-62709000D02*
X152014000Y-62709000D01*
X135992000Y-62669000D02*
X152008000Y-62669000D01*
X135997000Y-62629000D02*
X152003000Y-62629000D01*
X136003000Y-62589000D02*
X151997000Y-62589000D01*
X136009000Y-62549000D02*
X151991000Y-62549000D01*
X136015000Y-62509000D02*
X151985000Y-62509000D01*
X136021000Y-62469000D02*
X151979000Y-62469000D01*
X136028000Y-62429000D02*
X151972000Y-62429000D01*
X136034000Y-62389000D02*
X151966000Y-62389000D01*
X136041000Y-62349000D02*
X151959000Y-62349000D01*
X136048000Y-62309000D02*
X151952000Y-62309000D01*
X136056000Y-62269000D02*
X151944000Y-62269000D01*
X136063000Y-62229000D02*
X151937000Y-62229000D01*
X136071000Y-62189000D02*
X151929000Y-62189000D01*
X136079000Y-62149000D02*
X151921000Y-62149000D01*
X136087000Y-62109000D02*
X151913000Y-62109000D01*
X136095000Y-62069000D02*
X151905000Y-62069000D01*
X136104000Y-62029000D02*
X151896000Y-62029000D01*
X136113000Y-61989000D02*
X151887000Y-61989000D01*
X136122000Y-61949000D02*
X151878000Y-61949000D01*
X136131000Y-61909000D02*
X151869000Y-61909000D01*
X136140000Y-61869000D02*
X151860000Y-61869000D01*
X136150000Y-61829000D02*
X151850000Y-61829000D01*
X136160000Y-61789000D02*
X151840000Y-61789000D01*
X136170000Y-61749000D02*
X151830000Y-61749000D01*
X136180000Y-61709000D02*
X151820000Y-61709000D01*
X136190000Y-61669000D02*
X151810000Y-61669000D01*
X136201000Y-61629000D02*
X151799000Y-61629000D01*
X136212000Y-61589000D02*
X151788000Y-61589000D01*
X136223000Y-61549000D02*
X151777000Y-61549000D01*
X136235000Y-61509000D02*
X151765000Y-61509000D01*
X136246000Y-61469000D02*
X151754000Y-61469000D01*
X136258000Y-61429000D02*
X142560000Y-61429000D01*
X145440000Y-61429000D02*
X151742000Y-61429000D01*
X136270000Y-61389000D02*
X142560000Y-61389000D01*
X145440000Y-61389000D02*
X151730000Y-61389000D01*
X136282000Y-61349000D02*
X142560000Y-61349000D01*
X145440000Y-61349000D02*
X151718000Y-61349000D01*
X136295000Y-61309000D02*
X142560000Y-61309000D01*
X145440000Y-61309000D02*
X151705000Y-61309000D01*
X136307000Y-61269000D02*
X142560000Y-61269000D01*
X145440000Y-61269000D02*
X151693000Y-61269000D01*
X136320000Y-61229000D02*
X142560000Y-61229000D01*
X145440000Y-61229000D02*
X151680000Y-61229000D01*
X136334000Y-61189000D02*
X142560000Y-61189000D01*
X145440000Y-61189000D02*
X151666000Y-61189000D01*
X136347000Y-61149000D02*
X142560000Y-61149000D01*
X145440000Y-61149000D02*
X151653000Y-61149000D01*
X136361000Y-61109000D02*
X142560000Y-61109000D01*
X145440000Y-61109000D02*
X151639000Y-61109000D01*
X136375000Y-61069000D02*
X142560000Y-61069000D01*
X145440000Y-61069000D02*
X151625000Y-61069000D01*
X136389000Y-61029000D02*
X142560000Y-61029000D01*
X145440000Y-61029000D02*
X151611000Y-61029000D01*
X136403000Y-60989000D02*
X142560000Y-60989000D01*
X145440000Y-60989000D02*
X151597000Y-60989000D01*
X136418000Y-60949000D02*
X142560000Y-60949000D01*
X145440000Y-60949000D02*
X151582000Y-60949000D01*
X136432000Y-60909000D02*
X142560000Y-60909000D01*
X145440000Y-60909000D02*
X151568000Y-60909000D01*
X136447000Y-60869000D02*
X142560000Y-60869000D01*
X145440000Y-60869000D02*
X151553000Y-60869000D01*
X136463000Y-60829000D02*
X142560000Y-60829000D01*
X145440000Y-60829000D02*
X151537000Y-60829000D01*
X136478000Y-60789000D02*
X142560000Y-60789000D01*
X145440000Y-60789000D02*
X151522000Y-60789000D01*
X136494000Y-60749000D02*
X142560000Y-60749000D01*
X145440000Y-60749000D02*
X151506000Y-60749000D01*
X136510000Y-60709000D02*
X142560000Y-60709000D01*
X145440000Y-60709000D02*
X151490000Y-60709000D01*
X136526000Y-60669000D02*
X142560000Y-60669000D01*
X145440000Y-60669000D02*
X151474000Y-60669000D01*
X136543000Y-60629000D02*
X142560000Y-60629000D01*
X145440000Y-60629000D02*
X151457000Y-60629000D01*
X136560000Y-60589000D02*
X142560000Y-60589000D01*
X145440000Y-60589000D02*
X151440000Y-60589000D01*
X136577000Y-60549000D02*
X142560000Y-60549000D01*
X145440000Y-60549000D02*
X151423000Y-60549000D01*
X136594000Y-60509000D02*
X142560000Y-60509000D01*
X145440000Y-60509000D02*
X151406000Y-60509000D01*
X136611000Y-60469000D02*
X142560000Y-60469000D01*
X145440000Y-60469000D02*
X151389000Y-60469000D01*
X136629000Y-60429000D02*
X142560000Y-60429000D01*
X145440000Y-60429000D02*
X151371000Y-60429000D01*
X136647000Y-60389000D02*
X142560000Y-60389000D01*
X145440000Y-60389000D02*
X151353000Y-60389000D01*
X136666000Y-60349000D02*
X142560000Y-60349000D01*
X145440000Y-60349000D02*
X151334000Y-60349000D01*
X136684000Y-60309000D02*
X142560000Y-60309000D01*
X145440000Y-60309000D02*
X151316000Y-60309000D01*
X136703000Y-60269000D02*
X142560000Y-60269000D01*
X145440000Y-60269000D02*
X151297000Y-60269000D01*
X136722000Y-60229000D02*
X142560000Y-60229000D01*
X145440000Y-60229000D02*
X151278000Y-60229000D01*
X136742000Y-60189000D02*
X142560000Y-60189000D01*
X145440000Y-60189000D02*
X151258000Y-60189000D01*
X136761000Y-60149000D02*
X142560000Y-60149000D01*
X145440000Y-60149000D02*
X151239000Y-60149000D01*
X136781000Y-60109000D02*
X142560000Y-60109000D01*
X145440000Y-60109000D02*
X151219000Y-60109000D01*
X136801000Y-60069000D02*
X142560000Y-60069000D01*
X145440000Y-60069000D02*
X151199000Y-60069000D01*
X136822000Y-60029000D02*
X142560000Y-60029000D01*
X145440000Y-60029000D02*
X151178000Y-60029000D01*
X136843000Y-59989000D02*
X142560000Y-59989000D01*
X145440000Y-59989000D02*
X151157000Y-59989000D01*
X136864000Y-59949000D02*
X142560000Y-59949000D01*
X145440000Y-59949000D02*
X151136000Y-59949000D01*
X136885000Y-59909000D02*
X142560000Y-59909000D01*
X145440000Y-59909000D02*
X151115000Y-59909000D01*
X136906000Y-59869000D02*
X142560000Y-59869000D01*
X145440000Y-59869000D02*
X151094000Y-59869000D01*
X136928000Y-59829000D02*
X142560000Y-59829000D01*
X145440000Y-59829000D02*
X151072000Y-59829000D01*
X136951000Y-59789000D02*
X142560000Y-59789000D01*
X145440000Y-59789000D02*
X151049000Y-59789000D01*
X136973000Y-59749000D02*
X142560000Y-59749000D01*
X145440000Y-59749000D02*
X151027000Y-59749000D01*
X136996000Y-59709000D02*
X142560000Y-59709000D01*
X145440000Y-59709000D02*
X151004000Y-59709000D01*
X137019000Y-59669000D02*
X142560000Y-59669000D01*
X145440000Y-59669000D02*
X150981000Y-59669000D01*
X137042000Y-59629000D02*
X142560000Y-59629000D01*
X145440000Y-59629000D02*
X150958000Y-59629000D01*
X137066000Y-59589000D02*
X142560000Y-59589000D01*
X145440000Y-59589000D02*
X150934000Y-59589000D01*
X137090000Y-59549000D02*
X142560000Y-59549000D01*
X145440000Y-59549000D02*
X150910000Y-59549000D01*
X137114000Y-59509000D02*
X142560000Y-59509000D01*
X145440000Y-59509000D02*
X150886000Y-59509000D01*
X137139000Y-59469000D02*
X142560000Y-59469000D01*
X145440000Y-59469000D02*
X150861000Y-59469000D01*
X137164000Y-59429000D02*
X142560000Y-59429000D01*
X145440000Y-59429000D02*
X150836000Y-59429000D01*
X137189000Y-59389000D02*
X142560000Y-59389000D01*
X145440000Y-59389000D02*
X150811000Y-59389000D01*
X137215000Y-59349000D02*
X142560000Y-59349000D01*
X145440000Y-59349000D02*
X150785000Y-59349000D01*
X137241000Y-59309000D02*
X142560000Y-59309000D01*
X145440000Y-59309000D02*
X150759000Y-59309000D01*
X137267000Y-59269000D02*
X142560000Y-59269000D01*
X145440000Y-59269000D02*
X150733000Y-59269000D01*
X137294000Y-59229000D02*
X142560000Y-59229000D01*
X145440000Y-59229000D02*
X150706000Y-59229000D01*
X137321000Y-59189000D02*
X142560000Y-59189000D01*
X145440000Y-59189000D02*
X150679000Y-59189000D01*
X137348000Y-59149000D02*
X142560000Y-59149000D01*
X145440000Y-59149000D02*
X150652000Y-59149000D01*
X137376000Y-59109000D02*
X142560000Y-59109000D01*
X145440000Y-59109000D02*
X150624000Y-59109000D01*
X137404000Y-59069000D02*
X142560000Y-59069000D01*
X145440000Y-59069000D02*
X150596000Y-59069000D01*
X137432000Y-59029000D02*
X142560000Y-59029000D01*
X145440000Y-59029000D02*
X150568000Y-59029000D01*
X137461000Y-58989000D02*
X142560000Y-58989000D01*
X145440000Y-58989000D02*
X150539000Y-58989000D01*
X137490000Y-58949000D02*
X142560000Y-58949000D01*
X145440000Y-58949000D02*
X150510000Y-58949000D01*
X137520000Y-58909000D02*
X142560000Y-58909000D01*
X145440000Y-58909000D02*
X150480000Y-58909000D01*
X137550000Y-58869000D02*
X142560000Y-58869000D01*
X145440000Y-58869000D02*
X150450000Y-58869000D01*
X137580000Y-58829000D02*
X142560000Y-58829000D01*
X145440000Y-58829000D02*
X150420000Y-58829000D01*
X137610000Y-58789000D02*
X142560000Y-58789000D01*
X145440000Y-58789000D02*
X150390000Y-58789000D01*
X137642000Y-58749000D02*
X142560000Y-58749000D01*
X145440000Y-58749000D02*
X150358000Y-58749000D01*
X137673000Y-58709000D02*
X142560000Y-58709000D01*
X145440000Y-58709000D02*
X150327000Y-58709000D01*
X137705000Y-58669000D02*
X142560000Y-58669000D01*
X145440000Y-58669000D02*
X150295000Y-58669000D01*
X137737000Y-58629000D02*
X142560000Y-58629000D01*
X145440000Y-58629000D02*
X150263000Y-58629000D01*
X137770000Y-58589000D02*
X142560000Y-58589000D01*
X145440000Y-58589000D02*
X150230000Y-58589000D01*
X137803000Y-58549000D02*
X150197000Y-58549000D01*
X137837000Y-58509000D02*
X150163000Y-58509000D01*
X137871000Y-58469000D02*
X150129000Y-58469000D01*
X137905000Y-58429000D02*
X150095000Y-58429000D01*
X137940000Y-58389000D02*
X150060000Y-58389000D01*
X137975000Y-58349000D02*
X150025000Y-58349000D01*
X138011000Y-58309000D02*
X149989000Y-58309000D01*
X138048000Y-58269000D02*
X149952000Y-58269000D01*
X138084000Y-58229000D02*
X149916000Y-58229000D01*
X138122000Y-58189000D02*
X149878000Y-58189000D01*
X138160000Y-58149000D02*
X149840000Y-58149000D01*
X138198000Y-58109000D02*
X149802000Y-58109000D01*
X138237000Y-58069000D02*
X149763000Y-58069000D01*
X138276000Y-58029000D02*
X149724000Y-58029000D01*
X138316000Y-57989000D02*
X149684000Y-57989000D01*
X138357000Y-57949000D02*
X149643000Y-57949000D01*
X138398000Y-57909000D02*
X149602000Y-57909000D01*
X138440000Y-57869000D02*
X149560000Y-57869000D01*
X138482000Y-57829000D02*
X149518000Y-57829000D01*
X138525000Y-57789000D02*
X149475000Y-57789000D01*
X138568000Y-57749000D02*
X149432000Y-57749000D01*
X138612000Y-57709000D02*
X149388000Y-57709000D01*
X138657000Y-57669000D02*
X149343000Y-57669000D01*
X138703000Y-57629000D02*
X149297000Y-57629000D01*
X138749000Y-57589000D02*
X149251000Y-57589000D01*
X138796000Y-57549000D02*
X149204000Y-57549000D01*
X138844000Y-57509000D02*
X149156000Y-57509000D01*
X138892000Y-57469000D02*
X149108000Y-57469000D01*
X138941000Y-57429000D02*
X149059000Y-57429000D01*
X138991000Y-57389000D02*
X149009000Y-57389000D01*
X139042000Y-57349000D02*
X148958000Y-57349000D01*
X139094000Y-57309000D02*
X148906000Y-57309000D01*
X139146000Y-57269000D02*
X148854000Y-57269000D01*
X139200000Y-57229000D02*
X148800000Y-57229000D01*
X139254000Y-57189000D02*
X148746000Y-57189000D01*
X139309000Y-57149000D02*
X148691000Y-57149000D01*
X139366000Y-57109000D02*
X148634000Y-57109000D01*
X139423000Y-57069000D02*
X148577000Y-57069000D01*
X139481000Y-57029000D02*
X148519000Y-57029000D01*
X139541000Y-56989000D02*
X148459000Y-56989000D01*
X139602000Y-56949000D02*
X148398000Y-56949000D01*
X139664000Y-56909000D02*
X148336000Y-56909000D01*
X139727000Y-56869000D02*
X148273000Y-56869000D01*
X139791000Y-56829000D02*
X148209000Y-56829000D01*
X139857000Y-56789000D02*
X148143000Y-56789000D01*
X139924000Y-56749000D02*
X148076000Y-56749000D01*
X139993000Y-56709000D02*
X148007000Y-56709000D01*
X140064000Y-56669000D02*
X147936000Y-56669000D01*
X140136000Y-56629000D02*
X147864000Y-56629000D01*
X140210000Y-56589000D02*
X147790000Y-56589000D01*
X140285000Y-56549000D02*
X147715000Y-56549000D01*
X140363000Y-56509000D02*
X147637000Y-56509000D01*
X140443000Y-56469000D02*
X147557000Y-56469000D01*
X140525000Y-56429000D02*
X147475000Y-56429000D01*
X140610000Y-56389000D02*
X147390000Y-56389000D01*
X140697000Y-56349000D02*
X147303000Y-56349000D01*
X140787000Y-56309000D02*
X147213000Y-56309000D01*
X140880000Y-56269000D02*
X147120000Y-56269000D01*
X140976000Y-56229000D02*
X147024000Y-56229000D01*
X141076000Y-56189000D02*
X146924000Y-56189000D01*
X141180000Y-56149000D02*
X146820000Y-56149000D01*
X141289000Y-56109000D02*
X146711000Y-56109000D01*
X141403000Y-56069000D02*
X146597000Y-56069000D01*
X141522000Y-56029000D02*
X146478000Y-56029000D01*
X141649000Y-55989000D02*
X146351000Y-55989000D01*
X141782000Y-55949000D02*
X146218000Y-55949000D01*
X141926000Y-55909000D02*
X146074000Y-55909000D01*
X142080000Y-55869000D02*
X145920000Y-55869000D01*
X142248000Y-55829000D02*
X145752000Y-55829000D01*
X142436000Y-55789000D02*
X145564000Y-55789000D01*
X142649000Y-55749000D02*
X145351000Y-55749000D01*
X142902000Y-55709000D02*
X145098000Y-55709000D01*
X143235000Y-55669000D02*
X144765000Y-55669000D01*
X152120000Y-63750000D02*
G75*
G03*
X152120000Y-63750000I-8120000J0D01*
G01*
%TO.C,R2*%
X127772936Y-89815000D02*
X128227064Y-89815000D01*
X127772936Y-91285000D02*
X128227064Y-91285000D01*
D16*
%TO.C,L1*%
X155450000Y-65800000D02*
X155450000Y-65800000D01*
X155450000Y-65800000D02*
X155450000Y-65800000D01*
X155450000Y-65900000D02*
X155450000Y-65900000D01*
D15*
X157500000Y-61000000D02*
X157500000Y-61000000D01*
X157500000Y-61000000D02*
X157500000Y-61000000D01*
X157500000Y-61000000D02*
X157500000Y-63500000D01*
X157500000Y-61000000D02*
X169000000Y-61000000D01*
X157500000Y-63500000D02*
X157500000Y-61000000D01*
X157500000Y-63500000D02*
X157500000Y-63500000D01*
X157500000Y-68750000D02*
X157500000Y-68750000D01*
X157500000Y-68750000D02*
X157500000Y-71000000D01*
X157500000Y-71000000D02*
X157500000Y-68750000D01*
X157500000Y-71000000D02*
X157500000Y-71000000D01*
X157500000Y-71000000D02*
X157500000Y-71000000D01*
X157500000Y-71000000D02*
X169000000Y-71000000D01*
X169000000Y-61000000D02*
X157500000Y-61000000D01*
X169000000Y-61000000D02*
X169000000Y-61000000D01*
X169000000Y-61000000D02*
X169000000Y-61000000D01*
X169000000Y-61000000D02*
X169000000Y-63500000D01*
X169000000Y-63500000D02*
X169000000Y-61000000D01*
X169000000Y-63500000D02*
X169000000Y-63500000D01*
X169000000Y-68500000D02*
X169000000Y-68500000D01*
X169000000Y-68500000D02*
X169000000Y-71000000D01*
X169000000Y-71000000D02*
X157500000Y-71000000D01*
X169000000Y-71000000D02*
X169000000Y-68500000D01*
X169000000Y-71000000D02*
X169000000Y-71000000D01*
X169000000Y-71000000D02*
X169000000Y-71000000D01*
D16*
X155450000Y-65900000D02*
G75*
G03*
X155450000Y-65800000I0J50000D01*
G01*
X155450000Y-65800000D02*
G75*
G03*
X155450000Y-65900000I0J-50000D01*
G01*
X155450000Y-65800000D02*
G75*
G03*
X155450000Y-65900000I0J-50000D01*
G01*
D14*
%TO.C,R7*%
X180265000Y-80727064D02*
X180265000Y-80272936D01*
X181735000Y-80727064D02*
X181735000Y-80272936D01*
%TO.C,C4*%
X117701248Y-82265000D02*
X118223752Y-82265000D01*
X117701248Y-83735000D02*
X118223752Y-83735000D01*
D16*
%TO.C,L3*%
X155450000Y-96800000D02*
X155450000Y-96800000D01*
X155450000Y-96800000D02*
X155450000Y-96800000D01*
X155450000Y-96900000D02*
X155450000Y-96900000D01*
D15*
X157500000Y-92000000D02*
X157500000Y-92000000D01*
X157500000Y-92000000D02*
X157500000Y-92000000D01*
X157500000Y-92000000D02*
X157500000Y-94500000D01*
X157500000Y-92000000D02*
X169000000Y-92000000D01*
X157500000Y-94500000D02*
X157500000Y-92000000D01*
X157500000Y-94500000D02*
X157500000Y-94500000D01*
X157500000Y-99750000D02*
X157500000Y-99750000D01*
X157500000Y-99750000D02*
X157500000Y-102000000D01*
X157500000Y-102000000D02*
X157500000Y-99750000D01*
X157500000Y-102000000D02*
X157500000Y-102000000D01*
X157500000Y-102000000D02*
X157500000Y-102000000D01*
X157500000Y-102000000D02*
X169000000Y-102000000D01*
X169000000Y-92000000D02*
X157500000Y-92000000D01*
X169000000Y-92000000D02*
X169000000Y-92000000D01*
X169000000Y-92000000D02*
X169000000Y-92000000D01*
X169000000Y-92000000D02*
X169000000Y-94500000D01*
X169000000Y-94500000D02*
X169000000Y-92000000D01*
X169000000Y-94500000D02*
X169000000Y-94500000D01*
X169000000Y-99500000D02*
X169000000Y-99500000D01*
X169000000Y-99500000D02*
X169000000Y-102000000D01*
X169000000Y-102000000D02*
X157500000Y-102000000D01*
X169000000Y-102000000D02*
X169000000Y-99500000D01*
X169000000Y-102000000D02*
X169000000Y-102000000D01*
X169000000Y-102000000D02*
X169000000Y-102000000D01*
D16*
X155450000Y-96900000D02*
G75*
G03*
X155450000Y-96800000I0J50000D01*
G01*
X155450000Y-96800000D02*
G75*
G03*
X155450000Y-96900000I0J-50000D01*
G01*
X155450000Y-96800000D02*
G75*
G03*
X155450000Y-96900000I0J-50000D01*
G01*
D15*
%TO.C,J3*%
X104000000Y-108000000D02*
X104000000Y-98000000D01*
X113000000Y-108000000D02*
X104000000Y-108000000D01*
X104000000Y-98000000D02*
X113000000Y-98000000D01*
X113000000Y-98000000D02*
X113000000Y-108000000D01*
D14*
%TO.C,JP1*%
X105875000Y-89250000D02*
X108675000Y-89250000D01*
X105875000Y-91250000D02*
X105875000Y-89250000D01*
X108675000Y-89250000D02*
X108675000Y-91250000D01*
X108675000Y-91250000D02*
X105875000Y-91250000D01*
%TO.C,C1*%
X117701248Y-73235000D02*
X118223752Y-73235000D01*
X117701248Y-74705000D02*
X118223752Y-74705000D01*
%TO.C,C2*%
X117701248Y-76245000D02*
X118223752Y-76245000D01*
X117701248Y-77715000D02*
X118223752Y-77715000D01*
D16*
%TO.C,L4*%
X155450000Y-108800000D02*
X155450000Y-108800000D01*
X155450000Y-108800000D02*
X155450000Y-108800000D01*
X155450000Y-108900000D02*
X155450000Y-108900000D01*
D15*
X157500000Y-104000000D02*
X157500000Y-104000000D01*
X157500000Y-104000000D02*
X157500000Y-104000000D01*
X157500000Y-104000000D02*
X157500000Y-106500000D01*
X157500000Y-104000000D02*
X169000000Y-104000000D01*
X157500000Y-106500000D02*
X157500000Y-104000000D01*
X157500000Y-106500000D02*
X157500000Y-106500000D01*
X157500000Y-111750000D02*
X157500000Y-111750000D01*
X157500000Y-111750000D02*
X157500000Y-114000000D01*
X157500000Y-114000000D02*
X157500000Y-111750000D01*
X157500000Y-114000000D02*
X157500000Y-114000000D01*
X157500000Y-114000000D02*
X157500000Y-114000000D01*
X157500000Y-114000000D02*
X169000000Y-114000000D01*
X169000000Y-104000000D02*
X157500000Y-104000000D01*
X169000000Y-104000000D02*
X169000000Y-104000000D01*
X169000000Y-104000000D02*
X169000000Y-104000000D01*
X169000000Y-104000000D02*
X169000000Y-106500000D01*
X169000000Y-106500000D02*
X169000000Y-104000000D01*
X169000000Y-106500000D02*
X169000000Y-106500000D01*
X169000000Y-111500000D02*
X169000000Y-111500000D01*
X169000000Y-111500000D02*
X169000000Y-114000000D01*
X169000000Y-114000000D02*
X157500000Y-114000000D01*
X169000000Y-114000000D02*
X169000000Y-111500000D01*
X169000000Y-114000000D02*
X169000000Y-114000000D01*
X169000000Y-114000000D02*
X169000000Y-114000000D01*
D16*
X155450000Y-108900000D02*
G75*
G03*
X155450000Y-108800000I0J50000D01*
G01*
X155450000Y-108800000D02*
G75*
G03*
X155450000Y-108900000I0J-50000D01*
G01*
X155450000Y-108800000D02*
G75*
G03*
X155450000Y-108900000I0J-50000D01*
G01*
D14*
%TO.C,C28*%
X174265000Y-111761252D02*
X174265000Y-111238748D01*
X175735000Y-111761252D02*
X175735000Y-111238748D01*
%TO.C,C24*%
X177265000Y-80761252D02*
X177265000Y-80238748D01*
X178735000Y-80761252D02*
X178735000Y-80238748D01*
D15*
%TO.C,J4*%
X181000000Y-67000000D02*
X181000000Y-77000000D01*
X172000000Y-67000000D02*
X181000000Y-67000000D01*
X181000000Y-77000000D02*
X172000000Y-77000000D01*
X172000000Y-77000000D02*
X172000000Y-67000000D01*
D14*
%TO.C,C10*%
X137776248Y-94015000D02*
X138298752Y-94015000D01*
X137776248Y-95485000D02*
X138298752Y-95485000D01*
%TO.C,J1*%
X120670000Y-91730000D02*
X120670000Y-94330000D01*
X120670000Y-91730000D02*
X123330000Y-91730000D01*
X120670000Y-94330000D02*
X123330000Y-94330000D01*
X122000000Y-89130000D02*
X123330000Y-89130000D01*
X123330000Y-89130000D02*
X123330000Y-90460000D01*
X123330000Y-91730000D02*
X123330000Y-94330000D01*
D16*
%TO.C,L2*%
X155450000Y-77800000D02*
X155450000Y-77800000D01*
X155450000Y-77800000D02*
X155450000Y-77800000D01*
X155450000Y-77900000D02*
X155450000Y-77900000D01*
D15*
X157500000Y-73000000D02*
X157500000Y-73000000D01*
X157500000Y-73000000D02*
X157500000Y-73000000D01*
X157500000Y-73000000D02*
X157500000Y-75500000D01*
X157500000Y-73000000D02*
X169000000Y-73000000D01*
X157500000Y-75500000D02*
X157500000Y-73000000D01*
X157500000Y-75500000D02*
X157500000Y-75500000D01*
X157500000Y-80750000D02*
X157500000Y-80750000D01*
X157500000Y-80750000D02*
X157500000Y-83000000D01*
X157500000Y-83000000D02*
X157500000Y-80750000D01*
X157500000Y-83000000D02*
X157500000Y-83000000D01*
X157500000Y-83000000D02*
X157500000Y-83000000D01*
X157500000Y-83000000D02*
X169000000Y-83000000D01*
X169000000Y-73000000D02*
X157500000Y-73000000D01*
X169000000Y-73000000D02*
X169000000Y-73000000D01*
X169000000Y-73000000D02*
X169000000Y-73000000D01*
X169000000Y-73000000D02*
X169000000Y-75500000D01*
X169000000Y-75500000D02*
X169000000Y-73000000D01*
X169000000Y-75500000D02*
X169000000Y-75500000D01*
X169000000Y-80500000D02*
X169000000Y-80500000D01*
X169000000Y-80500000D02*
X169000000Y-83000000D01*
X169000000Y-83000000D02*
X157500000Y-83000000D01*
X169000000Y-83000000D02*
X169000000Y-80500000D01*
X169000000Y-83000000D02*
X169000000Y-83000000D01*
X169000000Y-83000000D02*
X169000000Y-83000000D01*
D16*
X155450000Y-77900000D02*
G75*
G03*
X155450000Y-77800000I0J50000D01*
G01*
X155450000Y-77800000D02*
G75*
G03*
X155450000Y-77900000I0J-50000D01*
G01*
X155450000Y-77800000D02*
G75*
G03*
X155450000Y-77900000I0J-50000D01*
G01*
D14*
%TO.C,C3*%
X117701248Y-79255000D02*
X118223752Y-79255000D01*
X117701248Y-80725000D02*
X118223752Y-80725000D01*
%TO.C,C23*%
X177265000Y-63798752D02*
X177265000Y-63276248D01*
X178735000Y-63798752D02*
X178735000Y-63276248D01*
%TO.C,C29*%
X177265000Y-94761252D02*
X177265000Y-94238748D01*
X178735000Y-94761252D02*
X178735000Y-94238748D01*
%TO.C,R1*%
X127772936Y-82265000D02*
X128227064Y-82265000D01*
X127772936Y-83735000D02*
X128227064Y-83735000D01*
D15*
%TO.C,J2*%
X104000000Y-87000000D02*
X104000000Y-67000000D01*
X113000000Y-87000000D02*
X104000000Y-87000000D01*
X104000000Y-67000000D02*
X113000000Y-67000000D01*
X113000000Y-67000000D02*
X113000000Y-87000000D01*
D14*
%TO.C,C14*%
X138261252Y-74735000D02*
X137738748Y-74735000D01*
X138261252Y-73265000D02*
X137738748Y-73265000D01*
%TO.C,C16*%
X146515000Y-86223752D02*
X146515000Y-85701248D01*
X147985000Y-86223752D02*
X147985000Y-85701248D01*
%TO.C,C8*%
X119995000Y-72452246D02*
X119995000Y-70852246D01*
X119195000Y-71652246D02*
X120795000Y-71652246D01*
X116469000Y-63762755D02*
X132631000Y-63762755D01*
X116470000Y-63722755D02*
X132630000Y-63722755D01*
X116470000Y-63682755D02*
X132630000Y-63682755D01*
X116470000Y-63642755D02*
X132630000Y-63642755D01*
X116471000Y-63602755D02*
X132629000Y-63602755D01*
X116472000Y-63562755D02*
X132628000Y-63562755D01*
X116473000Y-63522755D02*
X132627000Y-63522755D01*
X116474000Y-63482755D02*
X132626000Y-63482755D01*
X116476000Y-63442755D02*
X132624000Y-63442755D01*
X116477000Y-63402755D02*
X132623000Y-63402755D01*
X116479000Y-63362755D02*
X132621000Y-63362755D01*
X116481000Y-63322755D02*
X132619000Y-63322755D01*
X116484000Y-63282755D02*
X132616000Y-63282755D01*
X116486000Y-63242755D02*
X132614000Y-63242755D01*
X116489000Y-63202755D02*
X132611000Y-63202755D01*
X116492000Y-63162755D02*
X132608000Y-63162755D01*
X116495000Y-63122755D02*
X132605000Y-63122755D01*
X116498000Y-63082755D02*
X132602000Y-63082755D01*
X116501000Y-63041755D02*
X132599000Y-63041755D01*
X116505000Y-63001755D02*
X132595000Y-63001755D01*
X116509000Y-62961755D02*
X132591000Y-62961755D01*
X116513000Y-62921755D02*
X132587000Y-62921755D01*
X116517000Y-62881755D02*
X132583000Y-62881755D01*
X116522000Y-62841755D02*
X132578000Y-62841755D01*
X116526000Y-62801755D02*
X132574000Y-62801755D01*
X116531000Y-62761755D02*
X132569000Y-62761755D01*
X116536000Y-62721755D02*
X132564000Y-62721755D01*
X116542000Y-62681755D02*
X132558000Y-62681755D01*
X116547000Y-62641755D02*
X132553000Y-62641755D01*
X116553000Y-62601755D02*
X132547000Y-62601755D01*
X116559000Y-62561755D02*
X132541000Y-62561755D01*
X116565000Y-62521755D02*
X132535000Y-62521755D01*
X116571000Y-62481755D02*
X132529000Y-62481755D01*
X116578000Y-62441755D02*
X132522000Y-62441755D01*
X116584000Y-62401755D02*
X132516000Y-62401755D01*
X116591000Y-62361755D02*
X132509000Y-62361755D01*
X116598000Y-62321755D02*
X132502000Y-62321755D01*
X116606000Y-62281755D02*
X132494000Y-62281755D01*
X116613000Y-62241755D02*
X132487000Y-62241755D01*
X116621000Y-62201755D02*
X132479000Y-62201755D01*
X116629000Y-62161755D02*
X132471000Y-62161755D01*
X116637000Y-62121755D02*
X132463000Y-62121755D01*
X116645000Y-62081755D02*
X132455000Y-62081755D01*
X116654000Y-62041755D02*
X132446000Y-62041755D01*
X116663000Y-62001755D02*
X132437000Y-62001755D01*
X116672000Y-61961755D02*
X132428000Y-61961755D01*
X116681000Y-61921755D02*
X132419000Y-61921755D01*
X116690000Y-61881755D02*
X132410000Y-61881755D01*
X116700000Y-61841755D02*
X132400000Y-61841755D01*
X116710000Y-61801755D02*
X132390000Y-61801755D01*
X116720000Y-61761755D02*
X132380000Y-61761755D01*
X116730000Y-61721755D02*
X132370000Y-61721755D01*
X116740000Y-61681755D02*
X132360000Y-61681755D01*
X116751000Y-61641755D02*
X132349000Y-61641755D01*
X116762000Y-61601755D02*
X132338000Y-61601755D01*
X116773000Y-61561755D02*
X132327000Y-61561755D01*
X116785000Y-61521755D02*
X132315000Y-61521755D01*
X116796000Y-61481755D02*
X132304000Y-61481755D01*
X116808000Y-61441755D02*
X123110000Y-61441755D01*
X125990000Y-61441755D02*
X132292000Y-61441755D01*
X116820000Y-61401755D02*
X123110000Y-61401755D01*
X125990000Y-61401755D02*
X132280000Y-61401755D01*
X116832000Y-61361755D02*
X123110000Y-61361755D01*
X125990000Y-61361755D02*
X132268000Y-61361755D01*
X116845000Y-61321755D02*
X123110000Y-61321755D01*
X125990000Y-61321755D02*
X132255000Y-61321755D01*
X116857000Y-61281755D02*
X123110000Y-61281755D01*
X125990000Y-61281755D02*
X132243000Y-61281755D01*
X116870000Y-61241755D02*
X123110000Y-61241755D01*
X125990000Y-61241755D02*
X132230000Y-61241755D01*
X116884000Y-61201755D02*
X123110000Y-61201755D01*
X125990000Y-61201755D02*
X132216000Y-61201755D01*
X116897000Y-61161755D02*
X123110000Y-61161755D01*
X125990000Y-61161755D02*
X132203000Y-61161755D01*
X116911000Y-61121755D02*
X123110000Y-61121755D01*
X125990000Y-61121755D02*
X132189000Y-61121755D01*
X116925000Y-61081755D02*
X123110000Y-61081755D01*
X125990000Y-61081755D02*
X132175000Y-61081755D01*
X116939000Y-61041755D02*
X123110000Y-61041755D01*
X125990000Y-61041755D02*
X132161000Y-61041755D01*
X116953000Y-61001755D02*
X123110000Y-61001755D01*
X125990000Y-61001755D02*
X132147000Y-61001755D01*
X116968000Y-60961755D02*
X123110000Y-60961755D01*
X125990000Y-60961755D02*
X132132000Y-60961755D01*
X116982000Y-60921755D02*
X123110000Y-60921755D01*
X125990000Y-60921755D02*
X132118000Y-60921755D01*
X116997000Y-60881755D02*
X123110000Y-60881755D01*
X125990000Y-60881755D02*
X132103000Y-60881755D01*
X117013000Y-60841755D02*
X123110000Y-60841755D01*
X125990000Y-60841755D02*
X132087000Y-60841755D01*
X117028000Y-60801755D02*
X123110000Y-60801755D01*
X125990000Y-60801755D02*
X132072000Y-60801755D01*
X117044000Y-60761755D02*
X123110000Y-60761755D01*
X125990000Y-60761755D02*
X132056000Y-60761755D01*
X117060000Y-60721755D02*
X123110000Y-60721755D01*
X125990000Y-60721755D02*
X132040000Y-60721755D01*
X117076000Y-60681755D02*
X123110000Y-60681755D01*
X125990000Y-60681755D02*
X132024000Y-60681755D01*
X117093000Y-60641755D02*
X123110000Y-60641755D01*
X125990000Y-60641755D02*
X132007000Y-60641755D01*
X117110000Y-60601755D02*
X123110000Y-60601755D01*
X125990000Y-60601755D02*
X131990000Y-60601755D01*
X117127000Y-60561755D02*
X123110000Y-60561755D01*
X125990000Y-60561755D02*
X131973000Y-60561755D01*
X117144000Y-60521755D02*
X123110000Y-60521755D01*
X125990000Y-60521755D02*
X131956000Y-60521755D01*
X117161000Y-60481755D02*
X123110000Y-60481755D01*
X125990000Y-60481755D02*
X131939000Y-60481755D01*
X117179000Y-60441755D02*
X123110000Y-60441755D01*
X125990000Y-60441755D02*
X131921000Y-60441755D01*
X117197000Y-60401755D02*
X123110000Y-60401755D01*
X125990000Y-60401755D02*
X131903000Y-60401755D01*
X117216000Y-60361755D02*
X123110000Y-60361755D01*
X125990000Y-60361755D02*
X131884000Y-60361755D01*
X117234000Y-60321755D02*
X123110000Y-60321755D01*
X125990000Y-60321755D02*
X131866000Y-60321755D01*
X117253000Y-60281755D02*
X123110000Y-60281755D01*
X125990000Y-60281755D02*
X131847000Y-60281755D01*
X117272000Y-60241755D02*
X123110000Y-60241755D01*
X125990000Y-60241755D02*
X131828000Y-60241755D01*
X117292000Y-60201755D02*
X123110000Y-60201755D01*
X125990000Y-60201755D02*
X131808000Y-60201755D01*
X117311000Y-60161755D02*
X123110000Y-60161755D01*
X125990000Y-60161755D02*
X131789000Y-60161755D01*
X117331000Y-60121755D02*
X123110000Y-60121755D01*
X125990000Y-60121755D02*
X131769000Y-60121755D01*
X117351000Y-60081755D02*
X123110000Y-60081755D01*
X125990000Y-60081755D02*
X131749000Y-60081755D01*
X117372000Y-60041755D02*
X123110000Y-60041755D01*
X125990000Y-60041755D02*
X131728000Y-60041755D01*
X117393000Y-60001755D02*
X123110000Y-60001755D01*
X125990000Y-60001755D02*
X131707000Y-60001755D01*
X117414000Y-59961755D02*
X123110000Y-59961755D01*
X125990000Y-59961755D02*
X131686000Y-59961755D01*
X117435000Y-59921755D02*
X123110000Y-59921755D01*
X125990000Y-59921755D02*
X131665000Y-59921755D01*
X117456000Y-59881755D02*
X123110000Y-59881755D01*
X125990000Y-59881755D02*
X131644000Y-59881755D01*
X117478000Y-59841755D02*
X123110000Y-59841755D01*
X125990000Y-59841755D02*
X131622000Y-59841755D01*
X117501000Y-59801755D02*
X123110000Y-59801755D01*
X125990000Y-59801755D02*
X131599000Y-59801755D01*
X117523000Y-59761755D02*
X123110000Y-59761755D01*
X125990000Y-59761755D02*
X131577000Y-59761755D01*
X117546000Y-59721755D02*
X123110000Y-59721755D01*
X125990000Y-59721755D02*
X131554000Y-59721755D01*
X117569000Y-59681755D02*
X123110000Y-59681755D01*
X125990000Y-59681755D02*
X131531000Y-59681755D01*
X117592000Y-59641755D02*
X123110000Y-59641755D01*
X125990000Y-59641755D02*
X131508000Y-59641755D01*
X117616000Y-59601755D02*
X123110000Y-59601755D01*
X125990000Y-59601755D02*
X131484000Y-59601755D01*
X117640000Y-59561755D02*
X123110000Y-59561755D01*
X125990000Y-59561755D02*
X131460000Y-59561755D01*
X117664000Y-59521755D02*
X123110000Y-59521755D01*
X125990000Y-59521755D02*
X131436000Y-59521755D01*
X117689000Y-59481755D02*
X123110000Y-59481755D01*
X125990000Y-59481755D02*
X131411000Y-59481755D01*
X117714000Y-59441755D02*
X123110000Y-59441755D01*
X125990000Y-59441755D02*
X131386000Y-59441755D01*
X117739000Y-59401755D02*
X123110000Y-59401755D01*
X125990000Y-59401755D02*
X131361000Y-59401755D01*
X117765000Y-59361755D02*
X123110000Y-59361755D01*
X125990000Y-59361755D02*
X131335000Y-59361755D01*
X117791000Y-59321755D02*
X123110000Y-59321755D01*
X125990000Y-59321755D02*
X131309000Y-59321755D01*
X117817000Y-59281755D02*
X123110000Y-59281755D01*
X125990000Y-59281755D02*
X131283000Y-59281755D01*
X117844000Y-59241755D02*
X123110000Y-59241755D01*
X125990000Y-59241755D02*
X131256000Y-59241755D01*
X117871000Y-59201755D02*
X123110000Y-59201755D01*
X125990000Y-59201755D02*
X131229000Y-59201755D01*
X117898000Y-59161755D02*
X123110000Y-59161755D01*
X125990000Y-59161755D02*
X131202000Y-59161755D01*
X117926000Y-59121755D02*
X123110000Y-59121755D01*
X125990000Y-59121755D02*
X131174000Y-59121755D01*
X117954000Y-59081755D02*
X123110000Y-59081755D01*
X125990000Y-59081755D02*
X131146000Y-59081755D01*
X117982000Y-59041755D02*
X123110000Y-59041755D01*
X125990000Y-59041755D02*
X131118000Y-59041755D01*
X118011000Y-59001755D02*
X123110000Y-59001755D01*
X125990000Y-59001755D02*
X131089000Y-59001755D01*
X118040000Y-58961755D02*
X123110000Y-58961755D01*
X125990000Y-58961755D02*
X131060000Y-58961755D01*
X118070000Y-58921755D02*
X123110000Y-58921755D01*
X125990000Y-58921755D02*
X131030000Y-58921755D01*
X118100000Y-58881755D02*
X123110000Y-58881755D01*
X125990000Y-58881755D02*
X131000000Y-58881755D01*
X118130000Y-58841755D02*
X123110000Y-58841755D01*
X125990000Y-58841755D02*
X130970000Y-58841755D01*
X118160000Y-58801755D02*
X123110000Y-58801755D01*
X125990000Y-58801755D02*
X130940000Y-58801755D01*
X118192000Y-58761755D02*
X123110000Y-58761755D01*
X125990000Y-58761755D02*
X130908000Y-58761755D01*
X118223000Y-58721755D02*
X123110000Y-58721755D01*
X125990000Y-58721755D02*
X130877000Y-58721755D01*
X118255000Y-58681755D02*
X123110000Y-58681755D01*
X125990000Y-58681755D02*
X130845000Y-58681755D01*
X118287000Y-58641755D02*
X123110000Y-58641755D01*
X125990000Y-58641755D02*
X130813000Y-58641755D01*
X118320000Y-58601755D02*
X123110000Y-58601755D01*
X125990000Y-58601755D02*
X130780000Y-58601755D01*
X118353000Y-58561755D02*
X130747000Y-58561755D01*
X118387000Y-58521755D02*
X130713000Y-58521755D01*
X118421000Y-58481755D02*
X130679000Y-58481755D01*
X118455000Y-58441755D02*
X130645000Y-58441755D01*
X118490000Y-58401755D02*
X130610000Y-58401755D01*
X118525000Y-58361755D02*
X130575000Y-58361755D01*
X118561000Y-58321755D02*
X130539000Y-58321755D01*
X118598000Y-58281755D02*
X130502000Y-58281755D01*
X118634000Y-58241755D02*
X130466000Y-58241755D01*
X118672000Y-58201755D02*
X130428000Y-58201755D01*
X118710000Y-58161755D02*
X130390000Y-58161755D01*
X118748000Y-58121755D02*
X130352000Y-58121755D01*
X118787000Y-58081755D02*
X130313000Y-58081755D01*
X118826000Y-58041755D02*
X130274000Y-58041755D01*
X118866000Y-58001755D02*
X130234000Y-58001755D01*
X118907000Y-57961755D02*
X130193000Y-57961755D01*
X118948000Y-57921755D02*
X130152000Y-57921755D01*
X118990000Y-57881755D02*
X130110000Y-57881755D01*
X119032000Y-57841755D02*
X130068000Y-57841755D01*
X119075000Y-57801755D02*
X130025000Y-57801755D01*
X119118000Y-57761755D02*
X129982000Y-57761755D01*
X119162000Y-57721755D02*
X129938000Y-57721755D01*
X119207000Y-57681755D02*
X129893000Y-57681755D01*
X119253000Y-57641755D02*
X129847000Y-57641755D01*
X119299000Y-57601755D02*
X129801000Y-57601755D01*
X119346000Y-57561755D02*
X129754000Y-57561755D01*
X119394000Y-57521755D02*
X129706000Y-57521755D01*
X119442000Y-57481755D02*
X129658000Y-57481755D01*
X119491000Y-57441755D02*
X129609000Y-57441755D01*
X119541000Y-57401755D02*
X129559000Y-57401755D01*
X119592000Y-57361755D02*
X129508000Y-57361755D01*
X119644000Y-57321755D02*
X129456000Y-57321755D01*
X119696000Y-57281755D02*
X129404000Y-57281755D01*
X119750000Y-57241755D02*
X129350000Y-57241755D01*
X119804000Y-57201755D02*
X129296000Y-57201755D01*
X119859000Y-57161755D02*
X129241000Y-57161755D01*
X119916000Y-57121755D02*
X129184000Y-57121755D01*
X119973000Y-57081755D02*
X129127000Y-57081755D01*
X120031000Y-57041755D02*
X129069000Y-57041755D01*
X120091000Y-57001755D02*
X129009000Y-57001755D01*
X120152000Y-56961755D02*
X128948000Y-56961755D01*
X120214000Y-56921755D02*
X128886000Y-56921755D01*
X120277000Y-56881755D02*
X128823000Y-56881755D01*
X120341000Y-56841755D02*
X128759000Y-56841755D01*
X120407000Y-56801755D02*
X128693000Y-56801755D01*
X120474000Y-56761755D02*
X128626000Y-56761755D01*
X120543000Y-56721755D02*
X128557000Y-56721755D01*
X120614000Y-56681755D02*
X128486000Y-56681755D01*
X120686000Y-56641755D02*
X128414000Y-56641755D01*
X120760000Y-56601755D02*
X128340000Y-56601755D01*
X120835000Y-56561755D02*
X128265000Y-56561755D01*
X120913000Y-56521755D02*
X128187000Y-56521755D01*
X120993000Y-56481755D02*
X128107000Y-56481755D01*
X121075000Y-56441755D02*
X128025000Y-56441755D01*
X121160000Y-56401755D02*
X127940000Y-56401755D01*
X121247000Y-56361755D02*
X127853000Y-56361755D01*
X121337000Y-56321755D02*
X127763000Y-56321755D01*
X121430000Y-56281755D02*
X127670000Y-56281755D01*
X121526000Y-56241755D02*
X127574000Y-56241755D01*
X121626000Y-56201755D02*
X127474000Y-56201755D01*
X121730000Y-56161755D02*
X127370000Y-56161755D01*
X121839000Y-56121755D02*
X127261000Y-56121755D01*
X121953000Y-56081755D02*
X127147000Y-56081755D01*
X122072000Y-56041755D02*
X127028000Y-56041755D01*
X122199000Y-56001755D02*
X126901000Y-56001755D01*
X122332000Y-55961755D02*
X126768000Y-55961755D01*
X122476000Y-55921755D02*
X126624000Y-55921755D01*
X122630000Y-55881755D02*
X126470000Y-55881755D01*
X122798000Y-55841755D02*
X126302000Y-55841755D01*
X122986000Y-55801755D02*
X126114000Y-55801755D01*
X123199000Y-55761755D02*
X125901000Y-55761755D01*
X123452000Y-55721755D02*
X125648000Y-55721755D01*
X123785000Y-55681755D02*
X125315000Y-55681755D01*
X132670000Y-63762755D02*
G75*
G03*
X132670000Y-63762755I-8120000J0D01*
G01*
%TO.C,C22*%
X174265000Y-80761252D02*
X174265000Y-80238748D01*
X175735000Y-80761252D02*
X175735000Y-80238748D01*
%TO.C,R6*%
X181735000Y-63310436D02*
X181735000Y-63764564D01*
X180265000Y-63310436D02*
X180265000Y-63764564D01*
%TO.C,C25*%
X171265000Y-94761252D02*
X171265000Y-94238748D01*
X172735000Y-94761252D02*
X172735000Y-94238748D01*
%TO.C,C27*%
X174265000Y-94761252D02*
X174265000Y-94238748D01*
X175735000Y-94761252D02*
X175735000Y-94238748D01*
%TO.C,C19*%
X171265000Y-63761252D02*
X171265000Y-63238748D01*
X172735000Y-63761252D02*
X172735000Y-63238748D01*
%TO.C,C21*%
X174265000Y-63798752D02*
X174265000Y-63276248D01*
X175735000Y-63798752D02*
X175735000Y-63276248D01*
%TO.C,C5*%
X128261252Y-86985000D02*
X127738748Y-86985000D01*
X128261252Y-85515000D02*
X127738748Y-85515000D01*
%TO.C,C7*%
X137776248Y-76265000D02*
X138298752Y-76265000D01*
X137776248Y-77735000D02*
X138298752Y-77735000D01*
%TO.C,R8*%
X181735000Y-94272936D02*
X181735000Y-94727064D01*
X180265000Y-94272936D02*
X180265000Y-94727064D01*
%TO.C,C13*%
X129555000Y-102560509D02*
X129555000Y-104160509D01*
X130355000Y-103360509D02*
X128755000Y-103360509D01*
X133081000Y-111250000D02*
X116919000Y-111250000D01*
X133080000Y-111290000D02*
X116920000Y-111290000D01*
X133080000Y-111330000D02*
X116920000Y-111330000D01*
X133080000Y-111370000D02*
X116920000Y-111370000D01*
X133079000Y-111410000D02*
X116921000Y-111410000D01*
X133078000Y-111450000D02*
X116922000Y-111450000D01*
X133077000Y-111490000D02*
X116923000Y-111490000D01*
X133076000Y-111530000D02*
X116924000Y-111530000D01*
X133074000Y-111570000D02*
X116926000Y-111570000D01*
X133073000Y-111610000D02*
X116927000Y-111610000D01*
X133071000Y-111650000D02*
X116929000Y-111650000D01*
X133069000Y-111690000D02*
X116931000Y-111690000D01*
X133066000Y-111730000D02*
X116934000Y-111730000D01*
X133064000Y-111770000D02*
X116936000Y-111770000D01*
X133061000Y-111810000D02*
X116939000Y-111810000D01*
X133058000Y-111850000D02*
X116942000Y-111850000D01*
X133055000Y-111890000D02*
X116945000Y-111890000D01*
X133052000Y-111930000D02*
X116948000Y-111930000D01*
X133049000Y-111971000D02*
X116951000Y-111971000D01*
X133045000Y-112011000D02*
X116955000Y-112011000D01*
X133041000Y-112051000D02*
X116959000Y-112051000D01*
X133037000Y-112091000D02*
X116963000Y-112091000D01*
X133033000Y-112131000D02*
X116967000Y-112131000D01*
X133028000Y-112171000D02*
X116972000Y-112171000D01*
X133024000Y-112211000D02*
X116976000Y-112211000D01*
X133019000Y-112251000D02*
X116981000Y-112251000D01*
X133014000Y-112291000D02*
X116986000Y-112291000D01*
X133008000Y-112331000D02*
X116992000Y-112331000D01*
X133003000Y-112371000D02*
X116997000Y-112371000D01*
X132997000Y-112411000D02*
X117003000Y-112411000D01*
X132991000Y-112451000D02*
X117009000Y-112451000D01*
X132985000Y-112491000D02*
X117015000Y-112491000D01*
X132979000Y-112531000D02*
X117021000Y-112531000D01*
X132972000Y-112571000D02*
X117028000Y-112571000D01*
X132966000Y-112611000D02*
X117034000Y-112611000D01*
X132959000Y-112651000D02*
X117041000Y-112651000D01*
X132952000Y-112691000D02*
X117048000Y-112691000D01*
X132944000Y-112731000D02*
X117056000Y-112731000D01*
X132937000Y-112771000D02*
X117063000Y-112771000D01*
X132929000Y-112811000D02*
X117071000Y-112811000D01*
X132921000Y-112851000D02*
X117079000Y-112851000D01*
X132913000Y-112891000D02*
X117087000Y-112891000D01*
X132905000Y-112931000D02*
X117095000Y-112931000D01*
X132896000Y-112971000D02*
X117104000Y-112971000D01*
X132887000Y-113011000D02*
X117113000Y-113011000D01*
X132878000Y-113051000D02*
X117122000Y-113051000D01*
X132869000Y-113091000D02*
X117131000Y-113091000D01*
X132860000Y-113131000D02*
X117140000Y-113131000D01*
X132850000Y-113171000D02*
X117150000Y-113171000D01*
X132840000Y-113211000D02*
X117160000Y-113211000D01*
X132830000Y-113251000D02*
X117170000Y-113251000D01*
X132820000Y-113291000D02*
X117180000Y-113291000D01*
X132810000Y-113331000D02*
X117190000Y-113331000D01*
X132799000Y-113371000D02*
X117201000Y-113371000D01*
X132788000Y-113411000D02*
X117212000Y-113411000D01*
X132777000Y-113451000D02*
X117223000Y-113451000D01*
X132765000Y-113491000D02*
X117235000Y-113491000D01*
X132754000Y-113531000D02*
X117246000Y-113531000D01*
X132742000Y-113571000D02*
X126440000Y-113571000D01*
X123560000Y-113571000D02*
X117258000Y-113571000D01*
X132730000Y-113611000D02*
X126440000Y-113611000D01*
X123560000Y-113611000D02*
X117270000Y-113611000D01*
X132718000Y-113651000D02*
X126440000Y-113651000D01*
X123560000Y-113651000D02*
X117282000Y-113651000D01*
X132705000Y-113691000D02*
X126440000Y-113691000D01*
X123560000Y-113691000D02*
X117295000Y-113691000D01*
X132693000Y-113731000D02*
X126440000Y-113731000D01*
X123560000Y-113731000D02*
X117307000Y-113731000D01*
X132680000Y-113771000D02*
X126440000Y-113771000D01*
X123560000Y-113771000D02*
X117320000Y-113771000D01*
X132666000Y-113811000D02*
X126440000Y-113811000D01*
X123560000Y-113811000D02*
X117334000Y-113811000D01*
X132653000Y-113851000D02*
X126440000Y-113851000D01*
X123560000Y-113851000D02*
X117347000Y-113851000D01*
X132639000Y-113891000D02*
X126440000Y-113891000D01*
X123560000Y-113891000D02*
X117361000Y-113891000D01*
X132625000Y-113931000D02*
X126440000Y-113931000D01*
X123560000Y-113931000D02*
X117375000Y-113931000D01*
X132611000Y-113971000D02*
X126440000Y-113971000D01*
X123560000Y-113971000D02*
X117389000Y-113971000D01*
X132597000Y-114011000D02*
X126440000Y-114011000D01*
X123560000Y-114011000D02*
X117403000Y-114011000D01*
X132582000Y-114051000D02*
X126440000Y-114051000D01*
X123560000Y-114051000D02*
X117418000Y-114051000D01*
X132568000Y-114091000D02*
X126440000Y-114091000D01*
X123560000Y-114091000D02*
X117432000Y-114091000D01*
X132553000Y-114131000D02*
X126440000Y-114131000D01*
X123560000Y-114131000D02*
X117447000Y-114131000D01*
X132537000Y-114171000D02*
X126440000Y-114171000D01*
X123560000Y-114171000D02*
X117463000Y-114171000D01*
X132522000Y-114211000D02*
X126440000Y-114211000D01*
X123560000Y-114211000D02*
X117478000Y-114211000D01*
X132506000Y-114251000D02*
X126440000Y-114251000D01*
X123560000Y-114251000D02*
X117494000Y-114251000D01*
X132490000Y-114291000D02*
X126440000Y-114291000D01*
X123560000Y-114291000D02*
X117510000Y-114291000D01*
X132474000Y-114331000D02*
X126440000Y-114331000D01*
X123560000Y-114331000D02*
X117526000Y-114331000D01*
X132457000Y-114371000D02*
X126440000Y-114371000D01*
X123560000Y-114371000D02*
X117543000Y-114371000D01*
X132440000Y-114411000D02*
X126440000Y-114411000D01*
X123560000Y-114411000D02*
X117560000Y-114411000D01*
X132423000Y-114451000D02*
X126440000Y-114451000D01*
X123560000Y-114451000D02*
X117577000Y-114451000D01*
X132406000Y-114491000D02*
X126440000Y-114491000D01*
X123560000Y-114491000D02*
X117594000Y-114491000D01*
X132389000Y-114531000D02*
X126440000Y-114531000D01*
X123560000Y-114531000D02*
X117611000Y-114531000D01*
X132371000Y-114571000D02*
X126440000Y-114571000D01*
X123560000Y-114571000D02*
X117629000Y-114571000D01*
X132353000Y-114611000D02*
X126440000Y-114611000D01*
X123560000Y-114611000D02*
X117647000Y-114611000D01*
X132334000Y-114651000D02*
X126440000Y-114651000D01*
X123560000Y-114651000D02*
X117666000Y-114651000D01*
X132316000Y-114691000D02*
X126440000Y-114691000D01*
X123560000Y-114691000D02*
X117684000Y-114691000D01*
X132297000Y-114731000D02*
X126440000Y-114731000D01*
X123560000Y-114731000D02*
X117703000Y-114731000D01*
X132278000Y-114771000D02*
X126440000Y-114771000D01*
X123560000Y-114771000D02*
X117722000Y-114771000D01*
X132258000Y-114811000D02*
X126440000Y-114811000D01*
X123560000Y-114811000D02*
X117742000Y-114811000D01*
X132239000Y-114851000D02*
X126440000Y-114851000D01*
X123560000Y-114851000D02*
X117761000Y-114851000D01*
X132219000Y-114891000D02*
X126440000Y-114891000D01*
X123560000Y-114891000D02*
X117781000Y-114891000D01*
X132199000Y-114931000D02*
X126440000Y-114931000D01*
X123560000Y-114931000D02*
X117801000Y-114931000D01*
X132178000Y-114971000D02*
X126440000Y-114971000D01*
X123560000Y-114971000D02*
X117822000Y-114971000D01*
X132157000Y-115011000D02*
X126440000Y-115011000D01*
X123560000Y-115011000D02*
X117843000Y-115011000D01*
X132136000Y-115051000D02*
X126440000Y-115051000D01*
X123560000Y-115051000D02*
X117864000Y-115051000D01*
X132115000Y-115091000D02*
X126440000Y-115091000D01*
X123560000Y-115091000D02*
X117885000Y-115091000D01*
X132094000Y-115131000D02*
X126440000Y-115131000D01*
X123560000Y-115131000D02*
X117906000Y-115131000D01*
X132072000Y-115171000D02*
X126440000Y-115171000D01*
X123560000Y-115171000D02*
X117928000Y-115171000D01*
X132049000Y-115211000D02*
X126440000Y-115211000D01*
X123560000Y-115211000D02*
X117951000Y-115211000D01*
X132027000Y-115251000D02*
X126440000Y-115251000D01*
X123560000Y-115251000D02*
X117973000Y-115251000D01*
X132004000Y-115291000D02*
X126440000Y-115291000D01*
X123560000Y-115291000D02*
X117996000Y-115291000D01*
X131981000Y-115331000D02*
X126440000Y-115331000D01*
X123560000Y-115331000D02*
X118019000Y-115331000D01*
X131958000Y-115371000D02*
X126440000Y-115371000D01*
X123560000Y-115371000D02*
X118042000Y-115371000D01*
X131934000Y-115411000D02*
X126440000Y-115411000D01*
X123560000Y-115411000D02*
X118066000Y-115411000D01*
X131910000Y-115451000D02*
X126440000Y-115451000D01*
X123560000Y-115451000D02*
X118090000Y-115451000D01*
X131886000Y-115491000D02*
X126440000Y-115491000D01*
X123560000Y-115491000D02*
X118114000Y-115491000D01*
X131861000Y-115531000D02*
X126440000Y-115531000D01*
X123560000Y-115531000D02*
X118139000Y-115531000D01*
X131836000Y-115571000D02*
X126440000Y-115571000D01*
X123560000Y-115571000D02*
X118164000Y-115571000D01*
X131811000Y-115611000D02*
X126440000Y-115611000D01*
X123560000Y-115611000D02*
X118189000Y-115611000D01*
X131785000Y-115651000D02*
X126440000Y-115651000D01*
X123560000Y-115651000D02*
X118215000Y-115651000D01*
X131759000Y-115691000D02*
X126440000Y-115691000D01*
X123560000Y-115691000D02*
X118241000Y-115691000D01*
X131733000Y-115731000D02*
X126440000Y-115731000D01*
X123560000Y-115731000D02*
X118267000Y-115731000D01*
X131706000Y-115771000D02*
X126440000Y-115771000D01*
X123560000Y-115771000D02*
X118294000Y-115771000D01*
X131679000Y-115811000D02*
X126440000Y-115811000D01*
X123560000Y-115811000D02*
X118321000Y-115811000D01*
X131652000Y-115851000D02*
X126440000Y-115851000D01*
X123560000Y-115851000D02*
X118348000Y-115851000D01*
X131624000Y-115891000D02*
X126440000Y-115891000D01*
X123560000Y-115891000D02*
X118376000Y-115891000D01*
X131596000Y-115931000D02*
X126440000Y-115931000D01*
X123560000Y-115931000D02*
X118404000Y-115931000D01*
X131568000Y-115971000D02*
X126440000Y-115971000D01*
X123560000Y-115971000D02*
X118432000Y-115971000D01*
X131539000Y-116011000D02*
X126440000Y-116011000D01*
X123560000Y-116011000D02*
X118461000Y-116011000D01*
X131510000Y-116051000D02*
X126440000Y-116051000D01*
X123560000Y-116051000D02*
X118490000Y-116051000D01*
X131480000Y-116091000D02*
X126440000Y-116091000D01*
X123560000Y-116091000D02*
X118520000Y-116091000D01*
X131450000Y-116131000D02*
X126440000Y-116131000D01*
X123560000Y-116131000D02*
X118550000Y-116131000D01*
X131420000Y-116171000D02*
X126440000Y-116171000D01*
X123560000Y-116171000D02*
X118580000Y-116171000D01*
X131390000Y-116211000D02*
X126440000Y-116211000D01*
X123560000Y-116211000D02*
X118610000Y-116211000D01*
X131358000Y-116251000D02*
X126440000Y-116251000D01*
X123560000Y-116251000D02*
X118642000Y-116251000D01*
X131327000Y-116291000D02*
X126440000Y-116291000D01*
X123560000Y-116291000D02*
X118673000Y-116291000D01*
X131295000Y-116331000D02*
X126440000Y-116331000D01*
X123560000Y-116331000D02*
X118705000Y-116331000D01*
X131263000Y-116371000D02*
X126440000Y-116371000D01*
X123560000Y-116371000D02*
X118737000Y-116371000D01*
X131230000Y-116411000D02*
X126440000Y-116411000D01*
X123560000Y-116411000D02*
X118770000Y-116411000D01*
X131197000Y-116451000D02*
X118803000Y-116451000D01*
X131163000Y-116491000D02*
X118837000Y-116491000D01*
X131129000Y-116531000D02*
X118871000Y-116531000D01*
X131095000Y-116571000D02*
X118905000Y-116571000D01*
X131060000Y-116611000D02*
X118940000Y-116611000D01*
X131025000Y-116651000D02*
X118975000Y-116651000D01*
X130989000Y-116691000D02*
X119011000Y-116691000D01*
X130952000Y-116731000D02*
X119048000Y-116731000D01*
X130916000Y-116771000D02*
X119084000Y-116771000D01*
X130878000Y-116811000D02*
X119122000Y-116811000D01*
X130840000Y-116851000D02*
X119160000Y-116851000D01*
X130802000Y-116891000D02*
X119198000Y-116891000D01*
X130763000Y-116931000D02*
X119237000Y-116931000D01*
X130724000Y-116971000D02*
X119276000Y-116971000D01*
X130684000Y-117011000D02*
X119316000Y-117011000D01*
X130643000Y-117051000D02*
X119357000Y-117051000D01*
X130602000Y-117091000D02*
X119398000Y-117091000D01*
X130560000Y-117131000D02*
X119440000Y-117131000D01*
X130518000Y-117171000D02*
X119482000Y-117171000D01*
X130475000Y-117211000D02*
X119525000Y-117211000D01*
X130432000Y-117251000D02*
X119568000Y-117251000D01*
X130388000Y-117291000D02*
X119612000Y-117291000D01*
X130343000Y-117331000D02*
X119657000Y-117331000D01*
X130297000Y-117371000D02*
X119703000Y-117371000D01*
X130251000Y-117411000D02*
X119749000Y-117411000D01*
X130204000Y-117451000D02*
X119796000Y-117451000D01*
X130156000Y-117491000D02*
X119844000Y-117491000D01*
X130108000Y-117531000D02*
X119892000Y-117531000D01*
X130059000Y-117571000D02*
X119941000Y-117571000D01*
X130009000Y-117611000D02*
X119991000Y-117611000D01*
X129958000Y-117651000D02*
X120042000Y-117651000D01*
X129906000Y-117691000D02*
X120094000Y-117691000D01*
X129854000Y-117731000D02*
X120146000Y-117731000D01*
X129800000Y-117771000D02*
X120200000Y-117771000D01*
X129746000Y-117811000D02*
X120254000Y-117811000D01*
X129691000Y-117851000D02*
X120309000Y-117851000D01*
X129634000Y-117891000D02*
X120366000Y-117891000D01*
X129577000Y-117931000D02*
X120423000Y-117931000D01*
X129519000Y-117971000D02*
X120481000Y-117971000D01*
X129459000Y-118011000D02*
X120541000Y-118011000D01*
X129398000Y-118051000D02*
X120602000Y-118051000D01*
X129336000Y-118091000D02*
X120664000Y-118091000D01*
X129273000Y-118131000D02*
X120727000Y-118131000D01*
X129209000Y-118171000D02*
X120791000Y-118171000D01*
X129143000Y-118211000D02*
X120857000Y-118211000D01*
X129076000Y-118251000D02*
X120924000Y-118251000D01*
X129007000Y-118291000D02*
X120993000Y-118291000D01*
X128936000Y-118331000D02*
X121064000Y-118331000D01*
X128864000Y-118371000D02*
X121136000Y-118371000D01*
X128790000Y-118411000D02*
X121210000Y-118411000D01*
X128715000Y-118451000D02*
X121285000Y-118451000D01*
X128637000Y-118491000D02*
X121363000Y-118491000D01*
X128557000Y-118531000D02*
X121443000Y-118531000D01*
X128475000Y-118571000D02*
X121525000Y-118571000D01*
X128390000Y-118611000D02*
X121610000Y-118611000D01*
X128303000Y-118651000D02*
X121697000Y-118651000D01*
X128213000Y-118691000D02*
X121787000Y-118691000D01*
X128120000Y-118731000D02*
X121880000Y-118731000D01*
X128024000Y-118771000D02*
X121976000Y-118771000D01*
X127924000Y-118811000D02*
X122076000Y-118811000D01*
X127820000Y-118851000D02*
X122180000Y-118851000D01*
X127711000Y-118891000D02*
X122289000Y-118891000D01*
X127597000Y-118931000D02*
X122403000Y-118931000D01*
X127478000Y-118971000D02*
X122522000Y-118971000D01*
X127351000Y-119011000D02*
X122649000Y-119011000D01*
X127218000Y-119051000D02*
X122782000Y-119051000D01*
X127074000Y-119091000D02*
X122926000Y-119091000D01*
X126920000Y-119131000D02*
X123080000Y-119131000D01*
X126752000Y-119171000D02*
X123248000Y-119171000D01*
X126564000Y-119211000D02*
X123436000Y-119211000D01*
X126351000Y-119251000D02*
X123649000Y-119251000D01*
X126098000Y-119291000D02*
X123902000Y-119291000D01*
X125765000Y-119331000D02*
X124235000Y-119331000D01*
X133120000Y-111250000D02*
G75*
G03*
X133120000Y-111250000I-8120000J0D01*
G01*
%TO.C,C26*%
X171265000Y-111761252D02*
X171265000Y-111238748D01*
X172735000Y-111761252D02*
X172735000Y-111238748D01*
%TO.C,C20*%
X171265000Y-80761252D02*
X171265000Y-80238748D01*
X172735000Y-80761252D02*
X172735000Y-80238748D01*
%TO.C,R4*%
X127772936Y-95765000D02*
X128227064Y-95765000D01*
X127772936Y-97235000D02*
X128227064Y-97235000D01*
%TO.C,C17*%
X147985000Y-89988748D02*
X147985000Y-90511252D01*
X146515000Y-89988748D02*
X146515000Y-90511252D01*
%TO.C,R3*%
X128227064Y-94235000D02*
X127772936Y-94235000D01*
X128227064Y-92765000D02*
X127772936Y-92765000D01*
%TO.C,R5*%
X134985000Y-74772936D02*
X134985000Y-75227064D01*
X133515000Y-74772936D02*
X133515000Y-75227064D01*
%TO.C,C15*%
X147985000Y-81451248D02*
X147985000Y-81973752D01*
X146515000Y-81451248D02*
X146515000Y-81973752D01*
%TD*%
M02*
