%TF.GenerationSoftware,KiCad,Pcbnew,7.0.6*%
%TF.CreationDate,2023-10-07T14:34:09+02:00*%
%TF.ProjectId,TPA3116 amplifier,54504133-3131-4362-9061-6d706c696669,rev?*%
%TF.SameCoordinates,Original*%
%TF.FileFunction,Copper,L3,Inr*%
%TF.FilePolarity,Positive*%
%FSLAX46Y46*%
G04 Gerber Fmt 4.6, Leading zero omitted, Abs format (unit mm)*
G04 Created by KiCad (PCBNEW 7.0.6) date 2023-10-07 14:34:09*
%MOMM*%
%LPD*%
G01*
G04 APERTURE LIST*
%TA.AperFunction,ComponentPad*%
%ADD10C,1.950000*%
%TD*%
%TA.AperFunction,ComponentPad*%
%ADD11C,0.800000*%
%TD*%
%TA.AperFunction,ComponentPad*%
%ADD12C,6.400000*%
%TD*%
%TA.AperFunction,ComponentPad*%
%ADD13R,2.400000X2.400000*%
%TD*%
%TA.AperFunction,ComponentPad*%
%ADD14C,2.400000*%
%TD*%
%TA.AperFunction,ComponentPad*%
%ADD15R,1.700000X1.700000*%
%TD*%
%TA.AperFunction,ComponentPad*%
%ADD16O,1.700000X1.700000*%
%TD*%
%TA.AperFunction,ViaPad*%
%ADD17C,0.700000*%
%TD*%
%TA.AperFunction,ViaPad*%
%ADD18C,0.800000*%
%TD*%
%TA.AperFunction,ViaPad*%
%ADD19C,0.500000*%
%TD*%
%TA.AperFunction,Conductor*%
%ADD20C,0.300000*%
%TD*%
G04 APERTURE END LIST*
D10*
%TO.N,/LOUT+*%
%TO.C,J5*%
X176000000Y-100500000D03*
%TO.N,/LOUT-*%
X176000000Y-105500000D03*
%TD*%
D11*
%TO.N,unconnected-(H1-Pad1)*%
%TO.C,H1*%
X177600000Y-120000000D03*
X178302944Y-118302944D03*
X178302944Y-121697056D03*
X180000000Y-117600000D03*
D12*
X180000000Y-120000000D03*
D11*
X180000000Y-122400000D03*
X181697056Y-118302944D03*
X181697056Y-121697056D03*
X182400000Y-120000000D03*
%TD*%
D13*
%TO.N,+24V*%
%TO.C,C12*%
X144000000Y-107500000D03*
D14*
%TO.N,GND*%
X144000000Y-115000000D03*
%TD*%
D13*
%TO.N,+24V*%
%TO.C,C9*%
X144000000Y-67500000D03*
D14*
%TO.N,GND*%
X144000000Y-60000000D03*
%TD*%
D11*
%TO.N,unconnected-(H4-Pad1)*%
%TO.C,H4*%
X102600000Y-55000000D03*
X103302944Y-53302944D03*
X103302944Y-56697056D03*
X105000000Y-52600000D03*
D12*
X105000000Y-55000000D03*
D11*
X105000000Y-57400000D03*
X106697056Y-53302944D03*
X106697056Y-56697056D03*
X107400000Y-55000000D03*
%TD*%
D10*
%TO.N,GND*%
%TO.C,J3*%
X109000000Y-105500000D03*
%TO.N,+24V*%
X109000000Y-100500000D03*
%TD*%
D11*
%TO.N,unconnected-(H2-Pad1)*%
%TO.C,H2*%
X102600000Y-120000000D03*
X103302944Y-118302944D03*
X103302944Y-121697056D03*
X105000000Y-117600000D03*
D12*
X105000000Y-120000000D03*
D11*
X105000000Y-122400000D03*
X106697056Y-118302944D03*
X106697056Y-121697056D03*
X107400000Y-120000000D03*
%TD*%
D10*
%TO.N,/ROUT+*%
%TO.C,J4*%
X176000000Y-69500000D03*
%TO.N,/ROUT-*%
X176000000Y-74500000D03*
%TD*%
D15*
%TO.N,GND*%
%TO.C,J1*%
X122000000Y-90460000D03*
D16*
%TO.N,Net-(J1-Pin_2)*%
X122000000Y-93000000D03*
%TD*%
D10*
%TO.N,LIN-*%
%TO.C,J2*%
X109000000Y-84500000D03*
%TO.N,LIN+*%
X109000000Y-79500000D03*
%TO.N,RIN-*%
X109000000Y-74500000D03*
%TO.N,RIN+*%
X109000000Y-69500000D03*
%TD*%
D11*
%TO.N,unconnected-(H3-Pad1)*%
%TO.C,H3*%
X177600000Y-55000000D03*
X178302944Y-53302944D03*
X178302944Y-56697056D03*
X180000000Y-52600000D03*
D12*
X180000000Y-55000000D03*
D11*
X180000000Y-57400000D03*
X181697056Y-53302944D03*
X181697056Y-56697056D03*
X182400000Y-55000000D03*
%TD*%
D13*
%TO.N,+24V*%
%TO.C,C8*%
X124550000Y-67512755D03*
D14*
%TO.N,GND*%
X124550000Y-60012755D03*
%TD*%
D13*
%TO.N,+24V*%
%TO.C,C13*%
X125000000Y-107500000D03*
D14*
%TO.N,GND*%
X125000000Y-115000000D03*
%TD*%
D17*
%TO.N,GND*%
X184000000Y-60000000D03*
X184000000Y-104000000D03*
X184000000Y-76000000D03*
X184000000Y-88000000D03*
X184000000Y-84000000D03*
X184000000Y-96000000D03*
X184000000Y-64000000D03*
X184000000Y-112000000D03*
X184000000Y-108000000D03*
X184000000Y-72000000D03*
X184000000Y-68000000D03*
X184000000Y-116000000D03*
X184000000Y-80000000D03*
X184000000Y-100000000D03*
X184000000Y-92000000D03*
X101000000Y-104000000D03*
X101000000Y-100000000D03*
X101000000Y-92000000D03*
X101000000Y-84000000D03*
X101000000Y-76000000D03*
X101000000Y-80000000D03*
X101000000Y-72000000D03*
X101000000Y-68000000D03*
X101000000Y-96000000D03*
X101000000Y-116000000D03*
X101000000Y-112000000D03*
X101000000Y-108000000D03*
X101000000Y-88000000D03*
X101000000Y-64000000D03*
X101000000Y-60000000D03*
%TO.N,+24V*%
X112000000Y-120000000D03*
%TO.N,GND*%
X128000000Y-124000000D03*
X132000000Y-124000000D03*
X140000000Y-124000000D03*
X148000000Y-124000000D03*
X156000000Y-124000000D03*
X152000000Y-124000000D03*
X160000000Y-124000000D03*
X164000000Y-124000000D03*
X136000000Y-124000000D03*
X108000000Y-124000000D03*
X116000000Y-124000000D03*
X112000000Y-124000000D03*
X120000000Y-124000000D03*
X124000000Y-124000000D03*
X144000000Y-124000000D03*
X168000000Y-124000000D03*
X172000000Y-124000000D03*
X176000000Y-124000000D03*
X169000000Y-51000000D03*
X177000000Y-51000000D03*
X173000000Y-51000000D03*
X149000000Y-51000000D03*
X157000000Y-51000000D03*
X153000000Y-51000000D03*
X161000000Y-51000000D03*
X165000000Y-51000000D03*
X129000000Y-51000000D03*
X137000000Y-51000000D03*
X133000000Y-51000000D03*
X141000000Y-51000000D03*
X145000000Y-51000000D03*
X125000000Y-51000000D03*
X121000000Y-51000000D03*
X117000000Y-51000000D03*
X113000000Y-51000000D03*
X109000000Y-51000000D03*
D18*
X113500000Y-114000000D03*
D19*
X136100000Y-85700000D03*
X133700000Y-85700000D03*
D17*
X125750000Y-96500000D03*
X122000000Y-88750000D03*
D19*
X132700000Y-91000000D03*
X136900000Y-85700000D03*
D17*
X134250000Y-77250000D03*
D19*
X133700000Y-89100000D03*
X136900000Y-88300000D03*
D17*
X111500000Y-105200000D03*
D19*
X135300000Y-85700000D03*
D17*
X172000000Y-82750000D03*
D19*
X132700000Y-91700000D03*
D17*
X135750000Y-94750000D03*
X110700000Y-105200000D03*
D19*
X133700000Y-86500000D03*
D17*
X182500000Y-64500000D03*
X125750000Y-86250000D03*
X175000000Y-92250000D03*
D19*
X135300000Y-87000000D03*
D17*
X172000000Y-113750000D03*
X111500000Y-106000000D03*
X172000000Y-61000000D03*
X182500000Y-79500000D03*
X172000000Y-92250000D03*
X110700000Y-106000000D03*
X131500000Y-81700000D03*
X175000000Y-61000000D03*
D19*
X135300000Y-89100000D03*
X134500000Y-89100000D03*
D17*
X175000000Y-113750000D03*
D19*
X134500000Y-85700000D03*
D17*
X135750000Y-97750000D03*
X175000000Y-82750000D03*
X182380442Y-95581993D03*
X135750000Y-77000000D03*
X182250000Y-110500000D03*
D19*
X132700000Y-90300000D03*
X133700000Y-88300000D03*
X136900000Y-89100000D03*
X135300000Y-87800000D03*
D17*
X135750000Y-80000000D03*
D19*
X136100000Y-89100000D03*
X136900000Y-86500000D03*
D17*
%TO.N,+24V*%
X126600000Y-67500000D03*
X139100000Y-81500000D03*
X139100000Y-72500000D03*
X141400000Y-67500000D03*
X136900000Y-107500000D03*
X127000000Y-81600000D03*
X118000000Y-100600000D03*
X125700000Y-90500000D03*
X121300000Y-103700000D03*
X112900000Y-100500000D03*
X144000000Y-104000000D03*
X131200000Y-107500000D03*
X142300000Y-69200000D03*
X140200000Y-98800000D03*
X139100000Y-93300000D03*
%TO.N,Net-(IC1-GAIN{slash}SLV)*%
X130000000Y-87600000D03*
X129100000Y-95200000D03*
%TD*%
D20*
%TO.N,Net-(IC1-GAIN{slash}SLV)*%
X129100000Y-95100000D02*
X129100000Y-95200000D01*
X130000000Y-87600000D02*
X130000000Y-94200000D01*
X129000000Y-95200000D02*
X129100000Y-95100000D01*
X129100000Y-95200000D02*
X129000000Y-95200000D01*
X130000000Y-94200000D02*
X129100000Y-95100000D01*
%TD*%
%TA.AperFunction,Conductor*%
%TO.N,+24V*%
G36*
X108440094Y-50020185D02*
G01*
X108485849Y-50072989D01*
X108495793Y-50142147D01*
X108466768Y-50205703D01*
X108451720Y-50220353D01*
X108324642Y-50324642D01*
X108205864Y-50469373D01*
X108205862Y-50469376D01*
X108117604Y-50634497D01*
X108063253Y-50813666D01*
X108063252Y-50813668D01*
X108044901Y-51000000D01*
X108063252Y-51186331D01*
X108063253Y-51186333D01*
X108117604Y-51365502D01*
X108205862Y-51530623D01*
X108205864Y-51530626D01*
X108324642Y-51675357D01*
X108469373Y-51794135D01*
X108469376Y-51794137D01*
X108601693Y-51864861D01*
X108634499Y-51882396D01*
X108813666Y-51936746D01*
X108813668Y-51936747D01*
X108830374Y-51938392D01*
X109000000Y-51955099D01*
X109186331Y-51936747D01*
X109365501Y-51882396D01*
X109530625Y-51794136D01*
X109675357Y-51675357D01*
X109794136Y-51530625D01*
X109882396Y-51365501D01*
X109936747Y-51186331D01*
X109955099Y-51000000D01*
X109936747Y-50813669D01*
X109882396Y-50634499D01*
X109865598Y-50603071D01*
X109794137Y-50469376D01*
X109794135Y-50469373D01*
X109675357Y-50324642D01*
X109548280Y-50220353D01*
X109508946Y-50162608D01*
X109507075Y-50092763D01*
X109543263Y-50032995D01*
X109606018Y-50002279D01*
X109626945Y-50000500D01*
X112373055Y-50000500D01*
X112440094Y-50020185D01*
X112485849Y-50072989D01*
X112495793Y-50142147D01*
X112466768Y-50205703D01*
X112451720Y-50220353D01*
X112324642Y-50324642D01*
X112205864Y-50469373D01*
X112205862Y-50469376D01*
X112117604Y-50634497D01*
X112063253Y-50813666D01*
X112063252Y-50813668D01*
X112044901Y-51000000D01*
X112063252Y-51186331D01*
X112063253Y-51186333D01*
X112117604Y-51365502D01*
X112205862Y-51530623D01*
X112205864Y-51530626D01*
X112324642Y-51675357D01*
X112469373Y-51794135D01*
X112469376Y-51794137D01*
X112601693Y-51864861D01*
X112634499Y-51882396D01*
X112813666Y-51936746D01*
X112813668Y-51936747D01*
X112830374Y-51938392D01*
X113000000Y-51955099D01*
X113186331Y-51936747D01*
X113365501Y-51882396D01*
X113530625Y-51794136D01*
X113675357Y-51675357D01*
X113794136Y-51530625D01*
X113882396Y-51365501D01*
X113936747Y-51186331D01*
X113955099Y-51000000D01*
X113936747Y-50813669D01*
X113882396Y-50634499D01*
X113865598Y-50603071D01*
X113794137Y-50469376D01*
X113794135Y-50469373D01*
X113675357Y-50324642D01*
X113548280Y-50220353D01*
X113508946Y-50162608D01*
X113507075Y-50092763D01*
X113543263Y-50032995D01*
X113606018Y-50002279D01*
X113626945Y-50000500D01*
X116373055Y-50000500D01*
X116440094Y-50020185D01*
X116485849Y-50072989D01*
X116495793Y-50142147D01*
X116466768Y-50205703D01*
X116451720Y-50220353D01*
X116324642Y-50324642D01*
X116205864Y-50469373D01*
X116205862Y-50469376D01*
X116117604Y-50634497D01*
X116063253Y-50813666D01*
X116063252Y-50813668D01*
X116044901Y-50999999D01*
X116063252Y-51186331D01*
X116063253Y-51186333D01*
X116117604Y-51365502D01*
X116205862Y-51530623D01*
X116205864Y-51530626D01*
X116324642Y-51675357D01*
X116469373Y-51794135D01*
X116469376Y-51794137D01*
X116601693Y-51864861D01*
X116634499Y-51882396D01*
X116813666Y-51936746D01*
X116813668Y-51936747D01*
X116830374Y-51938392D01*
X117000000Y-51955099D01*
X117186331Y-51936747D01*
X117365501Y-51882396D01*
X117530625Y-51794136D01*
X117675357Y-51675357D01*
X117794136Y-51530625D01*
X117882396Y-51365501D01*
X117936747Y-51186331D01*
X117955099Y-51000000D01*
X117936747Y-50813669D01*
X117882396Y-50634499D01*
X117865598Y-50603071D01*
X117794137Y-50469376D01*
X117794135Y-50469373D01*
X117675357Y-50324642D01*
X117548280Y-50220353D01*
X117508946Y-50162608D01*
X117507075Y-50092763D01*
X117543263Y-50032995D01*
X117606018Y-50002279D01*
X117626945Y-50000500D01*
X120373055Y-50000500D01*
X120440094Y-50020185D01*
X120485849Y-50072989D01*
X120495793Y-50142147D01*
X120466768Y-50205703D01*
X120451720Y-50220353D01*
X120324642Y-50324642D01*
X120205864Y-50469373D01*
X120205862Y-50469376D01*
X120117604Y-50634497D01*
X120063253Y-50813666D01*
X120063252Y-50813668D01*
X120044901Y-50999999D01*
X120063252Y-51186331D01*
X120063253Y-51186333D01*
X120117604Y-51365502D01*
X120205862Y-51530623D01*
X120205864Y-51530626D01*
X120324642Y-51675357D01*
X120469373Y-51794135D01*
X120469376Y-51794137D01*
X120601693Y-51864861D01*
X120634499Y-51882396D01*
X120813666Y-51936746D01*
X120813668Y-51936747D01*
X120830374Y-51938392D01*
X121000000Y-51955099D01*
X121186331Y-51936747D01*
X121365501Y-51882396D01*
X121530625Y-51794136D01*
X121675357Y-51675357D01*
X121794136Y-51530625D01*
X121882396Y-51365501D01*
X121936747Y-51186331D01*
X121955099Y-51000000D01*
X121936747Y-50813669D01*
X121882396Y-50634499D01*
X121865598Y-50603071D01*
X121794137Y-50469376D01*
X121794135Y-50469373D01*
X121675357Y-50324642D01*
X121548280Y-50220353D01*
X121508946Y-50162608D01*
X121507075Y-50092763D01*
X121543263Y-50032995D01*
X121606018Y-50002279D01*
X121626945Y-50000500D01*
X124373055Y-50000500D01*
X124440094Y-50020185D01*
X124485849Y-50072989D01*
X124495793Y-50142147D01*
X124466768Y-50205703D01*
X124451720Y-50220353D01*
X124324642Y-50324642D01*
X124205864Y-50469373D01*
X124205862Y-50469376D01*
X124117604Y-50634497D01*
X124063253Y-50813666D01*
X124063252Y-50813668D01*
X124044901Y-51000000D01*
X124063252Y-51186331D01*
X124063253Y-51186333D01*
X124117604Y-51365502D01*
X124205862Y-51530623D01*
X124205864Y-51530626D01*
X124324642Y-51675357D01*
X124469373Y-51794135D01*
X124469376Y-51794137D01*
X124601693Y-51864861D01*
X124634499Y-51882396D01*
X124813666Y-51936746D01*
X124813668Y-51936747D01*
X124830374Y-51938392D01*
X125000000Y-51955099D01*
X125186331Y-51936747D01*
X125365501Y-51882396D01*
X125530625Y-51794136D01*
X125675357Y-51675357D01*
X125794136Y-51530625D01*
X125882396Y-51365501D01*
X125936747Y-51186331D01*
X125955099Y-51000000D01*
X125936747Y-50813669D01*
X125882396Y-50634499D01*
X125865598Y-50603071D01*
X125794137Y-50469376D01*
X125794135Y-50469373D01*
X125675357Y-50324642D01*
X125548280Y-50220353D01*
X125508946Y-50162608D01*
X125507075Y-50092763D01*
X125543263Y-50032995D01*
X125606018Y-50002279D01*
X125626945Y-50000500D01*
X128373055Y-50000500D01*
X128440094Y-50020185D01*
X128485849Y-50072989D01*
X128495793Y-50142147D01*
X128466768Y-50205703D01*
X128451720Y-50220353D01*
X128324642Y-50324642D01*
X128205864Y-50469373D01*
X128205862Y-50469376D01*
X128117604Y-50634497D01*
X128063253Y-50813666D01*
X128063252Y-50813668D01*
X128044901Y-51000000D01*
X128063252Y-51186331D01*
X128063253Y-51186333D01*
X128117604Y-51365502D01*
X128205862Y-51530623D01*
X128205864Y-51530626D01*
X128324642Y-51675357D01*
X128469373Y-51794135D01*
X128469376Y-51794137D01*
X128601693Y-51864861D01*
X128634499Y-51882396D01*
X128813666Y-51936746D01*
X128813668Y-51936747D01*
X128830374Y-51938392D01*
X129000000Y-51955099D01*
X129186331Y-51936747D01*
X129365501Y-51882396D01*
X129530625Y-51794136D01*
X129675357Y-51675357D01*
X129794136Y-51530625D01*
X129882396Y-51365501D01*
X129936747Y-51186331D01*
X129955099Y-51000000D01*
X129936747Y-50813669D01*
X129882396Y-50634499D01*
X129865598Y-50603071D01*
X129794137Y-50469376D01*
X129794135Y-50469373D01*
X129675357Y-50324642D01*
X129548280Y-50220353D01*
X129508946Y-50162608D01*
X129507075Y-50092763D01*
X129543263Y-50032995D01*
X129606018Y-50002279D01*
X129626945Y-50000500D01*
X132373055Y-50000500D01*
X132440094Y-50020185D01*
X132485849Y-50072989D01*
X132495793Y-50142147D01*
X132466768Y-50205703D01*
X132451720Y-50220353D01*
X132324642Y-50324642D01*
X132205864Y-50469373D01*
X132205862Y-50469376D01*
X132117604Y-50634497D01*
X132063253Y-50813666D01*
X132063252Y-50813668D01*
X132044901Y-51000000D01*
X132063252Y-51186331D01*
X132063253Y-51186333D01*
X132117604Y-51365502D01*
X132205862Y-51530623D01*
X132205864Y-51530626D01*
X132324642Y-51675357D01*
X132469373Y-51794135D01*
X132469376Y-51794137D01*
X132601693Y-51864861D01*
X132634499Y-51882396D01*
X132813666Y-51936746D01*
X132813668Y-51936747D01*
X132830374Y-51938392D01*
X133000000Y-51955099D01*
X133186331Y-51936747D01*
X133365501Y-51882396D01*
X133530625Y-51794136D01*
X133675357Y-51675357D01*
X133794136Y-51530625D01*
X133882396Y-51365501D01*
X133936747Y-51186331D01*
X133955099Y-51000000D01*
X133936747Y-50813669D01*
X133882396Y-50634499D01*
X133865598Y-50603071D01*
X133794137Y-50469376D01*
X133794135Y-50469373D01*
X133675357Y-50324642D01*
X133548280Y-50220353D01*
X133508946Y-50162608D01*
X133507075Y-50092763D01*
X133543263Y-50032995D01*
X133606018Y-50002279D01*
X133626945Y-50000500D01*
X136373055Y-50000500D01*
X136440094Y-50020185D01*
X136485849Y-50072989D01*
X136495793Y-50142147D01*
X136466768Y-50205703D01*
X136451720Y-50220353D01*
X136324642Y-50324642D01*
X136205864Y-50469373D01*
X136205862Y-50469376D01*
X136117604Y-50634497D01*
X136063253Y-50813666D01*
X136063252Y-50813668D01*
X136044901Y-51000000D01*
X136063252Y-51186331D01*
X136063253Y-51186333D01*
X136117604Y-51365502D01*
X136205862Y-51530623D01*
X136205864Y-51530626D01*
X136324642Y-51675357D01*
X136469373Y-51794135D01*
X136469376Y-51794137D01*
X136601693Y-51864861D01*
X136634499Y-51882396D01*
X136813666Y-51936746D01*
X136813668Y-51936747D01*
X136830374Y-51938392D01*
X137000000Y-51955099D01*
X137186331Y-51936747D01*
X137365501Y-51882396D01*
X137530625Y-51794136D01*
X137675357Y-51675357D01*
X137794136Y-51530625D01*
X137882396Y-51365501D01*
X137936747Y-51186331D01*
X137955099Y-51000000D01*
X137936747Y-50813669D01*
X137882396Y-50634499D01*
X137865598Y-50603071D01*
X137794137Y-50469376D01*
X137794135Y-50469373D01*
X137675357Y-50324642D01*
X137548280Y-50220353D01*
X137508946Y-50162608D01*
X137507075Y-50092763D01*
X137543263Y-50032995D01*
X137606018Y-50002279D01*
X137626945Y-50000500D01*
X140373055Y-50000500D01*
X140440094Y-50020185D01*
X140485849Y-50072989D01*
X140495793Y-50142147D01*
X140466768Y-50205703D01*
X140451720Y-50220353D01*
X140324642Y-50324642D01*
X140205864Y-50469373D01*
X140205862Y-50469376D01*
X140117604Y-50634497D01*
X140063253Y-50813666D01*
X140063252Y-50813668D01*
X140044901Y-51000000D01*
X140063252Y-51186331D01*
X140063253Y-51186333D01*
X140117604Y-51365502D01*
X140205862Y-51530623D01*
X140205864Y-51530626D01*
X140324642Y-51675357D01*
X140469373Y-51794135D01*
X140469376Y-51794137D01*
X140601693Y-51864861D01*
X140634499Y-51882396D01*
X140813666Y-51936746D01*
X140813668Y-51936747D01*
X140830374Y-51938392D01*
X141000000Y-51955099D01*
X141186331Y-51936747D01*
X141365501Y-51882396D01*
X141530625Y-51794136D01*
X141675357Y-51675357D01*
X141794136Y-51530625D01*
X141882396Y-51365501D01*
X141936747Y-51186331D01*
X141955099Y-51000000D01*
X141936747Y-50813669D01*
X141882396Y-50634499D01*
X141865598Y-50603071D01*
X141794137Y-50469376D01*
X141794135Y-50469373D01*
X141675357Y-50324642D01*
X141548280Y-50220353D01*
X141508946Y-50162608D01*
X141507075Y-50092763D01*
X141543263Y-50032995D01*
X141606018Y-50002279D01*
X141626945Y-50000500D01*
X144373055Y-50000500D01*
X144440094Y-50020185D01*
X144485849Y-50072989D01*
X144495793Y-50142147D01*
X144466768Y-50205703D01*
X144451720Y-50220353D01*
X144324642Y-50324642D01*
X144205864Y-50469373D01*
X144205862Y-50469376D01*
X144117604Y-50634497D01*
X144063253Y-50813666D01*
X144063252Y-50813668D01*
X144044901Y-51000000D01*
X144063252Y-51186331D01*
X144063253Y-51186333D01*
X144117604Y-51365502D01*
X144205862Y-51530623D01*
X144205864Y-51530626D01*
X144324642Y-51675357D01*
X144469373Y-51794135D01*
X144469376Y-51794137D01*
X144601693Y-51864861D01*
X144634499Y-51882396D01*
X144813666Y-51936746D01*
X144813668Y-51936747D01*
X144830374Y-51938392D01*
X145000000Y-51955099D01*
X145186331Y-51936747D01*
X145365501Y-51882396D01*
X145530625Y-51794136D01*
X145675357Y-51675357D01*
X145794136Y-51530625D01*
X145882396Y-51365501D01*
X145936747Y-51186331D01*
X145955099Y-51000000D01*
X145936747Y-50813669D01*
X145882396Y-50634499D01*
X145865598Y-50603071D01*
X145794137Y-50469376D01*
X145794135Y-50469373D01*
X145675357Y-50324642D01*
X145548280Y-50220353D01*
X145508946Y-50162608D01*
X145507075Y-50092763D01*
X145543263Y-50032995D01*
X145606018Y-50002279D01*
X145626945Y-50000500D01*
X148373055Y-50000500D01*
X148440094Y-50020185D01*
X148485849Y-50072989D01*
X148495793Y-50142147D01*
X148466768Y-50205703D01*
X148451720Y-50220353D01*
X148324642Y-50324642D01*
X148205864Y-50469373D01*
X148205862Y-50469376D01*
X148117604Y-50634497D01*
X148063253Y-50813666D01*
X148063252Y-50813668D01*
X148044901Y-51000000D01*
X148063252Y-51186331D01*
X148063253Y-51186333D01*
X148117604Y-51365502D01*
X148205862Y-51530623D01*
X148205864Y-51530626D01*
X148324642Y-51675357D01*
X148469373Y-51794135D01*
X148469376Y-51794137D01*
X148601693Y-51864861D01*
X148634499Y-51882396D01*
X148813666Y-51936746D01*
X148813668Y-51936747D01*
X148830374Y-51938392D01*
X149000000Y-51955099D01*
X149186331Y-51936747D01*
X149365501Y-51882396D01*
X149530625Y-51794136D01*
X149675357Y-51675357D01*
X149794136Y-51530625D01*
X149882396Y-51365501D01*
X149936747Y-51186331D01*
X149955099Y-51000000D01*
X149936747Y-50813669D01*
X149882396Y-50634499D01*
X149865598Y-50603071D01*
X149794137Y-50469376D01*
X149794135Y-50469373D01*
X149675357Y-50324642D01*
X149548280Y-50220353D01*
X149508946Y-50162608D01*
X149507075Y-50092763D01*
X149543263Y-50032995D01*
X149606018Y-50002279D01*
X149626945Y-50000500D01*
X152373055Y-50000500D01*
X152440094Y-50020185D01*
X152485849Y-50072989D01*
X152495793Y-50142147D01*
X152466768Y-50205703D01*
X152451720Y-50220353D01*
X152324642Y-50324642D01*
X152205864Y-50469373D01*
X152205862Y-50469376D01*
X152117604Y-50634497D01*
X152063253Y-50813666D01*
X152063252Y-50813668D01*
X152044901Y-51000000D01*
X152063252Y-51186331D01*
X152063253Y-51186333D01*
X152117604Y-51365502D01*
X152205862Y-51530623D01*
X152205864Y-51530626D01*
X152324642Y-51675357D01*
X152469373Y-51794135D01*
X152469376Y-51794137D01*
X152601693Y-51864861D01*
X152634499Y-51882396D01*
X152813666Y-51936746D01*
X152813668Y-51936747D01*
X152830374Y-51938392D01*
X153000000Y-51955099D01*
X153186331Y-51936747D01*
X153365501Y-51882396D01*
X153530625Y-51794136D01*
X153675357Y-51675357D01*
X153794136Y-51530625D01*
X153882396Y-51365501D01*
X153936747Y-51186331D01*
X153955099Y-51000000D01*
X153936747Y-50813669D01*
X153882396Y-50634499D01*
X153865598Y-50603071D01*
X153794137Y-50469376D01*
X153794135Y-50469373D01*
X153675357Y-50324642D01*
X153548280Y-50220353D01*
X153508946Y-50162608D01*
X153507075Y-50092763D01*
X153543263Y-50032995D01*
X153606018Y-50002279D01*
X153626945Y-50000500D01*
X156373055Y-50000500D01*
X156440094Y-50020185D01*
X156485849Y-50072989D01*
X156495793Y-50142147D01*
X156466768Y-50205703D01*
X156451720Y-50220353D01*
X156324642Y-50324642D01*
X156205864Y-50469373D01*
X156205862Y-50469376D01*
X156117604Y-50634497D01*
X156063253Y-50813666D01*
X156063252Y-50813668D01*
X156044901Y-51000000D01*
X156063252Y-51186331D01*
X156063253Y-51186333D01*
X156117604Y-51365502D01*
X156205862Y-51530623D01*
X156205864Y-51530626D01*
X156324642Y-51675357D01*
X156469373Y-51794135D01*
X156469376Y-51794137D01*
X156601693Y-51864861D01*
X156634499Y-51882396D01*
X156813666Y-51936746D01*
X156813668Y-51936747D01*
X156830374Y-51938392D01*
X157000000Y-51955099D01*
X157186331Y-51936747D01*
X157365501Y-51882396D01*
X157530625Y-51794136D01*
X157675357Y-51675357D01*
X157794136Y-51530625D01*
X157882396Y-51365501D01*
X157936747Y-51186331D01*
X157955099Y-51000000D01*
X157936747Y-50813669D01*
X157882396Y-50634499D01*
X157865598Y-50603071D01*
X157794137Y-50469376D01*
X157794135Y-50469373D01*
X157675357Y-50324642D01*
X157548280Y-50220353D01*
X157508946Y-50162608D01*
X157507075Y-50092763D01*
X157543263Y-50032995D01*
X157606018Y-50002279D01*
X157626945Y-50000500D01*
X160373055Y-50000500D01*
X160440094Y-50020185D01*
X160485849Y-50072989D01*
X160495793Y-50142147D01*
X160466768Y-50205703D01*
X160451720Y-50220353D01*
X160324642Y-50324642D01*
X160205864Y-50469373D01*
X160205862Y-50469376D01*
X160117604Y-50634497D01*
X160063253Y-50813666D01*
X160063252Y-50813668D01*
X160044901Y-51000000D01*
X160063252Y-51186331D01*
X160063253Y-51186333D01*
X160117604Y-51365502D01*
X160205862Y-51530623D01*
X160205864Y-51530626D01*
X160324642Y-51675357D01*
X160469373Y-51794135D01*
X160469376Y-51794137D01*
X160601693Y-51864861D01*
X160634499Y-51882396D01*
X160813666Y-51936746D01*
X160813668Y-51936747D01*
X160830374Y-51938392D01*
X161000000Y-51955099D01*
X161186331Y-51936747D01*
X161365501Y-51882396D01*
X161530625Y-51794136D01*
X161675357Y-51675357D01*
X161794136Y-51530625D01*
X161882396Y-51365501D01*
X161936747Y-51186331D01*
X161955099Y-51000000D01*
X161936747Y-50813669D01*
X161882396Y-50634499D01*
X161865598Y-50603071D01*
X161794137Y-50469376D01*
X161794135Y-50469373D01*
X161675357Y-50324642D01*
X161548280Y-50220353D01*
X161508946Y-50162608D01*
X161507075Y-50092763D01*
X161543263Y-50032995D01*
X161606018Y-50002279D01*
X161626945Y-50000500D01*
X164373055Y-50000500D01*
X164440094Y-50020185D01*
X164485849Y-50072989D01*
X164495793Y-50142147D01*
X164466768Y-50205703D01*
X164451720Y-50220353D01*
X164324642Y-50324642D01*
X164205864Y-50469373D01*
X164205862Y-50469376D01*
X164117604Y-50634497D01*
X164063253Y-50813666D01*
X164063252Y-50813668D01*
X164044901Y-51000000D01*
X164063252Y-51186331D01*
X164063253Y-51186333D01*
X164117604Y-51365502D01*
X164205862Y-51530623D01*
X164205864Y-51530626D01*
X164324642Y-51675357D01*
X164469373Y-51794135D01*
X164469376Y-51794137D01*
X164601693Y-51864861D01*
X164634499Y-51882396D01*
X164813666Y-51936746D01*
X164813668Y-51936747D01*
X164830374Y-51938392D01*
X165000000Y-51955099D01*
X165186331Y-51936747D01*
X165365501Y-51882396D01*
X165530625Y-51794136D01*
X165675357Y-51675357D01*
X165794136Y-51530625D01*
X165882396Y-51365501D01*
X165936747Y-51186331D01*
X165955099Y-51000000D01*
X165936747Y-50813669D01*
X165882396Y-50634499D01*
X165865598Y-50603071D01*
X165794137Y-50469376D01*
X165794135Y-50469373D01*
X165675357Y-50324642D01*
X165548280Y-50220353D01*
X165508946Y-50162608D01*
X165507075Y-50092763D01*
X165543263Y-50032995D01*
X165606018Y-50002279D01*
X165626945Y-50000500D01*
X168373055Y-50000500D01*
X168440094Y-50020185D01*
X168485849Y-50072989D01*
X168495793Y-50142147D01*
X168466768Y-50205703D01*
X168451720Y-50220353D01*
X168324642Y-50324642D01*
X168205864Y-50469373D01*
X168205862Y-50469376D01*
X168117604Y-50634497D01*
X168063253Y-50813666D01*
X168063252Y-50813668D01*
X168044901Y-51000000D01*
X168063252Y-51186331D01*
X168063253Y-51186333D01*
X168117604Y-51365502D01*
X168205862Y-51530623D01*
X168205864Y-51530626D01*
X168324642Y-51675357D01*
X168469373Y-51794135D01*
X168469376Y-51794137D01*
X168601693Y-51864861D01*
X168634499Y-51882396D01*
X168813666Y-51936746D01*
X168813668Y-51936747D01*
X168830374Y-51938392D01*
X169000000Y-51955099D01*
X169186331Y-51936747D01*
X169365501Y-51882396D01*
X169530625Y-51794136D01*
X169675357Y-51675357D01*
X169794136Y-51530625D01*
X169882396Y-51365501D01*
X169936747Y-51186331D01*
X169955099Y-51000000D01*
X169936747Y-50813669D01*
X169882396Y-50634499D01*
X169865598Y-50603071D01*
X169794137Y-50469376D01*
X169794135Y-50469373D01*
X169675357Y-50324642D01*
X169548280Y-50220353D01*
X169508946Y-50162608D01*
X169507075Y-50092763D01*
X169543263Y-50032995D01*
X169606018Y-50002279D01*
X169626945Y-50000500D01*
X172373055Y-50000500D01*
X172440094Y-50020185D01*
X172485849Y-50072989D01*
X172495793Y-50142147D01*
X172466768Y-50205703D01*
X172451720Y-50220353D01*
X172324642Y-50324642D01*
X172205864Y-50469373D01*
X172205862Y-50469376D01*
X172117604Y-50634497D01*
X172063253Y-50813666D01*
X172063252Y-50813668D01*
X172044901Y-51000000D01*
X172063252Y-51186331D01*
X172063253Y-51186333D01*
X172117604Y-51365502D01*
X172205862Y-51530623D01*
X172205864Y-51530626D01*
X172324642Y-51675357D01*
X172469373Y-51794135D01*
X172469376Y-51794137D01*
X172601693Y-51864861D01*
X172634499Y-51882396D01*
X172813666Y-51936746D01*
X172813668Y-51936747D01*
X172830374Y-51938392D01*
X173000000Y-51955099D01*
X173186331Y-51936747D01*
X173365501Y-51882396D01*
X173530625Y-51794136D01*
X173675357Y-51675357D01*
X173794136Y-51530625D01*
X173882396Y-51365501D01*
X173936747Y-51186331D01*
X173955099Y-51000000D01*
X173936747Y-50813669D01*
X173882396Y-50634499D01*
X173865598Y-50603071D01*
X173794137Y-50469376D01*
X173794135Y-50469373D01*
X173675357Y-50324642D01*
X173548280Y-50220353D01*
X173508946Y-50162608D01*
X173507075Y-50092763D01*
X173543263Y-50032995D01*
X173606018Y-50002279D01*
X173626945Y-50000500D01*
X176373055Y-50000500D01*
X176440094Y-50020185D01*
X176485849Y-50072989D01*
X176495793Y-50142147D01*
X176466768Y-50205703D01*
X176451720Y-50220353D01*
X176324642Y-50324642D01*
X176205864Y-50469373D01*
X176205862Y-50469376D01*
X176117604Y-50634497D01*
X176063253Y-50813666D01*
X176063252Y-50813668D01*
X176044901Y-51000000D01*
X176063252Y-51186331D01*
X176063253Y-51186333D01*
X176117604Y-51365502D01*
X176205862Y-51530623D01*
X176205864Y-51530626D01*
X176324642Y-51675357D01*
X176469373Y-51794135D01*
X176469376Y-51794137D01*
X176601693Y-51864861D01*
X176634499Y-51882396D01*
X176813666Y-51936746D01*
X176813668Y-51936747D01*
X176830374Y-51938392D01*
X177000000Y-51955099D01*
X177186331Y-51936747D01*
X177365501Y-51882396D01*
X177511943Y-51804121D01*
X177560096Y-51794095D01*
X177573048Y-51762725D01*
X177591020Y-51744570D01*
X177675357Y-51675357D01*
X177794136Y-51530625D01*
X177882396Y-51365501D01*
X177936747Y-51186331D01*
X177955099Y-51000000D01*
X177936747Y-50813669D01*
X177882396Y-50634499D01*
X177865598Y-50603071D01*
X177794137Y-50469376D01*
X177794135Y-50469373D01*
X177675357Y-50324642D01*
X177548280Y-50220353D01*
X177508946Y-50162608D01*
X177507075Y-50092763D01*
X177543263Y-50032995D01*
X177606018Y-50002279D01*
X177626945Y-50000500D01*
X179999500Y-50000500D01*
X180000000Y-50000500D01*
X180217318Y-50009488D01*
X180415934Y-50018160D01*
X180420865Y-50018574D01*
X180636792Y-50045489D01*
X180832940Y-50071313D01*
X180837265Y-50071883D01*
X180841894Y-50072671D01*
X181054183Y-50117183D01*
X181252534Y-50161157D01*
X181256778Y-50162257D01*
X181464544Y-50224112D01*
X181658658Y-50285317D01*
X181662530Y-50286680D01*
X181864457Y-50365472D01*
X182052817Y-50443494D01*
X182056252Y-50445045D01*
X182106016Y-50469373D01*
X182250992Y-50540249D01*
X182388629Y-50611897D01*
X182432009Y-50634479D01*
X182435107Y-50636207D01*
X182621382Y-50747202D01*
X182793662Y-50856957D01*
X182796377Y-50858789D01*
X182972918Y-50984837D01*
X183135098Y-51109282D01*
X183137426Y-51111159D01*
X183303055Y-51251439D01*
X183454895Y-51390574D01*
X183609424Y-51545103D01*
X183728779Y-51675356D01*
X183748555Y-51696938D01*
X183763008Y-51714003D01*
X183888839Y-51862572D01*
X183890716Y-51864900D01*
X184015162Y-52027081D01*
X184141209Y-52203621D01*
X184143040Y-52206335D01*
X184252797Y-52378617D01*
X184363791Y-52564891D01*
X184365525Y-52568000D01*
X184459750Y-52749007D01*
X184525992Y-52884503D01*
X184554953Y-52943744D01*
X184556524Y-52947229D01*
X184634536Y-53135566D01*
X184713309Y-53337445D01*
X184714681Y-53341340D01*
X184775899Y-53535496D01*
X184837735Y-53743200D01*
X184838843Y-53747472D01*
X184882818Y-53945826D01*
X184927326Y-54158101D01*
X184928115Y-54162733D01*
X184954524Y-54363319D01*
X184981422Y-54579114D01*
X184981839Y-54584080D01*
X184990513Y-54782728D01*
X184999500Y-55000000D01*
X184999500Y-59373054D01*
X184979815Y-59440093D01*
X184927011Y-59485848D01*
X184857853Y-59495792D01*
X184794297Y-59466767D01*
X184779647Y-59451719D01*
X184675357Y-59324642D01*
X184530626Y-59205864D01*
X184530623Y-59205862D01*
X184365502Y-59117604D01*
X184186333Y-59063253D01*
X184186331Y-59063252D01*
X184000000Y-59044901D01*
X183813668Y-59063252D01*
X183813666Y-59063253D01*
X183634497Y-59117604D01*
X183469376Y-59205862D01*
X183469373Y-59205864D01*
X183324642Y-59324642D01*
X183205864Y-59469373D01*
X183205862Y-59469376D01*
X183117604Y-59634497D01*
X183063253Y-59813666D01*
X183063252Y-59813668D01*
X183044901Y-60000000D01*
X183063252Y-60186331D01*
X183063253Y-60186333D01*
X183117604Y-60365502D01*
X183205862Y-60530623D01*
X183205864Y-60530626D01*
X183324642Y-60675357D01*
X183469373Y-60794135D01*
X183469376Y-60794137D01*
X183634497Y-60882395D01*
X183634499Y-60882396D01*
X183813666Y-60936746D01*
X183813668Y-60936747D01*
X183830374Y-60938392D01*
X184000000Y-60955099D01*
X184186331Y-60936747D01*
X184365501Y-60882396D01*
X184530625Y-60794136D01*
X184675357Y-60675357D01*
X184779646Y-60548280D01*
X184837392Y-60508946D01*
X184907237Y-60507075D01*
X184967005Y-60543263D01*
X184997721Y-60606018D01*
X184999500Y-60626945D01*
X184999500Y-63373054D01*
X184979815Y-63440093D01*
X184927011Y-63485848D01*
X184857853Y-63495792D01*
X184794297Y-63466767D01*
X184779647Y-63451719D01*
X184675357Y-63324642D01*
X184530626Y-63205864D01*
X184530623Y-63205862D01*
X184365502Y-63117604D01*
X184186333Y-63063253D01*
X184186331Y-63063252D01*
X184000000Y-63044901D01*
X183813668Y-63063252D01*
X183813666Y-63063253D01*
X183634497Y-63117604D01*
X183469376Y-63205862D01*
X183469373Y-63205864D01*
X183324642Y-63324642D01*
X183205865Y-63469373D01*
X183127059Y-63616808D01*
X183078097Y-63666652D01*
X183009959Y-63682112D01*
X182959248Y-63667712D01*
X182865502Y-63617604D01*
X182686333Y-63563253D01*
X182686331Y-63563252D01*
X182500000Y-63544901D01*
X182313668Y-63563252D01*
X182313666Y-63563253D01*
X182134497Y-63617604D01*
X181969376Y-63705862D01*
X181969373Y-63705864D01*
X181824642Y-63824642D01*
X181705864Y-63969373D01*
X181705862Y-63969376D01*
X181617604Y-64134497D01*
X181563253Y-64313666D01*
X181563252Y-64313668D01*
X181544901Y-64500000D01*
X181563252Y-64686331D01*
X181563253Y-64686333D01*
X181617604Y-64865502D01*
X181705862Y-65030623D01*
X181705864Y-65030626D01*
X181824642Y-65175357D01*
X181969373Y-65294135D01*
X181969376Y-65294137D01*
X182134497Y-65382395D01*
X182134499Y-65382396D01*
X182313666Y-65436746D01*
X182313668Y-65436747D01*
X182330374Y-65438392D01*
X182500000Y-65455099D01*
X182686331Y-65436747D01*
X182865501Y-65382396D01*
X183030625Y-65294136D01*
X183175357Y-65175357D01*
X183294136Y-65030625D01*
X183372941Y-64883189D01*
X183421900Y-64833348D01*
X183490038Y-64817887D01*
X183540750Y-64832287D01*
X183602890Y-64865501D01*
X183634499Y-64882396D01*
X183813666Y-64936746D01*
X183813668Y-64936747D01*
X183830374Y-64938392D01*
X184000000Y-64955099D01*
X184186331Y-64936747D01*
X184365501Y-64882396D01*
X184530625Y-64794136D01*
X184675357Y-64675357D01*
X184779646Y-64548280D01*
X184837392Y-64508946D01*
X184907237Y-64507075D01*
X184967005Y-64543263D01*
X184997721Y-64606018D01*
X184999500Y-64626945D01*
X184999500Y-67373054D01*
X184979815Y-67440093D01*
X184927011Y-67485848D01*
X184857853Y-67495792D01*
X184794297Y-67466767D01*
X184779647Y-67451719D01*
X184675357Y-67324642D01*
X184530626Y-67205864D01*
X184530623Y-67205862D01*
X184365502Y-67117604D01*
X184186333Y-67063253D01*
X184186331Y-67063252D01*
X184000000Y-67044901D01*
X183813668Y-67063252D01*
X183813666Y-67063253D01*
X183634497Y-67117604D01*
X183469376Y-67205862D01*
X183469373Y-67205864D01*
X183324642Y-67324642D01*
X183205864Y-67469373D01*
X183205862Y-67469376D01*
X183117604Y-67634497D01*
X183063253Y-67813666D01*
X183063252Y-67813668D01*
X183044901Y-68000000D01*
X183063252Y-68186331D01*
X183063253Y-68186333D01*
X183117604Y-68365502D01*
X183205862Y-68530623D01*
X183205864Y-68530626D01*
X183324642Y-68675357D01*
X183469373Y-68794135D01*
X183469376Y-68794137D01*
X183634497Y-68882395D01*
X183634499Y-68882396D01*
X183813666Y-68936746D01*
X183813668Y-68936747D01*
X183830374Y-68938392D01*
X184000000Y-68955099D01*
X184186331Y-68936747D01*
X184365501Y-68882396D01*
X184530625Y-68794136D01*
X184675357Y-68675357D01*
X184760933Y-68571083D01*
X184779647Y-68548280D01*
X184837392Y-68508946D01*
X184907237Y-68507075D01*
X184967005Y-68543263D01*
X184997721Y-68606018D01*
X184999500Y-68626945D01*
X184999500Y-71373054D01*
X184979815Y-71440093D01*
X184927011Y-71485848D01*
X184857853Y-71495792D01*
X184794297Y-71466767D01*
X184779647Y-71451719D01*
X184675357Y-71324642D01*
X184530626Y-71205864D01*
X184530623Y-71205862D01*
X184365502Y-71117604D01*
X184186333Y-71063253D01*
X184186331Y-71063252D01*
X184000000Y-71044901D01*
X183813668Y-71063252D01*
X183813666Y-71063253D01*
X183634497Y-71117604D01*
X183469376Y-71205862D01*
X183469373Y-71205864D01*
X183324642Y-71324642D01*
X183205864Y-71469373D01*
X183205862Y-71469376D01*
X183117604Y-71634497D01*
X183063253Y-71813666D01*
X183063252Y-71813668D01*
X183044901Y-72000000D01*
X183063252Y-72186331D01*
X183063253Y-72186333D01*
X183117604Y-72365502D01*
X183205862Y-72530623D01*
X183205864Y-72530626D01*
X183324642Y-72675357D01*
X183469373Y-72794135D01*
X183469376Y-72794137D01*
X183634497Y-72882395D01*
X183634499Y-72882396D01*
X183757236Y-72919628D01*
X183813666Y-72936746D01*
X183813668Y-72936747D01*
X183830374Y-72938392D01*
X184000000Y-72955099D01*
X184186331Y-72936747D01*
X184365501Y-72882396D01*
X184530625Y-72794136D01*
X184675357Y-72675357D01*
X184779646Y-72548280D01*
X184837392Y-72508946D01*
X184907237Y-72507075D01*
X184967005Y-72543263D01*
X184997721Y-72606018D01*
X184999500Y-72626945D01*
X184999500Y-75373054D01*
X184979815Y-75440093D01*
X184927011Y-75485848D01*
X184857853Y-75495792D01*
X184794297Y-75466767D01*
X184779647Y-75451719D01*
X184675357Y-75324642D01*
X184530626Y-75205864D01*
X184530623Y-75205862D01*
X184365502Y-75117604D01*
X184186333Y-75063253D01*
X184186331Y-75063252D01*
X184000000Y-75044901D01*
X183813668Y-75063252D01*
X183813666Y-75063253D01*
X183634497Y-75117604D01*
X183469376Y-75205862D01*
X183469373Y-75205864D01*
X183324642Y-75324642D01*
X183205864Y-75469373D01*
X183205862Y-75469376D01*
X183117604Y-75634497D01*
X183063253Y-75813666D01*
X183063252Y-75813668D01*
X183044901Y-76000000D01*
X183063252Y-76186331D01*
X183063253Y-76186333D01*
X183117604Y-76365502D01*
X183205862Y-76530623D01*
X183205864Y-76530626D01*
X183324642Y-76675357D01*
X183469373Y-76794135D01*
X183469376Y-76794137D01*
X183634497Y-76882395D01*
X183634499Y-76882396D01*
X183813666Y-76936746D01*
X183813668Y-76936747D01*
X183830374Y-76938392D01*
X184000000Y-76955099D01*
X184186331Y-76936747D01*
X184365501Y-76882396D01*
X184530625Y-76794136D01*
X184675357Y-76675357D01*
X184779646Y-76548280D01*
X184837392Y-76508946D01*
X184907237Y-76507075D01*
X184967005Y-76543263D01*
X184997721Y-76606018D01*
X184999500Y-76626945D01*
X184999500Y-79373054D01*
X184979815Y-79440093D01*
X184927011Y-79485848D01*
X184857853Y-79495792D01*
X184794297Y-79466767D01*
X184779647Y-79451719D01*
X184675357Y-79324642D01*
X184530626Y-79205864D01*
X184530623Y-79205862D01*
X184365502Y-79117604D01*
X184186333Y-79063253D01*
X184186331Y-79063252D01*
X184000000Y-79044901D01*
X183813668Y-79063252D01*
X183813666Y-79063253D01*
X183634499Y-79117603D01*
X183540749Y-79167713D01*
X183472346Y-79181954D01*
X183407103Y-79156953D01*
X183372940Y-79116809D01*
X183294136Y-78969375D01*
X183258013Y-78925359D01*
X183175357Y-78824642D01*
X183030626Y-78705864D01*
X183030623Y-78705862D01*
X182865502Y-78617604D01*
X182686333Y-78563253D01*
X182686331Y-78563252D01*
X182500000Y-78544901D01*
X182313668Y-78563252D01*
X182313666Y-78563253D01*
X182134497Y-78617604D01*
X181969376Y-78705862D01*
X181969373Y-78705864D01*
X181824642Y-78824642D01*
X181705864Y-78969373D01*
X181705862Y-78969376D01*
X181617604Y-79134497D01*
X181563253Y-79313666D01*
X181563252Y-79313668D01*
X181544901Y-79500000D01*
X181563252Y-79686331D01*
X181563253Y-79686333D01*
X181617604Y-79865502D01*
X181705862Y-80030623D01*
X181705864Y-80030626D01*
X181824642Y-80175357D01*
X181969373Y-80294135D01*
X181969376Y-80294137D01*
X182102890Y-80365501D01*
X182134499Y-80382396D01*
X182313666Y-80436746D01*
X182313668Y-80436747D01*
X182330374Y-80438392D01*
X182500000Y-80455099D01*
X182686331Y-80436747D01*
X182865501Y-80382396D01*
X182959250Y-80332286D01*
X183027650Y-80318045D01*
X183092894Y-80343045D01*
X183127059Y-80383192D01*
X183205862Y-80530623D01*
X183205864Y-80530626D01*
X183324642Y-80675357D01*
X183469373Y-80794135D01*
X183469376Y-80794137D01*
X183634497Y-80882395D01*
X183634499Y-80882396D01*
X183719306Y-80908122D01*
X183813666Y-80936746D01*
X183813668Y-80936747D01*
X183830374Y-80938392D01*
X184000000Y-80955099D01*
X184186331Y-80936747D01*
X184365501Y-80882396D01*
X184530625Y-80794136D01*
X184675357Y-80675357D01*
X184779646Y-80548280D01*
X184837392Y-80508946D01*
X184907237Y-80507075D01*
X184967005Y-80543263D01*
X184997721Y-80606018D01*
X184999500Y-80626945D01*
X184999500Y-83373054D01*
X184979815Y-83440093D01*
X184927011Y-83485848D01*
X184857853Y-83495792D01*
X184794297Y-83466767D01*
X184779647Y-83451719D01*
X184675357Y-83324642D01*
X184530626Y-83205864D01*
X184530623Y-83205862D01*
X184365502Y-83117604D01*
X184186333Y-83063253D01*
X184186331Y-83063252D01*
X184000000Y-83044901D01*
X183813668Y-83063252D01*
X183813666Y-83063253D01*
X183634497Y-83117604D01*
X183469376Y-83205862D01*
X183469373Y-83205864D01*
X183324642Y-83324642D01*
X183205864Y-83469373D01*
X183205862Y-83469376D01*
X183117604Y-83634497D01*
X183063253Y-83813666D01*
X183063252Y-83813668D01*
X183044901Y-84000000D01*
X183063252Y-84186331D01*
X183063253Y-84186333D01*
X183117604Y-84365502D01*
X183205862Y-84530623D01*
X183205864Y-84530626D01*
X183324642Y-84675357D01*
X183469373Y-84794135D01*
X183469376Y-84794137D01*
X183572954Y-84849500D01*
X183634499Y-84882396D01*
X183813666Y-84936746D01*
X183813668Y-84936747D01*
X183830374Y-84938392D01*
X184000000Y-84955099D01*
X184186331Y-84936747D01*
X184365501Y-84882396D01*
X184530625Y-84794136D01*
X184675357Y-84675357D01*
X184779646Y-84548280D01*
X184837392Y-84508946D01*
X184907237Y-84507075D01*
X184967005Y-84543263D01*
X184997721Y-84606018D01*
X184999500Y-84626945D01*
X184999500Y-87373054D01*
X184979815Y-87440093D01*
X184927011Y-87485848D01*
X184857853Y-87495792D01*
X184794297Y-87466767D01*
X184779647Y-87451719D01*
X184675357Y-87324642D01*
X184530626Y-87205864D01*
X184530623Y-87205862D01*
X184365502Y-87117604D01*
X184186333Y-87063253D01*
X184186331Y-87063252D01*
X184000000Y-87044901D01*
X183813668Y-87063252D01*
X183813666Y-87063253D01*
X183634497Y-87117604D01*
X183469376Y-87205862D01*
X183469373Y-87205864D01*
X183324642Y-87324642D01*
X183205864Y-87469373D01*
X183205862Y-87469376D01*
X183117604Y-87634497D01*
X183063253Y-87813666D01*
X183063252Y-87813668D01*
X183044901Y-88000000D01*
X183063252Y-88186331D01*
X183063253Y-88186333D01*
X183117604Y-88365502D01*
X183205862Y-88530623D01*
X183205864Y-88530626D01*
X183324642Y-88675357D01*
X183469373Y-88794135D01*
X183469376Y-88794137D01*
X183634497Y-88882395D01*
X183634499Y-88882396D01*
X183812298Y-88936331D01*
X183813666Y-88936746D01*
X183813668Y-88936747D01*
X183830374Y-88938392D01*
X184000000Y-88955099D01*
X184186331Y-88936747D01*
X184365501Y-88882396D01*
X184530625Y-88794136D01*
X184675357Y-88675357D01*
X184732262Y-88606018D01*
X184779647Y-88548280D01*
X184837392Y-88508946D01*
X184907237Y-88507075D01*
X184967005Y-88543263D01*
X184997721Y-88606018D01*
X184999500Y-88626945D01*
X184999500Y-91373054D01*
X184979815Y-91440093D01*
X184927011Y-91485848D01*
X184857853Y-91495792D01*
X184794297Y-91466767D01*
X184779647Y-91451719D01*
X184675357Y-91324642D01*
X184530626Y-91205864D01*
X184530623Y-91205862D01*
X184365502Y-91117604D01*
X184186333Y-91063253D01*
X184186331Y-91063252D01*
X184000000Y-91044901D01*
X183813668Y-91063252D01*
X183813666Y-91063253D01*
X183634497Y-91117604D01*
X183469376Y-91205862D01*
X183469373Y-91205864D01*
X183324642Y-91324642D01*
X183205864Y-91469373D01*
X183205862Y-91469376D01*
X183117604Y-91634497D01*
X183063253Y-91813666D01*
X183063252Y-91813668D01*
X183044901Y-92000000D01*
X183063252Y-92186331D01*
X183063253Y-92186333D01*
X183117604Y-92365502D01*
X183205862Y-92530623D01*
X183205864Y-92530626D01*
X183324642Y-92675357D01*
X183469373Y-92794135D01*
X183469376Y-92794137D01*
X183634497Y-92882395D01*
X183634499Y-92882396D01*
X183813666Y-92936746D01*
X183813668Y-92936747D01*
X183830374Y-92938392D01*
X184000000Y-92955099D01*
X184186331Y-92936747D01*
X184365501Y-92882396D01*
X184530625Y-92794136D01*
X184675357Y-92675357D01*
X184779646Y-92548280D01*
X184837392Y-92508946D01*
X184907237Y-92507075D01*
X184967005Y-92543263D01*
X184997721Y-92606018D01*
X184999500Y-92626945D01*
X184999500Y-95373054D01*
X184979815Y-95440093D01*
X184927011Y-95485848D01*
X184857853Y-95495792D01*
X184794297Y-95466767D01*
X184779647Y-95451719D01*
X184675357Y-95324642D01*
X184530626Y-95205864D01*
X184530623Y-95205862D01*
X184365502Y-95117604D01*
X184186333Y-95063253D01*
X184186331Y-95063252D01*
X184000000Y-95044901D01*
X183813668Y-95063252D01*
X183813666Y-95063253D01*
X183634497Y-95117604D01*
X183469376Y-95205862D01*
X183469374Y-95205863D01*
X183438660Y-95231070D01*
X183374350Y-95258382D01*
X183305482Y-95246589D01*
X183253923Y-95199436D01*
X183250639Y-95193668D01*
X183174579Y-95051369D01*
X183174577Y-95051366D01*
X183055799Y-94906635D01*
X182911068Y-94787857D01*
X182911065Y-94787855D01*
X182745944Y-94699597D01*
X182566775Y-94645246D01*
X182566773Y-94645245D01*
X182380442Y-94626894D01*
X182194110Y-94645245D01*
X182194108Y-94645246D01*
X182014939Y-94699597D01*
X181849818Y-94787855D01*
X181849815Y-94787857D01*
X181705084Y-94906635D01*
X181586306Y-95051366D01*
X181586304Y-95051369D01*
X181498046Y-95216490D01*
X181443695Y-95395659D01*
X181443694Y-95395661D01*
X181425343Y-95581992D01*
X181443694Y-95768324D01*
X181443695Y-95768326D01*
X181498046Y-95947495D01*
X181586304Y-96112616D01*
X181586306Y-96112619D01*
X181705084Y-96257350D01*
X181849815Y-96376128D01*
X181849818Y-96376130D01*
X181872632Y-96388324D01*
X182014941Y-96464389D01*
X182194108Y-96518739D01*
X182194110Y-96518740D01*
X182210816Y-96520385D01*
X182380442Y-96537092D01*
X182566773Y-96518740D01*
X182745943Y-96464389D01*
X182911067Y-96376129D01*
X182941778Y-96350924D01*
X183006088Y-96323611D01*
X183074955Y-96335401D01*
X183126516Y-96382553D01*
X183129802Y-96388324D01*
X183205862Y-96530623D01*
X183205864Y-96530626D01*
X183324642Y-96675357D01*
X183469373Y-96794135D01*
X183469376Y-96794137D01*
X183602890Y-96865501D01*
X183634499Y-96882396D01*
X183813666Y-96936746D01*
X183813668Y-96936747D01*
X183830374Y-96938392D01*
X184000000Y-96955099D01*
X184186331Y-96936747D01*
X184365501Y-96882396D01*
X184530625Y-96794136D01*
X184675357Y-96675357D01*
X184779646Y-96548280D01*
X184837392Y-96508946D01*
X184907237Y-96507075D01*
X184967005Y-96543263D01*
X184997721Y-96606018D01*
X184999500Y-96626945D01*
X184999500Y-99373054D01*
X184979815Y-99440093D01*
X184927011Y-99485848D01*
X184857853Y-99495792D01*
X184794297Y-99466767D01*
X184779647Y-99451719D01*
X184675357Y-99324642D01*
X184530626Y-99205864D01*
X184530623Y-99205862D01*
X184365502Y-99117604D01*
X184186333Y-99063253D01*
X184186331Y-99063252D01*
X184000000Y-99044901D01*
X183813668Y-99063252D01*
X183813666Y-99063253D01*
X183634497Y-99117604D01*
X183469376Y-99205862D01*
X183469373Y-99205864D01*
X183324642Y-99324642D01*
X183205864Y-99469373D01*
X183205862Y-99469376D01*
X183117604Y-99634497D01*
X183063253Y-99813666D01*
X183063252Y-99813668D01*
X183044901Y-100000000D01*
X183063252Y-100186331D01*
X183063253Y-100186333D01*
X183117604Y-100365502D01*
X183205862Y-100530623D01*
X183205864Y-100530626D01*
X183324642Y-100675357D01*
X183469373Y-100794135D01*
X183469376Y-100794137D01*
X183634497Y-100882395D01*
X183634499Y-100882396D01*
X183813666Y-100936746D01*
X183813668Y-100936747D01*
X183830374Y-100938392D01*
X184000000Y-100955099D01*
X184186331Y-100936747D01*
X184365501Y-100882396D01*
X184530625Y-100794136D01*
X184675357Y-100675357D01*
X184779646Y-100548280D01*
X184837392Y-100508946D01*
X184907237Y-100507075D01*
X184967005Y-100543263D01*
X184997721Y-100606018D01*
X184999500Y-100626945D01*
X184999500Y-103373054D01*
X184979815Y-103440093D01*
X184927011Y-103485848D01*
X184857853Y-103495792D01*
X184794297Y-103466767D01*
X184779647Y-103451719D01*
X184675357Y-103324642D01*
X184530626Y-103205864D01*
X184530623Y-103205862D01*
X184365502Y-103117604D01*
X184186333Y-103063253D01*
X184186331Y-103063252D01*
X184000000Y-103044901D01*
X183813668Y-103063252D01*
X183813666Y-103063253D01*
X183634497Y-103117604D01*
X183469376Y-103205862D01*
X183469373Y-103205864D01*
X183324642Y-103324642D01*
X183205864Y-103469373D01*
X183205862Y-103469376D01*
X183117604Y-103634497D01*
X183063253Y-103813666D01*
X183063252Y-103813668D01*
X183044901Y-104000000D01*
X183063252Y-104186331D01*
X183063253Y-104186333D01*
X183117604Y-104365502D01*
X183205862Y-104530623D01*
X183205864Y-104530626D01*
X183324642Y-104675357D01*
X183469373Y-104794135D01*
X183469376Y-104794137D01*
X183544889Y-104834499D01*
X183634499Y-104882396D01*
X183813666Y-104936746D01*
X183813668Y-104936747D01*
X183830374Y-104938392D01*
X184000000Y-104955099D01*
X184186331Y-104936747D01*
X184365501Y-104882396D01*
X184530625Y-104794136D01*
X184675357Y-104675357D01*
X184760933Y-104571083D01*
X184779647Y-104548280D01*
X184837392Y-104508946D01*
X184907237Y-104507075D01*
X184967005Y-104543263D01*
X184997721Y-104606018D01*
X184999500Y-104626945D01*
X184999500Y-107373054D01*
X184979815Y-107440093D01*
X184927011Y-107485848D01*
X184857853Y-107495792D01*
X184794297Y-107466767D01*
X184779647Y-107451719D01*
X184675357Y-107324642D01*
X184530626Y-107205864D01*
X184530623Y-107205862D01*
X184365502Y-107117604D01*
X184186333Y-107063253D01*
X184186331Y-107063252D01*
X184000000Y-107044901D01*
X183813668Y-107063252D01*
X183813666Y-107063253D01*
X183634497Y-107117604D01*
X183469376Y-107205862D01*
X183469373Y-107205864D01*
X183324642Y-107324642D01*
X183205864Y-107469373D01*
X183205862Y-107469376D01*
X183117604Y-107634497D01*
X183063253Y-107813666D01*
X183063252Y-107813668D01*
X183044901Y-108000000D01*
X183063252Y-108186331D01*
X183063253Y-108186333D01*
X183117604Y-108365502D01*
X183205862Y-108530623D01*
X183205864Y-108530626D01*
X183324642Y-108675357D01*
X183469373Y-108794135D01*
X183469376Y-108794137D01*
X183634497Y-108882395D01*
X183634499Y-108882396D01*
X183813666Y-108936746D01*
X183813668Y-108936747D01*
X183830374Y-108938392D01*
X184000000Y-108955099D01*
X184186331Y-108936747D01*
X184365501Y-108882396D01*
X184530625Y-108794136D01*
X184675357Y-108675357D01*
X184779646Y-108548280D01*
X184837392Y-108508946D01*
X184907237Y-108507075D01*
X184967005Y-108543263D01*
X184997721Y-108606018D01*
X184999500Y-108626945D01*
X184999500Y-111373054D01*
X184979815Y-111440093D01*
X184927011Y-111485848D01*
X184857853Y-111495792D01*
X184794297Y-111466767D01*
X184779647Y-111451719D01*
X184675357Y-111324642D01*
X184530626Y-111205864D01*
X184530623Y-111205862D01*
X184365502Y-111117604D01*
X184186333Y-111063253D01*
X184186331Y-111063252D01*
X184000000Y-111044901D01*
X183813668Y-111063252D01*
X183813666Y-111063253D01*
X183634497Y-111117604D01*
X183469376Y-111205862D01*
X183469373Y-111205864D01*
X183324642Y-111324642D01*
X183205864Y-111469373D01*
X183205862Y-111469376D01*
X183117604Y-111634497D01*
X183063253Y-111813666D01*
X183063252Y-111813668D01*
X183044901Y-112000000D01*
X183063252Y-112186331D01*
X183063253Y-112186333D01*
X183117604Y-112365502D01*
X183205862Y-112530623D01*
X183205864Y-112530626D01*
X183324642Y-112675357D01*
X183469373Y-112794135D01*
X183469376Y-112794137D01*
X183606825Y-112867604D01*
X183634499Y-112882396D01*
X183813666Y-112936746D01*
X183813668Y-112936747D01*
X183830374Y-112938392D01*
X184000000Y-112955099D01*
X184186331Y-112936747D01*
X184365501Y-112882396D01*
X184530625Y-112794136D01*
X184675357Y-112675357D01*
X184779646Y-112548280D01*
X184837392Y-112508946D01*
X184907237Y-112507075D01*
X184967005Y-112543263D01*
X184997721Y-112606018D01*
X184999500Y-112626945D01*
X184999500Y-115373054D01*
X184979815Y-115440093D01*
X184927011Y-115485848D01*
X184857853Y-115495792D01*
X184794297Y-115466767D01*
X184779647Y-115451719D01*
X184675357Y-115324642D01*
X184530626Y-115205864D01*
X184530623Y-115205862D01*
X184365502Y-115117604D01*
X184186333Y-115063253D01*
X184186331Y-115063252D01*
X184000000Y-115044901D01*
X183813668Y-115063252D01*
X183813666Y-115063253D01*
X183634497Y-115117604D01*
X183469376Y-115205862D01*
X183469373Y-115205864D01*
X183324642Y-115324642D01*
X183205864Y-115469373D01*
X183205862Y-115469376D01*
X183117604Y-115634497D01*
X183063253Y-115813666D01*
X183063252Y-115813668D01*
X183044901Y-116000000D01*
X183063252Y-116186331D01*
X183063253Y-116186333D01*
X183117604Y-116365502D01*
X183205862Y-116530623D01*
X183205864Y-116530626D01*
X183324642Y-116675357D01*
X183469373Y-116794135D01*
X183469376Y-116794137D01*
X183634497Y-116882395D01*
X183634499Y-116882396D01*
X183813666Y-116936746D01*
X183813668Y-116936747D01*
X183830374Y-116938392D01*
X184000000Y-116955099D01*
X184186331Y-116936747D01*
X184365501Y-116882396D01*
X184530625Y-116794136D01*
X184675357Y-116675357D01*
X184750735Y-116583509D01*
X184779647Y-116548280D01*
X184837392Y-116508946D01*
X184907237Y-116507075D01*
X184967005Y-116543263D01*
X184997721Y-116606018D01*
X184999500Y-116626945D01*
X184999500Y-120000000D01*
X184990513Y-120217271D01*
X184981839Y-120415918D01*
X184981422Y-120420884D01*
X184954524Y-120636680D01*
X184928115Y-120837265D01*
X184927326Y-120841897D01*
X184882818Y-121054173D01*
X184838843Y-121252526D01*
X184837735Y-121256798D01*
X184775899Y-121464503D01*
X184714681Y-121658658D01*
X184713309Y-121662552D01*
X184634536Y-121864433D01*
X184556524Y-122052769D01*
X184554944Y-122056274D01*
X184459750Y-122250992D01*
X184365525Y-122431998D01*
X184363791Y-122435107D01*
X184252797Y-122621382D01*
X184143040Y-122793663D01*
X184141209Y-122796377D01*
X184015162Y-122972918D01*
X183890716Y-123135099D01*
X183888839Y-123137426D01*
X183748557Y-123303059D01*
X183609426Y-123454895D01*
X183454895Y-123609426D01*
X183303059Y-123748557D01*
X183137426Y-123888839D01*
X183135099Y-123890716D01*
X182972918Y-124015162D01*
X182796377Y-124141209D01*
X182793663Y-124143040D01*
X182621382Y-124252797D01*
X182435107Y-124363791D01*
X182431998Y-124365525D01*
X182250992Y-124459750D01*
X182056274Y-124554944D01*
X182052769Y-124556524D01*
X181864433Y-124634536D01*
X181662552Y-124713309D01*
X181658658Y-124714681D01*
X181464503Y-124775899D01*
X181256798Y-124837735D01*
X181252526Y-124838843D01*
X181054173Y-124882818D01*
X180841897Y-124927326D01*
X180837265Y-124928115D01*
X180636680Y-124954524D01*
X180420884Y-124981422D01*
X180415918Y-124981839D01*
X180217271Y-124990513D01*
X180000000Y-124999500D01*
X176626945Y-124999500D01*
X176559906Y-124979815D01*
X176514151Y-124927011D01*
X176504207Y-124857853D01*
X176533232Y-124794297D01*
X176548280Y-124779647D01*
X176675357Y-124675357D01*
X176708858Y-124634536D01*
X176794136Y-124530625D01*
X176882396Y-124365501D01*
X176936747Y-124186331D01*
X176955099Y-124000000D01*
X176936747Y-123813669D01*
X176882396Y-123634499D01*
X176868988Y-123609414D01*
X176794137Y-123469376D01*
X176794135Y-123469373D01*
X176675357Y-123324642D01*
X176530626Y-123205864D01*
X176530623Y-123205862D01*
X176365502Y-123117604D01*
X176186333Y-123063253D01*
X176186331Y-123063252D01*
X176000000Y-123044901D01*
X175813668Y-123063252D01*
X175813666Y-123063253D01*
X175634497Y-123117604D01*
X175469376Y-123205862D01*
X175469373Y-123205864D01*
X175324642Y-123324642D01*
X175205864Y-123469373D01*
X175205862Y-123469376D01*
X175117604Y-123634497D01*
X175063253Y-123813666D01*
X175063252Y-123813668D01*
X175044901Y-124000000D01*
X175063252Y-124186331D01*
X175063253Y-124186333D01*
X175117604Y-124365502D01*
X175205862Y-124530623D01*
X175205864Y-124530626D01*
X175324642Y-124675357D01*
X175451720Y-124779647D01*
X175491054Y-124837392D01*
X175492925Y-124907237D01*
X175456737Y-124967005D01*
X175393982Y-124997721D01*
X175373055Y-124999500D01*
X172626945Y-124999500D01*
X172559906Y-124979815D01*
X172514151Y-124927011D01*
X172504207Y-124857853D01*
X172533232Y-124794297D01*
X172548280Y-124779647D01*
X172675357Y-124675357D01*
X172708858Y-124634536D01*
X172794136Y-124530625D01*
X172882396Y-124365501D01*
X172936747Y-124186331D01*
X172955099Y-124000000D01*
X172936747Y-123813669D01*
X172882396Y-123634499D01*
X172868988Y-123609414D01*
X172794137Y-123469376D01*
X172794135Y-123469373D01*
X172675357Y-123324642D01*
X172530626Y-123205864D01*
X172530623Y-123205862D01*
X172365502Y-123117604D01*
X172186333Y-123063253D01*
X172186331Y-123063252D01*
X172000000Y-123044901D01*
X171813668Y-123063252D01*
X171813666Y-123063253D01*
X171634497Y-123117604D01*
X171469376Y-123205862D01*
X171469373Y-123205864D01*
X171324642Y-123324642D01*
X171205864Y-123469373D01*
X171205862Y-123469376D01*
X171117604Y-123634497D01*
X171063253Y-123813666D01*
X171063252Y-123813668D01*
X171044901Y-124000000D01*
X171063252Y-124186331D01*
X171063253Y-124186333D01*
X171117604Y-124365502D01*
X171205862Y-124530623D01*
X171205864Y-124530626D01*
X171324642Y-124675357D01*
X171451720Y-124779647D01*
X171491054Y-124837392D01*
X171492925Y-124907237D01*
X171456737Y-124967005D01*
X171393982Y-124997721D01*
X171373055Y-124999500D01*
X168626945Y-124999500D01*
X168559906Y-124979815D01*
X168514151Y-124927011D01*
X168504207Y-124857853D01*
X168533232Y-124794297D01*
X168548280Y-124779647D01*
X168675357Y-124675357D01*
X168708858Y-124634536D01*
X168794136Y-124530625D01*
X168882396Y-124365501D01*
X168936747Y-124186331D01*
X168955099Y-124000000D01*
X168936747Y-123813669D01*
X168882396Y-123634499D01*
X168868988Y-123609414D01*
X168794137Y-123469376D01*
X168794135Y-123469373D01*
X168675357Y-123324642D01*
X168530626Y-123205864D01*
X168530623Y-123205862D01*
X168365502Y-123117604D01*
X168186333Y-123063253D01*
X168186331Y-123063252D01*
X168000000Y-123044901D01*
X167813668Y-123063252D01*
X167813666Y-123063253D01*
X167634497Y-123117604D01*
X167469376Y-123205862D01*
X167469373Y-123205864D01*
X167324642Y-123324642D01*
X167205864Y-123469373D01*
X167205862Y-123469376D01*
X167117604Y-123634497D01*
X167063253Y-123813666D01*
X167063252Y-123813668D01*
X167044901Y-124000000D01*
X167063252Y-124186331D01*
X167063253Y-124186333D01*
X167117604Y-124365502D01*
X167205862Y-124530623D01*
X167205864Y-124530626D01*
X167324642Y-124675357D01*
X167451720Y-124779647D01*
X167491054Y-124837392D01*
X167492925Y-124907237D01*
X167456737Y-124967005D01*
X167393982Y-124997721D01*
X167373055Y-124999500D01*
X164626945Y-124999500D01*
X164559906Y-124979815D01*
X164514151Y-124927011D01*
X164504207Y-124857853D01*
X164533232Y-124794297D01*
X164548280Y-124779647D01*
X164675357Y-124675357D01*
X164708858Y-124634536D01*
X164794136Y-124530625D01*
X164882396Y-124365501D01*
X164936747Y-124186331D01*
X164955099Y-124000000D01*
X164936747Y-123813669D01*
X164882396Y-123634499D01*
X164868988Y-123609414D01*
X164794137Y-123469376D01*
X164794135Y-123469373D01*
X164675357Y-123324642D01*
X164530626Y-123205864D01*
X164530623Y-123205862D01*
X164365502Y-123117604D01*
X164186333Y-123063253D01*
X164186331Y-123063252D01*
X164000000Y-123044901D01*
X163813668Y-123063252D01*
X163813666Y-123063253D01*
X163634497Y-123117604D01*
X163469376Y-123205862D01*
X163469373Y-123205864D01*
X163324642Y-123324642D01*
X163205864Y-123469373D01*
X163205862Y-123469376D01*
X163117604Y-123634497D01*
X163063253Y-123813666D01*
X163063252Y-123813668D01*
X163044901Y-124000000D01*
X163063252Y-124186331D01*
X163063253Y-124186333D01*
X163117604Y-124365502D01*
X163205862Y-124530623D01*
X163205864Y-124530626D01*
X163324642Y-124675357D01*
X163451720Y-124779647D01*
X163491054Y-124837392D01*
X163492925Y-124907237D01*
X163456737Y-124967005D01*
X163393982Y-124997721D01*
X163373055Y-124999500D01*
X160626945Y-124999500D01*
X160559906Y-124979815D01*
X160514151Y-124927011D01*
X160504207Y-124857853D01*
X160533232Y-124794297D01*
X160548280Y-124779647D01*
X160675357Y-124675357D01*
X160708858Y-124634536D01*
X160794136Y-124530625D01*
X160882396Y-124365501D01*
X160936747Y-124186331D01*
X160955099Y-124000000D01*
X160936747Y-123813669D01*
X160882396Y-123634499D01*
X160868988Y-123609414D01*
X160794137Y-123469376D01*
X160794135Y-123469373D01*
X160675357Y-123324642D01*
X160530626Y-123205864D01*
X160530623Y-123205862D01*
X160365502Y-123117604D01*
X160186333Y-123063253D01*
X160186331Y-123063252D01*
X160000000Y-123044901D01*
X159813668Y-123063252D01*
X159813666Y-123063253D01*
X159634497Y-123117604D01*
X159469376Y-123205862D01*
X159469373Y-123205864D01*
X159324642Y-123324642D01*
X159205864Y-123469373D01*
X159205862Y-123469376D01*
X159117604Y-123634497D01*
X159063253Y-123813666D01*
X159063252Y-123813668D01*
X159044901Y-124000000D01*
X159063252Y-124186331D01*
X159063253Y-124186333D01*
X159117604Y-124365502D01*
X159205862Y-124530623D01*
X159205864Y-124530626D01*
X159324642Y-124675357D01*
X159451720Y-124779647D01*
X159491054Y-124837392D01*
X159492925Y-124907237D01*
X159456737Y-124967005D01*
X159393982Y-124997721D01*
X159373055Y-124999500D01*
X156626945Y-124999500D01*
X156559906Y-124979815D01*
X156514151Y-124927011D01*
X156504207Y-124857853D01*
X156533232Y-124794297D01*
X156548280Y-124779647D01*
X156675357Y-124675357D01*
X156708858Y-124634536D01*
X156794136Y-124530625D01*
X156882396Y-124365501D01*
X156936747Y-124186331D01*
X156955099Y-124000000D01*
X156936747Y-123813669D01*
X156882396Y-123634499D01*
X156868988Y-123609414D01*
X156794137Y-123469376D01*
X156794135Y-123469373D01*
X156675357Y-123324642D01*
X156530626Y-123205864D01*
X156530623Y-123205862D01*
X156365502Y-123117604D01*
X156186333Y-123063253D01*
X156186331Y-123063252D01*
X156000000Y-123044901D01*
X155813668Y-123063252D01*
X155813666Y-123063253D01*
X155634497Y-123117604D01*
X155469376Y-123205862D01*
X155469373Y-123205864D01*
X155324642Y-123324642D01*
X155205864Y-123469373D01*
X155205862Y-123469376D01*
X155117604Y-123634497D01*
X155063253Y-123813666D01*
X155063252Y-123813668D01*
X155044901Y-124000000D01*
X155063252Y-124186331D01*
X155063253Y-124186333D01*
X155117604Y-124365502D01*
X155205862Y-124530623D01*
X155205864Y-124530626D01*
X155324642Y-124675357D01*
X155451720Y-124779647D01*
X155491054Y-124837392D01*
X155492925Y-124907237D01*
X155456737Y-124967005D01*
X155393982Y-124997721D01*
X155373055Y-124999500D01*
X152626945Y-124999500D01*
X152559906Y-124979815D01*
X152514151Y-124927011D01*
X152504207Y-124857853D01*
X152533232Y-124794297D01*
X152548280Y-124779647D01*
X152675357Y-124675357D01*
X152708858Y-124634536D01*
X152794136Y-124530625D01*
X152882396Y-124365501D01*
X152936747Y-124186331D01*
X152955099Y-124000000D01*
X152936747Y-123813669D01*
X152882396Y-123634499D01*
X152868988Y-123609414D01*
X152794137Y-123469376D01*
X152794135Y-123469373D01*
X152675357Y-123324642D01*
X152530626Y-123205864D01*
X152530623Y-123205862D01*
X152365502Y-123117604D01*
X152186333Y-123063253D01*
X152186331Y-123063252D01*
X152000000Y-123044901D01*
X151813668Y-123063252D01*
X151813666Y-123063253D01*
X151634497Y-123117604D01*
X151469376Y-123205862D01*
X151469373Y-123205864D01*
X151324642Y-123324642D01*
X151205864Y-123469373D01*
X151205862Y-123469376D01*
X151117604Y-123634497D01*
X151063253Y-123813666D01*
X151063252Y-123813668D01*
X151044901Y-124000000D01*
X151063252Y-124186331D01*
X151063253Y-124186333D01*
X151117604Y-124365502D01*
X151205862Y-124530623D01*
X151205864Y-124530626D01*
X151324642Y-124675357D01*
X151451720Y-124779647D01*
X151491054Y-124837392D01*
X151492925Y-124907237D01*
X151456737Y-124967005D01*
X151393982Y-124997721D01*
X151373055Y-124999500D01*
X148626945Y-124999500D01*
X148559906Y-124979815D01*
X148514151Y-124927011D01*
X148504207Y-124857853D01*
X148533232Y-124794297D01*
X148548280Y-124779647D01*
X148675357Y-124675357D01*
X148708858Y-124634536D01*
X148794136Y-124530625D01*
X148882396Y-124365501D01*
X148936747Y-124186331D01*
X148955099Y-124000000D01*
X148936747Y-123813669D01*
X148882396Y-123634499D01*
X148868988Y-123609414D01*
X148794137Y-123469376D01*
X148794135Y-123469373D01*
X148675357Y-123324642D01*
X148530626Y-123205864D01*
X148530623Y-123205862D01*
X148365502Y-123117604D01*
X148186333Y-123063253D01*
X148186331Y-123063252D01*
X148000000Y-123044901D01*
X147813668Y-123063252D01*
X147813666Y-123063253D01*
X147634497Y-123117604D01*
X147469376Y-123205862D01*
X147469373Y-123205864D01*
X147324642Y-123324642D01*
X147205864Y-123469373D01*
X147205862Y-123469376D01*
X147117604Y-123634497D01*
X147063253Y-123813666D01*
X147063252Y-123813668D01*
X147044901Y-124000000D01*
X147063252Y-124186331D01*
X147063253Y-124186333D01*
X147117604Y-124365502D01*
X147205862Y-124530623D01*
X147205864Y-124530626D01*
X147324642Y-124675357D01*
X147451720Y-124779647D01*
X147491054Y-124837392D01*
X147492925Y-124907237D01*
X147456737Y-124967005D01*
X147393982Y-124997721D01*
X147373055Y-124999500D01*
X144626945Y-124999500D01*
X144559906Y-124979815D01*
X144514151Y-124927011D01*
X144504207Y-124857853D01*
X144533232Y-124794297D01*
X144548280Y-124779647D01*
X144675357Y-124675357D01*
X144708858Y-124634536D01*
X144794136Y-124530625D01*
X144882396Y-124365501D01*
X144936747Y-124186331D01*
X144955099Y-124000000D01*
X144936747Y-123813669D01*
X144882396Y-123634499D01*
X144868988Y-123609414D01*
X144794137Y-123469376D01*
X144794135Y-123469373D01*
X144675357Y-123324642D01*
X144530626Y-123205864D01*
X144530623Y-123205862D01*
X144365502Y-123117604D01*
X144186333Y-123063253D01*
X144186331Y-123063252D01*
X144000000Y-123044901D01*
X143813668Y-123063252D01*
X143813666Y-123063253D01*
X143634497Y-123117604D01*
X143469376Y-123205862D01*
X143469373Y-123205864D01*
X143324642Y-123324642D01*
X143205864Y-123469373D01*
X143205862Y-123469376D01*
X143117604Y-123634497D01*
X143063253Y-123813666D01*
X143063252Y-123813668D01*
X143044901Y-124000000D01*
X143063252Y-124186331D01*
X143063253Y-124186333D01*
X143117604Y-124365502D01*
X143205862Y-124530623D01*
X143205864Y-124530626D01*
X143324642Y-124675357D01*
X143451720Y-124779647D01*
X143491054Y-124837392D01*
X143492925Y-124907237D01*
X143456737Y-124967005D01*
X143393982Y-124997721D01*
X143373055Y-124999500D01*
X140626945Y-124999500D01*
X140559906Y-124979815D01*
X140514151Y-124927011D01*
X140504207Y-124857853D01*
X140533232Y-124794297D01*
X140548280Y-124779647D01*
X140675357Y-124675357D01*
X140708858Y-124634536D01*
X140794136Y-124530625D01*
X140882396Y-124365501D01*
X140936747Y-124186331D01*
X140955099Y-124000000D01*
X140936747Y-123813669D01*
X140882396Y-123634499D01*
X140868988Y-123609414D01*
X140794137Y-123469376D01*
X140794135Y-123469373D01*
X140675357Y-123324642D01*
X140530626Y-123205864D01*
X140530623Y-123205862D01*
X140365502Y-123117604D01*
X140186333Y-123063253D01*
X140186331Y-123063252D01*
X140000000Y-123044901D01*
X139813668Y-123063252D01*
X139813666Y-123063253D01*
X139634497Y-123117604D01*
X139469376Y-123205862D01*
X139469373Y-123205864D01*
X139324642Y-123324642D01*
X139205864Y-123469373D01*
X139205862Y-123469376D01*
X139117604Y-123634497D01*
X139063253Y-123813666D01*
X139063252Y-123813668D01*
X139044901Y-124000000D01*
X139063252Y-124186331D01*
X139063253Y-124186333D01*
X139117604Y-124365502D01*
X139205862Y-124530623D01*
X139205864Y-124530626D01*
X139324642Y-124675357D01*
X139451720Y-124779647D01*
X139491054Y-124837392D01*
X139492925Y-124907237D01*
X139456737Y-124967005D01*
X139393982Y-124997721D01*
X139373055Y-124999500D01*
X136626945Y-124999500D01*
X136559906Y-124979815D01*
X136514151Y-124927011D01*
X136504207Y-124857853D01*
X136533232Y-124794297D01*
X136548280Y-124779647D01*
X136675357Y-124675357D01*
X136708858Y-124634536D01*
X136794136Y-124530625D01*
X136882396Y-124365501D01*
X136936747Y-124186331D01*
X136955099Y-124000000D01*
X136936747Y-123813669D01*
X136882396Y-123634499D01*
X136868988Y-123609414D01*
X136794137Y-123469376D01*
X136794135Y-123469373D01*
X136675357Y-123324642D01*
X136530626Y-123205864D01*
X136530623Y-123205862D01*
X136365502Y-123117604D01*
X136186333Y-123063253D01*
X136186331Y-123063252D01*
X136000000Y-123044901D01*
X135813668Y-123063252D01*
X135813666Y-123063253D01*
X135634497Y-123117604D01*
X135469376Y-123205862D01*
X135469373Y-123205864D01*
X135324642Y-123324642D01*
X135205864Y-123469373D01*
X135205862Y-123469376D01*
X135117604Y-123634497D01*
X135063253Y-123813666D01*
X135063252Y-123813668D01*
X135044901Y-124000000D01*
X135063252Y-124186331D01*
X135063253Y-124186333D01*
X135117604Y-124365502D01*
X135205862Y-124530623D01*
X135205864Y-124530626D01*
X135324642Y-124675357D01*
X135451720Y-124779647D01*
X135491054Y-124837392D01*
X135492925Y-124907237D01*
X135456737Y-124967005D01*
X135393982Y-124997721D01*
X135373055Y-124999500D01*
X132626945Y-124999500D01*
X132559906Y-124979815D01*
X132514151Y-124927011D01*
X132504207Y-124857853D01*
X132533232Y-124794297D01*
X132548280Y-124779647D01*
X132675357Y-124675357D01*
X132708858Y-124634536D01*
X132794136Y-124530625D01*
X132882396Y-124365501D01*
X132936747Y-124186331D01*
X132955099Y-124000000D01*
X132936747Y-123813669D01*
X132882396Y-123634499D01*
X132868988Y-123609414D01*
X132794137Y-123469376D01*
X132794135Y-123469373D01*
X132675357Y-123324642D01*
X132530626Y-123205864D01*
X132530623Y-123205862D01*
X132365502Y-123117604D01*
X132186333Y-123063253D01*
X132186331Y-123063252D01*
X132000000Y-123044901D01*
X131813668Y-123063252D01*
X131813666Y-123063253D01*
X131634497Y-123117604D01*
X131469376Y-123205862D01*
X131469373Y-123205864D01*
X131324642Y-123324642D01*
X131205864Y-123469373D01*
X131205862Y-123469376D01*
X131117604Y-123634497D01*
X131063253Y-123813666D01*
X131063252Y-123813668D01*
X131044901Y-124000000D01*
X131063252Y-124186331D01*
X131063253Y-124186333D01*
X131117604Y-124365502D01*
X131205862Y-124530623D01*
X131205864Y-124530626D01*
X131324642Y-124675357D01*
X131451720Y-124779647D01*
X131491054Y-124837392D01*
X131492925Y-124907237D01*
X131456737Y-124967005D01*
X131393982Y-124997721D01*
X131373055Y-124999500D01*
X128626945Y-124999500D01*
X128559906Y-124979815D01*
X128514151Y-124927011D01*
X128504207Y-124857853D01*
X128533232Y-124794297D01*
X128548280Y-124779647D01*
X128675357Y-124675357D01*
X128708858Y-124634536D01*
X128794136Y-124530625D01*
X128882396Y-124365501D01*
X128936747Y-124186331D01*
X128955099Y-124000000D01*
X128936747Y-123813669D01*
X128882396Y-123634499D01*
X128868988Y-123609414D01*
X128794137Y-123469376D01*
X128794135Y-123469373D01*
X128675357Y-123324642D01*
X128530626Y-123205864D01*
X128530623Y-123205862D01*
X128365502Y-123117604D01*
X128186333Y-123063253D01*
X128186331Y-123063252D01*
X128000000Y-123044901D01*
X127813668Y-123063252D01*
X127813666Y-123063253D01*
X127634497Y-123117604D01*
X127469376Y-123205862D01*
X127469373Y-123205864D01*
X127324642Y-123324642D01*
X127205864Y-123469373D01*
X127205862Y-123469376D01*
X127117604Y-123634497D01*
X127063253Y-123813666D01*
X127063252Y-123813668D01*
X127044901Y-123999999D01*
X127063252Y-124186331D01*
X127063253Y-124186333D01*
X127117604Y-124365502D01*
X127205862Y-124530623D01*
X127205864Y-124530626D01*
X127324642Y-124675357D01*
X127451720Y-124779647D01*
X127491054Y-124837392D01*
X127492925Y-124907237D01*
X127456737Y-124967005D01*
X127393982Y-124997721D01*
X127373055Y-124999500D01*
X124626945Y-124999500D01*
X124559906Y-124979815D01*
X124514151Y-124927011D01*
X124504207Y-124857853D01*
X124533232Y-124794297D01*
X124548280Y-124779647D01*
X124675357Y-124675357D01*
X124708858Y-124634536D01*
X124794136Y-124530625D01*
X124882396Y-124365501D01*
X124936747Y-124186331D01*
X124955099Y-124000000D01*
X124936747Y-123813669D01*
X124882396Y-123634499D01*
X124868988Y-123609414D01*
X124794137Y-123469376D01*
X124794135Y-123469373D01*
X124675357Y-123324642D01*
X124530626Y-123205864D01*
X124530623Y-123205862D01*
X124365502Y-123117604D01*
X124186333Y-123063253D01*
X124186331Y-123063252D01*
X124000000Y-123044901D01*
X123813668Y-123063252D01*
X123813666Y-123063253D01*
X123634497Y-123117604D01*
X123469376Y-123205862D01*
X123469373Y-123205864D01*
X123324642Y-123324642D01*
X123205864Y-123469373D01*
X123205862Y-123469376D01*
X123117604Y-123634497D01*
X123063253Y-123813666D01*
X123063252Y-123813668D01*
X123044901Y-123999999D01*
X123063252Y-124186331D01*
X123063253Y-124186333D01*
X123117604Y-124365502D01*
X123205862Y-124530623D01*
X123205864Y-124530626D01*
X123324642Y-124675357D01*
X123451720Y-124779647D01*
X123491054Y-124837392D01*
X123492925Y-124907237D01*
X123456737Y-124967005D01*
X123393982Y-124997721D01*
X123373055Y-124999500D01*
X120626945Y-124999500D01*
X120559906Y-124979815D01*
X120514151Y-124927011D01*
X120504207Y-124857853D01*
X120533232Y-124794297D01*
X120548280Y-124779647D01*
X120675357Y-124675357D01*
X120708858Y-124634536D01*
X120794136Y-124530625D01*
X120882396Y-124365501D01*
X120936747Y-124186331D01*
X120955099Y-124000000D01*
X120936747Y-123813669D01*
X120882396Y-123634499D01*
X120868988Y-123609414D01*
X120794137Y-123469376D01*
X120794135Y-123469373D01*
X120675357Y-123324642D01*
X120530626Y-123205864D01*
X120530623Y-123205862D01*
X120365502Y-123117604D01*
X120186333Y-123063253D01*
X120186331Y-123063252D01*
X120000000Y-123044901D01*
X119813668Y-123063252D01*
X119813666Y-123063253D01*
X119634497Y-123117604D01*
X119469376Y-123205862D01*
X119469373Y-123205864D01*
X119324642Y-123324642D01*
X119205864Y-123469373D01*
X119205862Y-123469376D01*
X119117604Y-123634497D01*
X119063253Y-123813666D01*
X119063252Y-123813668D01*
X119044901Y-123999999D01*
X119063252Y-124186331D01*
X119063253Y-124186333D01*
X119117604Y-124365502D01*
X119205862Y-124530623D01*
X119205864Y-124530626D01*
X119324642Y-124675357D01*
X119451720Y-124779647D01*
X119491054Y-124837392D01*
X119492925Y-124907237D01*
X119456737Y-124967005D01*
X119393982Y-124997721D01*
X119373055Y-124999500D01*
X116626945Y-124999500D01*
X116559906Y-124979815D01*
X116514151Y-124927011D01*
X116504207Y-124857853D01*
X116533232Y-124794297D01*
X116548280Y-124779647D01*
X116675357Y-124675357D01*
X116708858Y-124634536D01*
X116794136Y-124530625D01*
X116882396Y-124365501D01*
X116936747Y-124186331D01*
X116955099Y-124000000D01*
X116936747Y-123813669D01*
X116882396Y-123634499D01*
X116868988Y-123609414D01*
X116794137Y-123469376D01*
X116794135Y-123469373D01*
X116675357Y-123324642D01*
X116530626Y-123205864D01*
X116530623Y-123205862D01*
X116365502Y-123117604D01*
X116186333Y-123063253D01*
X116186331Y-123063252D01*
X116000000Y-123044901D01*
X115813668Y-123063252D01*
X115813666Y-123063253D01*
X115634497Y-123117604D01*
X115469376Y-123205862D01*
X115469373Y-123205864D01*
X115324642Y-123324642D01*
X115205864Y-123469373D01*
X115205862Y-123469376D01*
X115117604Y-123634497D01*
X115063253Y-123813666D01*
X115063252Y-123813668D01*
X115044901Y-123999999D01*
X115063252Y-124186331D01*
X115063253Y-124186333D01*
X115117604Y-124365502D01*
X115205862Y-124530623D01*
X115205864Y-124530626D01*
X115324642Y-124675357D01*
X115451720Y-124779647D01*
X115491054Y-124837392D01*
X115492925Y-124907237D01*
X115456737Y-124967005D01*
X115393982Y-124997721D01*
X115373055Y-124999500D01*
X112626945Y-124999500D01*
X112559906Y-124979815D01*
X112514151Y-124927011D01*
X112504207Y-124857853D01*
X112533232Y-124794297D01*
X112548280Y-124779647D01*
X112675357Y-124675357D01*
X112708858Y-124634536D01*
X112794136Y-124530625D01*
X112882396Y-124365501D01*
X112936747Y-124186331D01*
X112955099Y-124000000D01*
X112936747Y-123813669D01*
X112882396Y-123634499D01*
X112868988Y-123609414D01*
X112794137Y-123469376D01*
X112794135Y-123469373D01*
X112675357Y-123324642D01*
X112530626Y-123205864D01*
X112530623Y-123205862D01*
X112365502Y-123117604D01*
X112186333Y-123063253D01*
X112186331Y-123063252D01*
X112000000Y-123044901D01*
X111813668Y-123063252D01*
X111813666Y-123063253D01*
X111634497Y-123117604D01*
X111469376Y-123205862D01*
X111469373Y-123205864D01*
X111324642Y-123324642D01*
X111205864Y-123469373D01*
X111205862Y-123469376D01*
X111117604Y-123634497D01*
X111063253Y-123813666D01*
X111063252Y-123813668D01*
X111044901Y-123999999D01*
X111063252Y-124186331D01*
X111063253Y-124186333D01*
X111117604Y-124365502D01*
X111205862Y-124530623D01*
X111205864Y-124530626D01*
X111324642Y-124675357D01*
X111451720Y-124779647D01*
X111491054Y-124837392D01*
X111492925Y-124907237D01*
X111456737Y-124967005D01*
X111393982Y-124997721D01*
X111373055Y-124999500D01*
X108626945Y-124999500D01*
X108559906Y-124979815D01*
X108514151Y-124927011D01*
X108504207Y-124857853D01*
X108533232Y-124794297D01*
X108548280Y-124779647D01*
X108675357Y-124675357D01*
X108708858Y-124634536D01*
X108794136Y-124530625D01*
X108882396Y-124365501D01*
X108936747Y-124186331D01*
X108955099Y-124000000D01*
X108936747Y-123813669D01*
X108882396Y-123634499D01*
X108868988Y-123609414D01*
X108794137Y-123469376D01*
X108794135Y-123469373D01*
X108675357Y-123324642D01*
X108530626Y-123205864D01*
X108530623Y-123205862D01*
X108365502Y-123117604D01*
X108186333Y-123063253D01*
X108186331Y-123063252D01*
X108000000Y-123044901D01*
X107813668Y-123063252D01*
X107813666Y-123063253D01*
X107634497Y-123117604D01*
X107488058Y-123195877D01*
X107439903Y-123205903D01*
X107426951Y-123237274D01*
X107408975Y-123255432D01*
X107324642Y-123324642D01*
X107205864Y-123469373D01*
X107205862Y-123469376D01*
X107117604Y-123634497D01*
X107063253Y-123813666D01*
X107063252Y-123813668D01*
X107044901Y-123999999D01*
X107063252Y-124186331D01*
X107063253Y-124186333D01*
X107117604Y-124365502D01*
X107205862Y-124530623D01*
X107205864Y-124530626D01*
X107324642Y-124675357D01*
X107451720Y-124779647D01*
X107491054Y-124837392D01*
X107492925Y-124907237D01*
X107456737Y-124967005D01*
X107393982Y-124997721D01*
X107373055Y-124999500D01*
X105000000Y-124999500D01*
X104782728Y-124990513D01*
X104584080Y-124981839D01*
X104579114Y-124981422D01*
X104363319Y-124954524D01*
X104162733Y-124928115D01*
X104158101Y-124927326D01*
X103945826Y-124882818D01*
X103747472Y-124838843D01*
X103743200Y-124837735D01*
X103535496Y-124775899D01*
X103341340Y-124714681D01*
X103337445Y-124713309D01*
X103135566Y-124634536D01*
X102947229Y-124556524D01*
X102943744Y-124554953D01*
X102884503Y-124525992D01*
X102749007Y-124459750D01*
X102568000Y-124365525D01*
X102564891Y-124363791D01*
X102378617Y-124252797D01*
X102206335Y-124143040D01*
X102203621Y-124141209D01*
X102027081Y-124015162D01*
X101864900Y-123890716D01*
X101862572Y-123888839D01*
X101696940Y-123748557D01*
X101545103Y-123609424D01*
X101390574Y-123454895D01*
X101251439Y-123303055D01*
X101111159Y-123137426D01*
X101109282Y-123135098D01*
X100984837Y-122972918D01*
X100858789Y-122796377D01*
X100856957Y-122793662D01*
X100747202Y-122621382D01*
X100636207Y-122435107D01*
X100634473Y-122431998D01*
X100540249Y-122250992D01*
X100481755Y-122131343D01*
X100445045Y-122056252D01*
X100443494Y-122052817D01*
X100365463Y-121864433D01*
X100286680Y-121662530D01*
X100285317Y-121658658D01*
X100224100Y-121464503D01*
X100162257Y-121256778D01*
X100161155Y-121252526D01*
X100117181Y-121054173D01*
X100111495Y-121027057D01*
X100072671Y-120841894D01*
X100071883Y-120837265D01*
X100071313Y-120832940D01*
X100045489Y-120636792D01*
X100018574Y-120420865D01*
X100018160Y-120415934D01*
X100009486Y-120217271D01*
X100000500Y-120000000D01*
X101194616Y-120000000D01*
X101214139Y-120384983D01*
X101252698Y-120636680D01*
X101272512Y-120766018D01*
X101292159Y-120841897D01*
X101369136Y-121139199D01*
X101369136Y-121139200D01*
X101503009Y-121500666D01*
X101503015Y-121500679D01*
X101672774Y-121846759D01*
X101759716Y-121986244D01*
X101876680Y-122173895D01*
X101876682Y-122173898D01*
X101876683Y-122173899D01*
X102035829Y-122379499D01*
X102112634Y-122478722D01*
X102191671Y-122561869D01*
X102378216Y-122758115D01*
X102670699Y-123009203D01*
X102670702Y-123009205D01*
X102987089Y-123229417D01*
X103324131Y-123416491D01*
X103324135Y-123416493D01*
X103465826Y-123477297D01*
X103678370Y-123568507D01*
X103678380Y-123568510D01*
X103678385Y-123568512D01*
X104046160Y-123683902D01*
X104046163Y-123683902D01*
X104046171Y-123683905D01*
X104423759Y-123761502D01*
X104730559Y-123792700D01*
X104807259Y-123800500D01*
X104807260Y-123800500D01*
X105192741Y-123800500D01*
X105256656Y-123794000D01*
X105576241Y-123761502D01*
X105953829Y-123683905D01*
X105971847Y-123678252D01*
X106321614Y-123568512D01*
X106321613Y-123568512D01*
X106321630Y-123568507D01*
X106675869Y-123416491D01*
X107012911Y-123229417D01*
X107259474Y-123057803D01*
X107320821Y-123037306D01*
X107342710Y-122998058D01*
X107348835Y-122992433D01*
X107447003Y-122908159D01*
X107621784Y-122758115D01*
X107887366Y-122478722D01*
X108123320Y-122173895D01*
X108327225Y-121846760D01*
X108496987Y-121500675D01*
X108630866Y-121139192D01*
X108727488Y-120766018D01*
X108785860Y-120384984D01*
X108805384Y-120000000D01*
X176194616Y-120000000D01*
X176214139Y-120384983D01*
X176252698Y-120636680D01*
X176272512Y-120766018D01*
X176292159Y-120841897D01*
X176369136Y-121139199D01*
X176369136Y-121139200D01*
X176503009Y-121500666D01*
X176503015Y-121500679D01*
X176672774Y-121846759D01*
X176759716Y-121986244D01*
X176876680Y-122173895D01*
X176876682Y-122173898D01*
X176876683Y-122173899D01*
X177035829Y-122379499D01*
X177112634Y-122478722D01*
X177191671Y-122561869D01*
X177378216Y-122758115D01*
X177670699Y-123009203D01*
X177670702Y-123009205D01*
X177987089Y-123229417D01*
X178324131Y-123416491D01*
X178324135Y-123416493D01*
X178465826Y-123477297D01*
X178678370Y-123568507D01*
X178678380Y-123568510D01*
X178678385Y-123568512D01*
X179046160Y-123683902D01*
X179046163Y-123683902D01*
X179046171Y-123683905D01*
X179423759Y-123761502D01*
X179730559Y-123792700D01*
X179807259Y-123800500D01*
X179807260Y-123800500D01*
X180192741Y-123800500D01*
X180256656Y-123794000D01*
X180576241Y-123761502D01*
X180953829Y-123683905D01*
X180971847Y-123678252D01*
X181321614Y-123568512D01*
X181321613Y-123568512D01*
X181321630Y-123568507D01*
X181675869Y-123416491D01*
X182012911Y-123229417D01*
X182329298Y-123009205D01*
X182621784Y-122758115D01*
X182887366Y-122478722D01*
X183123320Y-122173895D01*
X183327225Y-121846760D01*
X183496987Y-121500675D01*
X183630866Y-121139192D01*
X183727488Y-120766018D01*
X183785860Y-120384984D01*
X183805384Y-120000000D01*
X183785860Y-119615016D01*
X183727488Y-119233982D01*
X183630866Y-118860808D01*
X183496987Y-118499325D01*
X183327225Y-118153240D01*
X183123320Y-117826105D01*
X182887366Y-117521278D01*
X182621784Y-117241885D01*
X182621783Y-117241884D01*
X182329300Y-116990796D01*
X182012912Y-116770584D01*
X182012911Y-116770583D01*
X181788981Y-116646291D01*
X181675864Y-116583506D01*
X181321635Y-116431495D01*
X181321614Y-116431487D01*
X180953839Y-116316097D01*
X180953833Y-116316096D01*
X180953830Y-116316095D01*
X180953829Y-116316095D01*
X180576241Y-116238498D01*
X180576240Y-116238497D01*
X180576236Y-116238497D01*
X180192741Y-116199500D01*
X180192740Y-116199500D01*
X179807260Y-116199500D01*
X179807259Y-116199500D01*
X179423763Y-116238497D01*
X179046166Y-116316096D01*
X179046160Y-116316097D01*
X178678385Y-116431487D01*
X178678364Y-116431495D01*
X178324135Y-116583506D01*
X177987087Y-116770584D01*
X177670699Y-116990796D01*
X177378216Y-117241884D01*
X177112629Y-117521283D01*
X176876683Y-117826100D01*
X176672774Y-118153240D01*
X176503015Y-118499320D01*
X176503009Y-118499333D01*
X176369136Y-118860799D01*
X176369136Y-118860800D01*
X176272511Y-119233986D01*
X176214139Y-119615016D01*
X176194616Y-120000000D01*
X108805384Y-120000000D01*
X108785860Y-119615016D01*
X108727488Y-119233982D01*
X108630866Y-118860808D01*
X108496987Y-118499325D01*
X108327225Y-118153240D01*
X108123320Y-117826105D01*
X107887366Y-117521278D01*
X107621784Y-117241885D01*
X107621783Y-117241884D01*
X107329300Y-116990796D01*
X107012912Y-116770584D01*
X107012911Y-116770583D01*
X106788981Y-116646291D01*
X106675864Y-116583506D01*
X106321635Y-116431495D01*
X106321614Y-116431487D01*
X105953839Y-116316097D01*
X105953833Y-116316096D01*
X105953830Y-116316095D01*
X105953829Y-116316095D01*
X105576241Y-116238498D01*
X105576240Y-116238497D01*
X105576236Y-116238497D01*
X105192741Y-116199500D01*
X105192740Y-116199500D01*
X104807260Y-116199500D01*
X104807259Y-116199500D01*
X104423763Y-116238497D01*
X104046166Y-116316096D01*
X104046160Y-116316097D01*
X103678385Y-116431487D01*
X103678364Y-116431495D01*
X103324135Y-116583506D01*
X102987087Y-116770584D01*
X102670699Y-116990796D01*
X102378216Y-117241884D01*
X102112629Y-117521283D01*
X101876683Y-117826100D01*
X101672774Y-118153240D01*
X101503015Y-118499320D01*
X101503009Y-118499333D01*
X101369136Y-118860799D01*
X101369136Y-118860800D01*
X101272511Y-119233986D01*
X101214139Y-119615016D01*
X101194616Y-120000000D01*
X100000500Y-120000000D01*
X100000500Y-119999500D01*
X100000500Y-116626944D01*
X100020185Y-116559906D01*
X100072989Y-116514151D01*
X100142147Y-116504207D01*
X100205703Y-116533232D01*
X100220353Y-116548280D01*
X100324642Y-116675357D01*
X100469373Y-116794135D01*
X100469376Y-116794137D01*
X100634497Y-116882395D01*
X100634499Y-116882396D01*
X100813666Y-116936746D01*
X100813668Y-116936747D01*
X100830374Y-116938392D01*
X101000000Y-116955099D01*
X101186331Y-116936747D01*
X101365501Y-116882396D01*
X101530625Y-116794136D01*
X101675357Y-116675357D01*
X101794136Y-116530625D01*
X101882396Y-116365501D01*
X101936747Y-116186331D01*
X101955099Y-116000000D01*
X101936747Y-115813669D01*
X101882396Y-115634499D01*
X101808256Y-115495792D01*
X101794137Y-115469376D01*
X101794135Y-115469373D01*
X101675357Y-115324642D01*
X101530626Y-115205864D01*
X101530623Y-115205862D01*
X101365502Y-115117604D01*
X101186333Y-115063253D01*
X101186331Y-115063252D01*
X101000000Y-115044901D01*
X100813668Y-115063252D01*
X100813666Y-115063253D01*
X100634497Y-115117604D01*
X100469376Y-115205862D01*
X100469373Y-115205864D01*
X100324642Y-115324642D01*
X100220353Y-115451719D01*
X100162607Y-115491053D01*
X100092762Y-115492924D01*
X100032994Y-115456736D01*
X100002278Y-115393980D01*
X100000500Y-115373054D01*
X100000500Y-114000000D01*
X112494659Y-114000000D01*
X112513975Y-114196129D01*
X112571188Y-114384733D01*
X112664086Y-114558532D01*
X112664090Y-114558539D01*
X112789116Y-114710883D01*
X112941460Y-114835909D01*
X112941467Y-114835913D01*
X113115266Y-114928811D01*
X113115269Y-114928811D01*
X113115273Y-114928814D01*
X113303868Y-114986024D01*
X113500000Y-115005341D01*
X113554188Y-115000004D01*
X123194451Y-115000004D01*
X123214616Y-115269101D01*
X123266357Y-115495792D01*
X123274666Y-115532195D01*
X123373257Y-115783398D01*
X123508185Y-116017102D01*
X123643141Y-116186331D01*
X123676442Y-116228089D01*
X123771291Y-116316095D01*
X123874259Y-116411635D01*
X124097226Y-116563651D01*
X124340359Y-116680738D01*
X124598228Y-116760280D01*
X124598229Y-116760280D01*
X124598232Y-116760281D01*
X124865063Y-116800499D01*
X124865068Y-116800499D01*
X124865071Y-116800500D01*
X124865072Y-116800500D01*
X125134928Y-116800500D01*
X125134929Y-116800500D01*
X125177145Y-116794137D01*
X125401767Y-116760281D01*
X125401768Y-116760280D01*
X125401772Y-116760280D01*
X125659641Y-116680738D01*
X125902775Y-116563651D01*
X126125741Y-116411635D01*
X126279259Y-116269190D01*
X126323557Y-116228089D01*
X126323557Y-116228087D01*
X126323561Y-116228085D01*
X126491815Y-116017102D01*
X126626743Y-115783398D01*
X126725334Y-115532195D01*
X126785383Y-115269103D01*
X126805549Y-115000004D01*
X142194451Y-115000004D01*
X142214616Y-115269101D01*
X142266357Y-115495792D01*
X142274666Y-115532195D01*
X142373257Y-115783398D01*
X142508185Y-116017102D01*
X142643141Y-116186331D01*
X142676442Y-116228089D01*
X142771291Y-116316095D01*
X142874259Y-116411635D01*
X143097226Y-116563651D01*
X143340359Y-116680738D01*
X143598228Y-116760280D01*
X143598229Y-116760280D01*
X143598232Y-116760281D01*
X143865063Y-116800499D01*
X143865068Y-116800499D01*
X143865071Y-116800500D01*
X143865072Y-116800500D01*
X144134928Y-116800500D01*
X144134929Y-116800500D01*
X144177145Y-116794137D01*
X144401767Y-116760281D01*
X144401768Y-116760280D01*
X144401772Y-116760280D01*
X144659641Y-116680738D01*
X144902775Y-116563651D01*
X145125741Y-116411635D01*
X145279259Y-116269190D01*
X145323557Y-116228089D01*
X145323557Y-116228087D01*
X145323561Y-116228085D01*
X145491815Y-116017102D01*
X145626743Y-115783398D01*
X145725334Y-115532195D01*
X145785383Y-115269103D01*
X145805549Y-115000000D01*
X145800214Y-114928814D01*
X145785383Y-114730898D01*
X145779495Y-114705099D01*
X145725334Y-114467805D01*
X145626743Y-114216602D01*
X145491815Y-113982898D01*
X145323561Y-113771915D01*
X145323560Y-113771914D01*
X145323557Y-113771910D01*
X145299943Y-113750000D01*
X171044901Y-113750000D01*
X171063252Y-113936331D01*
X171063253Y-113936333D01*
X171117604Y-114115502D01*
X171205862Y-114280623D01*
X171205864Y-114280626D01*
X171324642Y-114425357D01*
X171469373Y-114544135D01*
X171469376Y-114544137D01*
X171496319Y-114558538D01*
X171634499Y-114632396D01*
X171813666Y-114686746D01*
X171813668Y-114686747D01*
X171830374Y-114688392D01*
X172000000Y-114705099D01*
X172186331Y-114686747D01*
X172365501Y-114632396D01*
X172530625Y-114544136D01*
X172675357Y-114425357D01*
X172794136Y-114280625D01*
X172882396Y-114115501D01*
X172936747Y-113936331D01*
X172955099Y-113750000D01*
X174044901Y-113750000D01*
X174063252Y-113936331D01*
X174063253Y-113936333D01*
X174117604Y-114115502D01*
X174205862Y-114280623D01*
X174205864Y-114280626D01*
X174324642Y-114425357D01*
X174469373Y-114544135D01*
X174469376Y-114544137D01*
X174496319Y-114558538D01*
X174634499Y-114632396D01*
X174813666Y-114686746D01*
X174813668Y-114686747D01*
X174830374Y-114688392D01*
X175000000Y-114705099D01*
X175186331Y-114686747D01*
X175365501Y-114632396D01*
X175530625Y-114544136D01*
X175675357Y-114425357D01*
X175794136Y-114280625D01*
X175882396Y-114115501D01*
X175936747Y-113936331D01*
X175955099Y-113750000D01*
X175936747Y-113563669D01*
X175882396Y-113384499D01*
X175847527Y-113319263D01*
X175794137Y-113219376D01*
X175794135Y-113219373D01*
X175675357Y-113074642D01*
X175530626Y-112955864D01*
X175530623Y-112955862D01*
X175365502Y-112867604D01*
X175186333Y-112813253D01*
X175186331Y-112813252D01*
X175000000Y-112794901D01*
X174813668Y-112813252D01*
X174813666Y-112813253D01*
X174634497Y-112867604D01*
X174469376Y-112955862D01*
X174469373Y-112955864D01*
X174324642Y-113074642D01*
X174205864Y-113219373D01*
X174205862Y-113219376D01*
X174117604Y-113384497D01*
X174063253Y-113563666D01*
X174063252Y-113563668D01*
X174044901Y-113750000D01*
X172955099Y-113750000D01*
X172936747Y-113563669D01*
X172882396Y-113384499D01*
X172847527Y-113319263D01*
X172794137Y-113219376D01*
X172794135Y-113219373D01*
X172675357Y-113074642D01*
X172530626Y-112955864D01*
X172530623Y-112955862D01*
X172365502Y-112867604D01*
X172186333Y-112813253D01*
X172186331Y-112813252D01*
X172000000Y-112794901D01*
X171813668Y-112813252D01*
X171813666Y-112813253D01*
X171634497Y-112867604D01*
X171469376Y-112955862D01*
X171469373Y-112955864D01*
X171324642Y-113074642D01*
X171205864Y-113219373D01*
X171205862Y-113219376D01*
X171117604Y-113384497D01*
X171063253Y-113563666D01*
X171063252Y-113563668D01*
X171044901Y-113750000D01*
X145299943Y-113750000D01*
X145125741Y-113588365D01*
X145089514Y-113563666D01*
X144902775Y-113436349D01*
X144902769Y-113436346D01*
X144902768Y-113436345D01*
X144902767Y-113436344D01*
X144659643Y-113319263D01*
X144659645Y-113319263D01*
X144401773Y-113239720D01*
X144401767Y-113239718D01*
X144134936Y-113199500D01*
X144134929Y-113199500D01*
X143865071Y-113199500D01*
X143865063Y-113199500D01*
X143598232Y-113239718D01*
X143598226Y-113239720D01*
X143340358Y-113319262D01*
X143097230Y-113436346D01*
X142874258Y-113588365D01*
X142676442Y-113771910D01*
X142508185Y-113982898D01*
X142373258Y-114216599D01*
X142373256Y-114216603D01*
X142274666Y-114467804D01*
X142274664Y-114467811D01*
X142214616Y-114730898D01*
X142194451Y-114999995D01*
X142194451Y-115000004D01*
X126805549Y-115000004D01*
X126805549Y-115000000D01*
X126800214Y-114928814D01*
X126785383Y-114730898D01*
X126779495Y-114705099D01*
X126725334Y-114467805D01*
X126626743Y-114216602D01*
X126491815Y-113982898D01*
X126323561Y-113771915D01*
X126323560Y-113771914D01*
X126323557Y-113771910D01*
X126125741Y-113588365D01*
X126089514Y-113563666D01*
X125902775Y-113436349D01*
X125902769Y-113436346D01*
X125902768Y-113436345D01*
X125902767Y-113436344D01*
X125659643Y-113319263D01*
X125659645Y-113319263D01*
X125401773Y-113239720D01*
X125401767Y-113239718D01*
X125134936Y-113199500D01*
X125134929Y-113199500D01*
X124865071Y-113199500D01*
X124865063Y-113199500D01*
X124598232Y-113239718D01*
X124598226Y-113239720D01*
X124340358Y-113319262D01*
X124097230Y-113436346D01*
X123874258Y-113588365D01*
X123676442Y-113771910D01*
X123508185Y-113982898D01*
X123373258Y-114216599D01*
X123373256Y-114216603D01*
X123274666Y-114467804D01*
X123274664Y-114467811D01*
X123214616Y-114730898D01*
X123194451Y-114999995D01*
X123194451Y-115000004D01*
X113554188Y-115000004D01*
X113696132Y-114986024D01*
X113884727Y-114928814D01*
X114058538Y-114835910D01*
X114210883Y-114710883D01*
X114335910Y-114558538D01*
X114428814Y-114384727D01*
X114486024Y-114196132D01*
X114505341Y-114000000D01*
X114486024Y-113803868D01*
X114428814Y-113615273D01*
X114428811Y-113615269D01*
X114428811Y-113615266D01*
X114335913Y-113441467D01*
X114335909Y-113441460D01*
X114210883Y-113289116D01*
X114058539Y-113164090D01*
X114058532Y-113164086D01*
X113884733Y-113071188D01*
X113884727Y-113071186D01*
X113696132Y-113013976D01*
X113696129Y-113013975D01*
X113500000Y-112994659D01*
X113303870Y-113013975D01*
X113115266Y-113071188D01*
X112941467Y-113164086D01*
X112941460Y-113164090D01*
X112789116Y-113289116D01*
X112664090Y-113441460D01*
X112664086Y-113441467D01*
X112571188Y-113615266D01*
X112513975Y-113803870D01*
X112494659Y-114000000D01*
X100000500Y-114000000D01*
X100000500Y-112626945D01*
X100020185Y-112559906D01*
X100072989Y-112514151D01*
X100142147Y-112504207D01*
X100205703Y-112533232D01*
X100220353Y-112548280D01*
X100324642Y-112675357D01*
X100469373Y-112794135D01*
X100469376Y-112794137D01*
X100606825Y-112867604D01*
X100634499Y-112882396D01*
X100813666Y-112936746D01*
X100813668Y-112936747D01*
X100830374Y-112938392D01*
X101000000Y-112955099D01*
X101186331Y-112936747D01*
X101365501Y-112882396D01*
X101530625Y-112794136D01*
X101675357Y-112675357D01*
X101794136Y-112530625D01*
X101882396Y-112365501D01*
X101936747Y-112186331D01*
X101955099Y-112000000D01*
X101936747Y-111813669D01*
X101882396Y-111634499D01*
X101808256Y-111495792D01*
X101794137Y-111469376D01*
X101794135Y-111469373D01*
X101675357Y-111324642D01*
X101530626Y-111205864D01*
X101530623Y-111205862D01*
X101365502Y-111117604D01*
X101186333Y-111063253D01*
X101186331Y-111063252D01*
X101000000Y-111044901D01*
X100813668Y-111063252D01*
X100813666Y-111063253D01*
X100634497Y-111117604D01*
X100469376Y-111205862D01*
X100469373Y-111205864D01*
X100324642Y-111324642D01*
X100220353Y-111451719D01*
X100162607Y-111491053D01*
X100092762Y-111492924D01*
X100032994Y-111456736D01*
X100002278Y-111393980D01*
X100000500Y-111373054D01*
X100000500Y-110500000D01*
X181294901Y-110500000D01*
X181313252Y-110686331D01*
X181313253Y-110686333D01*
X181367604Y-110865502D01*
X181455862Y-111030623D01*
X181455864Y-111030626D01*
X181574642Y-111175357D01*
X181719373Y-111294135D01*
X181719376Y-111294137D01*
X181867021Y-111373054D01*
X181884499Y-111382396D01*
X182063666Y-111436746D01*
X182063668Y-111436747D01*
X182082019Y-111438554D01*
X182250000Y-111455099D01*
X182436331Y-111436747D01*
X182615501Y-111382396D01*
X182780625Y-111294136D01*
X182925357Y-111175357D01*
X183044136Y-111030625D01*
X183132396Y-110865501D01*
X183186747Y-110686331D01*
X183205099Y-110500000D01*
X183186747Y-110313669D01*
X183132396Y-110134499D01*
X183044136Y-109969375D01*
X183044135Y-109969373D01*
X182925357Y-109824642D01*
X182780626Y-109705864D01*
X182780623Y-109705862D01*
X182615502Y-109617604D01*
X182436333Y-109563253D01*
X182436331Y-109563252D01*
X182250000Y-109544901D01*
X182063668Y-109563252D01*
X182063666Y-109563253D01*
X181884497Y-109617604D01*
X181719376Y-109705862D01*
X181719373Y-109705864D01*
X181574642Y-109824642D01*
X181455864Y-109969373D01*
X181455862Y-109969376D01*
X181367604Y-110134497D01*
X181313253Y-110313666D01*
X181313252Y-110313668D01*
X181294901Y-110500000D01*
X100000500Y-110500000D01*
X100000500Y-108626945D01*
X100020185Y-108559906D01*
X100072989Y-108514151D01*
X100142147Y-108504207D01*
X100205703Y-108533232D01*
X100220353Y-108548280D01*
X100324642Y-108675357D01*
X100469373Y-108794135D01*
X100469376Y-108794137D01*
X100634497Y-108882395D01*
X100634499Y-108882396D01*
X100813666Y-108936746D01*
X100813668Y-108936747D01*
X100830374Y-108938392D01*
X101000000Y-108955099D01*
X101186331Y-108936747D01*
X101365501Y-108882396D01*
X101530625Y-108794136D01*
X101675357Y-108675357D01*
X101794136Y-108530625D01*
X101882396Y-108365501D01*
X101936747Y-108186331D01*
X101955099Y-108000000D01*
X101936747Y-107813669D01*
X101882396Y-107634499D01*
X101808256Y-107495792D01*
X101794137Y-107469376D01*
X101794135Y-107469373D01*
X101675357Y-107324642D01*
X101530626Y-107205864D01*
X101530623Y-107205862D01*
X101365502Y-107117604D01*
X101186333Y-107063253D01*
X101186331Y-107063252D01*
X101000000Y-107044901D01*
X100813668Y-107063252D01*
X100813666Y-107063253D01*
X100634497Y-107117604D01*
X100469376Y-107205862D01*
X100469373Y-107205864D01*
X100324642Y-107324642D01*
X100220353Y-107451719D01*
X100162607Y-107491053D01*
X100092762Y-107492924D01*
X100032994Y-107456736D01*
X100002278Y-107393980D01*
X100000500Y-107373054D01*
X100000500Y-105500000D01*
X107419628Y-105500000D01*
X107439085Y-105747228D01*
X107496976Y-105988362D01*
X107591877Y-106217474D01*
X107721450Y-106428916D01*
X107721453Y-106428921D01*
X107794458Y-106514399D01*
X107882508Y-106617492D01*
X107962557Y-106685860D01*
X108071078Y-106778546D01*
X108071083Y-106778549D01*
X108282525Y-106908122D01*
X108511637Y-107003023D01*
X108686072Y-107044901D01*
X108752775Y-107060915D01*
X109000000Y-107080372D01*
X109247225Y-107060915D01*
X109488362Y-107003023D01*
X109717474Y-106908122D01*
X109928919Y-106778548D01*
X109958497Y-106753285D01*
X110022257Y-106724714D01*
X110091343Y-106735151D01*
X110117690Y-106751719D01*
X110169375Y-106794136D01*
X110169379Y-106794138D01*
X110169380Y-106794139D01*
X110300000Y-106863956D01*
X110334499Y-106882396D01*
X110419306Y-106908122D01*
X110513666Y-106936746D01*
X110513668Y-106936747D01*
X110530374Y-106938392D01*
X110700000Y-106955099D01*
X110886331Y-106936747D01*
X111064004Y-106882849D01*
X111133871Y-106882226D01*
X111135996Y-106882850D01*
X111313666Y-106936746D01*
X111313668Y-106936747D01*
X111330374Y-106938392D01*
X111500000Y-106955099D01*
X111686331Y-106936747D01*
X111865501Y-106882396D01*
X112030625Y-106794136D01*
X112175357Y-106675357D01*
X112294136Y-106530625D01*
X112382396Y-106365501D01*
X112436747Y-106186331D01*
X112455099Y-106000000D01*
X112436747Y-105813669D01*
X112382849Y-105635995D01*
X112382226Y-105566129D01*
X112382850Y-105564004D01*
X112402266Y-105500000D01*
X174419628Y-105500000D01*
X174439085Y-105747228D01*
X174496976Y-105988362D01*
X174591877Y-106217474D01*
X174721450Y-106428916D01*
X174721453Y-106428921D01*
X174794458Y-106514399D01*
X174882508Y-106617492D01*
X174962557Y-106685860D01*
X175071078Y-106778546D01*
X175071083Y-106778549D01*
X175282525Y-106908122D01*
X175511637Y-107003023D01*
X175686072Y-107044901D01*
X175752775Y-107060915D01*
X176000000Y-107080372D01*
X176247225Y-107060915D01*
X176488362Y-107003023D01*
X176717474Y-106908122D01*
X176928919Y-106778548D01*
X177117492Y-106617492D01*
X177278548Y-106428919D01*
X177408122Y-106217474D01*
X177503023Y-105988362D01*
X177560915Y-105747225D01*
X177580372Y-105500000D01*
X177560915Y-105252775D01*
X177503511Y-105013669D01*
X177503023Y-105011637D01*
X177408122Y-104782525D01*
X177278549Y-104571083D01*
X177278546Y-104571078D01*
X177150599Y-104421272D01*
X177117492Y-104382508D01*
X176977861Y-104263252D01*
X176928921Y-104221453D01*
X176928916Y-104221450D01*
X176717474Y-104091877D01*
X176488362Y-103996976D01*
X176247228Y-103939085D01*
X176000000Y-103919628D01*
X175752771Y-103939085D01*
X175511637Y-103996976D01*
X175282525Y-104091877D01*
X175071083Y-104221450D01*
X175071078Y-104221453D01*
X174882508Y-104382508D01*
X174721453Y-104571078D01*
X174721450Y-104571083D01*
X174591877Y-104782525D01*
X174496976Y-105011637D01*
X174439085Y-105252771D01*
X174419628Y-105500000D01*
X112402266Y-105500000D01*
X112436747Y-105386331D01*
X112455099Y-105200000D01*
X112436747Y-105013669D01*
X112382396Y-104834499D01*
X112354616Y-104782525D01*
X112294137Y-104669376D01*
X112294135Y-104669373D01*
X112175357Y-104524642D01*
X112030626Y-104405864D01*
X112030623Y-104405862D01*
X111865502Y-104317604D01*
X111686333Y-104263253D01*
X111686331Y-104263252D01*
X111500000Y-104244901D01*
X111313670Y-104263252D01*
X111135995Y-104317150D01*
X111066128Y-104317773D01*
X111064005Y-104317150D01*
X110980264Y-104291747D01*
X110886331Y-104263253D01*
X110886329Y-104263252D01*
X110886331Y-104263252D01*
X110700000Y-104244901D01*
X110513668Y-104263252D01*
X110513666Y-104263253D01*
X110334497Y-104317604D01*
X110228917Y-104374038D01*
X110160514Y-104388280D01*
X110095270Y-104363280D01*
X110089932Y-104358970D01*
X109928921Y-104221453D01*
X109928916Y-104221450D01*
X109717474Y-104091877D01*
X109488362Y-103996976D01*
X109247228Y-103939085D01*
X109061806Y-103924492D01*
X109000000Y-103919628D01*
X108999999Y-103919628D01*
X108752771Y-103939085D01*
X108511637Y-103996976D01*
X108282525Y-104091877D01*
X108071083Y-104221450D01*
X108071078Y-104221453D01*
X107882508Y-104382508D01*
X107721453Y-104571078D01*
X107721450Y-104571083D01*
X107591877Y-104782525D01*
X107496976Y-105011637D01*
X107439085Y-105252771D01*
X107419628Y-105500000D01*
X100000500Y-105500000D01*
X100000500Y-104626945D01*
X100020185Y-104559906D01*
X100072989Y-104514151D01*
X100142147Y-104504207D01*
X100205703Y-104533232D01*
X100220353Y-104548280D01*
X100324642Y-104675357D01*
X100469373Y-104794135D01*
X100469376Y-104794137D01*
X100544889Y-104834499D01*
X100634499Y-104882396D01*
X100813666Y-104936746D01*
X100813668Y-104936747D01*
X100830374Y-104938392D01*
X101000000Y-104955099D01*
X101186331Y-104936747D01*
X101365501Y-104882396D01*
X101530625Y-104794136D01*
X101675357Y-104675357D01*
X101794136Y-104530625D01*
X101882396Y-104365501D01*
X101936747Y-104186331D01*
X101955099Y-104000000D01*
X101936747Y-103813669D01*
X101882396Y-103634499D01*
X101808256Y-103495792D01*
X101794137Y-103469376D01*
X101794135Y-103469373D01*
X101675357Y-103324642D01*
X101530626Y-103205864D01*
X101530623Y-103205862D01*
X101365502Y-103117604D01*
X101186333Y-103063253D01*
X101186331Y-103063252D01*
X101000000Y-103044901D01*
X100813668Y-103063252D01*
X100813666Y-103063253D01*
X100634497Y-103117604D01*
X100469376Y-103205862D01*
X100469373Y-103205864D01*
X100324642Y-103324642D01*
X100220353Y-103451719D01*
X100162607Y-103491053D01*
X100092762Y-103492924D01*
X100032994Y-103456736D01*
X100002278Y-103393980D01*
X100000500Y-103373054D01*
X100000500Y-100626945D01*
X100020185Y-100559906D01*
X100072989Y-100514151D01*
X100142147Y-100504207D01*
X100205703Y-100533232D01*
X100220353Y-100548280D01*
X100324642Y-100675357D01*
X100469373Y-100794135D01*
X100469376Y-100794137D01*
X100634497Y-100882395D01*
X100634499Y-100882396D01*
X100813666Y-100936746D01*
X100813668Y-100936747D01*
X100830374Y-100938392D01*
X101000000Y-100955099D01*
X101186331Y-100936747D01*
X101365501Y-100882396D01*
X101530625Y-100794136D01*
X101675357Y-100675357D01*
X101794136Y-100530625D01*
X101810506Y-100499999D01*
X174419628Y-100499999D01*
X174439085Y-100747228D01*
X174496976Y-100988362D01*
X174591877Y-101217474D01*
X174721450Y-101428916D01*
X174721453Y-101428921D01*
X174794458Y-101514399D01*
X174882508Y-101617492D01*
X175003213Y-101720583D01*
X175071078Y-101778546D01*
X175071083Y-101778549D01*
X175282525Y-101908122D01*
X175511637Y-102003023D01*
X175718567Y-102052702D01*
X175752775Y-102060915D01*
X176000000Y-102080372D01*
X176247225Y-102060915D01*
X176488362Y-102003023D01*
X176717474Y-101908122D01*
X176928919Y-101778548D01*
X177117492Y-101617492D01*
X177278548Y-101428919D01*
X177408122Y-101217474D01*
X177503023Y-100988362D01*
X177560915Y-100747225D01*
X177580372Y-100500000D01*
X177560915Y-100252775D01*
X177503023Y-100011638D01*
X177498203Y-100000000D01*
X177408122Y-99782525D01*
X177278549Y-99571083D01*
X177278546Y-99571078D01*
X177191681Y-99469373D01*
X177117492Y-99382508D01*
X177014399Y-99294458D01*
X176928921Y-99221453D01*
X176928916Y-99221450D01*
X176717474Y-99091877D01*
X176488362Y-98996976D01*
X176247228Y-98939085D01*
X176000000Y-98919628D01*
X175752771Y-98939085D01*
X175511637Y-98996976D01*
X175282525Y-99091877D01*
X175071083Y-99221450D01*
X175071078Y-99221453D01*
X174882508Y-99382508D01*
X174721453Y-99571078D01*
X174721450Y-99571083D01*
X174591877Y-99782525D01*
X174496976Y-100011637D01*
X174439085Y-100252771D01*
X174419628Y-100499999D01*
X101810506Y-100499999D01*
X101882396Y-100365501D01*
X101936747Y-100186331D01*
X101955099Y-100000000D01*
X101936747Y-99813669D01*
X101882396Y-99634499D01*
X101808256Y-99495792D01*
X101794137Y-99469376D01*
X101794135Y-99469373D01*
X101675357Y-99324642D01*
X101530626Y-99205864D01*
X101530623Y-99205862D01*
X101365502Y-99117604D01*
X101186333Y-99063253D01*
X101186331Y-99063252D01*
X101000000Y-99044901D01*
X100813668Y-99063252D01*
X100813666Y-99063253D01*
X100634497Y-99117604D01*
X100469376Y-99205862D01*
X100469373Y-99205864D01*
X100324642Y-99324642D01*
X100220353Y-99451719D01*
X100162607Y-99491053D01*
X100092762Y-99492924D01*
X100032994Y-99456736D01*
X100002278Y-99393980D01*
X100000500Y-99373054D01*
X100000500Y-97750000D01*
X134794901Y-97750000D01*
X134813252Y-97936331D01*
X134813253Y-97936333D01*
X134867604Y-98115502D01*
X134955862Y-98280623D01*
X134955864Y-98280626D01*
X135074642Y-98425357D01*
X135219373Y-98544135D01*
X135219376Y-98544137D01*
X135384497Y-98632395D01*
X135384499Y-98632396D01*
X135563666Y-98686746D01*
X135563668Y-98686747D01*
X135580374Y-98688392D01*
X135750000Y-98705099D01*
X135936331Y-98686747D01*
X136115501Y-98632396D01*
X136280625Y-98544136D01*
X136425357Y-98425357D01*
X136544136Y-98280625D01*
X136632396Y-98115501D01*
X136686747Y-97936331D01*
X136705099Y-97750000D01*
X136686747Y-97563669D01*
X136632396Y-97384499D01*
X136584097Y-97294137D01*
X136544137Y-97219376D01*
X136544135Y-97219373D01*
X136425357Y-97074642D01*
X136280626Y-96955864D01*
X136280623Y-96955862D01*
X136115502Y-96867604D01*
X135936333Y-96813253D01*
X135936331Y-96813252D01*
X135750000Y-96794901D01*
X135563668Y-96813252D01*
X135563666Y-96813253D01*
X135384497Y-96867604D01*
X135219376Y-96955862D01*
X135219373Y-96955864D01*
X135074642Y-97074642D01*
X134955864Y-97219373D01*
X134955862Y-97219376D01*
X134867604Y-97384497D01*
X134813253Y-97563666D01*
X134813252Y-97563668D01*
X134794901Y-97750000D01*
X100000500Y-97750000D01*
X100000500Y-96626945D01*
X100020185Y-96559906D01*
X100072989Y-96514151D01*
X100142147Y-96504207D01*
X100205703Y-96533232D01*
X100220353Y-96548280D01*
X100324642Y-96675357D01*
X100469373Y-96794135D01*
X100469376Y-96794137D01*
X100602890Y-96865501D01*
X100634499Y-96882396D01*
X100813666Y-96936746D01*
X100813668Y-96936747D01*
X100830374Y-96938392D01*
X101000000Y-96955099D01*
X101186331Y-96936747D01*
X101365501Y-96882396D01*
X101530625Y-96794136D01*
X101675357Y-96675357D01*
X101794136Y-96530625D01*
X101810505Y-96500000D01*
X124794901Y-96500000D01*
X124813252Y-96686331D01*
X124813253Y-96686333D01*
X124867604Y-96865502D01*
X124955862Y-97030623D01*
X124955864Y-97030626D01*
X125074642Y-97175357D01*
X125219373Y-97294135D01*
X125219376Y-97294137D01*
X125384497Y-97382395D01*
X125384499Y-97382396D01*
X125563666Y-97436746D01*
X125563668Y-97436747D01*
X125580374Y-97438392D01*
X125750000Y-97455099D01*
X125936331Y-97436747D01*
X126115501Y-97382396D01*
X126280625Y-97294136D01*
X126425357Y-97175357D01*
X126544136Y-97030625D01*
X126632396Y-96865501D01*
X126686747Y-96686331D01*
X126705099Y-96500000D01*
X126686747Y-96313669D01*
X126632396Y-96134499D01*
X126620701Y-96112619D01*
X126544137Y-95969376D01*
X126544135Y-95969373D01*
X126425357Y-95824642D01*
X126280626Y-95705864D01*
X126280623Y-95705862D01*
X126115502Y-95617604D01*
X125936333Y-95563253D01*
X125936331Y-95563252D01*
X125750000Y-95544901D01*
X125563668Y-95563252D01*
X125563666Y-95563253D01*
X125384497Y-95617604D01*
X125219376Y-95705862D01*
X125219373Y-95705864D01*
X125074642Y-95824642D01*
X124955864Y-95969373D01*
X124955862Y-95969376D01*
X124867604Y-96134497D01*
X124813253Y-96313666D01*
X124813252Y-96313668D01*
X124794901Y-96500000D01*
X101810505Y-96500000D01*
X101882396Y-96365501D01*
X101936747Y-96186331D01*
X101955099Y-96000000D01*
X101936747Y-95813669D01*
X101882396Y-95634499D01*
X101881271Y-95632395D01*
X101794137Y-95469376D01*
X101794135Y-95469373D01*
X101675357Y-95324642D01*
X101530626Y-95205864D01*
X101530623Y-95205862D01*
X101519656Y-95200000D01*
X128144901Y-95200000D01*
X128163252Y-95386331D01*
X128163253Y-95386333D01*
X128217604Y-95565502D01*
X128305862Y-95730623D01*
X128305864Y-95730626D01*
X128424642Y-95875357D01*
X128569373Y-95994135D01*
X128569376Y-95994137D01*
X128734497Y-96082395D01*
X128734499Y-96082396D01*
X128913666Y-96136746D01*
X128913668Y-96136747D01*
X128930374Y-96138392D01*
X129100000Y-96155099D01*
X129286331Y-96136747D01*
X129465501Y-96082396D01*
X129630625Y-95994136D01*
X129775357Y-95875357D01*
X129894136Y-95730625D01*
X129982396Y-95565501D01*
X130036747Y-95386331D01*
X130050065Y-95251104D01*
X130076226Y-95186319D01*
X130085778Y-95175588D01*
X130485642Y-94775724D01*
X130499257Y-94763958D01*
X130518006Y-94750000D01*
X134794901Y-94750000D01*
X134813252Y-94936331D01*
X134813253Y-94936333D01*
X134867604Y-95115502D01*
X134955862Y-95280623D01*
X134955864Y-95280626D01*
X135074642Y-95425357D01*
X135219373Y-95544135D01*
X135219376Y-95544137D01*
X135356825Y-95617604D01*
X135384499Y-95632396D01*
X135563666Y-95686746D01*
X135563668Y-95686747D01*
X135580374Y-95688392D01*
X135750000Y-95705099D01*
X135936331Y-95686747D01*
X136115501Y-95632396D01*
X136280625Y-95544136D01*
X136425357Y-95425357D01*
X136544136Y-95280625D01*
X136632396Y-95115501D01*
X136686747Y-94936331D01*
X136705099Y-94750000D01*
X136686747Y-94563669D01*
X136632396Y-94384499D01*
X136604807Y-94332883D01*
X136544137Y-94219376D01*
X136544135Y-94219373D01*
X136425357Y-94074642D01*
X136280626Y-93955864D01*
X136280623Y-93955862D01*
X136115502Y-93867604D01*
X135936333Y-93813253D01*
X135936331Y-93813252D01*
X135750000Y-93794901D01*
X135563668Y-93813252D01*
X135563666Y-93813253D01*
X135384497Y-93867604D01*
X135219376Y-93955862D01*
X135219373Y-93955864D01*
X135074642Y-94074642D01*
X134955864Y-94219373D01*
X134955862Y-94219376D01*
X134867604Y-94384497D01*
X134813253Y-94563666D01*
X134813252Y-94563668D01*
X134794901Y-94750000D01*
X130518006Y-94750000D01*
X130518530Y-94749610D01*
X130552123Y-94709574D01*
X130555757Y-94705608D01*
X130561590Y-94699777D01*
X130581927Y-94674055D01*
X130631302Y-94615214D01*
X130631304Y-94615209D01*
X130635272Y-94609179D01*
X130635323Y-94609212D01*
X130639369Y-94602860D01*
X130639317Y-94602828D01*
X130643109Y-94596679D01*
X130643111Y-94596677D01*
X130675569Y-94527069D01*
X130710040Y-94458433D01*
X130710043Y-94458417D01*
X130712510Y-94451644D01*
X130712568Y-94451665D01*
X130715043Y-94444546D01*
X130714985Y-94444527D01*
X130717256Y-94437672D01*
X130732784Y-94362467D01*
X130750500Y-94287720D01*
X130751339Y-94280548D01*
X130751397Y-94280554D01*
X130752164Y-94273056D01*
X130752104Y-94273051D01*
X130752733Y-94265860D01*
X130750500Y-94189103D01*
X130750500Y-91700000D01*
X131844815Y-91700000D01*
X131863503Y-91877805D01*
X131863504Y-91877807D01*
X131918747Y-92047829D01*
X131918750Y-92047835D01*
X132008141Y-92202665D01*
X132049812Y-92248946D01*
X132127764Y-92335521D01*
X132127767Y-92335523D01*
X132127770Y-92335526D01*
X132272407Y-92440612D01*
X132435733Y-92513329D01*
X132610609Y-92550500D01*
X132610610Y-92550500D01*
X132789389Y-92550500D01*
X132789391Y-92550500D01*
X132964267Y-92513329D01*
X133127593Y-92440612D01*
X133272230Y-92335526D01*
X133349239Y-92249999D01*
X171044901Y-92249999D01*
X171063252Y-92436331D01*
X171063253Y-92436333D01*
X171117604Y-92615502D01*
X171205862Y-92780623D01*
X171205864Y-92780626D01*
X171324642Y-92925357D01*
X171469373Y-93044135D01*
X171469376Y-93044137D01*
X171634497Y-93132395D01*
X171634499Y-93132396D01*
X171813666Y-93186746D01*
X171813668Y-93186747D01*
X171830374Y-93188392D01*
X172000000Y-93205099D01*
X172186331Y-93186747D01*
X172365501Y-93132396D01*
X172530625Y-93044136D01*
X172675357Y-92925357D01*
X172794136Y-92780625D01*
X172882396Y-92615501D01*
X172936747Y-92436331D01*
X172955099Y-92250000D01*
X172955099Y-92249999D01*
X174044901Y-92249999D01*
X174063252Y-92436331D01*
X174063253Y-92436333D01*
X174117604Y-92615502D01*
X174205862Y-92780623D01*
X174205864Y-92780626D01*
X174324642Y-92925357D01*
X174469373Y-93044135D01*
X174469376Y-93044137D01*
X174634497Y-93132395D01*
X174634499Y-93132396D01*
X174813666Y-93186746D01*
X174813668Y-93186747D01*
X174830374Y-93188392D01*
X175000000Y-93205099D01*
X175186331Y-93186747D01*
X175365501Y-93132396D01*
X175530625Y-93044136D01*
X175675357Y-92925357D01*
X175794136Y-92780625D01*
X175882396Y-92615501D01*
X175936747Y-92436331D01*
X175955099Y-92250000D01*
X175936747Y-92063669D01*
X175882396Y-91884499D01*
X175855691Y-91834537D01*
X175794137Y-91719376D01*
X175794135Y-91719373D01*
X175675357Y-91574642D01*
X175530626Y-91455864D01*
X175530623Y-91455862D01*
X175365502Y-91367604D01*
X175186333Y-91313253D01*
X175186331Y-91313252D01*
X175000000Y-91294901D01*
X174813668Y-91313252D01*
X174813666Y-91313253D01*
X174634497Y-91367604D01*
X174469376Y-91455862D01*
X174469373Y-91455864D01*
X174324642Y-91574642D01*
X174205864Y-91719373D01*
X174205862Y-91719376D01*
X174117604Y-91884497D01*
X174063253Y-92063666D01*
X174063252Y-92063668D01*
X174044901Y-92249999D01*
X172955099Y-92249999D01*
X172936747Y-92063669D01*
X172882396Y-91884499D01*
X172855691Y-91834537D01*
X172794137Y-91719376D01*
X172794135Y-91719373D01*
X172675357Y-91574642D01*
X172530626Y-91455864D01*
X172530623Y-91455862D01*
X172365502Y-91367604D01*
X172186333Y-91313253D01*
X172186331Y-91313252D01*
X172000000Y-91294901D01*
X171813668Y-91313252D01*
X171813666Y-91313253D01*
X171634497Y-91367604D01*
X171469376Y-91455862D01*
X171469373Y-91455864D01*
X171324642Y-91574642D01*
X171205864Y-91719373D01*
X171205862Y-91719376D01*
X171117604Y-91884497D01*
X171063253Y-92063666D01*
X171063252Y-92063668D01*
X171044901Y-92249999D01*
X133349239Y-92249999D01*
X133391859Y-92202665D01*
X133481250Y-92047835D01*
X133536497Y-91877803D01*
X133555185Y-91700000D01*
X133536497Y-91522197D01*
X133492997Y-91388317D01*
X133491002Y-91318476D01*
X133492997Y-91311681D01*
X133527379Y-91205864D01*
X133536497Y-91177803D01*
X133555185Y-91000000D01*
X133536497Y-90822197D01*
X133492997Y-90688317D01*
X133491002Y-90618476D01*
X133492997Y-90611681D01*
X133536497Y-90477803D01*
X133555185Y-90300000D01*
X133536497Y-90122197D01*
X133533449Y-90112815D01*
X133531456Y-90042974D01*
X133567538Y-89983142D01*
X133630239Y-89952316D01*
X133651381Y-89950500D01*
X133789389Y-89950500D01*
X133789391Y-89950500D01*
X133964267Y-89913329D01*
X134049565Y-89875351D01*
X134118814Y-89866067D01*
X134150432Y-89875351D01*
X134235733Y-89913329D01*
X134410609Y-89950500D01*
X134410610Y-89950500D01*
X134589389Y-89950500D01*
X134589391Y-89950500D01*
X134764267Y-89913329D01*
X134849565Y-89875351D01*
X134918814Y-89866067D01*
X134950432Y-89875351D01*
X135035733Y-89913329D01*
X135210609Y-89950500D01*
X135210610Y-89950500D01*
X135389389Y-89950500D01*
X135389391Y-89950500D01*
X135564267Y-89913329D01*
X135649565Y-89875351D01*
X135718814Y-89866067D01*
X135750432Y-89875351D01*
X135835733Y-89913329D01*
X136010609Y-89950500D01*
X136010610Y-89950500D01*
X136189389Y-89950500D01*
X136189391Y-89950500D01*
X136364267Y-89913329D01*
X136449565Y-89875351D01*
X136518814Y-89866067D01*
X136550432Y-89875351D01*
X136635733Y-89913329D01*
X136810609Y-89950500D01*
X136810610Y-89950500D01*
X136989389Y-89950500D01*
X136989391Y-89950500D01*
X137164267Y-89913329D01*
X137327593Y-89840612D01*
X137472230Y-89735526D01*
X137591859Y-89602665D01*
X137681250Y-89447835D01*
X137736497Y-89277803D01*
X137755185Y-89100000D01*
X137736497Y-88922197D01*
X137681250Y-88752165D01*
X137681247Y-88752159D01*
X137680484Y-88750446D01*
X137680337Y-88749356D01*
X137679242Y-88745984D01*
X137679858Y-88745783D01*
X137671193Y-88681197D01*
X137680484Y-88649554D01*
X137681246Y-88647842D01*
X137681250Y-88647835D01*
X137736497Y-88477803D01*
X137755185Y-88300000D01*
X137736497Y-88122197D01*
X137696793Y-88000000D01*
X137681252Y-87952170D01*
X137681249Y-87952164D01*
X137656258Y-87908878D01*
X137591859Y-87797335D01*
X137545003Y-87745296D01*
X137472235Y-87664478D01*
X137472232Y-87664476D01*
X137472231Y-87664475D01*
X137472230Y-87664474D01*
X137327593Y-87559388D01*
X137224029Y-87513278D01*
X137170794Y-87468030D01*
X137150472Y-87401181D01*
X137169517Y-87333957D01*
X137221883Y-87287701D01*
X137223986Y-87286740D01*
X137327593Y-87240612D01*
X137472230Y-87135526D01*
X137474895Y-87132567D01*
X137498148Y-87106741D01*
X137591859Y-87002665D01*
X137681250Y-86847835D01*
X137736497Y-86677803D01*
X137755185Y-86500000D01*
X137736497Y-86322197D01*
X137681250Y-86152165D01*
X137681247Y-86152159D01*
X137680484Y-86150446D01*
X137680337Y-86149356D01*
X137679242Y-86145984D01*
X137679858Y-86145783D01*
X137671193Y-86081197D01*
X137680484Y-86049554D01*
X137681246Y-86047842D01*
X137681250Y-86047835D01*
X137736497Y-85877803D01*
X137755185Y-85700000D01*
X137736497Y-85522197D01*
X137706188Y-85428916D01*
X137681252Y-85352170D01*
X137681249Y-85352164D01*
X137658784Y-85313253D01*
X137591859Y-85197335D01*
X137545003Y-85145296D01*
X137472235Y-85064478D01*
X137472232Y-85064476D01*
X137472231Y-85064475D01*
X137472230Y-85064474D01*
X137327593Y-84959388D01*
X137164267Y-84886671D01*
X137164265Y-84886670D01*
X137036594Y-84859533D01*
X136989391Y-84849500D01*
X136810609Y-84849500D01*
X136763405Y-84859533D01*
X136635735Y-84886670D01*
X136550435Y-84924648D01*
X136481185Y-84933932D01*
X136449565Y-84924648D01*
X136364267Y-84886671D01*
X136364265Y-84886670D01*
X136236594Y-84859533D01*
X136189391Y-84849500D01*
X136010609Y-84849500D01*
X135963405Y-84859533D01*
X135835735Y-84886670D01*
X135750435Y-84924648D01*
X135681185Y-84933932D01*
X135649565Y-84924648D01*
X135564267Y-84886671D01*
X135564265Y-84886670D01*
X135436594Y-84859533D01*
X135389391Y-84849500D01*
X135210609Y-84849500D01*
X135163405Y-84859533D01*
X135035735Y-84886670D01*
X134950435Y-84924648D01*
X134881185Y-84933932D01*
X134849565Y-84924648D01*
X134764267Y-84886671D01*
X134764265Y-84886670D01*
X134636594Y-84859533D01*
X134589391Y-84849500D01*
X134410609Y-84849500D01*
X134363405Y-84859533D01*
X134235735Y-84886670D01*
X134150435Y-84924648D01*
X134081185Y-84933932D01*
X134049565Y-84924648D01*
X133964267Y-84886671D01*
X133964265Y-84886670D01*
X133836594Y-84859533D01*
X133789391Y-84849500D01*
X133610609Y-84849500D01*
X133579954Y-84856015D01*
X133435733Y-84886670D01*
X133435728Y-84886672D01*
X133272408Y-84959387D01*
X133127768Y-85064475D01*
X133008140Y-85197336D01*
X132918750Y-85352164D01*
X132918747Y-85352170D01*
X132863504Y-85522192D01*
X132863503Y-85522194D01*
X132844815Y-85700000D01*
X132863503Y-85877805D01*
X132863504Y-85877807D01*
X132918752Y-86047842D01*
X132919525Y-86049579D01*
X132919671Y-86050671D01*
X132920758Y-86054016D01*
X132920145Y-86054214D01*
X132928801Y-86118830D01*
X132919525Y-86150421D01*
X132918752Y-86152157D01*
X132863504Y-86322192D01*
X132863503Y-86322194D01*
X132844815Y-86500000D01*
X132863503Y-86677805D01*
X132863504Y-86677807D01*
X132918747Y-86847829D01*
X132918750Y-86847835D01*
X133008141Y-87002665D01*
X133045481Y-87044135D01*
X133127764Y-87135521D01*
X133127767Y-87135523D01*
X133127770Y-87135526D01*
X133272407Y-87240612D01*
X133375970Y-87286721D01*
X133429205Y-87331969D01*
X133449527Y-87398818D01*
X133430482Y-87466042D01*
X133378116Y-87512298D01*
X133375970Y-87513278D01*
X133272406Y-87559388D01*
X133127768Y-87664475D01*
X133008140Y-87797336D01*
X132918750Y-87952164D01*
X132918747Y-87952170D01*
X132863504Y-88122192D01*
X132863503Y-88122194D01*
X132844815Y-88299999D01*
X132863503Y-88477805D01*
X132863504Y-88477807D01*
X132918752Y-88647842D01*
X132919525Y-88649579D01*
X132919671Y-88650671D01*
X132920758Y-88654016D01*
X132920145Y-88654214D01*
X132928801Y-88718830D01*
X132919525Y-88750421D01*
X132918752Y-88752157D01*
X132863504Y-88922192D01*
X132863503Y-88922194D01*
X132844815Y-89099999D01*
X132863503Y-89277805D01*
X132863504Y-89277808D01*
X132866551Y-89287185D01*
X132868544Y-89357026D01*
X132832462Y-89416858D01*
X132769761Y-89447684D01*
X132748619Y-89449500D01*
X132610609Y-89449500D01*
X132579954Y-89456015D01*
X132435733Y-89486670D01*
X132435728Y-89486672D01*
X132272408Y-89559387D01*
X132127768Y-89664475D01*
X132008140Y-89797336D01*
X131918750Y-89952164D01*
X131918747Y-89952170D01*
X131863504Y-90122192D01*
X131863503Y-90122194D01*
X131844815Y-90300000D01*
X131863503Y-90477805D01*
X131863504Y-90477806D01*
X131907003Y-90611681D01*
X131908998Y-90681522D01*
X131907003Y-90688317D01*
X131863504Y-90822192D01*
X131863503Y-90822194D01*
X131844815Y-91000000D01*
X131863503Y-91177805D01*
X131863504Y-91177806D01*
X131907003Y-91311681D01*
X131908998Y-91381522D01*
X131907003Y-91388317D01*
X131863504Y-91522192D01*
X131863503Y-91522194D01*
X131844815Y-91700000D01*
X130750500Y-91700000D01*
X130750500Y-88228163D01*
X130770185Y-88161124D01*
X130778646Y-88149499D01*
X130794136Y-88130625D01*
X130882396Y-87965501D01*
X130936747Y-87786331D01*
X130955099Y-87600000D01*
X130936747Y-87413669D01*
X130882396Y-87234499D01*
X130882395Y-87234497D01*
X130794137Y-87069376D01*
X130794135Y-87069373D01*
X130675357Y-86924642D01*
X130530626Y-86805864D01*
X130530623Y-86805862D01*
X130365502Y-86717604D01*
X130186333Y-86663253D01*
X130186331Y-86663252D01*
X130000000Y-86644901D01*
X129813668Y-86663252D01*
X129813666Y-86663253D01*
X129634497Y-86717604D01*
X129469376Y-86805862D01*
X129469373Y-86805864D01*
X129324642Y-86924642D01*
X129205864Y-87069373D01*
X129205862Y-87069376D01*
X129117604Y-87234497D01*
X129063253Y-87413666D01*
X129063252Y-87413668D01*
X129044901Y-87600000D01*
X129063252Y-87786331D01*
X129063253Y-87786333D01*
X129117604Y-87965502D01*
X129205860Y-88130619D01*
X129205864Y-88130625D01*
X129221353Y-88149499D01*
X129248665Y-88213809D01*
X129249499Y-88228163D01*
X129249500Y-93837769D01*
X129229815Y-93904808D01*
X129213181Y-93925450D01*
X128880668Y-94257962D01*
X128828984Y-94288941D01*
X128734496Y-94317604D01*
X128569376Y-94405862D01*
X128569373Y-94405864D01*
X128424642Y-94524642D01*
X128305864Y-94669373D01*
X128305862Y-94669376D01*
X128217604Y-94834497D01*
X128163253Y-95013666D01*
X128163252Y-95013668D01*
X128144901Y-95200000D01*
X101519656Y-95200000D01*
X101365502Y-95117604D01*
X101186333Y-95063253D01*
X101186331Y-95063252D01*
X101000000Y-95044901D01*
X100813668Y-95063252D01*
X100813666Y-95063253D01*
X100634497Y-95117604D01*
X100469376Y-95205862D01*
X100469373Y-95205864D01*
X100324642Y-95324642D01*
X100220353Y-95451719D01*
X100162607Y-95491053D01*
X100092762Y-95492924D01*
X100032994Y-95456736D01*
X100002278Y-95393980D01*
X100000500Y-95373054D01*
X100000500Y-93000005D01*
X120544529Y-93000005D01*
X120564379Y-93239559D01*
X120623389Y-93472589D01*
X120719951Y-93692729D01*
X120834204Y-93867604D01*
X120851429Y-93893969D01*
X121014236Y-94070825D01*
X121014239Y-94070827D01*
X121014242Y-94070830D01*
X121203924Y-94218466D01*
X121203930Y-94218470D01*
X121203933Y-94218472D01*
X121415344Y-94332882D01*
X121415347Y-94332883D01*
X121642699Y-94410933D01*
X121642701Y-94410933D01*
X121642703Y-94410934D01*
X121879808Y-94450500D01*
X121879809Y-94450500D01*
X122120191Y-94450500D01*
X122120192Y-94450500D01*
X122357297Y-94410934D01*
X122372066Y-94405864D01*
X122434300Y-94384499D01*
X122584656Y-94332882D01*
X122796067Y-94218472D01*
X122985764Y-94070825D01*
X123148571Y-93893969D01*
X123280049Y-93692728D01*
X123376610Y-93472591D01*
X123435620Y-93239563D01*
X123455471Y-93000000D01*
X123451750Y-92955099D01*
X123437293Y-92780625D01*
X123435620Y-92760437D01*
X123376610Y-92527409D01*
X123280049Y-92307272D01*
X123242630Y-92249999D01*
X123148572Y-92106033D01*
X123148571Y-92106031D01*
X123089046Y-92041369D01*
X123058125Y-91978716D01*
X123065985Y-91909290D01*
X123110132Y-91855135D01*
X123132825Y-91842827D01*
X123138153Y-91840619D01*
X123152841Y-91834536D01*
X123278282Y-91738282D01*
X123374536Y-91612841D01*
X123435044Y-91466762D01*
X123450500Y-91349361D01*
X123450499Y-89570640D01*
X123450499Y-89570639D01*
X123450499Y-89570636D01*
X123435046Y-89453246D01*
X123435044Y-89453239D01*
X123435044Y-89453238D01*
X123374536Y-89307159D01*
X123278282Y-89181718D01*
X123152841Y-89085464D01*
X123016067Y-89028810D01*
X122961665Y-88984970D01*
X122939600Y-88918676D01*
X122940117Y-88902109D01*
X122955099Y-88750000D01*
X122936747Y-88563669D01*
X122882396Y-88384499D01*
X122872242Y-88365502D01*
X122794137Y-88219376D01*
X122794135Y-88219373D01*
X122675357Y-88074642D01*
X122530626Y-87955864D01*
X122530623Y-87955862D01*
X122365502Y-87867604D01*
X122186333Y-87813253D01*
X122186331Y-87813252D01*
X122000000Y-87794901D01*
X121813668Y-87813252D01*
X121813666Y-87813253D01*
X121634497Y-87867604D01*
X121469376Y-87955862D01*
X121469373Y-87955864D01*
X121324642Y-88074642D01*
X121205864Y-88219373D01*
X121205862Y-88219376D01*
X121117604Y-88384497D01*
X121063253Y-88563666D01*
X121063252Y-88563668D01*
X121044901Y-88750000D01*
X121059881Y-88902096D01*
X121046862Y-88970742D01*
X120998797Y-89021452D01*
X120983931Y-89028811D01*
X120847160Y-89085463D01*
X120721718Y-89181718D01*
X120625463Y-89307160D01*
X120564956Y-89453237D01*
X120564955Y-89453239D01*
X120560554Y-89486672D01*
X120549501Y-89570636D01*
X120549500Y-89570645D01*
X120549500Y-91349363D01*
X120564953Y-91466753D01*
X120564956Y-91466762D01*
X120625464Y-91612841D01*
X120721718Y-91738282D01*
X120847159Y-91834536D01*
X120863666Y-91841373D01*
X120867175Y-91842827D01*
X120921579Y-91886669D01*
X120943643Y-91952963D01*
X120926363Y-92020662D01*
X120910952Y-92041370D01*
X120851435Y-92106022D01*
X120851427Y-92106033D01*
X120719951Y-92307270D01*
X120623389Y-92527410D01*
X120564379Y-92760440D01*
X120544529Y-92999994D01*
X120544529Y-93000005D01*
X100000500Y-93000005D01*
X100000500Y-92626945D01*
X100020185Y-92559906D01*
X100072989Y-92514151D01*
X100142147Y-92504207D01*
X100205703Y-92533232D01*
X100220353Y-92548280D01*
X100324642Y-92675357D01*
X100469373Y-92794135D01*
X100469376Y-92794137D01*
X100634497Y-92882395D01*
X100634499Y-92882396D01*
X100813666Y-92936746D01*
X100813668Y-92936747D01*
X100830374Y-92938392D01*
X101000000Y-92955099D01*
X101186331Y-92936747D01*
X101365501Y-92882396D01*
X101530625Y-92794136D01*
X101675357Y-92675357D01*
X101794136Y-92530625D01*
X101882396Y-92365501D01*
X101936747Y-92186331D01*
X101955099Y-92000000D01*
X101936747Y-91813669D01*
X101882396Y-91634499D01*
X101808256Y-91495792D01*
X101794137Y-91469376D01*
X101794135Y-91469373D01*
X101675357Y-91324642D01*
X101530626Y-91205864D01*
X101530623Y-91205862D01*
X101365502Y-91117604D01*
X101186333Y-91063253D01*
X101186331Y-91063252D01*
X101000000Y-91044901D01*
X100813668Y-91063252D01*
X100813666Y-91063253D01*
X100634497Y-91117604D01*
X100469376Y-91205862D01*
X100469373Y-91205864D01*
X100324642Y-91324642D01*
X100220353Y-91451719D01*
X100162607Y-91491053D01*
X100092762Y-91492924D01*
X100032994Y-91456736D01*
X100002278Y-91393980D01*
X100000500Y-91373054D01*
X100000500Y-88626945D01*
X100020185Y-88559906D01*
X100072989Y-88514151D01*
X100142147Y-88504207D01*
X100205703Y-88533232D01*
X100220353Y-88548280D01*
X100324642Y-88675357D01*
X100469373Y-88794135D01*
X100469376Y-88794137D01*
X100634497Y-88882395D01*
X100634499Y-88882396D01*
X100812298Y-88936331D01*
X100813666Y-88936746D01*
X100813668Y-88936747D01*
X100830374Y-88938392D01*
X101000000Y-88955099D01*
X101186331Y-88936747D01*
X101365501Y-88882396D01*
X101530625Y-88794136D01*
X101675357Y-88675357D01*
X101794136Y-88530625D01*
X101882396Y-88365501D01*
X101936747Y-88186331D01*
X101955099Y-88000000D01*
X101936747Y-87813669D01*
X101882396Y-87634499D01*
X101882395Y-87634497D01*
X101794137Y-87469376D01*
X101794135Y-87469373D01*
X101675357Y-87324642D01*
X101530626Y-87205864D01*
X101530623Y-87205862D01*
X101365502Y-87117604D01*
X101186333Y-87063253D01*
X101186331Y-87063252D01*
X101000000Y-87044901D01*
X100813668Y-87063252D01*
X100813666Y-87063253D01*
X100634497Y-87117604D01*
X100469376Y-87205862D01*
X100469373Y-87205864D01*
X100324642Y-87324642D01*
X100220353Y-87451719D01*
X100162607Y-87491053D01*
X100092762Y-87492924D01*
X100032994Y-87456736D01*
X100002278Y-87393980D01*
X100000500Y-87373054D01*
X100000500Y-86250000D01*
X124794901Y-86250000D01*
X124813252Y-86436331D01*
X124813253Y-86436333D01*
X124867604Y-86615502D01*
X124955862Y-86780623D01*
X124955864Y-86780626D01*
X125074642Y-86925357D01*
X125219373Y-87044135D01*
X125219376Y-87044137D01*
X125362224Y-87120490D01*
X125384499Y-87132396D01*
X125534185Y-87177803D01*
X125563666Y-87186746D01*
X125563668Y-87186747D01*
X125580374Y-87188392D01*
X125750000Y-87205099D01*
X125936331Y-87186747D01*
X126115501Y-87132396D01*
X126280625Y-87044136D01*
X126425357Y-86925357D01*
X126544136Y-86780625D01*
X126632396Y-86615501D01*
X126686747Y-86436331D01*
X126705099Y-86250000D01*
X126686747Y-86063669D01*
X126632396Y-85884499D01*
X126575765Y-85778549D01*
X126544137Y-85719376D01*
X126544135Y-85719373D01*
X126425357Y-85574642D01*
X126280626Y-85455864D01*
X126280623Y-85455862D01*
X126115502Y-85367604D01*
X125936333Y-85313253D01*
X125936331Y-85313252D01*
X125750000Y-85294901D01*
X125563668Y-85313252D01*
X125563666Y-85313253D01*
X125384497Y-85367604D01*
X125219376Y-85455862D01*
X125219373Y-85455864D01*
X125074642Y-85574642D01*
X124955864Y-85719373D01*
X124955862Y-85719376D01*
X124867604Y-85884497D01*
X124813253Y-86063666D01*
X124813252Y-86063668D01*
X124794901Y-86250000D01*
X100000500Y-86250000D01*
X100000500Y-84626945D01*
X100020185Y-84559906D01*
X100072989Y-84514151D01*
X100142147Y-84504207D01*
X100205703Y-84533232D01*
X100220353Y-84548280D01*
X100324642Y-84675357D01*
X100469373Y-84794135D01*
X100469376Y-84794137D01*
X100572954Y-84849500D01*
X100634499Y-84882396D01*
X100813666Y-84936746D01*
X100813668Y-84936747D01*
X100830374Y-84938392D01*
X101000000Y-84955099D01*
X101186331Y-84936747D01*
X101365501Y-84882396D01*
X101530625Y-84794136D01*
X101675357Y-84675357D01*
X101794136Y-84530625D01*
X101810505Y-84500000D01*
X107419628Y-84500000D01*
X107439085Y-84747228D01*
X107496976Y-84988362D01*
X107591877Y-85217474D01*
X107721450Y-85428916D01*
X107721453Y-85428921D01*
X107744463Y-85455862D01*
X107882508Y-85617492D01*
X107979113Y-85700000D01*
X108071078Y-85778546D01*
X108071083Y-85778549D01*
X108282525Y-85908122D01*
X108511637Y-86003023D01*
X108698264Y-86047828D01*
X108752775Y-86060915D01*
X109000000Y-86080372D01*
X109247225Y-86060915D01*
X109488362Y-86003023D01*
X109717474Y-85908122D01*
X109928919Y-85778548D01*
X110117492Y-85617492D01*
X110278548Y-85428919D01*
X110408122Y-85217474D01*
X110503023Y-84988362D01*
X110560915Y-84747225D01*
X110580372Y-84500000D01*
X110560915Y-84252775D01*
X110503023Y-84011638D01*
X110498203Y-84000000D01*
X110408122Y-83782525D01*
X110278549Y-83571083D01*
X110278546Y-83571078D01*
X110191681Y-83469373D01*
X110117492Y-83382508D01*
X109998200Y-83280623D01*
X109928921Y-83221453D01*
X109928916Y-83221450D01*
X109717474Y-83091877D01*
X109488362Y-82996976D01*
X109247228Y-82939085D01*
X109061806Y-82924492D01*
X109000000Y-82919628D01*
X108999999Y-82919628D01*
X108752771Y-82939085D01*
X108511637Y-82996976D01*
X108282525Y-83091877D01*
X108071083Y-83221450D01*
X108071078Y-83221453D01*
X107882508Y-83382508D01*
X107721453Y-83571078D01*
X107721450Y-83571083D01*
X107591877Y-83782525D01*
X107496976Y-84011637D01*
X107439085Y-84252771D01*
X107419628Y-84500000D01*
X101810505Y-84500000D01*
X101882396Y-84365501D01*
X101936747Y-84186331D01*
X101955099Y-84000000D01*
X101936747Y-83813669D01*
X101882396Y-83634499D01*
X101834097Y-83544137D01*
X101794137Y-83469376D01*
X101794135Y-83469373D01*
X101675357Y-83324642D01*
X101530626Y-83205864D01*
X101530623Y-83205862D01*
X101365502Y-83117604D01*
X101186333Y-83063253D01*
X101186331Y-83063252D01*
X101000000Y-83044901D01*
X100813668Y-83063252D01*
X100813666Y-83063253D01*
X100634497Y-83117604D01*
X100469376Y-83205862D01*
X100469373Y-83205864D01*
X100324642Y-83324642D01*
X100220353Y-83451719D01*
X100162607Y-83491053D01*
X100092762Y-83492924D01*
X100032994Y-83456736D01*
X100002278Y-83393980D01*
X100000500Y-83373054D01*
X100000500Y-82750000D01*
X171044901Y-82750000D01*
X171063252Y-82936331D01*
X171063253Y-82936333D01*
X171117604Y-83115502D01*
X171205862Y-83280623D01*
X171205864Y-83280626D01*
X171324642Y-83425357D01*
X171469373Y-83544135D01*
X171469376Y-83544137D01*
X171634497Y-83632395D01*
X171634499Y-83632396D01*
X171813666Y-83686746D01*
X171813668Y-83686747D01*
X171830374Y-83688392D01*
X172000000Y-83705099D01*
X172186331Y-83686747D01*
X172365501Y-83632396D01*
X172530625Y-83544136D01*
X172675357Y-83425357D01*
X172794136Y-83280625D01*
X172882396Y-83115501D01*
X172936747Y-82936331D01*
X172955099Y-82750000D01*
X174044901Y-82750000D01*
X174063252Y-82936331D01*
X174063253Y-82936333D01*
X174117604Y-83115502D01*
X174205862Y-83280623D01*
X174205864Y-83280626D01*
X174324642Y-83425357D01*
X174469373Y-83544135D01*
X174469376Y-83544137D01*
X174634497Y-83632395D01*
X174634499Y-83632396D01*
X174813666Y-83686746D01*
X174813668Y-83686747D01*
X174830374Y-83688392D01*
X175000000Y-83705099D01*
X175186331Y-83686747D01*
X175365501Y-83632396D01*
X175530625Y-83544136D01*
X175675357Y-83425357D01*
X175794136Y-83280625D01*
X175882396Y-83115501D01*
X175936747Y-82936331D01*
X175955099Y-82750000D01*
X175936747Y-82563669D01*
X175882396Y-82384499D01*
X175800150Y-82230626D01*
X175794137Y-82219376D01*
X175794135Y-82219373D01*
X175675357Y-82074642D01*
X175530626Y-81955864D01*
X175530623Y-81955862D01*
X175365502Y-81867604D01*
X175186333Y-81813253D01*
X175186331Y-81813252D01*
X175000000Y-81794901D01*
X174813668Y-81813252D01*
X174813666Y-81813253D01*
X174634497Y-81867604D01*
X174469376Y-81955862D01*
X174469373Y-81955864D01*
X174324642Y-82074642D01*
X174205864Y-82219373D01*
X174205862Y-82219376D01*
X174117604Y-82384497D01*
X174063253Y-82563666D01*
X174063252Y-82563668D01*
X174044901Y-82750000D01*
X172955099Y-82750000D01*
X172936747Y-82563669D01*
X172882396Y-82384499D01*
X172800150Y-82230626D01*
X172794137Y-82219376D01*
X172794135Y-82219373D01*
X172675357Y-82074642D01*
X172530626Y-81955864D01*
X172530623Y-81955862D01*
X172365502Y-81867604D01*
X172186333Y-81813253D01*
X172186331Y-81813252D01*
X172000000Y-81794901D01*
X171813668Y-81813252D01*
X171813666Y-81813253D01*
X171634497Y-81867604D01*
X171469376Y-81955862D01*
X171469373Y-81955864D01*
X171324642Y-82074642D01*
X171205864Y-82219373D01*
X171205862Y-82219376D01*
X171117604Y-82384497D01*
X171063253Y-82563666D01*
X171063252Y-82563668D01*
X171044901Y-82750000D01*
X100000500Y-82750000D01*
X100000500Y-81700000D01*
X130544901Y-81700000D01*
X130563252Y-81886331D01*
X130563253Y-81886333D01*
X130617604Y-82065502D01*
X130705862Y-82230623D01*
X130705864Y-82230626D01*
X130824642Y-82375357D01*
X130969373Y-82494135D01*
X130969376Y-82494137D01*
X131099457Y-82563666D01*
X131134499Y-82582396D01*
X131313666Y-82636746D01*
X131313668Y-82636747D01*
X131330374Y-82638392D01*
X131500000Y-82655099D01*
X131686331Y-82636747D01*
X131865501Y-82582396D01*
X132030625Y-82494136D01*
X132175357Y-82375357D01*
X132294136Y-82230625D01*
X132382396Y-82065501D01*
X132436747Y-81886331D01*
X132455099Y-81700000D01*
X132436747Y-81513669D01*
X132382396Y-81334499D01*
X132294136Y-81169375D01*
X132294135Y-81169373D01*
X132175357Y-81024642D01*
X132030626Y-80905864D01*
X132030623Y-80905862D01*
X131865502Y-80817604D01*
X131686333Y-80763253D01*
X131686331Y-80763252D01*
X131500000Y-80744901D01*
X131313668Y-80763252D01*
X131313666Y-80763253D01*
X131134497Y-80817604D01*
X130969376Y-80905862D01*
X130969373Y-80905864D01*
X130824642Y-81024642D01*
X130705864Y-81169373D01*
X130705862Y-81169376D01*
X130617604Y-81334497D01*
X130563253Y-81513666D01*
X130563252Y-81513668D01*
X130544901Y-81700000D01*
X100000500Y-81700000D01*
X100000500Y-80626945D01*
X100020185Y-80559906D01*
X100072989Y-80514151D01*
X100142147Y-80504207D01*
X100205703Y-80533232D01*
X100220353Y-80548280D01*
X100324642Y-80675357D01*
X100469373Y-80794135D01*
X100469376Y-80794137D01*
X100634497Y-80882395D01*
X100634499Y-80882396D01*
X100719306Y-80908122D01*
X100813666Y-80936746D01*
X100813668Y-80936747D01*
X100830374Y-80938392D01*
X101000000Y-80955099D01*
X101186331Y-80936747D01*
X101365501Y-80882396D01*
X101530625Y-80794136D01*
X101675357Y-80675357D01*
X101794136Y-80530625D01*
X101882396Y-80365501D01*
X101936747Y-80186331D01*
X101955099Y-80000000D01*
X101936747Y-79813669D01*
X101882396Y-79634499D01*
X101882395Y-79634497D01*
X101810505Y-79499999D01*
X107419628Y-79499999D01*
X107439085Y-79747228D01*
X107496976Y-79988362D01*
X107591877Y-80217474D01*
X107721450Y-80428916D01*
X107721453Y-80428921D01*
X107785754Y-80504207D01*
X107882508Y-80617492D01*
X108003213Y-80720583D01*
X108071078Y-80778546D01*
X108071083Y-80778549D01*
X108282525Y-80908122D01*
X108511637Y-81003023D01*
X108718567Y-81052702D01*
X108752775Y-81060915D01*
X109000000Y-81080372D01*
X109247225Y-81060915D01*
X109488362Y-81003023D01*
X109717474Y-80908122D01*
X109928919Y-80778548D01*
X110117492Y-80617492D01*
X110278548Y-80428919D01*
X110408122Y-80217474D01*
X110498202Y-80000000D01*
X134794901Y-80000000D01*
X134813252Y-80186331D01*
X134813253Y-80186333D01*
X134867604Y-80365502D01*
X134955862Y-80530623D01*
X134955864Y-80530626D01*
X135074642Y-80675357D01*
X135219373Y-80794135D01*
X135219376Y-80794137D01*
X135384497Y-80882395D01*
X135384499Y-80882396D01*
X135469306Y-80908122D01*
X135563666Y-80936746D01*
X135563668Y-80936747D01*
X135580374Y-80938392D01*
X135750000Y-80955099D01*
X135936331Y-80936747D01*
X136115501Y-80882396D01*
X136280625Y-80794136D01*
X136425357Y-80675357D01*
X136544136Y-80530625D01*
X136632396Y-80365501D01*
X136686747Y-80186331D01*
X136705099Y-80000000D01*
X136686747Y-79813669D01*
X136632396Y-79634499D01*
X136632395Y-79634497D01*
X136544137Y-79469376D01*
X136544135Y-79469373D01*
X136425357Y-79324642D01*
X136280626Y-79205864D01*
X136280623Y-79205862D01*
X136115502Y-79117604D01*
X135936333Y-79063253D01*
X135936331Y-79063252D01*
X135750000Y-79044901D01*
X135563668Y-79063252D01*
X135563666Y-79063253D01*
X135384497Y-79117604D01*
X135219376Y-79205862D01*
X135219373Y-79205864D01*
X135074642Y-79324642D01*
X134955864Y-79469373D01*
X134955862Y-79469376D01*
X134867604Y-79634497D01*
X134813253Y-79813666D01*
X134813252Y-79813668D01*
X134794901Y-80000000D01*
X110498202Y-80000000D01*
X110503023Y-79988362D01*
X110560915Y-79747225D01*
X110580372Y-79500000D01*
X110560915Y-79252775D01*
X110515415Y-79063253D01*
X110503023Y-79011637D01*
X110408122Y-78782525D01*
X110278549Y-78571083D01*
X110278546Y-78571078D01*
X110220583Y-78503213D01*
X110117492Y-78382508D01*
X110014399Y-78294458D01*
X109928921Y-78221453D01*
X109928916Y-78221450D01*
X109717474Y-78091877D01*
X109488362Y-77996976D01*
X109247228Y-77939085D01*
X109061806Y-77924492D01*
X109000000Y-77919628D01*
X108999999Y-77919628D01*
X108752771Y-77939085D01*
X108511637Y-77996976D01*
X108282525Y-78091877D01*
X108071083Y-78221450D01*
X108071078Y-78221453D01*
X107882508Y-78382508D01*
X107721453Y-78571078D01*
X107721450Y-78571083D01*
X107591877Y-78782525D01*
X107496976Y-79011637D01*
X107439085Y-79252771D01*
X107419628Y-79499999D01*
X101810505Y-79499999D01*
X101794137Y-79469376D01*
X101794135Y-79469373D01*
X101675357Y-79324642D01*
X101530626Y-79205864D01*
X101530623Y-79205862D01*
X101365502Y-79117604D01*
X101186333Y-79063253D01*
X101186331Y-79063252D01*
X101000000Y-79044901D01*
X100813668Y-79063252D01*
X100813666Y-79063253D01*
X100634497Y-79117604D01*
X100469376Y-79205862D01*
X100469373Y-79205864D01*
X100324642Y-79324642D01*
X100220353Y-79451719D01*
X100162607Y-79491053D01*
X100092762Y-79492924D01*
X100032994Y-79456736D01*
X100002278Y-79393980D01*
X100000500Y-79373054D01*
X100000500Y-77249999D01*
X133294901Y-77249999D01*
X133313252Y-77436331D01*
X133313253Y-77436333D01*
X133367604Y-77615502D01*
X133455862Y-77780623D01*
X133455864Y-77780626D01*
X133574642Y-77925357D01*
X133719373Y-78044135D01*
X133719376Y-78044137D01*
X133884497Y-78132395D01*
X133884499Y-78132396D01*
X134063666Y-78186746D01*
X134063668Y-78186747D01*
X134080374Y-78188392D01*
X134250000Y-78205099D01*
X134436331Y-78186747D01*
X134615501Y-78132396D01*
X134780625Y-78044136D01*
X134925357Y-77925357D01*
X135029372Y-77798614D01*
X135087116Y-77759281D01*
X135156961Y-77757410D01*
X135203890Y-77781428D01*
X135219372Y-77794134D01*
X135219376Y-77794137D01*
X135384497Y-77882395D01*
X135384499Y-77882396D01*
X135563666Y-77936746D01*
X135563668Y-77936747D01*
X135580374Y-77938392D01*
X135750000Y-77955099D01*
X135936331Y-77936747D01*
X136115501Y-77882396D01*
X136280625Y-77794136D01*
X136425357Y-77675357D01*
X136544136Y-77530625D01*
X136632396Y-77365501D01*
X136686747Y-77186331D01*
X136705099Y-77000000D01*
X136686747Y-76813669D01*
X136632396Y-76634499D01*
X136592548Y-76559948D01*
X136544137Y-76469376D01*
X136544135Y-76469373D01*
X136425357Y-76324642D01*
X136280626Y-76205864D01*
X136280623Y-76205862D01*
X136115502Y-76117604D01*
X135936333Y-76063253D01*
X135936331Y-76063252D01*
X135750000Y-76044901D01*
X135563668Y-76063252D01*
X135563666Y-76063253D01*
X135384497Y-76117604D01*
X135219376Y-76205862D01*
X135219373Y-76205864D01*
X135074642Y-76324642D01*
X134970628Y-76451384D01*
X134912882Y-76490718D01*
X134843037Y-76492589D01*
X134796110Y-76468572D01*
X134780626Y-76455864D01*
X134780623Y-76455862D01*
X134615502Y-76367604D01*
X134436333Y-76313253D01*
X134436331Y-76313252D01*
X134250000Y-76294901D01*
X134063668Y-76313252D01*
X134063666Y-76313253D01*
X133884497Y-76367604D01*
X133719376Y-76455862D01*
X133719373Y-76455864D01*
X133574642Y-76574642D01*
X133455864Y-76719373D01*
X133455862Y-76719376D01*
X133367604Y-76884497D01*
X133313253Y-77063666D01*
X133313252Y-77063668D01*
X133294901Y-77249999D01*
X100000500Y-77249999D01*
X100000500Y-76626945D01*
X100020185Y-76559906D01*
X100072989Y-76514151D01*
X100142147Y-76504207D01*
X100205703Y-76533232D01*
X100220353Y-76548280D01*
X100324642Y-76675357D01*
X100469373Y-76794135D01*
X100469376Y-76794137D01*
X100634497Y-76882395D01*
X100634499Y-76882396D01*
X100813666Y-76936746D01*
X100813668Y-76936747D01*
X100830374Y-76938392D01*
X101000000Y-76955099D01*
X101186331Y-76936747D01*
X101365501Y-76882396D01*
X101530625Y-76794136D01*
X101675357Y-76675357D01*
X101794136Y-76530625D01*
X101882396Y-76365501D01*
X101936747Y-76186331D01*
X101955099Y-76000000D01*
X101936747Y-75813669D01*
X101882396Y-75634499D01*
X101808256Y-75495792D01*
X101794137Y-75469376D01*
X101794135Y-75469373D01*
X101675357Y-75324642D01*
X101530626Y-75205864D01*
X101530623Y-75205862D01*
X101365502Y-75117604D01*
X101186333Y-75063253D01*
X101186331Y-75063252D01*
X101000000Y-75044901D01*
X100813668Y-75063252D01*
X100813666Y-75063253D01*
X100634497Y-75117604D01*
X100469376Y-75205862D01*
X100469373Y-75205864D01*
X100324642Y-75324642D01*
X100220353Y-75451719D01*
X100162607Y-75491053D01*
X100092762Y-75492924D01*
X100032994Y-75456736D01*
X100002278Y-75393980D01*
X100000500Y-75373054D01*
X100000500Y-74499999D01*
X107419628Y-74499999D01*
X107439085Y-74747228D01*
X107496976Y-74988362D01*
X107591877Y-75217474D01*
X107721450Y-75428916D01*
X107721453Y-75428921D01*
X107756005Y-75469376D01*
X107882508Y-75617492D01*
X108003213Y-75720583D01*
X108071078Y-75778546D01*
X108071083Y-75778549D01*
X108282525Y-75908122D01*
X108511637Y-76003023D01*
X108686072Y-76044901D01*
X108752775Y-76060915D01*
X109000000Y-76080372D01*
X109247225Y-76060915D01*
X109488362Y-76003023D01*
X109717474Y-75908122D01*
X109928919Y-75778548D01*
X110117492Y-75617492D01*
X110278548Y-75428919D01*
X110408122Y-75217474D01*
X110503023Y-74988362D01*
X110560915Y-74747225D01*
X110580372Y-74500000D01*
X110580372Y-74499999D01*
X174419628Y-74499999D01*
X174439085Y-74747228D01*
X174496976Y-74988362D01*
X174591877Y-75217474D01*
X174721450Y-75428916D01*
X174721453Y-75428921D01*
X174756005Y-75469376D01*
X174882508Y-75617492D01*
X175003213Y-75720583D01*
X175071078Y-75778546D01*
X175071083Y-75778549D01*
X175282525Y-75908122D01*
X175511637Y-76003023D01*
X175686072Y-76044901D01*
X175752775Y-76060915D01*
X176000000Y-76080372D01*
X176247225Y-76060915D01*
X176488362Y-76003023D01*
X176717474Y-75908122D01*
X176928919Y-75778548D01*
X177117492Y-75617492D01*
X177278548Y-75428919D01*
X177408122Y-75217474D01*
X177503023Y-74988362D01*
X177560915Y-74747225D01*
X177580372Y-74500000D01*
X177560915Y-74252775D01*
X177503023Y-74011638D01*
X177408122Y-73782526D01*
X177408122Y-73782525D01*
X177278549Y-73571083D01*
X177278546Y-73571078D01*
X177220583Y-73503213D01*
X177117492Y-73382508D01*
X177014399Y-73294458D01*
X176928921Y-73221453D01*
X176928916Y-73221450D01*
X176717474Y-73091877D01*
X176488362Y-72996976D01*
X176247228Y-72939085D01*
X176000000Y-72919628D01*
X175752771Y-72939085D01*
X175511637Y-72996976D01*
X175282525Y-73091877D01*
X175071083Y-73221450D01*
X175071078Y-73221453D01*
X174882508Y-73382508D01*
X174721453Y-73571078D01*
X174721450Y-73571083D01*
X174591877Y-73782525D01*
X174496976Y-74011637D01*
X174439085Y-74252771D01*
X174419628Y-74499999D01*
X110580372Y-74499999D01*
X110560915Y-74252775D01*
X110503023Y-74011638D01*
X110408122Y-73782526D01*
X110408122Y-73782525D01*
X110278549Y-73571083D01*
X110278546Y-73571078D01*
X110220583Y-73503213D01*
X110117492Y-73382508D01*
X110014399Y-73294458D01*
X109928921Y-73221453D01*
X109928916Y-73221450D01*
X109717474Y-73091877D01*
X109488362Y-72996976D01*
X109247228Y-72939085D01*
X109061806Y-72924492D01*
X109000000Y-72919628D01*
X108999999Y-72919628D01*
X108752771Y-72939085D01*
X108511637Y-72996976D01*
X108282525Y-73091877D01*
X108071083Y-73221450D01*
X108071078Y-73221453D01*
X107882508Y-73382508D01*
X107721453Y-73571078D01*
X107721450Y-73571083D01*
X107591877Y-73782525D01*
X107496976Y-74011637D01*
X107439085Y-74252771D01*
X107419628Y-74499999D01*
X100000500Y-74499999D01*
X100000500Y-72626945D01*
X100020185Y-72559906D01*
X100072989Y-72514151D01*
X100142147Y-72504207D01*
X100205703Y-72533232D01*
X100220353Y-72548280D01*
X100324642Y-72675357D01*
X100469373Y-72794135D01*
X100469376Y-72794137D01*
X100634497Y-72882395D01*
X100634499Y-72882396D01*
X100757236Y-72919628D01*
X100813666Y-72936746D01*
X100813668Y-72936747D01*
X100830374Y-72938392D01*
X101000000Y-72955099D01*
X101186331Y-72936747D01*
X101365501Y-72882396D01*
X101530625Y-72794136D01*
X101675357Y-72675357D01*
X101794136Y-72530625D01*
X101882396Y-72365501D01*
X101936747Y-72186331D01*
X101955099Y-72000000D01*
X101936747Y-71813669D01*
X101882396Y-71634499D01*
X101808256Y-71495792D01*
X101794137Y-71469376D01*
X101794135Y-71469373D01*
X101675357Y-71324642D01*
X101530626Y-71205864D01*
X101530623Y-71205862D01*
X101365502Y-71117604D01*
X101186333Y-71063253D01*
X101186331Y-71063252D01*
X101000000Y-71044901D01*
X100813668Y-71063252D01*
X100813666Y-71063253D01*
X100634497Y-71117604D01*
X100469376Y-71205862D01*
X100469373Y-71205864D01*
X100324642Y-71324642D01*
X100220353Y-71451719D01*
X100162607Y-71491053D01*
X100092762Y-71492924D01*
X100032994Y-71456736D01*
X100002278Y-71393980D01*
X100000500Y-71373054D01*
X100000500Y-69500000D01*
X107419628Y-69500000D01*
X107439085Y-69747228D01*
X107496976Y-69988362D01*
X107591877Y-70217474D01*
X107721450Y-70428916D01*
X107721453Y-70428921D01*
X107794458Y-70514399D01*
X107882508Y-70617492D01*
X108003213Y-70720583D01*
X108071078Y-70778546D01*
X108071083Y-70778549D01*
X108282525Y-70908122D01*
X108511637Y-71003023D01*
X108686072Y-71044901D01*
X108752775Y-71060915D01*
X109000000Y-71080372D01*
X109247225Y-71060915D01*
X109488362Y-71003023D01*
X109717474Y-70908122D01*
X109928919Y-70778548D01*
X110117492Y-70617492D01*
X110278548Y-70428919D01*
X110408122Y-70217474D01*
X110503023Y-69988362D01*
X110560915Y-69747225D01*
X110580372Y-69500000D01*
X174419628Y-69500000D01*
X174439085Y-69747228D01*
X174496976Y-69988362D01*
X174591877Y-70217474D01*
X174721450Y-70428916D01*
X174721453Y-70428921D01*
X174794458Y-70514399D01*
X174882508Y-70617492D01*
X175003213Y-70720583D01*
X175071078Y-70778546D01*
X175071083Y-70778549D01*
X175282525Y-70908122D01*
X175511637Y-71003023D01*
X175686072Y-71044901D01*
X175752775Y-71060915D01*
X176000000Y-71080372D01*
X176247225Y-71060915D01*
X176488362Y-71003023D01*
X176717474Y-70908122D01*
X176928919Y-70778548D01*
X177117492Y-70617492D01*
X177278548Y-70428919D01*
X177408122Y-70217474D01*
X177503023Y-69988362D01*
X177560915Y-69747225D01*
X177580372Y-69500000D01*
X177560915Y-69252775D01*
X177503023Y-69011638D01*
X177479604Y-68955098D01*
X177408122Y-68782525D01*
X177278549Y-68571083D01*
X177278546Y-68571078D01*
X177220583Y-68503213D01*
X177117492Y-68382508D01*
X177014399Y-68294458D01*
X176928921Y-68221453D01*
X176928916Y-68221450D01*
X176717474Y-68091877D01*
X176488362Y-67996976D01*
X176247228Y-67939085D01*
X176000000Y-67919628D01*
X175752771Y-67939085D01*
X175511637Y-67996976D01*
X175282525Y-68091877D01*
X175071083Y-68221450D01*
X175071078Y-68221453D01*
X174882508Y-68382508D01*
X174721453Y-68571078D01*
X174721450Y-68571083D01*
X174591877Y-68782525D01*
X174496976Y-69011637D01*
X174439085Y-69252771D01*
X174419628Y-69500000D01*
X110580372Y-69500000D01*
X110560915Y-69252775D01*
X110503023Y-69011638D01*
X110479604Y-68955098D01*
X110408122Y-68782525D01*
X110278549Y-68571083D01*
X110278546Y-68571078D01*
X110220583Y-68503213D01*
X110117492Y-68382508D01*
X110014399Y-68294458D01*
X109928921Y-68221453D01*
X109928916Y-68221450D01*
X109717474Y-68091877D01*
X109488362Y-67996976D01*
X109247228Y-67939085D01*
X109000000Y-67919628D01*
X108752771Y-67939085D01*
X108511637Y-67996976D01*
X108282525Y-68091877D01*
X108071083Y-68221450D01*
X108071078Y-68221453D01*
X107882508Y-68382508D01*
X107721453Y-68571078D01*
X107721450Y-68571083D01*
X107591877Y-68782525D01*
X107496976Y-69011637D01*
X107439085Y-69252771D01*
X107419628Y-69500000D01*
X100000500Y-69500000D01*
X100000500Y-68626945D01*
X100020185Y-68559906D01*
X100072989Y-68514151D01*
X100142147Y-68504207D01*
X100205703Y-68533232D01*
X100220353Y-68548280D01*
X100324642Y-68675357D01*
X100469373Y-68794135D01*
X100469376Y-68794137D01*
X100634497Y-68882395D01*
X100634499Y-68882396D01*
X100813666Y-68936746D01*
X100813668Y-68936747D01*
X100830374Y-68938392D01*
X101000000Y-68955099D01*
X101186331Y-68936747D01*
X101365501Y-68882396D01*
X101530625Y-68794136D01*
X101675357Y-68675357D01*
X101794136Y-68530625D01*
X101882396Y-68365501D01*
X101936747Y-68186331D01*
X101955099Y-68000000D01*
X101936747Y-67813669D01*
X101882396Y-67634499D01*
X101808256Y-67495792D01*
X101794137Y-67469376D01*
X101794135Y-67469373D01*
X101675357Y-67324642D01*
X101530626Y-67205864D01*
X101530623Y-67205862D01*
X101365502Y-67117604D01*
X101186333Y-67063253D01*
X101186331Y-67063252D01*
X101000000Y-67044901D01*
X100813668Y-67063252D01*
X100813666Y-67063253D01*
X100634497Y-67117604D01*
X100469376Y-67205862D01*
X100469373Y-67205864D01*
X100324642Y-67324642D01*
X100220353Y-67451719D01*
X100162607Y-67491053D01*
X100092762Y-67492924D01*
X100032994Y-67456736D01*
X100002278Y-67393980D01*
X100000500Y-67373054D01*
X100000500Y-64626945D01*
X100020185Y-64559906D01*
X100072989Y-64514151D01*
X100142147Y-64504207D01*
X100205703Y-64533232D01*
X100220353Y-64548280D01*
X100324642Y-64675357D01*
X100469373Y-64794135D01*
X100469376Y-64794137D01*
X100602890Y-64865501D01*
X100634499Y-64882396D01*
X100813666Y-64936746D01*
X100813668Y-64936747D01*
X100830374Y-64938392D01*
X101000000Y-64955099D01*
X101186331Y-64936747D01*
X101365501Y-64882396D01*
X101530625Y-64794136D01*
X101675357Y-64675357D01*
X101794136Y-64530625D01*
X101882396Y-64365501D01*
X101936747Y-64186331D01*
X101955099Y-64000000D01*
X101936747Y-63813669D01*
X101882396Y-63634499D01*
X101882395Y-63634497D01*
X101794137Y-63469376D01*
X101794135Y-63469373D01*
X101675357Y-63324642D01*
X101530626Y-63205864D01*
X101530623Y-63205862D01*
X101365502Y-63117604D01*
X101186333Y-63063253D01*
X101186331Y-63063252D01*
X101000000Y-63044901D01*
X100813668Y-63063252D01*
X100813666Y-63063253D01*
X100634497Y-63117604D01*
X100469376Y-63205862D01*
X100469373Y-63205864D01*
X100324642Y-63324642D01*
X100220353Y-63451719D01*
X100162607Y-63491053D01*
X100092762Y-63492924D01*
X100032994Y-63456736D01*
X100002278Y-63393980D01*
X100000500Y-63373054D01*
X100000500Y-60626945D01*
X100020185Y-60559906D01*
X100072989Y-60514151D01*
X100142147Y-60504207D01*
X100205703Y-60533232D01*
X100220353Y-60548280D01*
X100324642Y-60675357D01*
X100469373Y-60794135D01*
X100469376Y-60794137D01*
X100634497Y-60882395D01*
X100634499Y-60882396D01*
X100813666Y-60936746D01*
X100813668Y-60936747D01*
X100830374Y-60938392D01*
X101000000Y-60955099D01*
X101186331Y-60936747D01*
X101365501Y-60882396D01*
X101530625Y-60794136D01*
X101675357Y-60675357D01*
X101794136Y-60530625D01*
X101882396Y-60365501D01*
X101936747Y-60186331D01*
X101953842Y-60012759D01*
X122744451Y-60012759D01*
X122764616Y-60281856D01*
X122824664Y-60544943D01*
X122824666Y-60544950D01*
X122875847Y-60675357D01*
X122923257Y-60796153D01*
X123058185Y-61029857D01*
X123182969Y-61186331D01*
X123226442Y-61240844D01*
X123410511Y-61411634D01*
X123424259Y-61424390D01*
X123647226Y-61576406D01*
X123890359Y-61693493D01*
X124148228Y-61773035D01*
X124148229Y-61773035D01*
X124148232Y-61773036D01*
X124415063Y-61813254D01*
X124415068Y-61813254D01*
X124415071Y-61813255D01*
X124415072Y-61813255D01*
X124684928Y-61813255D01*
X124684929Y-61813255D01*
X124684936Y-61813254D01*
X124951767Y-61773036D01*
X124951768Y-61773035D01*
X124951772Y-61773035D01*
X125209641Y-61693493D01*
X125452775Y-61576406D01*
X125675741Y-61424390D01*
X125873561Y-61240840D01*
X126041815Y-61029857D01*
X126176743Y-60796153D01*
X126275334Y-60544950D01*
X126335383Y-60281858D01*
X126355549Y-60012755D01*
X126354593Y-60000004D01*
X142194451Y-60000004D01*
X142214616Y-60269101D01*
X142274664Y-60532188D01*
X142274666Y-60532195D01*
X142373256Y-60783396D01*
X142373258Y-60783400D01*
X142379457Y-60794137D01*
X142508185Y-61017102D01*
X142643141Y-61186331D01*
X142676442Y-61228089D01*
X142824538Y-61365501D01*
X142874259Y-61411635D01*
X143097226Y-61563651D01*
X143340359Y-61680738D01*
X143598228Y-61760280D01*
X143598229Y-61760280D01*
X143598232Y-61760281D01*
X143865063Y-61800499D01*
X143865068Y-61800499D01*
X143865071Y-61800500D01*
X143865072Y-61800500D01*
X144134928Y-61800500D01*
X144134929Y-61800500D01*
X144177145Y-61794137D01*
X144401767Y-61760281D01*
X144401768Y-61760280D01*
X144401772Y-61760280D01*
X144659641Y-61680738D01*
X144902775Y-61563651D01*
X145125741Y-61411635D01*
X145309810Y-61240844D01*
X145323557Y-61228089D01*
X145323557Y-61228087D01*
X145323561Y-61228085D01*
X145491815Y-61017102D01*
X145501689Y-61000000D01*
X171044901Y-61000000D01*
X171063252Y-61186331D01*
X171063253Y-61186333D01*
X171117604Y-61365502D01*
X171205862Y-61530623D01*
X171205864Y-61530626D01*
X171324642Y-61675357D01*
X171469373Y-61794135D01*
X171469376Y-61794137D01*
X171505144Y-61813255D01*
X171634499Y-61882396D01*
X171813666Y-61936746D01*
X171813668Y-61936747D01*
X171830374Y-61938392D01*
X172000000Y-61955099D01*
X172186331Y-61936747D01*
X172365501Y-61882396D01*
X172530625Y-61794136D01*
X172675357Y-61675357D01*
X172794136Y-61530625D01*
X172882396Y-61365501D01*
X172936747Y-61186331D01*
X172955099Y-61000000D01*
X174044901Y-61000000D01*
X174063252Y-61186331D01*
X174063253Y-61186333D01*
X174117604Y-61365502D01*
X174205862Y-61530623D01*
X174205864Y-61530626D01*
X174324642Y-61675357D01*
X174469373Y-61794135D01*
X174469376Y-61794137D01*
X174505144Y-61813255D01*
X174634499Y-61882396D01*
X174813666Y-61936746D01*
X174813668Y-61936747D01*
X174830374Y-61938392D01*
X175000000Y-61955099D01*
X175186331Y-61936747D01*
X175365501Y-61882396D01*
X175530625Y-61794136D01*
X175675357Y-61675357D01*
X175794136Y-61530625D01*
X175882396Y-61365501D01*
X175936747Y-61186331D01*
X175955099Y-61000000D01*
X175936747Y-60813669D01*
X175882396Y-60634499D01*
X175867173Y-60606018D01*
X175794137Y-60469376D01*
X175794135Y-60469373D01*
X175675357Y-60324642D01*
X175530626Y-60205864D01*
X175530623Y-60205862D01*
X175365502Y-60117604D01*
X175186333Y-60063253D01*
X175186331Y-60063252D01*
X175000000Y-60044901D01*
X174813668Y-60063252D01*
X174813666Y-60063253D01*
X174634497Y-60117604D01*
X174469376Y-60205862D01*
X174469373Y-60205864D01*
X174324642Y-60324642D01*
X174205864Y-60469373D01*
X174205862Y-60469376D01*
X174117604Y-60634497D01*
X174063253Y-60813666D01*
X174063252Y-60813668D01*
X174044901Y-61000000D01*
X172955099Y-61000000D01*
X172936747Y-60813669D01*
X172882396Y-60634499D01*
X172867173Y-60606018D01*
X172794137Y-60469376D01*
X172794135Y-60469373D01*
X172675357Y-60324642D01*
X172530626Y-60205864D01*
X172530623Y-60205862D01*
X172365502Y-60117604D01*
X172186333Y-60063253D01*
X172186331Y-60063252D01*
X172000000Y-60044901D01*
X171813668Y-60063252D01*
X171813666Y-60063253D01*
X171634497Y-60117604D01*
X171469376Y-60205862D01*
X171469373Y-60205864D01*
X171324642Y-60324642D01*
X171205864Y-60469373D01*
X171205862Y-60469376D01*
X171117604Y-60634497D01*
X171063253Y-60813666D01*
X171063252Y-60813668D01*
X171044901Y-61000000D01*
X145501689Y-61000000D01*
X145626743Y-60783398D01*
X145725334Y-60532195D01*
X145785383Y-60269103D01*
X145805549Y-60000000D01*
X145785383Y-59730897D01*
X145725334Y-59467805D01*
X145626743Y-59216602D01*
X145491815Y-58982898D01*
X145323561Y-58771915D01*
X145323560Y-58771914D01*
X145323557Y-58771910D01*
X145125741Y-58588365D01*
X145096610Y-58568504D01*
X144902775Y-58436349D01*
X144902769Y-58436346D01*
X144902768Y-58436345D01*
X144902767Y-58436344D01*
X144659643Y-58319263D01*
X144659645Y-58319263D01*
X144401773Y-58239720D01*
X144401767Y-58239718D01*
X144134936Y-58199500D01*
X144134929Y-58199500D01*
X143865071Y-58199500D01*
X143865063Y-58199500D01*
X143598232Y-58239718D01*
X143598226Y-58239720D01*
X143340358Y-58319262D01*
X143097230Y-58436346D01*
X142874258Y-58588365D01*
X142676442Y-58771910D01*
X142508185Y-58982898D01*
X142373258Y-59216599D01*
X142373256Y-59216603D01*
X142274666Y-59467804D01*
X142274664Y-59467811D01*
X142214616Y-59730898D01*
X142194451Y-59999995D01*
X142194451Y-60000004D01*
X126354593Y-60000004D01*
X126335383Y-59743653D01*
X126332472Y-59730897D01*
X126275334Y-59480560D01*
X126176743Y-59229357D01*
X126041815Y-58995653D01*
X125873561Y-58784670D01*
X125873560Y-58784669D01*
X125873557Y-58784665D01*
X125675741Y-58601120D01*
X125627914Y-58568512D01*
X125452775Y-58449104D01*
X125452769Y-58449101D01*
X125452768Y-58449100D01*
X125452767Y-58449099D01*
X125209643Y-58332018D01*
X125209645Y-58332018D01*
X124951773Y-58252475D01*
X124951767Y-58252473D01*
X124684936Y-58212255D01*
X124684929Y-58212255D01*
X124415071Y-58212255D01*
X124415063Y-58212255D01*
X124148232Y-58252473D01*
X124148226Y-58252475D01*
X123890358Y-58332017D01*
X123647230Y-58449101D01*
X123424258Y-58601120D01*
X123226442Y-58784665D01*
X123058185Y-58995653D01*
X122923258Y-59229354D01*
X122923256Y-59229358D01*
X122824666Y-59480559D01*
X122824664Y-59480566D01*
X122764616Y-59743653D01*
X122744451Y-60012750D01*
X122744451Y-60012759D01*
X101953842Y-60012759D01*
X101955099Y-60000000D01*
X101936747Y-59813669D01*
X101882396Y-59634499D01*
X101808256Y-59495792D01*
X101794137Y-59469376D01*
X101794135Y-59469373D01*
X101675357Y-59324642D01*
X101530626Y-59205864D01*
X101530623Y-59205862D01*
X101365502Y-59117604D01*
X101186333Y-59063253D01*
X101186331Y-59063252D01*
X101000000Y-59044901D01*
X100813668Y-59063252D01*
X100813666Y-59063253D01*
X100634497Y-59117604D01*
X100469376Y-59205862D01*
X100469373Y-59205864D01*
X100324642Y-59324642D01*
X100220353Y-59451719D01*
X100162607Y-59491053D01*
X100092762Y-59492924D01*
X100032994Y-59456736D01*
X100002278Y-59393980D01*
X100000500Y-59373054D01*
X100000500Y-55000000D01*
X101194616Y-55000000D01*
X101214139Y-55384983D01*
X101272511Y-55766013D01*
X101369136Y-56139199D01*
X101369136Y-56139200D01*
X101503009Y-56500666D01*
X101503015Y-56500679D01*
X101672774Y-56846759D01*
X101672775Y-56846760D01*
X101876680Y-57173895D01*
X102112634Y-57478722D01*
X102378215Y-57758114D01*
X102378216Y-57758115D01*
X102670699Y-58009203D01*
X102670702Y-58009205D01*
X102987089Y-58229417D01*
X103324131Y-58416491D01*
X103324135Y-58416493D01*
X103400119Y-58449100D01*
X103678370Y-58568507D01*
X103678380Y-58568510D01*
X103678385Y-58568512D01*
X104046160Y-58683902D01*
X104046163Y-58683902D01*
X104046171Y-58683905D01*
X104423759Y-58761502D01*
X104730559Y-58792700D01*
X104807259Y-58800500D01*
X104807260Y-58800500D01*
X105192741Y-58800500D01*
X105256656Y-58794000D01*
X105576241Y-58761502D01*
X105953829Y-58683905D01*
X106321630Y-58568507D01*
X106675869Y-58416491D01*
X107012911Y-58229417D01*
X107329298Y-58009205D01*
X107621784Y-57758115D01*
X107887366Y-57478722D01*
X108123320Y-57173895D01*
X108327225Y-56846760D01*
X108496987Y-56500675D01*
X108630866Y-56139192D01*
X108727488Y-55766018D01*
X108785860Y-55384984D01*
X108805384Y-55000000D01*
X108805384Y-54999999D01*
X176194616Y-54999999D01*
X176214139Y-55384983D01*
X176272511Y-55766013D01*
X176369136Y-56139199D01*
X176369136Y-56139200D01*
X176503009Y-56500666D01*
X176503015Y-56500679D01*
X176672774Y-56846759D01*
X176672775Y-56846760D01*
X176876680Y-57173895D01*
X177112634Y-57478722D01*
X177378216Y-57758115D01*
X177670699Y-58009203D01*
X177670702Y-58009205D01*
X177987089Y-58229417D01*
X178324131Y-58416491D01*
X178324135Y-58416493D01*
X178400119Y-58449100D01*
X178678370Y-58568507D01*
X178678380Y-58568510D01*
X178678385Y-58568512D01*
X179046160Y-58683902D01*
X179046163Y-58683902D01*
X179046171Y-58683905D01*
X179423759Y-58761502D01*
X179730559Y-58792700D01*
X179807259Y-58800500D01*
X179807260Y-58800500D01*
X180192741Y-58800500D01*
X180256656Y-58794000D01*
X180576241Y-58761502D01*
X180953829Y-58683905D01*
X181321630Y-58568507D01*
X181675869Y-58416491D01*
X182012911Y-58229417D01*
X182329298Y-58009205D01*
X182621784Y-57758115D01*
X182887366Y-57478722D01*
X183123320Y-57173895D01*
X183327225Y-56846760D01*
X183496987Y-56500675D01*
X183630866Y-56139192D01*
X183727488Y-55766018D01*
X183785860Y-55384984D01*
X183805384Y-55000000D01*
X183785860Y-54615016D01*
X183727488Y-54233982D01*
X183630866Y-53860808D01*
X183598232Y-53772695D01*
X183496990Y-53499333D01*
X183496989Y-53499332D01*
X183496987Y-53499325D01*
X183327225Y-53153240D01*
X183123320Y-52826105D01*
X182887366Y-52521278D01*
X182621784Y-52241885D01*
X182580373Y-52206335D01*
X182329300Y-51990796D01*
X182145075Y-51862572D01*
X182012911Y-51770583D01*
X181675869Y-51583509D01*
X181675870Y-51583509D01*
X181675864Y-51583506D01*
X181321635Y-51431495D01*
X181321614Y-51431487D01*
X180953839Y-51316097D01*
X180953833Y-51316096D01*
X180953830Y-51316095D01*
X180953829Y-51316095D01*
X180576241Y-51238498D01*
X180576240Y-51238497D01*
X180576236Y-51238497D01*
X180192741Y-51199500D01*
X180192740Y-51199500D01*
X179807260Y-51199500D01*
X179807259Y-51199500D01*
X179423763Y-51238497D01*
X179046166Y-51316096D01*
X179046160Y-51316097D01*
X178678385Y-51431487D01*
X178678364Y-51431495D01*
X178324135Y-51583506D01*
X177987087Y-51770584D01*
X177740526Y-51942195D01*
X177679177Y-51962692D01*
X177657290Y-52001940D01*
X177651164Y-52007566D01*
X177378216Y-52241884D01*
X177112629Y-52521283D01*
X176876683Y-52826100D01*
X176672774Y-53153240D01*
X176503015Y-53499320D01*
X176503009Y-53499333D01*
X176369136Y-53860799D01*
X176369136Y-53860800D01*
X176272511Y-54233986D01*
X176214139Y-54615016D01*
X176194616Y-54999999D01*
X108805384Y-54999999D01*
X108785860Y-54615016D01*
X108727488Y-54233982D01*
X108630866Y-53860808D01*
X108598232Y-53772695D01*
X108496990Y-53499333D01*
X108496989Y-53499332D01*
X108496987Y-53499325D01*
X108327225Y-53153240D01*
X108123320Y-52826105D01*
X107887366Y-52521278D01*
X107621784Y-52241885D01*
X107580373Y-52206335D01*
X107329300Y-51990796D01*
X107145075Y-51862572D01*
X107012911Y-51770583D01*
X106675869Y-51583509D01*
X106675870Y-51583509D01*
X106675864Y-51583506D01*
X106321635Y-51431495D01*
X106321614Y-51431487D01*
X105953839Y-51316097D01*
X105953833Y-51316096D01*
X105953830Y-51316095D01*
X105953829Y-51316095D01*
X105576241Y-51238498D01*
X105576240Y-51238497D01*
X105576236Y-51238497D01*
X105192741Y-51199500D01*
X105192740Y-51199500D01*
X104807260Y-51199500D01*
X104807259Y-51199500D01*
X104423763Y-51238497D01*
X104046166Y-51316096D01*
X104046160Y-51316097D01*
X103678385Y-51431487D01*
X103678364Y-51431495D01*
X103324135Y-51583506D01*
X102987087Y-51770584D01*
X102670699Y-51990796D01*
X102378216Y-52241884D01*
X102112629Y-52521283D01*
X101876683Y-52826100D01*
X101672774Y-53153240D01*
X101503015Y-53499320D01*
X101503009Y-53499333D01*
X101369136Y-53860799D01*
X101369136Y-53860800D01*
X101272511Y-54233986D01*
X101214139Y-54615016D01*
X101194616Y-55000000D01*
X100000500Y-55000000D01*
X100000504Y-54999901D01*
X100009493Y-54782569D01*
X100018160Y-54584061D01*
X100018574Y-54579138D01*
X100045487Y-54363223D01*
X100071884Y-54162726D01*
X100072669Y-54158114D01*
X100117191Y-53945778D01*
X100161160Y-53747451D01*
X100162253Y-53743235D01*
X100224112Y-53535457D01*
X100285324Y-53341320D01*
X100286673Y-53337488D01*
X100365469Y-53135551D01*
X100443499Y-52947170D01*
X100445033Y-52943771D01*
X100514381Y-52801920D01*
X100540249Y-52749007D01*
X100573419Y-52685284D01*
X100634494Y-52567960D01*
X100636207Y-52564891D01*
X100662195Y-52521278D01*
X100747211Y-52378601D01*
X100856972Y-52206313D01*
X100858765Y-52203656D01*
X100984856Y-52027054D01*
X101109313Y-51864861D01*
X101111135Y-51862601D01*
X101251448Y-51696933D01*
X101390563Y-51545115D01*
X101545115Y-51390563D01*
X101696933Y-51251448D01*
X101862601Y-51111135D01*
X101864861Y-51109313D01*
X102027054Y-50984856D01*
X102203656Y-50858765D01*
X102206313Y-50856972D01*
X102378601Y-50747211D01*
X102564900Y-50636201D01*
X102567960Y-50634494D01*
X102685284Y-50573419D01*
X102749007Y-50540249D01*
X102823655Y-50503755D01*
X102943771Y-50445033D01*
X102947170Y-50443499D01*
X103135551Y-50365469D01*
X103337488Y-50286673D01*
X103341320Y-50285324D01*
X103535457Y-50224112D01*
X103743235Y-50162253D01*
X103747451Y-50161160D01*
X103945778Y-50117191D01*
X104158114Y-50072669D01*
X104162726Y-50071884D01*
X104363223Y-50045487D01*
X104579138Y-50018574D01*
X104584061Y-50018160D01*
X104782569Y-50009493D01*
X105000000Y-50000500D01*
X105000500Y-50000500D01*
X108373055Y-50000500D01*
X108440094Y-50020185D01*
G37*
%TD.AperFunction*%
%TD*%
M02*
