M48
; DRILL file {KiCad 7.0.6} date Sat Oct  7 14:34:12 2023
; FORMAT={-:-/ absolute / metric / decimal}
; #@! TF.CreationDate,2023-10-07T14:34:12+02:00
; #@! TF.GenerationSoftware,Kicad,Pcbnew,7.0.6
; #@! TF.FileFunction,Plated,1,4,PTH
FMAT,2
METRIC
; #@! TA.AperFunction,Plated,PTH,ViaDrill
T1C0.300
; #@! TA.AperFunction,Plated,PTH,ViaDrill
T2C0.400
; #@! TA.AperFunction,Plated,PTH,ComponentDrill
T3C0.500
; #@! TA.AperFunction,Plated,PTH,ComponentDrill
T4C1.000
; #@! TA.AperFunction,Plated,PTH,ComponentDrill
T5C1.200
; #@! TA.AperFunction,Plated,PTH,ComponentDrill
T6C1.300
; #@! TA.AperFunction,Plated,PTH,ComponentDrill
T7C3.200
%
G90
G05
T1
X132.7Y-90.3
X132.7Y-91.0
X132.7Y-91.7
X133.7Y-85.7
X133.7Y-86.5
X133.7Y-88.3
X133.7Y-89.1
X134.5Y-85.7
X134.5Y-89.1
X135.3Y-85.7
X135.3Y-87.0
X135.3Y-87.8
X135.3Y-89.1
X136.1Y-85.7
X136.1Y-89.1
X136.9Y-85.7
X136.9Y-86.5
X136.9Y-88.3
X136.9Y-89.1
T2
X101.0Y-60.0
X101.0Y-64.0
X101.0Y-68.0
X101.0Y-72.0
X101.0Y-76.0
X101.0Y-80.0
X101.0Y-84.0
X101.0Y-88.0
X101.0Y-92.0
X101.0Y-96.0
X101.0Y-100.0
X101.0Y-104.0
X101.0Y-108.0
X101.0Y-112.0
X101.0Y-116.0
X108.0Y-124.0
X109.0Y-51.0
X110.7Y-105.2
X110.7Y-106.0
X111.5Y-105.2
X111.5Y-106.0
X112.0Y-120.0
X112.0Y-124.0
X112.9Y-100.5
X113.0Y-51.0
X113.5Y-114.0
X116.0Y-124.0
X117.0Y-51.0
X118.0Y-100.6
X120.0Y-124.0
X121.0Y-51.0
X121.3Y-103.7
X122.0Y-88.75
X124.0Y-124.0
X125.0Y-51.0
X125.7Y-90.5
X125.75Y-86.25
X125.75Y-96.5
X126.6Y-67.5
X127.0Y-81.6
X128.0Y-124.0
X129.0Y-51.0
X129.1Y-95.2
X130.0Y-87.6
X131.2Y-107.5
X131.5Y-81.7
X132.0Y-124.0
X133.0Y-51.0
X134.25Y-77.25
X135.75Y-77.0
X135.75Y-80.0
X135.75Y-94.75
X135.75Y-97.75
X136.0Y-124.0
X136.9Y-107.5
X137.0Y-51.0
X139.1Y-72.5
X139.1Y-81.5
X139.1Y-93.3
X140.0Y-124.0
X140.2Y-98.8
X141.0Y-51.0
X141.4Y-67.5
X142.3Y-69.2
X144.0Y-104.0
X144.0Y-124.0
X145.0Y-51.0
X148.0Y-124.0
X149.0Y-51.0
X152.0Y-124.0
X153.0Y-51.0
X156.0Y-124.0
X157.0Y-51.0
X160.0Y-124.0
X161.0Y-51.0
X164.0Y-124.0
X165.0Y-51.0
X168.0Y-124.0
X169.0Y-51.0
X172.0Y-61.0
X172.0Y-82.75
X172.0Y-92.25
X172.0Y-113.75
X172.0Y-124.0
X173.0Y-51.0
X175.0Y-61.0
X175.0Y-82.75
X175.0Y-92.25
X175.0Y-113.75
X176.0Y-124.0
X177.0Y-51.0
X182.25Y-110.5
X182.38Y-95.582
X182.5Y-64.5
X182.5Y-79.5
X184.0Y-60.0
X184.0Y-64.0
X184.0Y-68.0
X184.0Y-72.0
X184.0Y-76.0
X184.0Y-80.0
X184.0Y-84.0
X184.0Y-88.0
X184.0Y-92.0
X184.0Y-96.0
X184.0Y-100.0
X184.0Y-104.0
X184.0Y-108.0
X184.0Y-112.0
X184.0Y-116.0
T3
X102.6Y-55.0
X102.6Y-120.0
X103.303Y-53.303
X103.303Y-56.697
X103.303Y-118.303
X103.303Y-121.697
X105.0Y-52.6
X105.0Y-57.4
X105.0Y-117.6
X105.0Y-122.4
X106.697Y-53.303
X106.697Y-56.697
X106.697Y-118.303
X106.697Y-121.697
X107.4Y-55.0
X107.4Y-120.0
X177.6Y-55.0
X177.6Y-120.0
X178.303Y-53.303
X178.303Y-56.697
X178.303Y-118.303
X178.303Y-121.697
X180.0Y-52.6
X180.0Y-57.4
X180.0Y-117.6
X180.0Y-122.4
X181.697Y-53.303
X181.697Y-56.697
X181.697Y-118.303
X181.697Y-121.697
X182.4Y-55.0
X182.4Y-120.0
T4
X122.0Y-90.46
X122.0Y-93.0
T5
X124.55Y-60.013
X124.55Y-67.513
X125.0Y-107.5
X125.0Y-115.0
X144.0Y-60.0
X144.0Y-67.5
X144.0Y-107.5
X144.0Y-115.0
T6
X109.0Y-69.5
X109.0Y-74.5
X109.0Y-79.5
X109.0Y-84.5
X109.0Y-100.5
X109.0Y-105.5
X176.0Y-69.5
X176.0Y-74.5
X176.0Y-100.5
X176.0Y-105.5
T7
X105.0Y-55.0
X105.0Y-120.0
X180.0Y-55.0
X180.0Y-120.0
T0
M30
