%TF.GenerationSoftware,KiCad,Pcbnew,7.0.6*%
%TF.CreationDate,2023-10-07T14:34:09+02:00*%
%TF.ProjectId,TPA3116 amplifier,54504133-3131-4362-9061-6d706c696669,rev?*%
%TF.SameCoordinates,Original*%
%TF.FileFunction,Legend,Bot*%
%TF.FilePolarity,Positive*%
%FSLAX46Y46*%
G04 Gerber Fmt 4.6, Leading zero omitted, Abs format (unit mm)*
G04 Created by KiCad (PCBNEW 7.0.6) date 2023-10-07 14:34:09*
%MOMM*%
%LPD*%
G01*
G04 APERTURE LIST*
%ADD10C,0.300000*%
%ADD11C,0.400000*%
G04 APERTURE END LIST*
D10*
X102803012Y-80707262D02*
X102803012Y-81850119D01*
X102803012Y-81278691D02*
X104803012Y-81278691D01*
X104803012Y-81278691D02*
X104517298Y-81469167D01*
X104517298Y-81469167D02*
X104326822Y-81659643D01*
X104326822Y-81659643D02*
X104231584Y-81850119D01*
X104803012Y-79469167D02*
X104803012Y-79278690D01*
X104803012Y-79278690D02*
X104707774Y-79088214D01*
X104707774Y-79088214D02*
X104612536Y-78992976D01*
X104612536Y-78992976D02*
X104422060Y-78897738D01*
X104422060Y-78897738D02*
X104041108Y-78802500D01*
X104041108Y-78802500D02*
X103564917Y-78802500D01*
X103564917Y-78802500D02*
X103183965Y-78897738D01*
X103183965Y-78897738D02*
X102993489Y-78992976D01*
X102993489Y-78992976D02*
X102898251Y-79088214D01*
X102898251Y-79088214D02*
X102803012Y-79278690D01*
X102803012Y-79278690D02*
X102803012Y-79469167D01*
X102803012Y-79469167D02*
X102898251Y-79659643D01*
X102898251Y-79659643D02*
X102993489Y-79754881D01*
X102993489Y-79754881D02*
X103183965Y-79850119D01*
X103183965Y-79850119D02*
X103564917Y-79945357D01*
X103564917Y-79945357D02*
X104041108Y-79945357D01*
X104041108Y-79945357D02*
X104422060Y-79850119D01*
X104422060Y-79850119D02*
X104612536Y-79754881D01*
X104612536Y-79754881D02*
X104707774Y-79659643D01*
X104707774Y-79659643D02*
X104803012Y-79469167D01*
X104898251Y-76516786D02*
X102326822Y-78231071D01*
X104612536Y-75945357D02*
X104707774Y-75850119D01*
X104707774Y-75850119D02*
X104803012Y-75659643D01*
X104803012Y-75659643D02*
X104803012Y-75183452D01*
X104803012Y-75183452D02*
X104707774Y-74992976D01*
X104707774Y-74992976D02*
X104612536Y-74897738D01*
X104612536Y-74897738D02*
X104422060Y-74802500D01*
X104422060Y-74802500D02*
X104231584Y-74802500D01*
X104231584Y-74802500D02*
X103945870Y-74897738D01*
X103945870Y-74897738D02*
X102803012Y-76040595D01*
X102803012Y-76040595D02*
X102803012Y-74802500D01*
X104803012Y-73564405D02*
X104803012Y-73373928D01*
X104803012Y-73373928D02*
X104707774Y-73183452D01*
X104707774Y-73183452D02*
X104612536Y-73088214D01*
X104612536Y-73088214D02*
X104422060Y-72992976D01*
X104422060Y-72992976D02*
X104041108Y-72897738D01*
X104041108Y-72897738D02*
X103564917Y-72897738D01*
X103564917Y-72897738D02*
X103183965Y-72992976D01*
X103183965Y-72992976D02*
X102993489Y-73088214D01*
X102993489Y-73088214D02*
X102898251Y-73183452D01*
X102898251Y-73183452D02*
X102803012Y-73373928D01*
X102803012Y-73373928D02*
X102803012Y-73564405D01*
X102803012Y-73564405D02*
X102898251Y-73754881D01*
X102898251Y-73754881D02*
X102993489Y-73850119D01*
X102993489Y-73850119D02*
X103183965Y-73945357D01*
X103183965Y-73945357D02*
X103564917Y-74040595D01*
X103564917Y-74040595D02*
X104041108Y-74040595D01*
X104041108Y-74040595D02*
X104422060Y-73945357D01*
X104422060Y-73945357D02*
X104612536Y-73850119D01*
X104612536Y-73850119D02*
X104707774Y-73754881D01*
X104707774Y-73754881D02*
X104803012Y-73564405D01*
X104612536Y-72135833D02*
X104707774Y-72040595D01*
X104707774Y-72040595D02*
X104803012Y-71850119D01*
X104803012Y-71850119D02*
X104803012Y-71373928D01*
X104803012Y-71373928D02*
X104707774Y-71183452D01*
X104707774Y-71183452D02*
X104612536Y-71088214D01*
X104612536Y-71088214D02*
X104422060Y-70992976D01*
X104422060Y-70992976D02*
X104231584Y-70992976D01*
X104231584Y-70992976D02*
X103945870Y-71088214D01*
X103945870Y-71088214D02*
X102803012Y-72231071D01*
X102803012Y-72231071D02*
X102803012Y-70992976D01*
X104803012Y-70326309D02*
X104803012Y-69088214D01*
X104803012Y-69088214D02*
X104041108Y-69754881D01*
X104041108Y-69754881D02*
X104041108Y-69469166D01*
X104041108Y-69469166D02*
X103945870Y-69278690D01*
X103945870Y-69278690D02*
X103850631Y-69183452D01*
X103850631Y-69183452D02*
X103660155Y-69088214D01*
X103660155Y-69088214D02*
X103183965Y-69088214D01*
X103183965Y-69088214D02*
X102993489Y-69183452D01*
X102993489Y-69183452D02*
X102898251Y-69278690D01*
X102898251Y-69278690D02*
X102803012Y-69469166D01*
X102803012Y-69469166D02*
X102803012Y-70040595D01*
X102803012Y-70040595D02*
X102898251Y-70231071D01*
X102898251Y-70231071D02*
X102993489Y-70326309D01*
X104803012Y-66992975D02*
X102803012Y-66326309D01*
X102803012Y-66326309D02*
X104803012Y-65659642D01*
X102803012Y-63945356D02*
X102803012Y-65088213D01*
X102803012Y-64516785D02*
X104803012Y-64516785D01*
X104803012Y-64516785D02*
X104517298Y-64707261D01*
X104517298Y-64707261D02*
X104326822Y-64897737D01*
X104326822Y-64897737D02*
X104231584Y-65088213D01*
X102993489Y-63088213D02*
X102898251Y-62992975D01*
X102898251Y-62992975D02*
X102803012Y-63088213D01*
X102803012Y-63088213D02*
X102898251Y-63183451D01*
X102898251Y-63183451D02*
X102993489Y-63088213D01*
X102993489Y-63088213D02*
X102803012Y-63088213D01*
X104803012Y-61754880D02*
X104803012Y-61564403D01*
X104803012Y-61564403D02*
X104707774Y-61373927D01*
X104707774Y-61373927D02*
X104612536Y-61278689D01*
X104612536Y-61278689D02*
X104422060Y-61183451D01*
X104422060Y-61183451D02*
X104041108Y-61088213D01*
X104041108Y-61088213D02*
X103564917Y-61088213D01*
X103564917Y-61088213D02*
X103183965Y-61183451D01*
X103183965Y-61183451D02*
X102993489Y-61278689D01*
X102993489Y-61278689D02*
X102898251Y-61373927D01*
X102898251Y-61373927D02*
X102803012Y-61564403D01*
X102803012Y-61564403D02*
X102803012Y-61754880D01*
X102803012Y-61754880D02*
X102898251Y-61945356D01*
X102898251Y-61945356D02*
X102993489Y-62040594D01*
X102993489Y-62040594D02*
X103183965Y-62135832D01*
X103183965Y-62135832D02*
X103564917Y-62231070D01*
X103564917Y-62231070D02*
X104041108Y-62231070D01*
X104041108Y-62231070D02*
X104422060Y-62135832D01*
X104422060Y-62135832D02*
X104612536Y-62040594D01*
X104612536Y-62040594D02*
X104707774Y-61945356D01*
X104707774Y-61945356D02*
X104803012Y-61754880D01*
D11*
X168932228Y-114642856D02*
X169075085Y-114499999D01*
X169075085Y-114499999D02*
X169217942Y-114214285D01*
X169217942Y-114214285D02*
X169217942Y-113499999D01*
X169217942Y-113499999D02*
X169075085Y-113214285D01*
X169075085Y-113214285D02*
X168932228Y-113071427D01*
X168932228Y-113071427D02*
X168646514Y-112928570D01*
X168646514Y-112928570D02*
X168360800Y-112928570D01*
X168360800Y-112928570D02*
X167932228Y-113071427D01*
X167932228Y-113071427D02*
X166217942Y-114785713D01*
X166217942Y-114785713D02*
X166217942Y-112928570D01*
X166217942Y-111928570D02*
X168217942Y-110357142D01*
X168217942Y-111928570D02*
X166217942Y-110357142D01*
X169217942Y-107785713D02*
X169217942Y-109214285D01*
X169217942Y-109214285D02*
X167789371Y-109357142D01*
X167789371Y-109357142D02*
X167932228Y-109214285D01*
X167932228Y-109214285D02*
X168075085Y-108928571D01*
X168075085Y-108928571D02*
X168075085Y-108214285D01*
X168075085Y-108214285D02*
X167932228Y-107928571D01*
X167932228Y-107928571D02*
X167789371Y-107785713D01*
X167789371Y-107785713D02*
X167503657Y-107642856D01*
X167503657Y-107642856D02*
X166789371Y-107642856D01*
X166789371Y-107642856D02*
X166503657Y-107785713D01*
X166503657Y-107785713D02*
X166360800Y-107928571D01*
X166360800Y-107928571D02*
X166217942Y-108214285D01*
X166217942Y-108214285D02*
X166217942Y-108928571D01*
X166217942Y-108928571D02*
X166360800Y-109214285D01*
X166360800Y-109214285D02*
X166503657Y-109357142D01*
X169217942Y-105785713D02*
X169217942Y-105499999D01*
X169217942Y-105499999D02*
X169075085Y-105214285D01*
X169075085Y-105214285D02*
X168932228Y-105071428D01*
X168932228Y-105071428D02*
X168646514Y-104928570D01*
X168646514Y-104928570D02*
X168075085Y-104785713D01*
X168075085Y-104785713D02*
X167360800Y-104785713D01*
X167360800Y-104785713D02*
X166789371Y-104928570D01*
X166789371Y-104928570D02*
X166503657Y-105071428D01*
X166503657Y-105071428D02*
X166360800Y-105214285D01*
X166360800Y-105214285D02*
X166217942Y-105499999D01*
X166217942Y-105499999D02*
X166217942Y-105785713D01*
X166217942Y-105785713D02*
X166360800Y-106071428D01*
X166360800Y-106071428D02*
X166503657Y-106214285D01*
X166503657Y-106214285D02*
X166789371Y-106357142D01*
X166789371Y-106357142D02*
X167360800Y-106499999D01*
X167360800Y-106499999D02*
X168075085Y-106499999D01*
X168075085Y-106499999D02*
X168646514Y-106357142D01*
X168646514Y-106357142D02*
X168932228Y-106214285D01*
X168932228Y-106214285D02*
X169075085Y-106071428D01*
X169075085Y-106071428D02*
X169217942Y-105785713D01*
X169217942Y-103785713D02*
X166217942Y-103071427D01*
X166217942Y-103071427D02*
X168360800Y-102499999D01*
X168360800Y-102499999D02*
X166217942Y-101928570D01*
X166217942Y-101928570D02*
X169217942Y-101214285D01*
X166503657Y-96071428D02*
X166360800Y-96214285D01*
X166360800Y-96214285D02*
X166217942Y-96642857D01*
X166217942Y-96642857D02*
X166217942Y-96928571D01*
X166217942Y-96928571D02*
X166360800Y-97357142D01*
X166360800Y-97357142D02*
X166646514Y-97642857D01*
X166646514Y-97642857D02*
X166932228Y-97785714D01*
X166932228Y-97785714D02*
X167503657Y-97928571D01*
X167503657Y-97928571D02*
X167932228Y-97928571D01*
X167932228Y-97928571D02*
X168503657Y-97785714D01*
X168503657Y-97785714D02*
X168789371Y-97642857D01*
X168789371Y-97642857D02*
X169075085Y-97357142D01*
X169075085Y-97357142D02*
X169217942Y-96928571D01*
X169217942Y-96928571D02*
X169217942Y-96642857D01*
X169217942Y-96642857D02*
X169075085Y-96214285D01*
X169075085Y-96214285D02*
X168932228Y-96071428D01*
X166217942Y-94357142D02*
X166360800Y-94642857D01*
X166360800Y-94642857D02*
X166646514Y-94785714D01*
X166646514Y-94785714D02*
X169217942Y-94785714D01*
X166217942Y-91928571D02*
X167789371Y-91928571D01*
X167789371Y-91928571D02*
X168075085Y-92071428D01*
X168075085Y-92071428D02*
X168217942Y-92357142D01*
X168217942Y-92357142D02*
X168217942Y-92928571D01*
X168217942Y-92928571D02*
X168075085Y-93214285D01*
X166360800Y-91928571D02*
X166217942Y-92214285D01*
X166217942Y-92214285D02*
X166217942Y-92928571D01*
X166217942Y-92928571D02*
X166360800Y-93214285D01*
X166360800Y-93214285D02*
X166646514Y-93357142D01*
X166646514Y-93357142D02*
X166932228Y-93357142D01*
X166932228Y-93357142D02*
X167217942Y-93214285D01*
X167217942Y-93214285D02*
X167360800Y-92928571D01*
X167360800Y-92928571D02*
X167360800Y-92214285D01*
X167360800Y-92214285D02*
X167503657Y-91928571D01*
X166360800Y-90642856D02*
X166217942Y-90357142D01*
X166217942Y-90357142D02*
X166217942Y-89785713D01*
X166217942Y-89785713D02*
X166360800Y-89499999D01*
X166360800Y-89499999D02*
X166646514Y-89357142D01*
X166646514Y-89357142D02*
X166789371Y-89357142D01*
X166789371Y-89357142D02*
X167075085Y-89499999D01*
X167075085Y-89499999D02*
X167217942Y-89785713D01*
X167217942Y-89785713D02*
X167217942Y-90214285D01*
X167217942Y-90214285D02*
X167360800Y-90499999D01*
X167360800Y-90499999D02*
X167646514Y-90642856D01*
X167646514Y-90642856D02*
X167789371Y-90642856D01*
X167789371Y-90642856D02*
X168075085Y-90499999D01*
X168075085Y-90499999D02*
X168217942Y-90214285D01*
X168217942Y-90214285D02*
X168217942Y-89785713D01*
X168217942Y-89785713D02*
X168075085Y-89499999D01*
X166360800Y-88214285D02*
X166217942Y-87928571D01*
X166217942Y-87928571D02*
X166217942Y-87357142D01*
X166217942Y-87357142D02*
X166360800Y-87071428D01*
X166360800Y-87071428D02*
X166646514Y-86928571D01*
X166646514Y-86928571D02*
X166789371Y-86928571D01*
X166789371Y-86928571D02*
X167075085Y-87071428D01*
X167075085Y-87071428D02*
X167217942Y-87357142D01*
X167217942Y-87357142D02*
X167217942Y-87785714D01*
X167217942Y-87785714D02*
X167360800Y-88071428D01*
X167360800Y-88071428D02*
X167646514Y-88214285D01*
X167646514Y-88214285D02*
X167789371Y-88214285D01*
X167789371Y-88214285D02*
X168075085Y-88071428D01*
X168075085Y-88071428D02*
X168217942Y-87785714D01*
X168217942Y-87785714D02*
X168217942Y-87357142D01*
X168217942Y-87357142D02*
X168075085Y-87071428D01*
X166217942Y-83357143D02*
X169217942Y-83357143D01*
X169217942Y-83357143D02*
X169217942Y-82642857D01*
X169217942Y-82642857D02*
X169075085Y-82214286D01*
X169075085Y-82214286D02*
X168789371Y-81928571D01*
X168789371Y-81928571D02*
X168503657Y-81785714D01*
X168503657Y-81785714D02*
X167932228Y-81642857D01*
X167932228Y-81642857D02*
X167503657Y-81642857D01*
X167503657Y-81642857D02*
X166932228Y-81785714D01*
X166932228Y-81785714D02*
X166646514Y-81928571D01*
X166646514Y-81928571D02*
X166360800Y-82214286D01*
X166360800Y-82214286D02*
X166217942Y-82642857D01*
X166217942Y-82642857D02*
X166217942Y-83357143D01*
X166217942Y-76785715D02*
X167789371Y-76785715D01*
X167789371Y-76785715D02*
X168075085Y-76928572D01*
X168075085Y-76928572D02*
X168217942Y-77214286D01*
X168217942Y-77214286D02*
X168217942Y-77785715D01*
X168217942Y-77785715D02*
X168075085Y-78071429D01*
X166360800Y-76785715D02*
X166217942Y-77071429D01*
X166217942Y-77071429D02*
X166217942Y-77785715D01*
X166217942Y-77785715D02*
X166360800Y-78071429D01*
X166360800Y-78071429D02*
X166646514Y-78214286D01*
X166646514Y-78214286D02*
X166932228Y-78214286D01*
X166932228Y-78214286D02*
X167217942Y-78071429D01*
X167217942Y-78071429D02*
X167360800Y-77785715D01*
X167360800Y-77785715D02*
X167360800Y-77071429D01*
X167360800Y-77071429D02*
X167503657Y-76785715D01*
X166217942Y-75357143D02*
X168217942Y-75357143D01*
X167932228Y-75357143D02*
X168075085Y-75214286D01*
X168075085Y-75214286D02*
X168217942Y-74928571D01*
X168217942Y-74928571D02*
X168217942Y-74500000D01*
X168217942Y-74500000D02*
X168075085Y-74214286D01*
X168075085Y-74214286D02*
X167789371Y-74071429D01*
X167789371Y-74071429D02*
X166217942Y-74071429D01*
X167789371Y-74071429D02*
X168075085Y-73928571D01*
X168075085Y-73928571D02*
X168217942Y-73642857D01*
X168217942Y-73642857D02*
X168217942Y-73214286D01*
X168217942Y-73214286D02*
X168075085Y-72928571D01*
X168075085Y-72928571D02*
X167789371Y-72785714D01*
X167789371Y-72785714D02*
X166217942Y-72785714D01*
X168217942Y-71357143D02*
X165217942Y-71357143D01*
X168075085Y-71357143D02*
X168217942Y-71071429D01*
X168217942Y-71071429D02*
X168217942Y-70500000D01*
X168217942Y-70500000D02*
X168075085Y-70214286D01*
X168075085Y-70214286D02*
X167932228Y-70071429D01*
X167932228Y-70071429D02*
X167646514Y-69928571D01*
X167646514Y-69928571D02*
X166789371Y-69928571D01*
X166789371Y-69928571D02*
X166503657Y-70071429D01*
X166503657Y-70071429D02*
X166360800Y-70214286D01*
X166360800Y-70214286D02*
X166217942Y-70500000D01*
X166217942Y-70500000D02*
X166217942Y-71071429D01*
X166217942Y-71071429D02*
X166360800Y-71357143D01*
X166217942Y-68214285D02*
X166360800Y-68500000D01*
X166360800Y-68500000D02*
X166646514Y-68642857D01*
X166646514Y-68642857D02*
X169217942Y-68642857D01*
X166217942Y-67071428D02*
X168217942Y-67071428D01*
X169217942Y-67071428D02*
X169075085Y-67214285D01*
X169075085Y-67214285D02*
X168932228Y-67071428D01*
X168932228Y-67071428D02*
X169075085Y-66928571D01*
X169075085Y-66928571D02*
X169217942Y-67071428D01*
X169217942Y-67071428D02*
X168932228Y-67071428D01*
X168217942Y-66071428D02*
X168217942Y-64928571D01*
X166217942Y-65642857D02*
X168789371Y-65642857D01*
X168789371Y-65642857D02*
X169075085Y-65500000D01*
X169075085Y-65500000D02*
X169217942Y-65214285D01*
X169217942Y-65214285D02*
X169217942Y-64928571D01*
X166217942Y-63928571D02*
X168217942Y-63928571D01*
X169217942Y-63928571D02*
X169075085Y-64071428D01*
X169075085Y-64071428D02*
X168932228Y-63928571D01*
X168932228Y-63928571D02*
X169075085Y-63785714D01*
X169075085Y-63785714D02*
X169217942Y-63928571D01*
X169217942Y-63928571D02*
X168932228Y-63928571D01*
X166360800Y-61357143D02*
X166217942Y-61642857D01*
X166217942Y-61642857D02*
X166217942Y-62214286D01*
X166217942Y-62214286D02*
X166360800Y-62500000D01*
X166360800Y-62500000D02*
X166646514Y-62642857D01*
X166646514Y-62642857D02*
X167789371Y-62642857D01*
X167789371Y-62642857D02*
X168075085Y-62500000D01*
X168075085Y-62500000D02*
X168217942Y-62214286D01*
X168217942Y-62214286D02*
X168217942Y-61642857D01*
X168217942Y-61642857D02*
X168075085Y-61357143D01*
X168075085Y-61357143D02*
X167789371Y-61214286D01*
X167789371Y-61214286D02*
X167503657Y-61214286D01*
X167503657Y-61214286D02*
X167217942Y-62642857D01*
X166217942Y-59928571D02*
X168217942Y-59928571D01*
X167646514Y-59928571D02*
X167932228Y-59785714D01*
X167932228Y-59785714D02*
X168075085Y-59642857D01*
X168075085Y-59642857D02*
X168217942Y-59357142D01*
X168217942Y-59357142D02*
X168217942Y-59071428D01*
X160245085Y-100000000D02*
X160387942Y-100142857D01*
X160387942Y-100142857D02*
X160816514Y-100428571D01*
X160816514Y-100428571D02*
X161102228Y-100571429D01*
X161102228Y-100571429D02*
X161530800Y-100714286D01*
X161530800Y-100714286D02*
X162245085Y-100857143D01*
X162245085Y-100857143D02*
X162816514Y-100857143D01*
X162816514Y-100857143D02*
X163530800Y-100714286D01*
X163530800Y-100714286D02*
X163959371Y-100571429D01*
X163959371Y-100571429D02*
X164245085Y-100428571D01*
X164245085Y-100428571D02*
X164673657Y-100142857D01*
X164673657Y-100142857D02*
X164816514Y-100000000D01*
X164387942Y-99285714D02*
X164387942Y-97571429D01*
X161387942Y-98428571D02*
X164387942Y-98428571D01*
X161387942Y-96571429D02*
X164387942Y-96571429D01*
X164387942Y-96571429D02*
X164387942Y-95428572D01*
X164387942Y-95428572D02*
X164245085Y-95142857D01*
X164245085Y-95142857D02*
X164102228Y-95000000D01*
X164102228Y-95000000D02*
X163816514Y-94857143D01*
X163816514Y-94857143D02*
X163387942Y-94857143D01*
X163387942Y-94857143D02*
X163102228Y-95000000D01*
X163102228Y-95000000D02*
X162959371Y-95142857D01*
X162959371Y-95142857D02*
X162816514Y-95428572D01*
X162816514Y-95428572D02*
X162816514Y-96571429D01*
X162245085Y-93714286D02*
X162245085Y-92285715D01*
X161387942Y-94000000D02*
X164387942Y-93000000D01*
X164387942Y-93000000D02*
X161387942Y-92000000D01*
X164387942Y-91285714D02*
X164387942Y-89428571D01*
X164387942Y-89428571D02*
X163245085Y-90428571D01*
X163245085Y-90428571D02*
X163245085Y-90000000D01*
X163245085Y-90000000D02*
X163102228Y-89714286D01*
X163102228Y-89714286D02*
X162959371Y-89571428D01*
X162959371Y-89571428D02*
X162673657Y-89428571D01*
X162673657Y-89428571D02*
X161959371Y-89428571D01*
X161959371Y-89428571D02*
X161673657Y-89571428D01*
X161673657Y-89571428D02*
X161530800Y-89714286D01*
X161530800Y-89714286D02*
X161387942Y-90000000D01*
X161387942Y-90000000D02*
X161387942Y-90857143D01*
X161387942Y-90857143D02*
X161530800Y-91142857D01*
X161530800Y-91142857D02*
X161673657Y-91285714D01*
X161387942Y-86571428D02*
X161387942Y-88285714D01*
X161387942Y-87428571D02*
X164387942Y-87428571D01*
X164387942Y-87428571D02*
X163959371Y-87714285D01*
X163959371Y-87714285D02*
X163673657Y-88000000D01*
X163673657Y-88000000D02*
X163530800Y-88285714D01*
X161387942Y-83714285D02*
X161387942Y-85428571D01*
X161387942Y-84571428D02*
X164387942Y-84571428D01*
X164387942Y-84571428D02*
X163959371Y-84857142D01*
X163959371Y-84857142D02*
X163673657Y-85142857D01*
X163673657Y-85142857D02*
X163530800Y-85428571D01*
X164387942Y-81142857D02*
X164387942Y-81714285D01*
X164387942Y-81714285D02*
X164245085Y-81999999D01*
X164245085Y-81999999D02*
X164102228Y-82142857D01*
X164102228Y-82142857D02*
X163673657Y-82428571D01*
X163673657Y-82428571D02*
X163102228Y-82571428D01*
X163102228Y-82571428D02*
X161959371Y-82571428D01*
X161959371Y-82571428D02*
X161673657Y-82428571D01*
X161673657Y-82428571D02*
X161530800Y-82285714D01*
X161530800Y-82285714D02*
X161387942Y-81999999D01*
X161387942Y-81999999D02*
X161387942Y-81428571D01*
X161387942Y-81428571D02*
X161530800Y-81142857D01*
X161530800Y-81142857D02*
X161673657Y-80999999D01*
X161673657Y-80999999D02*
X161959371Y-80857142D01*
X161959371Y-80857142D02*
X162673657Y-80857142D01*
X162673657Y-80857142D02*
X162959371Y-80999999D01*
X162959371Y-80999999D02*
X163102228Y-81142857D01*
X163102228Y-81142857D02*
X163245085Y-81428571D01*
X163245085Y-81428571D02*
X163245085Y-81999999D01*
X163245085Y-81999999D02*
X163102228Y-82285714D01*
X163102228Y-82285714D02*
X162959371Y-82428571D01*
X162959371Y-82428571D02*
X162673657Y-82571428D01*
X161387942Y-79571428D02*
X164387942Y-79571428D01*
X164387942Y-79571428D02*
X164387942Y-78857142D01*
X164387942Y-78857142D02*
X164245085Y-78428571D01*
X164245085Y-78428571D02*
X163959371Y-78142856D01*
X163959371Y-78142856D02*
X163673657Y-77999999D01*
X163673657Y-77999999D02*
X163102228Y-77857142D01*
X163102228Y-77857142D02*
X162673657Y-77857142D01*
X162673657Y-77857142D02*
X162102228Y-77999999D01*
X162102228Y-77999999D02*
X161816514Y-78142856D01*
X161816514Y-78142856D02*
X161530800Y-78428571D01*
X161530800Y-78428571D02*
X161387942Y-78857142D01*
X161387942Y-78857142D02*
X161387942Y-79571428D01*
X164102228Y-76714285D02*
X164245085Y-76571428D01*
X164245085Y-76571428D02*
X164387942Y-76285714D01*
X164387942Y-76285714D02*
X164387942Y-75571428D01*
X164387942Y-75571428D02*
X164245085Y-75285714D01*
X164245085Y-75285714D02*
X164102228Y-75142856D01*
X164102228Y-75142856D02*
X163816514Y-74999999D01*
X163816514Y-74999999D02*
X163530800Y-74999999D01*
X163530800Y-74999999D02*
X163102228Y-75142856D01*
X163102228Y-75142856D02*
X161387942Y-76857142D01*
X161387942Y-76857142D02*
X161387942Y-74999999D01*
X160245085Y-73999999D02*
X160387942Y-73857142D01*
X160387942Y-73857142D02*
X160816514Y-73571428D01*
X160816514Y-73571428D02*
X161102228Y-73428571D01*
X161102228Y-73428571D02*
X161530800Y-73285713D01*
X161530800Y-73285713D02*
X162245085Y-73142856D01*
X162245085Y-73142856D02*
X162816514Y-73142856D01*
X162816514Y-73142856D02*
X163530800Y-73285713D01*
X163530800Y-73285713D02*
X163959371Y-73428571D01*
X163959371Y-73428571D02*
X164245085Y-73571428D01*
X164245085Y-73571428D02*
X164673657Y-73857142D01*
X164673657Y-73857142D02*
X164816514Y-73999999D01*
M02*
