%TF.GenerationSoftware,KiCad,Pcbnew,7.0.6*%
%TF.CreationDate,2023-10-07T14:34:09+02:00*%
%TF.ProjectId,TPA3116 amplifier,54504133-3131-4362-9061-6d706c696669,rev?*%
%TF.SameCoordinates,Original*%
%TF.FileFunction,Soldermask,Top*%
%TF.FilePolarity,Negative*%
%FSLAX46Y46*%
G04 Gerber Fmt 4.6, Leading zero omitted, Abs format (unit mm)*
G04 Created by KiCad (PCBNEW 7.0.6) date 2023-10-07 14:34:09*
%MOMM*%
%LPD*%
G01*
G04 APERTURE LIST*
G04 Aperture macros list*
%AMRoundRect*
0 Rectangle with rounded corners*
0 $1 Rounding radius*
0 $2 $3 $4 $5 $6 $7 $8 $9 X,Y pos of 4 corners*
0 Add a 4 corners polygon primitive as box body*
4,1,4,$2,$3,$4,$5,$6,$7,$8,$9,$2,$3,0*
0 Add four circle primitives for the rounded corners*
1,1,$1+$1,$2,$3*
1,1,$1+$1,$4,$5*
1,1,$1+$1,$6,$7*
1,1,$1+$1,$8,$9*
0 Add four rect primitives between the rounded corners*
20,1,$1+$1,$2,$3,$4,$5,0*
20,1,$1+$1,$4,$5,$6,$7,0*
20,1,$1+$1,$6,$7,$8,$9,0*
20,1,$1+$1,$8,$9,$2,$3,0*%
%AMFreePoly0*
4,1,6,1.000000,0.000000,0.500000,-0.750000,-0.500000,-0.750000,-0.500000,0.750000,0.500000,0.750000,1.000000,0.000000,1.000000,0.000000,$1*%
%AMFreePoly1*
4,1,6,0.500000,-0.750000,-0.650000,-0.750000,-0.150000,0.000000,-0.650000,0.750000,0.500000,0.750000,0.500000,-0.750000,0.500000,-0.750000,$1*%
G04 Aperture macros list end*
%ADD10RoundRect,0.250000X0.625000X-0.400000X0.625000X0.400000X-0.625000X0.400000X-0.625000X-0.400000X0*%
%ADD11FreePoly0,180.000000*%
%ADD12FreePoly1,180.000000*%
%ADD13RoundRect,0.250000X0.625000X-0.375000X0.625000X0.375000X-0.625000X0.375000X-0.625000X-0.375000X0*%
%ADD14RoundRect,0.250000X0.475000X-0.337500X0.475000X0.337500X-0.475000X0.337500X-0.475000X-0.337500X0*%
%ADD15RoundRect,0.250000X-0.337500X-0.475000X0.337500X-0.475000X0.337500X0.475000X-0.337500X0.475000X0*%
%ADD16C,1.950000*%
%ADD17C,0.800000*%
%ADD18C,6.400000*%
%ADD19R,1.475000X0.450000*%
%ADD20R,4.110000X4.360000*%
%ADD21RoundRect,0.250000X0.450000X-0.350000X0.450000X0.350000X-0.450000X0.350000X-0.450000X-0.350000X0*%
%ADD22R,2.400000X2.400000*%
%ADD23C,2.400000*%
%ADD24FreePoly0,0.000000*%
%ADD25FreePoly1,0.000000*%
%ADD26RoundRect,0.250000X-0.350000X-0.450000X0.350000X-0.450000X0.350000X0.450000X-0.350000X0.450000X0*%
%ADD27R,4.100000X4.100000*%
%ADD28R,1.700000X1.700000*%
%ADD29O,1.700000X1.700000*%
%ADD30RoundRect,0.250000X0.337500X0.475000X-0.337500X0.475000X-0.337500X-0.475000X0.337500X-0.475000X0*%
%ADD31RoundRect,0.250000X-0.450000X0.350000X-0.450000X-0.350000X0.450000X-0.350000X0.450000X0.350000X0*%
%ADD32RoundRect,0.250000X-0.475000X0.337500X-0.475000X-0.337500X0.475000X-0.337500X0.475000X0.337500X0*%
%ADD33RoundRect,0.250000X0.350000X0.450000X-0.350000X0.450000X-0.350000X-0.450000X0.350000X-0.450000X0*%
G04 APERTURE END LIST*
D10*
%TO.C,R10*%
X107500000Y-114050000D03*
X107500000Y-110950000D03*
%TD*%
D11*
%TO.C,JP3*%
X114725000Y-120000000D03*
D12*
X113275000Y-120000000D03*
%TD*%
D13*
%TO.C,D1*%
X111500000Y-113900000D03*
X111500000Y-111100000D03*
%TD*%
D14*
%TO.C,C30*%
X178000000Y-112537500D03*
X178000000Y-110462500D03*
%TD*%
D15*
%TO.C,C11*%
X136962500Y-97750000D03*
X139037500Y-97750000D03*
%TD*%
D14*
%TO.C,C18*%
X147250000Y-95500000D03*
X147250000Y-93425000D03*
%TD*%
D15*
%TO.C,C6*%
X137000000Y-80000000D03*
X139075000Y-80000000D03*
%TD*%
D16*
%TO.C,J5*%
X176000000Y-100500000D03*
X176000000Y-105500000D03*
%TD*%
D17*
%TO.C,H1*%
X177600000Y-120000000D03*
X178302944Y-118302944D03*
X178302944Y-121697056D03*
X180000000Y-117600000D03*
D18*
X180000000Y-120000000D03*
D17*
X180000000Y-122400000D03*
X181697056Y-118302944D03*
X181697056Y-121697056D03*
X182400000Y-120000000D03*
%TD*%
D19*
%TO.C,IC1*%
X131500000Y-82550000D03*
X131500000Y-83200000D03*
X131500000Y-83850000D03*
X131500000Y-84500000D03*
X131500000Y-85150000D03*
X131500000Y-85800000D03*
X131500000Y-86450000D03*
X131500000Y-87100000D03*
X131500000Y-87750000D03*
X131500000Y-88400000D03*
X131500000Y-89050000D03*
X131500000Y-89700000D03*
X131500000Y-90350000D03*
X131500000Y-91000000D03*
X131500000Y-91650000D03*
X131500000Y-92300000D03*
X139076000Y-92300000D03*
X139076000Y-91650000D03*
X139076000Y-91000000D03*
X139076000Y-90350000D03*
X139076000Y-89700000D03*
X139076000Y-89050000D03*
X139076000Y-88400000D03*
X139076000Y-87750000D03*
X139076000Y-87100000D03*
X139076000Y-86450000D03*
X139076000Y-85800000D03*
X139076000Y-85150000D03*
X139076000Y-84500000D03*
X139076000Y-83850000D03*
X139076000Y-83200000D03*
X139076000Y-82550000D03*
D20*
X135288000Y-87425000D03*
%TD*%
D21*
%TO.C,R9*%
X181000000Y-112500000D03*
X181000000Y-110500000D03*
%TD*%
D22*
%TO.C,C12*%
X144000000Y-107500000D03*
D23*
X144000000Y-115000000D03*
%TD*%
D24*
%TO.C,JP2*%
X106550000Y-94000000D03*
D25*
X108000000Y-94000000D03*
%TD*%
D22*
%TO.C,C9*%
X144000000Y-67500000D03*
D23*
X144000000Y-60000000D03*
%TD*%
D26*
%TO.C,R2*%
X127000000Y-90550000D03*
X129000000Y-90550000D03*
%TD*%
D27*
%TO.C,L1*%
X158500000Y-66000000D03*
X168000000Y-66000000D03*
%TD*%
D21*
%TO.C,R7*%
X181000000Y-81500000D03*
X181000000Y-79500000D03*
%TD*%
D15*
%TO.C,C4*%
X116925000Y-83000000D03*
X119000000Y-83000000D03*
%TD*%
D17*
%TO.C,H4*%
X102600000Y-55000000D03*
X103302944Y-53302944D03*
X103302944Y-56697056D03*
X105000000Y-52600000D03*
D18*
X105000000Y-55000000D03*
D17*
X105000000Y-57400000D03*
X106697056Y-53302944D03*
X106697056Y-56697056D03*
X107400000Y-55000000D03*
%TD*%
D27*
%TO.C,L3*%
X158500000Y-97000000D03*
X168000000Y-97000000D03*
%TD*%
D16*
%TO.C,J3*%
X109000000Y-105500000D03*
X109000000Y-100500000D03*
%TD*%
D24*
%TO.C,JP1*%
X106550000Y-90250000D03*
D25*
X108000000Y-90250000D03*
%TD*%
D15*
%TO.C,C1*%
X116925000Y-73970000D03*
X119000000Y-73970000D03*
%TD*%
%TO.C,C2*%
X116925000Y-76980000D03*
X119000000Y-76980000D03*
%TD*%
D27*
%TO.C,L4*%
X158500000Y-109000000D03*
X168000000Y-109000000D03*
%TD*%
D17*
%TO.C,H2*%
X102600000Y-120000000D03*
X103302944Y-118302944D03*
X103302944Y-121697056D03*
X105000000Y-117600000D03*
D18*
X105000000Y-120000000D03*
D17*
X105000000Y-122400000D03*
X106697056Y-118302944D03*
X106697056Y-121697056D03*
X107400000Y-120000000D03*
%TD*%
D14*
%TO.C,C28*%
X175000000Y-112537500D03*
X175000000Y-110462500D03*
%TD*%
%TO.C,C24*%
X178000000Y-81537500D03*
X178000000Y-79462500D03*
%TD*%
D16*
%TO.C,J4*%
X176000000Y-69500000D03*
X176000000Y-74500000D03*
%TD*%
D15*
%TO.C,C10*%
X137000000Y-94750000D03*
X139075000Y-94750000D03*
%TD*%
D28*
%TO.C,J1*%
X122000000Y-90460000D03*
D29*
X122000000Y-93000000D03*
%TD*%
D27*
%TO.C,L2*%
X158500000Y-78000000D03*
X168000000Y-78000000D03*
%TD*%
D15*
%TO.C,C3*%
X116925000Y-79990000D03*
X119000000Y-79990000D03*
%TD*%
D14*
%TO.C,C23*%
X178000000Y-64575000D03*
X178000000Y-62500000D03*
%TD*%
%TO.C,C29*%
X178000000Y-95537500D03*
X178000000Y-93462500D03*
%TD*%
D26*
%TO.C,R1*%
X127000000Y-83000000D03*
X129000000Y-83000000D03*
%TD*%
D16*
%TO.C,J2*%
X109000000Y-84500000D03*
X109000000Y-79500000D03*
X109000000Y-74500000D03*
X109000000Y-69500000D03*
%TD*%
D30*
%TO.C,C14*%
X139037500Y-74000000D03*
X136962500Y-74000000D03*
%TD*%
D14*
%TO.C,C16*%
X147250000Y-87000000D03*
X147250000Y-84925000D03*
%TD*%
D17*
%TO.C,H3*%
X177600000Y-55000000D03*
X178302944Y-53302944D03*
X178302944Y-56697056D03*
X180000000Y-52600000D03*
D18*
X180000000Y-55000000D03*
D17*
X180000000Y-57400000D03*
X181697056Y-53302944D03*
X181697056Y-56697056D03*
X182400000Y-55000000D03*
%TD*%
D22*
%TO.C,C8*%
X124550000Y-67512755D03*
D23*
X124550000Y-60012755D03*
%TD*%
D14*
%TO.C,C22*%
X175000000Y-81537500D03*
X175000000Y-79462500D03*
%TD*%
D31*
%TO.C,R6*%
X181000000Y-62537500D03*
X181000000Y-64537500D03*
%TD*%
D14*
%TO.C,C25*%
X172000000Y-95537500D03*
X172000000Y-93462500D03*
%TD*%
%TO.C,C27*%
X175000000Y-95537500D03*
X175000000Y-93462500D03*
%TD*%
%TO.C,C19*%
X172000000Y-64537500D03*
X172000000Y-62462500D03*
%TD*%
%TO.C,C21*%
X175000000Y-64575000D03*
X175000000Y-62500000D03*
%TD*%
D30*
%TO.C,C5*%
X129037500Y-86250000D03*
X126962500Y-86250000D03*
%TD*%
D15*
%TO.C,C7*%
X137000000Y-77000000D03*
X139075000Y-77000000D03*
%TD*%
D31*
%TO.C,R8*%
X181000000Y-93500000D03*
X181000000Y-95500000D03*
%TD*%
D22*
%TO.C,C13*%
X125000000Y-107500000D03*
D23*
X125000000Y-115000000D03*
%TD*%
D14*
%TO.C,C26*%
X172000000Y-112537500D03*
X172000000Y-110462500D03*
%TD*%
%TO.C,C20*%
X172000000Y-81537500D03*
X172000000Y-79462500D03*
%TD*%
D26*
%TO.C,R4*%
X127000000Y-96500000D03*
X129000000Y-96500000D03*
%TD*%
D32*
%TO.C,C17*%
X147250000Y-89212500D03*
X147250000Y-91287500D03*
%TD*%
D33*
%TO.C,R3*%
X129000000Y-93500000D03*
X127000000Y-93500000D03*
%TD*%
D31*
%TO.C,R5*%
X134250000Y-74000000D03*
X134250000Y-76000000D03*
%TD*%
D32*
%TO.C,C15*%
X147250000Y-80675000D03*
X147250000Y-82750000D03*
%TD*%
M02*
