%TF.GenerationSoftware,KiCad,Pcbnew,7.0.6*%
%TF.CreationDate,2023-10-07T14:34:09+02:00*%
%TF.ProjectId,TPA3116 amplifier,54504133-3131-4362-9061-6d706c696669,rev?*%
%TF.SameCoordinates,Original*%
%TF.FileFunction,Copper,L4,Bot*%
%TF.FilePolarity,Positive*%
%FSLAX46Y46*%
G04 Gerber Fmt 4.6, Leading zero omitted, Abs format (unit mm)*
G04 Created by KiCad (PCBNEW 7.0.6) date 2023-10-07 14:34:09*
%MOMM*%
%LPD*%
G01*
G04 APERTURE LIST*
%TA.AperFunction,ComponentPad*%
%ADD10C,1.950000*%
%TD*%
%TA.AperFunction,ComponentPad*%
%ADD11C,0.800000*%
%TD*%
%TA.AperFunction,ComponentPad*%
%ADD12C,6.400000*%
%TD*%
%TA.AperFunction,ComponentPad*%
%ADD13R,2.400000X2.400000*%
%TD*%
%TA.AperFunction,ComponentPad*%
%ADD14C,2.400000*%
%TD*%
%TA.AperFunction,ComponentPad*%
%ADD15R,1.700000X1.700000*%
%TD*%
%TA.AperFunction,ComponentPad*%
%ADD16O,1.700000X1.700000*%
%TD*%
%TA.AperFunction,ViaPad*%
%ADD17C,0.700000*%
%TD*%
%TA.AperFunction,ViaPad*%
%ADD18C,0.800000*%
%TD*%
%TA.AperFunction,ViaPad*%
%ADD19C,0.500000*%
%TD*%
G04 APERTURE END LIST*
D10*
%TO.P,J5,1,Pin_1*%
%TO.N,/LOUT+*%
X176000000Y-100500000D03*
%TO.P,J5,2,Pin_2*%
%TO.N,/LOUT-*%
X176000000Y-105500000D03*
%TD*%
D11*
%TO.P,H1,1,1*%
%TO.N,unconnected-(H1-Pad1)*%
X177600000Y-120000000D03*
X178302944Y-118302944D03*
X178302944Y-121697056D03*
X180000000Y-117600000D03*
D12*
X180000000Y-120000000D03*
D11*
X180000000Y-122400000D03*
X181697056Y-118302944D03*
X181697056Y-121697056D03*
X182400000Y-120000000D03*
%TD*%
D13*
%TO.P,C12,1*%
%TO.N,+24V*%
X144000000Y-107500000D03*
D14*
%TO.P,C12,2*%
%TO.N,GND*%
X144000000Y-115000000D03*
%TD*%
D13*
%TO.P,C9,1*%
%TO.N,+24V*%
X144000000Y-67500000D03*
D14*
%TO.P,C9,2*%
%TO.N,GND*%
X144000000Y-60000000D03*
%TD*%
D11*
%TO.P,H4,1,1*%
%TO.N,unconnected-(H4-Pad1)*%
X102600000Y-55000000D03*
X103302944Y-53302944D03*
X103302944Y-56697056D03*
X105000000Y-52600000D03*
D12*
X105000000Y-55000000D03*
D11*
X105000000Y-57400000D03*
X106697056Y-53302944D03*
X106697056Y-56697056D03*
X107400000Y-55000000D03*
%TD*%
D10*
%TO.P,J3,1,Pin_1*%
%TO.N,GND*%
X109000000Y-105500000D03*
%TO.P,J3,2,Pin_2*%
%TO.N,+24V*%
X109000000Y-100500000D03*
%TD*%
D11*
%TO.P,H2,1,1*%
%TO.N,unconnected-(H2-Pad1)*%
X102600000Y-120000000D03*
X103302944Y-118302944D03*
X103302944Y-121697056D03*
X105000000Y-117600000D03*
D12*
X105000000Y-120000000D03*
D11*
X105000000Y-122400000D03*
X106697056Y-118302944D03*
X106697056Y-121697056D03*
X107400000Y-120000000D03*
%TD*%
D10*
%TO.P,J4,1,Pin_1*%
%TO.N,/ROUT+*%
X176000000Y-69500000D03*
%TO.P,J4,2,Pin_2*%
%TO.N,/ROUT-*%
X176000000Y-74500000D03*
%TD*%
D15*
%TO.P,J1,1,Pin_1*%
%TO.N,GND*%
X122000000Y-90460000D03*
D16*
%TO.P,J1,2,Pin_2*%
%TO.N,Net-(J1-Pin_2)*%
X122000000Y-93000000D03*
%TD*%
D10*
%TO.P,J2,1,Pin_1*%
%TO.N,LIN-*%
X109000000Y-84500000D03*
%TO.P,J2,2,Pin_2*%
%TO.N,LIN+*%
X109000000Y-79500000D03*
%TO.P,J2,3,Pin_3*%
%TO.N,RIN-*%
X109000000Y-74500000D03*
%TO.P,J2,4,Pin_4*%
%TO.N,RIN+*%
X109000000Y-69500000D03*
%TD*%
D11*
%TO.P,H3,1,1*%
%TO.N,unconnected-(H3-Pad1)*%
X177600000Y-55000000D03*
X178302944Y-53302944D03*
X178302944Y-56697056D03*
X180000000Y-52600000D03*
D12*
X180000000Y-55000000D03*
D11*
X180000000Y-57400000D03*
X181697056Y-53302944D03*
X181697056Y-56697056D03*
X182400000Y-55000000D03*
%TD*%
D13*
%TO.P,C8,1*%
%TO.N,+24V*%
X124550000Y-67512755D03*
D14*
%TO.P,C8,2*%
%TO.N,GND*%
X124550000Y-60012755D03*
%TD*%
D13*
%TO.P,C13,1*%
%TO.N,+24V*%
X125000000Y-107500000D03*
D14*
%TO.P,C13,2*%
%TO.N,GND*%
X125000000Y-115000000D03*
%TD*%
D17*
%TO.N,GND*%
X184000000Y-60000000D03*
X184000000Y-104000000D03*
X184000000Y-76000000D03*
X184000000Y-88000000D03*
X184000000Y-84000000D03*
X184000000Y-96000000D03*
X184000000Y-64000000D03*
X184000000Y-112000000D03*
X184000000Y-108000000D03*
X184000000Y-72000000D03*
X184000000Y-68000000D03*
X184000000Y-116000000D03*
X184000000Y-80000000D03*
X184000000Y-100000000D03*
X184000000Y-92000000D03*
X101000000Y-104000000D03*
X101000000Y-100000000D03*
X101000000Y-92000000D03*
X101000000Y-84000000D03*
X101000000Y-76000000D03*
X101000000Y-80000000D03*
X101000000Y-72000000D03*
X101000000Y-68000000D03*
X101000000Y-96000000D03*
X101000000Y-116000000D03*
X101000000Y-112000000D03*
X101000000Y-108000000D03*
X101000000Y-88000000D03*
X101000000Y-64000000D03*
X101000000Y-60000000D03*
%TO.N,+24V*%
X112000000Y-120000000D03*
%TO.N,GND*%
X128000000Y-124000000D03*
X132000000Y-124000000D03*
X140000000Y-124000000D03*
X148000000Y-124000000D03*
X156000000Y-124000000D03*
X152000000Y-124000000D03*
X160000000Y-124000000D03*
X164000000Y-124000000D03*
X136000000Y-124000000D03*
X108000000Y-124000000D03*
X116000000Y-124000000D03*
X112000000Y-124000000D03*
X120000000Y-124000000D03*
X124000000Y-124000000D03*
X144000000Y-124000000D03*
X168000000Y-124000000D03*
X172000000Y-124000000D03*
X176000000Y-124000000D03*
X169000000Y-51000000D03*
X177000000Y-51000000D03*
X173000000Y-51000000D03*
X149000000Y-51000000D03*
X157000000Y-51000000D03*
X153000000Y-51000000D03*
X161000000Y-51000000D03*
X165000000Y-51000000D03*
X129000000Y-51000000D03*
X137000000Y-51000000D03*
X133000000Y-51000000D03*
X141000000Y-51000000D03*
X145000000Y-51000000D03*
X125000000Y-51000000D03*
X121000000Y-51000000D03*
X117000000Y-51000000D03*
X113000000Y-51000000D03*
X109000000Y-51000000D03*
D18*
X113500000Y-114000000D03*
D19*
X136100000Y-85700000D03*
X133700000Y-85700000D03*
D17*
X125750000Y-96500000D03*
X122000000Y-88750000D03*
D19*
X132700000Y-91000000D03*
X136900000Y-85700000D03*
D17*
X134250000Y-77250000D03*
D19*
X133700000Y-89100000D03*
X136900000Y-88300000D03*
D17*
X111500000Y-105200000D03*
D19*
X135300000Y-85700000D03*
D17*
X172000000Y-82750000D03*
D19*
X132700000Y-91700000D03*
D17*
X135750000Y-94750000D03*
X110700000Y-105200000D03*
D19*
X133700000Y-86500000D03*
D17*
X182500000Y-64500000D03*
X125750000Y-86250000D03*
X175000000Y-92250000D03*
D19*
X135300000Y-87000000D03*
D17*
X172000000Y-113750000D03*
X111500000Y-106000000D03*
X172000000Y-61000000D03*
X182500000Y-79500000D03*
X172000000Y-92250000D03*
X110700000Y-106000000D03*
X131500000Y-81700000D03*
X175000000Y-61000000D03*
D19*
X135300000Y-89100000D03*
X134500000Y-89100000D03*
D17*
X175000000Y-113750000D03*
D19*
X134500000Y-85700000D03*
D17*
X135750000Y-97750000D03*
X175000000Y-82750000D03*
X182380442Y-95581993D03*
X135750000Y-77000000D03*
X182250000Y-110500000D03*
D19*
X132700000Y-90300000D03*
X133700000Y-88300000D03*
X136900000Y-89100000D03*
X135300000Y-87800000D03*
D17*
X135750000Y-80000000D03*
D19*
X136100000Y-89100000D03*
X136900000Y-86500000D03*
D17*
%TO.N,+24V*%
X126600000Y-67500000D03*
X139100000Y-81500000D03*
X139100000Y-72500000D03*
X141400000Y-67500000D03*
X136900000Y-107500000D03*
X127000000Y-81600000D03*
X118000000Y-100600000D03*
X125700000Y-90500000D03*
X121300000Y-103700000D03*
X112900000Y-100500000D03*
X144000000Y-104000000D03*
X131200000Y-107500000D03*
X142300000Y-69200000D03*
X140200000Y-98800000D03*
X139100000Y-93300000D03*
%TO.N,Net-(IC1-GAIN{slash}SLV)*%
X130000000Y-87600000D03*
X129100000Y-95200000D03*
%TD*%
%TA.AperFunction,Conductor*%
%TO.N,GND*%
G36*
X180217318Y-50009488D02*
G01*
X180415934Y-50018160D01*
X180420865Y-50018574D01*
X180636792Y-50045489D01*
X180832940Y-50071313D01*
X180837265Y-50071883D01*
X180841894Y-50072671D01*
X181054183Y-50117183D01*
X181252534Y-50161157D01*
X181256778Y-50162257D01*
X181464544Y-50224112D01*
X181658658Y-50285317D01*
X181662530Y-50286680D01*
X181864457Y-50365472D01*
X182052817Y-50443494D01*
X182056252Y-50445045D01*
X182131343Y-50481755D01*
X182250992Y-50540249D01*
X182388629Y-50611897D01*
X182432009Y-50634479D01*
X182435107Y-50636207D01*
X182621382Y-50747202D01*
X182793662Y-50856957D01*
X182796377Y-50858789D01*
X182972918Y-50984837D01*
X183135098Y-51109282D01*
X183137426Y-51111159D01*
X183303055Y-51251439D01*
X183454895Y-51390574D01*
X183609424Y-51545103D01*
X183748555Y-51696938D01*
X183763008Y-51714003D01*
X183888839Y-51862572D01*
X183890716Y-51864900D01*
X184015162Y-52027081D01*
X184141209Y-52203621D01*
X184143040Y-52206335D01*
X184252797Y-52378617D01*
X184363791Y-52564891D01*
X184365525Y-52568000D01*
X184459750Y-52749007D01*
X184525992Y-52884503D01*
X184554953Y-52943744D01*
X184556524Y-52947229D01*
X184634536Y-53135566D01*
X184713309Y-53337445D01*
X184714681Y-53341340D01*
X184775899Y-53535496D01*
X184837735Y-53743200D01*
X184838843Y-53747472D01*
X184882818Y-53945826D01*
X184927326Y-54158101D01*
X184928115Y-54162733D01*
X184954524Y-54363319D01*
X184981422Y-54579114D01*
X184981839Y-54584080D01*
X184990513Y-54782728D01*
X184999500Y-55000000D01*
X184999500Y-120000000D01*
X184990513Y-120217271D01*
X184981839Y-120415918D01*
X184981422Y-120420884D01*
X184954524Y-120636680D01*
X184928115Y-120837265D01*
X184927326Y-120841897D01*
X184882818Y-121054173D01*
X184838843Y-121252526D01*
X184837735Y-121256798D01*
X184775899Y-121464503D01*
X184714681Y-121658658D01*
X184713309Y-121662552D01*
X184634536Y-121864433D01*
X184556524Y-122052769D01*
X184554944Y-122056274D01*
X184459750Y-122250992D01*
X184365525Y-122431998D01*
X184363791Y-122435107D01*
X184252797Y-122621382D01*
X184143040Y-122793663D01*
X184141209Y-122796377D01*
X184015162Y-122972918D01*
X183890716Y-123135099D01*
X183888839Y-123137426D01*
X183748557Y-123303059D01*
X183609426Y-123454895D01*
X183454895Y-123609426D01*
X183303059Y-123748557D01*
X183137426Y-123888839D01*
X183135099Y-123890716D01*
X182972918Y-124015162D01*
X182796377Y-124141209D01*
X182793663Y-124143040D01*
X182621382Y-124252797D01*
X182435107Y-124363791D01*
X182431998Y-124365525D01*
X182250992Y-124459750D01*
X182056274Y-124554944D01*
X182052769Y-124556524D01*
X181864433Y-124634536D01*
X181662552Y-124713309D01*
X181658658Y-124714681D01*
X181464503Y-124775899D01*
X181256798Y-124837735D01*
X181252526Y-124838843D01*
X181054173Y-124882818D01*
X180841897Y-124927326D01*
X180837265Y-124928115D01*
X180636680Y-124954524D01*
X180420884Y-124981422D01*
X180415918Y-124981839D01*
X180217271Y-124990513D01*
X180000000Y-124999500D01*
X105000000Y-124999500D01*
X104782728Y-124990513D01*
X104584080Y-124981839D01*
X104579114Y-124981422D01*
X104363319Y-124954524D01*
X104162733Y-124928115D01*
X104158101Y-124927326D01*
X103945826Y-124882818D01*
X103747472Y-124838843D01*
X103743200Y-124837735D01*
X103535496Y-124775899D01*
X103341340Y-124714681D01*
X103337445Y-124713309D01*
X103135566Y-124634536D01*
X102947229Y-124556524D01*
X102943744Y-124554953D01*
X102884503Y-124525992D01*
X102749007Y-124459750D01*
X102568000Y-124365525D01*
X102564891Y-124363791D01*
X102378617Y-124252797D01*
X102206335Y-124143040D01*
X102203621Y-124141209D01*
X102027081Y-124015162D01*
X101864900Y-123890716D01*
X101862572Y-123888839D01*
X101696940Y-123748557D01*
X101545103Y-123609424D01*
X101390574Y-123454895D01*
X101251439Y-123303055D01*
X101111159Y-123137426D01*
X101109282Y-123135098D01*
X100984837Y-122972918D01*
X100858789Y-122796377D01*
X100856957Y-122793662D01*
X100747202Y-122621382D01*
X100636207Y-122435107D01*
X100634473Y-122431998D01*
X100540249Y-122250992D01*
X100481755Y-122131343D01*
X100445045Y-122056252D01*
X100443494Y-122052817D01*
X100365463Y-121864433D01*
X100286680Y-121662530D01*
X100285317Y-121658658D01*
X100224100Y-121464503D01*
X100162257Y-121256778D01*
X100161155Y-121252526D01*
X100117181Y-121054173D01*
X100111495Y-121027057D01*
X100072671Y-120841894D01*
X100071883Y-120837265D01*
X100066205Y-120794135D01*
X100045489Y-120636791D01*
X100018574Y-120420865D01*
X100018160Y-120415934D01*
X100009486Y-120217271D01*
X100000500Y-120000000D01*
X101194616Y-120000000D01*
X101214139Y-120384983D01*
X101252698Y-120636680D01*
X101272512Y-120766018D01*
X101321469Y-120955099D01*
X101369136Y-121139199D01*
X101369136Y-121139200D01*
X101503009Y-121500666D01*
X101503015Y-121500679D01*
X101672774Y-121846759D01*
X101759716Y-121986244D01*
X101876680Y-122173895D01*
X101876682Y-122173898D01*
X101876683Y-122173899D01*
X102035829Y-122379499D01*
X102112634Y-122478722D01*
X102191671Y-122561869D01*
X102378216Y-122758115D01*
X102670699Y-123009203D01*
X102670702Y-123009205D01*
X102987089Y-123229417D01*
X103324131Y-123416491D01*
X103324135Y-123416493D01*
X103413623Y-123454895D01*
X103678370Y-123568507D01*
X103678380Y-123568510D01*
X103678385Y-123568512D01*
X104046160Y-123683902D01*
X104046163Y-123683902D01*
X104046171Y-123683905D01*
X104423759Y-123761502D01*
X104730559Y-123792700D01*
X104807259Y-123800500D01*
X104807260Y-123800500D01*
X105192741Y-123800500D01*
X105256656Y-123794000D01*
X105576241Y-123761502D01*
X105953829Y-123683905D01*
X105971847Y-123678252D01*
X106321614Y-123568512D01*
X106321613Y-123568512D01*
X106321630Y-123568507D01*
X106675869Y-123416491D01*
X107012911Y-123229417D01*
X107329298Y-123009205D01*
X107621784Y-122758115D01*
X107887366Y-122478722D01*
X108123320Y-122173895D01*
X108327225Y-121846760D01*
X108496987Y-121500675D01*
X108630866Y-121139192D01*
X108727488Y-120766018D01*
X108785860Y-120384984D01*
X108805384Y-120000000D01*
X108805384Y-119999999D01*
X111044901Y-119999999D01*
X111063252Y-120186331D01*
X111063253Y-120186333D01*
X111117604Y-120365502D01*
X111205862Y-120530623D01*
X111205864Y-120530626D01*
X111324642Y-120675357D01*
X111469373Y-120794135D01*
X111469376Y-120794137D01*
X111523172Y-120822891D01*
X111634499Y-120882396D01*
X111813666Y-120936746D01*
X111813668Y-120936747D01*
X111830374Y-120938392D01*
X112000000Y-120955099D01*
X112186331Y-120936747D01*
X112365501Y-120882396D01*
X112530625Y-120794136D01*
X112675357Y-120675357D01*
X112794136Y-120530625D01*
X112882396Y-120365501D01*
X112936747Y-120186331D01*
X112955099Y-120000000D01*
X176194616Y-120000000D01*
X176214139Y-120384983D01*
X176252698Y-120636680D01*
X176272512Y-120766018D01*
X176321469Y-120955099D01*
X176369136Y-121139199D01*
X176369136Y-121139200D01*
X176503009Y-121500666D01*
X176503015Y-121500679D01*
X176672774Y-121846759D01*
X176759716Y-121986244D01*
X176876680Y-122173895D01*
X176876682Y-122173898D01*
X176876683Y-122173899D01*
X177035829Y-122379499D01*
X177112634Y-122478722D01*
X177191671Y-122561869D01*
X177378216Y-122758115D01*
X177670699Y-123009203D01*
X177670702Y-123009205D01*
X177987089Y-123229417D01*
X178324131Y-123416491D01*
X178324135Y-123416493D01*
X178413623Y-123454895D01*
X178678370Y-123568507D01*
X178678380Y-123568510D01*
X178678385Y-123568512D01*
X179046160Y-123683902D01*
X179046163Y-123683902D01*
X179046171Y-123683905D01*
X179423759Y-123761502D01*
X179730559Y-123792700D01*
X179807259Y-123800500D01*
X179807260Y-123800500D01*
X180192741Y-123800500D01*
X180256656Y-123794000D01*
X180576241Y-123761502D01*
X180953829Y-123683905D01*
X180971847Y-123678252D01*
X181321614Y-123568512D01*
X181321613Y-123568512D01*
X181321630Y-123568507D01*
X181675869Y-123416491D01*
X182012911Y-123229417D01*
X182329298Y-123009205D01*
X182621784Y-122758115D01*
X182887366Y-122478722D01*
X183123320Y-122173895D01*
X183327225Y-121846760D01*
X183496987Y-121500675D01*
X183630866Y-121139192D01*
X183727488Y-120766018D01*
X183785860Y-120384984D01*
X183805384Y-120000000D01*
X183785860Y-119615016D01*
X183727488Y-119233982D01*
X183630866Y-118860808D01*
X183496987Y-118499325D01*
X183327225Y-118153240D01*
X183123320Y-117826105D01*
X182887366Y-117521278D01*
X182621784Y-117241885D01*
X182621783Y-117241884D01*
X182329300Y-116990796D01*
X182012912Y-116770584D01*
X182012911Y-116770583D01*
X181675869Y-116583509D01*
X181675870Y-116583509D01*
X181675864Y-116583506D01*
X181321635Y-116431495D01*
X181321614Y-116431487D01*
X180953839Y-116316097D01*
X180953833Y-116316096D01*
X180953830Y-116316095D01*
X180953829Y-116316095D01*
X180576241Y-116238498D01*
X180576240Y-116238497D01*
X180576236Y-116238497D01*
X180192741Y-116199500D01*
X180192740Y-116199500D01*
X179807260Y-116199500D01*
X179807259Y-116199500D01*
X179423763Y-116238497D01*
X179046166Y-116316096D01*
X179046160Y-116316097D01*
X178678385Y-116431487D01*
X178678364Y-116431495D01*
X178324135Y-116583506D01*
X177987087Y-116770584D01*
X177670699Y-116990796D01*
X177378216Y-117241884D01*
X177112629Y-117521283D01*
X176876683Y-117826100D01*
X176672774Y-118153240D01*
X176503015Y-118499320D01*
X176503009Y-118499333D01*
X176369136Y-118860799D01*
X176369136Y-118860800D01*
X176272511Y-119233986D01*
X176214139Y-119615016D01*
X176194616Y-120000000D01*
X112955099Y-120000000D01*
X112936747Y-119813669D01*
X112882396Y-119634499D01*
X112794136Y-119469375D01*
X112794135Y-119469373D01*
X112675357Y-119324642D01*
X112530626Y-119205864D01*
X112530623Y-119205862D01*
X112365502Y-119117604D01*
X112186333Y-119063253D01*
X112186331Y-119063252D01*
X112000000Y-119044901D01*
X111813668Y-119063252D01*
X111813666Y-119063253D01*
X111634497Y-119117604D01*
X111469376Y-119205862D01*
X111469373Y-119205864D01*
X111324642Y-119324642D01*
X111205864Y-119469373D01*
X111205862Y-119469376D01*
X111117604Y-119634497D01*
X111063253Y-119813666D01*
X111063252Y-119813668D01*
X111044901Y-119999999D01*
X108805384Y-119999999D01*
X108785860Y-119615016D01*
X108727488Y-119233982D01*
X108630866Y-118860808D01*
X108496987Y-118499325D01*
X108327225Y-118153240D01*
X108123320Y-117826105D01*
X107887366Y-117521278D01*
X107621784Y-117241885D01*
X107621783Y-117241884D01*
X107329300Y-116990796D01*
X107012912Y-116770584D01*
X107012911Y-116770583D01*
X106675869Y-116583509D01*
X106675870Y-116583509D01*
X106675864Y-116583506D01*
X106321635Y-116431495D01*
X106321614Y-116431487D01*
X105953839Y-116316097D01*
X105953833Y-116316096D01*
X105953830Y-116316095D01*
X105953829Y-116316095D01*
X105576241Y-116238498D01*
X105576240Y-116238497D01*
X105576236Y-116238497D01*
X105192741Y-116199500D01*
X105192740Y-116199500D01*
X104807260Y-116199500D01*
X104807259Y-116199500D01*
X104423763Y-116238497D01*
X104046166Y-116316096D01*
X104046160Y-116316097D01*
X103678385Y-116431487D01*
X103678364Y-116431495D01*
X103324135Y-116583506D01*
X102987087Y-116770584D01*
X102670699Y-116990796D01*
X102378216Y-117241884D01*
X102112629Y-117521283D01*
X101876683Y-117826100D01*
X101672774Y-118153240D01*
X101503015Y-118499320D01*
X101503009Y-118499333D01*
X101369136Y-118860799D01*
X101369136Y-118860800D01*
X101272511Y-119233986D01*
X101214139Y-119615016D01*
X101194616Y-120000000D01*
X100000500Y-120000000D01*
X100000500Y-119999500D01*
X100000500Y-108739363D01*
X123199500Y-108739363D01*
X123214953Y-108856753D01*
X123214956Y-108856762D01*
X123275464Y-109002841D01*
X123371718Y-109128282D01*
X123497159Y-109224536D01*
X123643238Y-109285044D01*
X123760639Y-109300500D01*
X126239360Y-109300499D01*
X126239363Y-109300499D01*
X126356753Y-109285046D01*
X126356757Y-109285044D01*
X126356762Y-109285044D01*
X126502841Y-109224536D01*
X126628282Y-109128282D01*
X126724536Y-109002841D01*
X126785044Y-108856762D01*
X126800500Y-108739363D01*
X142199500Y-108739363D01*
X142214953Y-108856753D01*
X142214956Y-108856762D01*
X142275464Y-109002841D01*
X142371718Y-109128282D01*
X142497159Y-109224536D01*
X142643238Y-109285044D01*
X142760639Y-109300500D01*
X145239360Y-109300499D01*
X145239363Y-109300499D01*
X145356753Y-109285046D01*
X145356757Y-109285044D01*
X145356762Y-109285044D01*
X145502841Y-109224536D01*
X145628282Y-109128282D01*
X145724536Y-109002841D01*
X145785044Y-108856762D01*
X145800500Y-108739361D01*
X145800499Y-106260640D01*
X145800499Y-106260639D01*
X145800499Y-106260636D01*
X145785046Y-106143246D01*
X145785044Y-106143239D01*
X145785044Y-106143238D01*
X145724536Y-105997159D01*
X145628282Y-105871718D01*
X145502841Y-105775464D01*
X145434673Y-105747228D01*
X145356762Y-105714956D01*
X145356760Y-105714955D01*
X145239370Y-105699501D01*
X145239367Y-105699500D01*
X145239361Y-105699500D01*
X145239354Y-105699500D01*
X142760636Y-105699500D01*
X142643246Y-105714953D01*
X142643237Y-105714956D01*
X142497160Y-105775463D01*
X142371718Y-105871718D01*
X142275463Y-105997160D01*
X142214956Y-106143237D01*
X142214955Y-106143239D01*
X142199501Y-106260629D01*
X142199501Y-106260636D01*
X142199500Y-106260645D01*
X142199500Y-108739363D01*
X126800500Y-108739363D01*
X126800500Y-108739361D01*
X126800499Y-107500000D01*
X130244901Y-107500000D01*
X130263252Y-107686331D01*
X130263253Y-107686333D01*
X130317604Y-107865502D01*
X130405862Y-108030623D01*
X130405864Y-108030626D01*
X130524642Y-108175357D01*
X130669373Y-108294135D01*
X130669376Y-108294137D01*
X130834497Y-108382395D01*
X130834499Y-108382396D01*
X131013666Y-108436746D01*
X131013668Y-108436747D01*
X131030374Y-108438392D01*
X131200000Y-108455099D01*
X131386331Y-108436747D01*
X131565501Y-108382396D01*
X131730625Y-108294136D01*
X131875357Y-108175357D01*
X131994136Y-108030625D01*
X132082396Y-107865501D01*
X132136747Y-107686331D01*
X132155099Y-107500000D01*
X135944901Y-107500000D01*
X135963252Y-107686331D01*
X135963253Y-107686333D01*
X136017604Y-107865502D01*
X136105862Y-108030623D01*
X136105864Y-108030626D01*
X136224642Y-108175357D01*
X136369373Y-108294135D01*
X136369376Y-108294137D01*
X136534497Y-108382395D01*
X136534499Y-108382396D01*
X136713666Y-108436746D01*
X136713668Y-108436747D01*
X136730374Y-108438392D01*
X136900000Y-108455099D01*
X137086331Y-108436747D01*
X137265501Y-108382396D01*
X137430625Y-108294136D01*
X137575357Y-108175357D01*
X137694136Y-108030625D01*
X137782396Y-107865501D01*
X137836747Y-107686331D01*
X137855099Y-107500000D01*
X137836747Y-107313669D01*
X137782396Y-107134499D01*
X137743065Y-107060915D01*
X137694137Y-106969376D01*
X137694135Y-106969373D01*
X137575357Y-106824642D01*
X137430626Y-106705864D01*
X137430623Y-106705862D01*
X137265502Y-106617604D01*
X137086333Y-106563253D01*
X137086331Y-106563252D01*
X136900000Y-106544901D01*
X136713668Y-106563252D01*
X136713666Y-106563253D01*
X136534497Y-106617604D01*
X136369376Y-106705862D01*
X136369373Y-106705864D01*
X136224642Y-106824642D01*
X136105864Y-106969373D01*
X136105862Y-106969376D01*
X136017604Y-107134497D01*
X135963253Y-107313666D01*
X135963252Y-107313668D01*
X135944901Y-107500000D01*
X132155099Y-107500000D01*
X132136747Y-107313669D01*
X132082396Y-107134499D01*
X132043065Y-107060915D01*
X131994137Y-106969376D01*
X131994135Y-106969373D01*
X131875357Y-106824642D01*
X131730626Y-106705864D01*
X131730623Y-106705862D01*
X131565502Y-106617604D01*
X131386333Y-106563253D01*
X131386331Y-106563252D01*
X131200000Y-106544901D01*
X131013668Y-106563252D01*
X131013666Y-106563253D01*
X130834497Y-106617604D01*
X130669376Y-106705862D01*
X130669373Y-106705864D01*
X130524642Y-106824642D01*
X130405864Y-106969373D01*
X130405862Y-106969376D01*
X130317604Y-107134497D01*
X130263253Y-107313666D01*
X130263252Y-107313668D01*
X130244901Y-107500000D01*
X126800499Y-107500000D01*
X126800499Y-106260640D01*
X126800499Y-106260639D01*
X126800499Y-106260636D01*
X126785046Y-106143246D01*
X126785044Y-106143239D01*
X126785044Y-106143238D01*
X126724536Y-105997159D01*
X126628282Y-105871718D01*
X126502841Y-105775464D01*
X126434673Y-105747228D01*
X126356762Y-105714956D01*
X126356760Y-105714955D01*
X126239370Y-105699501D01*
X126239367Y-105699500D01*
X126239361Y-105699500D01*
X126239354Y-105699500D01*
X123760636Y-105699500D01*
X123643246Y-105714953D01*
X123643237Y-105714956D01*
X123497160Y-105775463D01*
X123371718Y-105871718D01*
X123275463Y-105997160D01*
X123214956Y-106143237D01*
X123214955Y-106143239D01*
X123199501Y-106260629D01*
X123199501Y-106260636D01*
X123199500Y-106260645D01*
X123199500Y-108739363D01*
X100000500Y-108739363D01*
X100000500Y-105500000D01*
X174419628Y-105500000D01*
X174439085Y-105747228D01*
X174496976Y-105988362D01*
X174591877Y-106217474D01*
X174721450Y-106428916D01*
X174721453Y-106428921D01*
X174794458Y-106514399D01*
X174882508Y-106617492D01*
X174985979Y-106705864D01*
X175071078Y-106778546D01*
X175071083Y-106778549D01*
X175282525Y-106908122D01*
X175511637Y-107003023D01*
X175718567Y-107052702D01*
X175752775Y-107060915D01*
X176000000Y-107080372D01*
X176247225Y-107060915D01*
X176488362Y-107003023D01*
X176717474Y-106908122D01*
X176928919Y-106778548D01*
X177117492Y-106617492D01*
X177278548Y-106428919D01*
X177408122Y-106217474D01*
X177503023Y-105988362D01*
X177560915Y-105747225D01*
X177580372Y-105500000D01*
X177560915Y-105252775D01*
X177503023Y-105011638D01*
X177479604Y-104955098D01*
X177408122Y-104782525D01*
X177278549Y-104571083D01*
X177278546Y-104571078D01*
X177212830Y-104494135D01*
X177117492Y-104382508D01*
X177014399Y-104294458D01*
X176928921Y-104221453D01*
X176928916Y-104221450D01*
X176717474Y-104091877D01*
X176488362Y-103996976D01*
X176247228Y-103939085D01*
X176000000Y-103919628D01*
X175752771Y-103939085D01*
X175511637Y-103996976D01*
X175282525Y-104091877D01*
X175071083Y-104221450D01*
X175071078Y-104221453D01*
X174882508Y-104382508D01*
X174721453Y-104571078D01*
X174721450Y-104571083D01*
X174591877Y-104782525D01*
X174496976Y-105011637D01*
X174439085Y-105252771D01*
X174419628Y-105500000D01*
X100000500Y-105500000D01*
X100000500Y-103700000D01*
X120344901Y-103700000D01*
X120363252Y-103886331D01*
X120363253Y-103886333D01*
X120417604Y-104065502D01*
X120505862Y-104230623D01*
X120505864Y-104230626D01*
X120624642Y-104375357D01*
X120769373Y-104494135D01*
X120769376Y-104494137D01*
X120934497Y-104582395D01*
X120934499Y-104582396D01*
X121113666Y-104636746D01*
X121113668Y-104636747D01*
X121130374Y-104638392D01*
X121300000Y-104655099D01*
X121486331Y-104636747D01*
X121665501Y-104582396D01*
X121830625Y-104494136D01*
X121975357Y-104375357D01*
X122094136Y-104230625D01*
X122182396Y-104065501D01*
X122202266Y-104000000D01*
X143044901Y-104000000D01*
X143063252Y-104186331D01*
X143063253Y-104186333D01*
X143117604Y-104365502D01*
X143205862Y-104530623D01*
X143205864Y-104530626D01*
X143324642Y-104675357D01*
X143469373Y-104794135D01*
X143469376Y-104794137D01*
X143634497Y-104882395D01*
X143634499Y-104882396D01*
X143813666Y-104936746D01*
X143813668Y-104936747D01*
X143830374Y-104938392D01*
X144000000Y-104955099D01*
X144186331Y-104936747D01*
X144365501Y-104882396D01*
X144530625Y-104794136D01*
X144675357Y-104675357D01*
X144794136Y-104530625D01*
X144882396Y-104365501D01*
X144936747Y-104186331D01*
X144955099Y-104000000D01*
X144936747Y-103813669D01*
X144882396Y-103634499D01*
X144882395Y-103634497D01*
X144794137Y-103469376D01*
X144794135Y-103469373D01*
X144675357Y-103324642D01*
X144530626Y-103205864D01*
X144530623Y-103205862D01*
X144365502Y-103117604D01*
X144186333Y-103063253D01*
X144186331Y-103063252D01*
X144000000Y-103044901D01*
X143813668Y-103063252D01*
X143813666Y-103063253D01*
X143634497Y-103117604D01*
X143469376Y-103205862D01*
X143469373Y-103205864D01*
X143324642Y-103324642D01*
X143205864Y-103469373D01*
X143205862Y-103469376D01*
X143117604Y-103634497D01*
X143063253Y-103813666D01*
X143063252Y-103813668D01*
X143044901Y-104000000D01*
X122202266Y-104000000D01*
X122236747Y-103886331D01*
X122255099Y-103700000D01*
X122236747Y-103513669D01*
X122182396Y-103334499D01*
X122094136Y-103169375D01*
X122094135Y-103169373D01*
X121975357Y-103024642D01*
X121830626Y-102905864D01*
X121830623Y-102905862D01*
X121665502Y-102817604D01*
X121486333Y-102763253D01*
X121486331Y-102763252D01*
X121300000Y-102744901D01*
X121113668Y-102763252D01*
X121113666Y-102763253D01*
X120934497Y-102817604D01*
X120769376Y-102905862D01*
X120769373Y-102905864D01*
X120624642Y-103024642D01*
X120505864Y-103169373D01*
X120505862Y-103169376D01*
X120417604Y-103334497D01*
X120363253Y-103513666D01*
X120363252Y-103513668D01*
X120344901Y-103700000D01*
X100000500Y-103700000D01*
X100000500Y-100500000D01*
X107419628Y-100500000D01*
X107439085Y-100747228D01*
X107496976Y-100988362D01*
X107591877Y-101217474D01*
X107721450Y-101428916D01*
X107721453Y-101428921D01*
X107794458Y-101514399D01*
X107882508Y-101617492D01*
X108003213Y-101720583D01*
X108071078Y-101778546D01*
X108071083Y-101778549D01*
X108282525Y-101908122D01*
X108511637Y-102003023D01*
X108718567Y-102052702D01*
X108752775Y-102060915D01*
X109000000Y-102080372D01*
X109247225Y-102060915D01*
X109488362Y-102003023D01*
X109717474Y-101908122D01*
X109928919Y-101778548D01*
X110117492Y-101617492D01*
X110278548Y-101428919D01*
X110408122Y-101217474D01*
X110503023Y-100988362D01*
X110560915Y-100747225D01*
X110580372Y-100500000D01*
X111944901Y-100500000D01*
X111963252Y-100686331D01*
X111963253Y-100686333D01*
X112017604Y-100865502D01*
X112105862Y-101030623D01*
X112105864Y-101030626D01*
X112224642Y-101175357D01*
X112369373Y-101294135D01*
X112369376Y-101294137D01*
X112534497Y-101382395D01*
X112534499Y-101382396D01*
X112713666Y-101436746D01*
X112713668Y-101436747D01*
X112730374Y-101438392D01*
X112900000Y-101455099D01*
X113086331Y-101436747D01*
X113265501Y-101382396D01*
X113430625Y-101294136D01*
X113575357Y-101175357D01*
X113694136Y-101030625D01*
X113782396Y-100865501D01*
X113836747Y-100686331D01*
X113845250Y-100599999D01*
X117044901Y-100599999D01*
X117063252Y-100786331D01*
X117063253Y-100786333D01*
X117117604Y-100965502D01*
X117205862Y-101130623D01*
X117205864Y-101130626D01*
X117324642Y-101275357D01*
X117469373Y-101394135D01*
X117469376Y-101394137D01*
X117634497Y-101482395D01*
X117634499Y-101482396D01*
X117813666Y-101536746D01*
X117813668Y-101536747D01*
X117830374Y-101538392D01*
X118000000Y-101555099D01*
X118186331Y-101536747D01*
X118365501Y-101482396D01*
X118530625Y-101394136D01*
X118675357Y-101275357D01*
X118794136Y-101130625D01*
X118882396Y-100965501D01*
X118936747Y-100786331D01*
X118955099Y-100600000D01*
X118945250Y-100499999D01*
X174419628Y-100499999D01*
X174439085Y-100747228D01*
X174496976Y-100988362D01*
X174591877Y-101217474D01*
X174721450Y-101428916D01*
X174721453Y-101428921D01*
X174794458Y-101514399D01*
X174882508Y-101617492D01*
X175003213Y-101720583D01*
X175071078Y-101778546D01*
X175071083Y-101778549D01*
X175282525Y-101908122D01*
X175511637Y-102003023D01*
X175718567Y-102052702D01*
X175752775Y-102060915D01*
X176000000Y-102080372D01*
X176247225Y-102060915D01*
X176488362Y-102003023D01*
X176717474Y-101908122D01*
X176928919Y-101778548D01*
X177117492Y-101617492D01*
X177278548Y-101428919D01*
X177408122Y-101217474D01*
X177503023Y-100988362D01*
X177560915Y-100747225D01*
X177580372Y-100500000D01*
X177560915Y-100252775D01*
X177516885Y-100069376D01*
X177503023Y-100011637D01*
X177408122Y-99782525D01*
X177292676Y-99594136D01*
X177278548Y-99571081D01*
X177278547Y-99571080D01*
X177278546Y-99571078D01*
X177196792Y-99475357D01*
X177117492Y-99382508D01*
X177014399Y-99294458D01*
X176928921Y-99221453D01*
X176928916Y-99221450D01*
X176717474Y-99091877D01*
X176488362Y-98996976D01*
X176247228Y-98939085D01*
X176000000Y-98919628D01*
X175752771Y-98939085D01*
X175511637Y-98996976D01*
X175282525Y-99091877D01*
X175071083Y-99221450D01*
X175071078Y-99221453D01*
X174882508Y-99382508D01*
X174721453Y-99571078D01*
X174721450Y-99571083D01*
X174591877Y-99782525D01*
X174496976Y-100011637D01*
X174439085Y-100252771D01*
X174419628Y-100499999D01*
X118945250Y-100499999D01*
X118936747Y-100413669D01*
X118882396Y-100234499D01*
X118882395Y-100234497D01*
X118794137Y-100069376D01*
X118794135Y-100069373D01*
X118675357Y-99924642D01*
X118530626Y-99805864D01*
X118530623Y-99805862D01*
X118365502Y-99717604D01*
X118186333Y-99663253D01*
X118186331Y-99663252D01*
X118000000Y-99644901D01*
X117813668Y-99663252D01*
X117813666Y-99663253D01*
X117634497Y-99717604D01*
X117469376Y-99805862D01*
X117469373Y-99805864D01*
X117324642Y-99924642D01*
X117205864Y-100069373D01*
X117205862Y-100069376D01*
X117117604Y-100234497D01*
X117063253Y-100413666D01*
X117063252Y-100413668D01*
X117044901Y-100599999D01*
X113845250Y-100599999D01*
X113855099Y-100500000D01*
X113836747Y-100313669D01*
X113782396Y-100134499D01*
X113716726Y-100011638D01*
X113694137Y-99969376D01*
X113694135Y-99969373D01*
X113575357Y-99824642D01*
X113430626Y-99705864D01*
X113430623Y-99705862D01*
X113265502Y-99617604D01*
X113086333Y-99563253D01*
X113086331Y-99563252D01*
X112900000Y-99544901D01*
X112713668Y-99563252D01*
X112713666Y-99563253D01*
X112534497Y-99617604D01*
X112369376Y-99705862D01*
X112369373Y-99705864D01*
X112224642Y-99824642D01*
X112105864Y-99969373D01*
X112105862Y-99969376D01*
X112017604Y-100134497D01*
X111963253Y-100313666D01*
X111963252Y-100313668D01*
X111944901Y-100500000D01*
X110580372Y-100500000D01*
X110560915Y-100252775D01*
X110516885Y-100069376D01*
X110503023Y-100011637D01*
X110408122Y-99782525D01*
X110292676Y-99594136D01*
X110278548Y-99571081D01*
X110278547Y-99571080D01*
X110278546Y-99571078D01*
X110196792Y-99475357D01*
X110117492Y-99382508D01*
X110014399Y-99294458D01*
X109928921Y-99221453D01*
X109928916Y-99221450D01*
X109717474Y-99091877D01*
X109488362Y-98996976D01*
X109247228Y-98939085D01*
X109061806Y-98924492D01*
X109000000Y-98919628D01*
X108999999Y-98919628D01*
X108752771Y-98939085D01*
X108511637Y-98996976D01*
X108282525Y-99091877D01*
X108071083Y-99221450D01*
X108071078Y-99221453D01*
X107882508Y-99382508D01*
X107721453Y-99571078D01*
X107721450Y-99571083D01*
X107591877Y-99782525D01*
X107496976Y-100011637D01*
X107439085Y-100252771D01*
X107419628Y-100500000D01*
X100000500Y-100500000D01*
X100000500Y-98800000D01*
X139244901Y-98800000D01*
X139263252Y-98986331D01*
X139263253Y-98986333D01*
X139317604Y-99165502D01*
X139405862Y-99330623D01*
X139405864Y-99330626D01*
X139524642Y-99475357D01*
X139669373Y-99594135D01*
X139669376Y-99594137D01*
X139834497Y-99682395D01*
X139834499Y-99682396D01*
X140013666Y-99736746D01*
X140013668Y-99736747D01*
X140030374Y-99738392D01*
X140200000Y-99755099D01*
X140386331Y-99736747D01*
X140565501Y-99682396D01*
X140730625Y-99594136D01*
X140875357Y-99475357D01*
X140994136Y-99330625D01*
X141082396Y-99165501D01*
X141136747Y-98986331D01*
X141155099Y-98800000D01*
X141136747Y-98613669D01*
X141082396Y-98434499D01*
X140994136Y-98269375D01*
X140994135Y-98269373D01*
X140875357Y-98124642D01*
X140730626Y-98005864D01*
X140730623Y-98005862D01*
X140565502Y-97917604D01*
X140386333Y-97863253D01*
X140386331Y-97863252D01*
X140200000Y-97844901D01*
X140013668Y-97863252D01*
X140013666Y-97863253D01*
X139834497Y-97917604D01*
X139669376Y-98005862D01*
X139669373Y-98005864D01*
X139524642Y-98124642D01*
X139405864Y-98269373D01*
X139405862Y-98269376D01*
X139317604Y-98434497D01*
X139263253Y-98613666D01*
X139263252Y-98613668D01*
X139244901Y-98800000D01*
X100000500Y-98800000D01*
X100000500Y-95200000D01*
X128144901Y-95200000D01*
X128163252Y-95386331D01*
X128163253Y-95386333D01*
X128217604Y-95565502D01*
X128305862Y-95730623D01*
X128305864Y-95730626D01*
X128424642Y-95875357D01*
X128569373Y-95994135D01*
X128569376Y-95994137D01*
X128734497Y-96082395D01*
X128734499Y-96082396D01*
X128913666Y-96136746D01*
X128913668Y-96136747D01*
X128930374Y-96138392D01*
X129100000Y-96155099D01*
X129286331Y-96136747D01*
X129465501Y-96082396D01*
X129630625Y-95994136D01*
X129775357Y-95875357D01*
X129894136Y-95730625D01*
X129982396Y-95565501D01*
X130036747Y-95386331D01*
X130055099Y-95200000D01*
X130036747Y-95013669D01*
X129982396Y-94834499D01*
X129894136Y-94669375D01*
X129894135Y-94669373D01*
X129775357Y-94524642D01*
X129630626Y-94405864D01*
X129630623Y-94405862D01*
X129465502Y-94317604D01*
X129286333Y-94263253D01*
X129286331Y-94263252D01*
X129100000Y-94244901D01*
X128913668Y-94263252D01*
X128913666Y-94263253D01*
X128734497Y-94317604D01*
X128569376Y-94405862D01*
X128569373Y-94405864D01*
X128424642Y-94524642D01*
X128305864Y-94669373D01*
X128305862Y-94669376D01*
X128217604Y-94834497D01*
X128163253Y-95013666D01*
X128163252Y-95013668D01*
X128144901Y-95200000D01*
X100000500Y-95200000D01*
X100000500Y-93000005D01*
X120544529Y-93000005D01*
X120564379Y-93239559D01*
X120623389Y-93472589D01*
X120719951Y-93692729D01*
X120810043Y-93830623D01*
X120851429Y-93893969D01*
X121014236Y-94070825D01*
X121014239Y-94070827D01*
X121014242Y-94070830D01*
X121203924Y-94218466D01*
X121203930Y-94218470D01*
X121203933Y-94218472D01*
X121415344Y-94332882D01*
X121415347Y-94332883D01*
X121642699Y-94410933D01*
X121642701Y-94410933D01*
X121642703Y-94410934D01*
X121879808Y-94450500D01*
X121879809Y-94450500D01*
X122120191Y-94450500D01*
X122120192Y-94450500D01*
X122357297Y-94410934D01*
X122372066Y-94405864D01*
X122374161Y-94405144D01*
X122584656Y-94332882D01*
X122796067Y-94218472D01*
X122842418Y-94182396D01*
X122859768Y-94168891D01*
X122985764Y-94070825D01*
X123148571Y-93893969D01*
X123280049Y-93692728D01*
X123376610Y-93472591D01*
X123420315Y-93300000D01*
X138144901Y-93300000D01*
X138163252Y-93486331D01*
X138163253Y-93486333D01*
X138217604Y-93665502D01*
X138305862Y-93830623D01*
X138305864Y-93830626D01*
X138424642Y-93975357D01*
X138569373Y-94094135D01*
X138569376Y-94094137D01*
X138734497Y-94182395D01*
X138734499Y-94182396D01*
X138853425Y-94218472D01*
X138913666Y-94236746D01*
X138913668Y-94236747D01*
X138930374Y-94238392D01*
X139100000Y-94255099D01*
X139286331Y-94236747D01*
X139465501Y-94182396D01*
X139630625Y-94094136D01*
X139775357Y-93975357D01*
X139894136Y-93830625D01*
X139982396Y-93665501D01*
X140036747Y-93486331D01*
X140055099Y-93300000D01*
X140036747Y-93113669D01*
X139982396Y-92934499D01*
X139894136Y-92769375D01*
X139894135Y-92769373D01*
X139775357Y-92624642D01*
X139630626Y-92505864D01*
X139630623Y-92505862D01*
X139465502Y-92417604D01*
X139286333Y-92363253D01*
X139286331Y-92363252D01*
X139100000Y-92344901D01*
X138913668Y-92363252D01*
X138913666Y-92363253D01*
X138734497Y-92417604D01*
X138569376Y-92505862D01*
X138569373Y-92505864D01*
X138424642Y-92624642D01*
X138305864Y-92769373D01*
X138305862Y-92769376D01*
X138217604Y-92934497D01*
X138163253Y-93113666D01*
X138163252Y-93113668D01*
X138144901Y-93300000D01*
X123420315Y-93300000D01*
X123435620Y-93239563D01*
X123455471Y-93000000D01*
X123450043Y-92934499D01*
X123442236Y-92840291D01*
X123435620Y-92760437D01*
X123376610Y-92527409D01*
X123280049Y-92307272D01*
X123148571Y-92106031D01*
X122985764Y-91929175D01*
X122985759Y-91929171D01*
X122985757Y-91929169D01*
X122796075Y-91781533D01*
X122796069Y-91781529D01*
X122584657Y-91667118D01*
X122584652Y-91667116D01*
X122357300Y-91589066D01*
X122179468Y-91559391D01*
X122120192Y-91549500D01*
X121879808Y-91549500D01*
X121832387Y-91557413D01*
X121642699Y-91589066D01*
X121415347Y-91667116D01*
X121415342Y-91667118D01*
X121203930Y-91781529D01*
X121203924Y-91781533D01*
X121014242Y-91929169D01*
X121014239Y-91929172D01*
X120851430Y-92106029D01*
X120851427Y-92106033D01*
X120719951Y-92307270D01*
X120623389Y-92527410D01*
X120564379Y-92760440D01*
X120544529Y-92999994D01*
X120544529Y-93000005D01*
X100000500Y-93000005D01*
X100000500Y-90500000D01*
X124744901Y-90500000D01*
X124763252Y-90686331D01*
X124763253Y-90686333D01*
X124817604Y-90865502D01*
X124905862Y-91030623D01*
X124905864Y-91030626D01*
X125024642Y-91175357D01*
X125169373Y-91294135D01*
X125169376Y-91294137D01*
X125334497Y-91382395D01*
X125334499Y-91382396D01*
X125513666Y-91436746D01*
X125513668Y-91436747D01*
X125530374Y-91438392D01*
X125700000Y-91455099D01*
X125886331Y-91436747D01*
X126065501Y-91382396D01*
X126230625Y-91294136D01*
X126375357Y-91175357D01*
X126494136Y-91030625D01*
X126582396Y-90865501D01*
X126636747Y-90686331D01*
X126655099Y-90500000D01*
X126636747Y-90313669D01*
X126582396Y-90134499D01*
X126494136Y-89969375D01*
X126494135Y-89969373D01*
X126375357Y-89824642D01*
X126230626Y-89705864D01*
X126230623Y-89705862D01*
X126065502Y-89617604D01*
X125886333Y-89563253D01*
X125886331Y-89563252D01*
X125700000Y-89544901D01*
X125513668Y-89563252D01*
X125513666Y-89563253D01*
X125334497Y-89617604D01*
X125169376Y-89705862D01*
X125169373Y-89705864D01*
X125024642Y-89824642D01*
X124905864Y-89969373D01*
X124905862Y-89969376D01*
X124817604Y-90134497D01*
X124763253Y-90313666D01*
X124763252Y-90313668D01*
X124744901Y-90500000D01*
X100000500Y-90500000D01*
X100000500Y-87600000D01*
X129044901Y-87600000D01*
X129063252Y-87786331D01*
X129063253Y-87786333D01*
X129117604Y-87965502D01*
X129205862Y-88130623D01*
X129205864Y-88130626D01*
X129324642Y-88275357D01*
X129469373Y-88394135D01*
X129469376Y-88394137D01*
X129634497Y-88482395D01*
X129634499Y-88482396D01*
X129813666Y-88536746D01*
X129813668Y-88536747D01*
X129830374Y-88538392D01*
X130000000Y-88555099D01*
X130186331Y-88536747D01*
X130365501Y-88482396D01*
X130530625Y-88394136D01*
X130675357Y-88275357D01*
X130794136Y-88130625D01*
X130882396Y-87965501D01*
X130936747Y-87786331D01*
X130955099Y-87600000D01*
X130936747Y-87413669D01*
X130882396Y-87234499D01*
X130794136Y-87069375D01*
X130794135Y-87069373D01*
X130675357Y-86924642D01*
X130530626Y-86805864D01*
X130530623Y-86805862D01*
X130365502Y-86717604D01*
X130186333Y-86663253D01*
X130186331Y-86663252D01*
X130000000Y-86644901D01*
X129813668Y-86663252D01*
X129813666Y-86663253D01*
X129634497Y-86717604D01*
X129469376Y-86805862D01*
X129469373Y-86805864D01*
X129324642Y-86924642D01*
X129205864Y-87069373D01*
X129205862Y-87069376D01*
X129117604Y-87234497D01*
X129063253Y-87413666D01*
X129063252Y-87413668D01*
X129044901Y-87600000D01*
X100000500Y-87600000D01*
X100000500Y-84500000D01*
X107419628Y-84500000D01*
X107439085Y-84747228D01*
X107496976Y-84988362D01*
X107591877Y-85217474D01*
X107721450Y-85428916D01*
X107721453Y-85428921D01*
X107794458Y-85514399D01*
X107882508Y-85617492D01*
X108003213Y-85720583D01*
X108071078Y-85778546D01*
X108071083Y-85778549D01*
X108282525Y-85908122D01*
X108511637Y-86003023D01*
X108718567Y-86052702D01*
X108752775Y-86060915D01*
X109000000Y-86080372D01*
X109247225Y-86060915D01*
X109488362Y-86003023D01*
X109717474Y-85908122D01*
X109928919Y-85778548D01*
X110117492Y-85617492D01*
X110278548Y-85428919D01*
X110408122Y-85217474D01*
X110503023Y-84988362D01*
X110560915Y-84747225D01*
X110580372Y-84500000D01*
X110560915Y-84252775D01*
X110503023Y-84011638D01*
X110408122Y-83782526D01*
X110408122Y-83782525D01*
X110278549Y-83571083D01*
X110278546Y-83571078D01*
X110220583Y-83503213D01*
X110117492Y-83382508D01*
X110014399Y-83294458D01*
X109928921Y-83221453D01*
X109928916Y-83221450D01*
X109717474Y-83091877D01*
X109488362Y-82996976D01*
X109247228Y-82939085D01*
X109061806Y-82924492D01*
X109000000Y-82919628D01*
X108999999Y-82919628D01*
X108752771Y-82939085D01*
X108511637Y-82996976D01*
X108282525Y-83091877D01*
X108071083Y-83221450D01*
X108071078Y-83221453D01*
X107882508Y-83382508D01*
X107721453Y-83571078D01*
X107721450Y-83571083D01*
X107591877Y-83782525D01*
X107496976Y-84011637D01*
X107439085Y-84252771D01*
X107419628Y-84500000D01*
X100000500Y-84500000D01*
X100000500Y-81600000D01*
X126044901Y-81600000D01*
X126063252Y-81786331D01*
X126063253Y-81786333D01*
X126117604Y-81965502D01*
X126205862Y-82130623D01*
X126205864Y-82130626D01*
X126324642Y-82275357D01*
X126469373Y-82394135D01*
X126469376Y-82394137D01*
X126634497Y-82482395D01*
X126634499Y-82482396D01*
X126813666Y-82536746D01*
X126813668Y-82536747D01*
X126830374Y-82538392D01*
X127000000Y-82555099D01*
X127186331Y-82536747D01*
X127365501Y-82482396D01*
X127530625Y-82394136D01*
X127675357Y-82275357D01*
X127794136Y-82130625D01*
X127882396Y-81965501D01*
X127936747Y-81786331D01*
X127955099Y-81600000D01*
X127945250Y-81500000D01*
X138144901Y-81500000D01*
X138163252Y-81686331D01*
X138163253Y-81686333D01*
X138217604Y-81865502D01*
X138305862Y-82030623D01*
X138305864Y-82030626D01*
X138424642Y-82175357D01*
X138569373Y-82294135D01*
X138569376Y-82294137D01*
X138734497Y-82382395D01*
X138734499Y-82382396D01*
X138913666Y-82436746D01*
X138913668Y-82436747D01*
X138930374Y-82438392D01*
X139100000Y-82455099D01*
X139286331Y-82436747D01*
X139465501Y-82382396D01*
X139630625Y-82294136D01*
X139775357Y-82175357D01*
X139894136Y-82030625D01*
X139982396Y-81865501D01*
X140036747Y-81686331D01*
X140055099Y-81500000D01*
X140036747Y-81313669D01*
X139982396Y-81134499D01*
X139943065Y-81060915D01*
X139894137Y-80969376D01*
X139894135Y-80969373D01*
X139775357Y-80824642D01*
X139630626Y-80705864D01*
X139630623Y-80705862D01*
X139465502Y-80617604D01*
X139286333Y-80563253D01*
X139286331Y-80563252D01*
X139100000Y-80544901D01*
X138913668Y-80563252D01*
X138913666Y-80563253D01*
X138734497Y-80617604D01*
X138569376Y-80705862D01*
X138569373Y-80705864D01*
X138424642Y-80824642D01*
X138305864Y-80969373D01*
X138305862Y-80969376D01*
X138217604Y-81134497D01*
X138163253Y-81313666D01*
X138163252Y-81313668D01*
X138144901Y-81500000D01*
X127945250Y-81500000D01*
X127936747Y-81413669D01*
X127882396Y-81234499D01*
X127882395Y-81234497D01*
X127794137Y-81069376D01*
X127794135Y-81069373D01*
X127675357Y-80924642D01*
X127530626Y-80805864D01*
X127530623Y-80805862D01*
X127365502Y-80717604D01*
X127186333Y-80663253D01*
X127186331Y-80663252D01*
X127000000Y-80644901D01*
X126813668Y-80663252D01*
X126813666Y-80663253D01*
X126634497Y-80717604D01*
X126469376Y-80805862D01*
X126469373Y-80805864D01*
X126324642Y-80924642D01*
X126205864Y-81069373D01*
X126205862Y-81069376D01*
X126117604Y-81234497D01*
X126063253Y-81413666D01*
X126063252Y-81413668D01*
X126044901Y-81600000D01*
X100000500Y-81600000D01*
X100000500Y-79499999D01*
X107419628Y-79499999D01*
X107439085Y-79747228D01*
X107496976Y-79988362D01*
X107591877Y-80217474D01*
X107721450Y-80428916D01*
X107721453Y-80428921D01*
X107794458Y-80514399D01*
X107882508Y-80617492D01*
X108003213Y-80720583D01*
X108071078Y-80778546D01*
X108071083Y-80778549D01*
X108282525Y-80908122D01*
X108511637Y-81003023D01*
X108718567Y-81052702D01*
X108752775Y-81060915D01*
X109000000Y-81080372D01*
X109247225Y-81060915D01*
X109488362Y-81003023D01*
X109717474Y-80908122D01*
X109928919Y-80778548D01*
X110117492Y-80617492D01*
X110278548Y-80428919D01*
X110408122Y-80217474D01*
X110503023Y-79988362D01*
X110560915Y-79747225D01*
X110580372Y-79500000D01*
X110560915Y-79252775D01*
X110503023Y-79011638D01*
X110408122Y-78782526D01*
X110408122Y-78782525D01*
X110278549Y-78571083D01*
X110278546Y-78571078D01*
X110220583Y-78503213D01*
X110117492Y-78382508D01*
X110014399Y-78294458D01*
X109928921Y-78221453D01*
X109928916Y-78221450D01*
X109717474Y-78091877D01*
X109488362Y-77996976D01*
X109247228Y-77939085D01*
X109061806Y-77924492D01*
X109000000Y-77919628D01*
X108999999Y-77919628D01*
X108752771Y-77939085D01*
X108511637Y-77996976D01*
X108282525Y-78091877D01*
X108071083Y-78221450D01*
X108071078Y-78221453D01*
X107882508Y-78382508D01*
X107721453Y-78571078D01*
X107721450Y-78571083D01*
X107591877Y-78782525D01*
X107496976Y-79011637D01*
X107439085Y-79252771D01*
X107419628Y-79499999D01*
X100000500Y-79499999D01*
X100000500Y-74499999D01*
X107419628Y-74499999D01*
X107439085Y-74747228D01*
X107496976Y-74988362D01*
X107591877Y-75217474D01*
X107721450Y-75428916D01*
X107721453Y-75428921D01*
X107794458Y-75514399D01*
X107882508Y-75617492D01*
X108003213Y-75720583D01*
X108071078Y-75778546D01*
X108071083Y-75778549D01*
X108282525Y-75908122D01*
X108511637Y-76003023D01*
X108718567Y-76052702D01*
X108752775Y-76060915D01*
X109000000Y-76080372D01*
X109247225Y-76060915D01*
X109488362Y-76003023D01*
X109717474Y-75908122D01*
X109928919Y-75778548D01*
X110117492Y-75617492D01*
X110278548Y-75428919D01*
X110408122Y-75217474D01*
X110503023Y-74988362D01*
X110560915Y-74747225D01*
X110580372Y-74500000D01*
X110580372Y-74499999D01*
X174419628Y-74499999D01*
X174439085Y-74747228D01*
X174496976Y-74988362D01*
X174591877Y-75217474D01*
X174721450Y-75428916D01*
X174721453Y-75428921D01*
X174794458Y-75514399D01*
X174882508Y-75617492D01*
X175003213Y-75720583D01*
X175071078Y-75778546D01*
X175071083Y-75778549D01*
X175282525Y-75908122D01*
X175511637Y-76003023D01*
X175718567Y-76052702D01*
X175752775Y-76060915D01*
X176000000Y-76080372D01*
X176247225Y-76060915D01*
X176488362Y-76003023D01*
X176717474Y-75908122D01*
X176928919Y-75778548D01*
X177117492Y-75617492D01*
X177278548Y-75428919D01*
X177408122Y-75217474D01*
X177503023Y-74988362D01*
X177560915Y-74747225D01*
X177580372Y-74500000D01*
X177560915Y-74252775D01*
X177503023Y-74011638D01*
X177408122Y-73782526D01*
X177408122Y-73782525D01*
X177278549Y-73571083D01*
X177278546Y-73571078D01*
X177179490Y-73455099D01*
X177117492Y-73382508D01*
X177014020Y-73294135D01*
X176928921Y-73221453D01*
X176928916Y-73221450D01*
X176717474Y-73091877D01*
X176488362Y-72996976D01*
X176247228Y-72939085D01*
X176000000Y-72919628D01*
X175752771Y-72939085D01*
X175511637Y-72996976D01*
X175282525Y-73091877D01*
X175071083Y-73221450D01*
X175071078Y-73221453D01*
X174882508Y-73382508D01*
X174721453Y-73571078D01*
X174721450Y-73571083D01*
X174591877Y-73782525D01*
X174496976Y-74011637D01*
X174439085Y-74252771D01*
X174419628Y-74499999D01*
X110580372Y-74499999D01*
X110560915Y-74252775D01*
X110503023Y-74011638D01*
X110408122Y-73782526D01*
X110408122Y-73782525D01*
X110278549Y-73571083D01*
X110278546Y-73571078D01*
X110179490Y-73455099D01*
X110117492Y-73382508D01*
X110014020Y-73294135D01*
X109928921Y-73221453D01*
X109928916Y-73221450D01*
X109717474Y-73091877D01*
X109488362Y-72996976D01*
X109247228Y-72939085D01*
X109061806Y-72924492D01*
X109000000Y-72919628D01*
X108999999Y-72919628D01*
X108752771Y-72939085D01*
X108511637Y-72996976D01*
X108282525Y-73091877D01*
X108071083Y-73221450D01*
X108071078Y-73221453D01*
X107882508Y-73382508D01*
X107721453Y-73571078D01*
X107721450Y-73571083D01*
X107591877Y-73782525D01*
X107496976Y-74011637D01*
X107439085Y-74252771D01*
X107419628Y-74499999D01*
X100000500Y-74499999D01*
X100000500Y-72500000D01*
X138144901Y-72500000D01*
X138163252Y-72686331D01*
X138163253Y-72686333D01*
X138217604Y-72865502D01*
X138305862Y-73030623D01*
X138305864Y-73030626D01*
X138424642Y-73175357D01*
X138569373Y-73294135D01*
X138569376Y-73294137D01*
X138734497Y-73382395D01*
X138734499Y-73382396D01*
X138913666Y-73436746D01*
X138913668Y-73436747D01*
X138930374Y-73438392D01*
X139100000Y-73455099D01*
X139286331Y-73436747D01*
X139465501Y-73382396D01*
X139630625Y-73294136D01*
X139775357Y-73175357D01*
X139894136Y-73030625D01*
X139982396Y-72865501D01*
X140036747Y-72686331D01*
X140055099Y-72500000D01*
X140036747Y-72313669D01*
X139982396Y-72134499D01*
X139894136Y-71969375D01*
X139894135Y-71969373D01*
X139775357Y-71824642D01*
X139630626Y-71705864D01*
X139630623Y-71705862D01*
X139465502Y-71617604D01*
X139286333Y-71563253D01*
X139286331Y-71563252D01*
X139100000Y-71544901D01*
X138913668Y-71563252D01*
X138913666Y-71563253D01*
X138734497Y-71617604D01*
X138569376Y-71705862D01*
X138569373Y-71705864D01*
X138424642Y-71824642D01*
X138305864Y-71969373D01*
X138305862Y-71969376D01*
X138217604Y-72134497D01*
X138163253Y-72313666D01*
X138163252Y-72313668D01*
X138144901Y-72500000D01*
X100000500Y-72500000D01*
X100000500Y-69500000D01*
X107419628Y-69500000D01*
X107439085Y-69747228D01*
X107496976Y-69988362D01*
X107591877Y-70217474D01*
X107721450Y-70428916D01*
X107721453Y-70428921D01*
X107794458Y-70514399D01*
X107882508Y-70617492D01*
X108003213Y-70720583D01*
X108071078Y-70778546D01*
X108071083Y-70778549D01*
X108282525Y-70908122D01*
X108511637Y-71003023D01*
X108718567Y-71052702D01*
X108752775Y-71060915D01*
X109000000Y-71080372D01*
X109247225Y-71060915D01*
X109488362Y-71003023D01*
X109717474Y-70908122D01*
X109928919Y-70778548D01*
X110117492Y-70617492D01*
X110278548Y-70428919D01*
X110408122Y-70217474D01*
X110503023Y-69988362D01*
X110560915Y-69747225D01*
X110580372Y-69500000D01*
X110560915Y-69252775D01*
X110503511Y-69013669D01*
X110503023Y-69011637D01*
X110408122Y-68782525D01*
X110389488Y-68752118D01*
X122749500Y-68752118D01*
X122764953Y-68869508D01*
X122764956Y-68869517D01*
X122824664Y-69013666D01*
X122825464Y-69015596D01*
X122921718Y-69141037D01*
X123047159Y-69237291D01*
X123193238Y-69297799D01*
X123310639Y-69313255D01*
X125789360Y-69313254D01*
X125789363Y-69313254D01*
X125906753Y-69297801D01*
X125906757Y-69297799D01*
X125906762Y-69297799D01*
X126052841Y-69237291D01*
X126178282Y-69141037D01*
X126274536Y-69015596D01*
X126335044Y-68869517D01*
X126350500Y-68752116D01*
X126350499Y-68567337D01*
X126370183Y-68500299D01*
X126422987Y-68454544D01*
X126486651Y-68443935D01*
X126600000Y-68455099D01*
X126786331Y-68436747D01*
X126965501Y-68382396D01*
X127130625Y-68294136D01*
X127275357Y-68175357D01*
X127394136Y-68030625D01*
X127482396Y-67865501D01*
X127536747Y-67686331D01*
X127555099Y-67500000D01*
X140444901Y-67500000D01*
X140463252Y-67686331D01*
X140463253Y-67686333D01*
X140517604Y-67865502D01*
X140605862Y-68030623D01*
X140605864Y-68030626D01*
X140724642Y-68175357D01*
X140869373Y-68294135D01*
X140869376Y-68294137D01*
X141034497Y-68382395D01*
X141034499Y-68382396D01*
X141213666Y-68436746D01*
X141213668Y-68436747D01*
X141232020Y-68438554D01*
X141400000Y-68455099D01*
X141408567Y-68454255D01*
X141477213Y-68467274D01*
X141527924Y-68515338D01*
X141544599Y-68583189D01*
X141521943Y-68649284D01*
X141516575Y-68656323D01*
X141505865Y-68669373D01*
X141505862Y-68669376D01*
X141417604Y-68834497D01*
X141363253Y-69013666D01*
X141363252Y-69013668D01*
X141344901Y-69200000D01*
X141363252Y-69386331D01*
X141363253Y-69386333D01*
X141417604Y-69565502D01*
X141505862Y-69730623D01*
X141505864Y-69730626D01*
X141624642Y-69875357D01*
X141769373Y-69994135D01*
X141769376Y-69994137D01*
X141934497Y-70082395D01*
X141934499Y-70082396D01*
X142113666Y-70136746D01*
X142113668Y-70136747D01*
X142130374Y-70138392D01*
X142300000Y-70155099D01*
X142486331Y-70136747D01*
X142665501Y-70082396D01*
X142830625Y-69994136D01*
X142975357Y-69875357D01*
X143094136Y-69730625D01*
X143182396Y-69565501D01*
X143202265Y-69500000D01*
X174419628Y-69500000D01*
X174439085Y-69747228D01*
X174496976Y-69988362D01*
X174591877Y-70217474D01*
X174721450Y-70428916D01*
X174721453Y-70428921D01*
X174794458Y-70514399D01*
X174882508Y-70617492D01*
X175003213Y-70720583D01*
X175071078Y-70778546D01*
X175071083Y-70778549D01*
X175282525Y-70908122D01*
X175511637Y-71003023D01*
X175718567Y-71052702D01*
X175752775Y-71060915D01*
X176000000Y-71080372D01*
X176247225Y-71060915D01*
X176488362Y-71003023D01*
X176717474Y-70908122D01*
X176928919Y-70778548D01*
X177117492Y-70617492D01*
X177278548Y-70428919D01*
X177408122Y-70217474D01*
X177503023Y-69988362D01*
X177560915Y-69747225D01*
X177580372Y-69500000D01*
X177560915Y-69252775D01*
X177503511Y-69013669D01*
X177503023Y-69011637D01*
X177408122Y-68782525D01*
X177278549Y-68571083D01*
X177278546Y-68571078D01*
X177218095Y-68500299D01*
X177117492Y-68382508D01*
X176977862Y-68263253D01*
X176928921Y-68221453D01*
X176928916Y-68221450D01*
X176717474Y-68091877D01*
X176488362Y-67996976D01*
X176247228Y-67939085D01*
X176000000Y-67919628D01*
X175752771Y-67939085D01*
X175511637Y-67996976D01*
X175282525Y-68091877D01*
X175071083Y-68221450D01*
X175071078Y-68221453D01*
X174882508Y-68382508D01*
X174721453Y-68571078D01*
X174721450Y-68571083D01*
X174591877Y-68782525D01*
X174496976Y-69011637D01*
X174439085Y-69252771D01*
X174419628Y-69500000D01*
X143202265Y-69500000D01*
X143206217Y-69486972D01*
X143236089Y-69388503D01*
X143274386Y-69330065D01*
X143338199Y-69301608D01*
X143354749Y-69300499D01*
X145239363Y-69300499D01*
X145356753Y-69285046D01*
X145356757Y-69285044D01*
X145356762Y-69285044D01*
X145502841Y-69224536D01*
X145628282Y-69128282D01*
X145724536Y-69002841D01*
X145785044Y-68856762D01*
X145800500Y-68739361D01*
X145800499Y-66260640D01*
X145800499Y-66260639D01*
X145800499Y-66260636D01*
X145785046Y-66143246D01*
X145785044Y-66143239D01*
X145785044Y-66143238D01*
X145724536Y-65997159D01*
X145628282Y-65871718D01*
X145502841Y-65775464D01*
X145356762Y-65714956D01*
X145356760Y-65714955D01*
X145239370Y-65699501D01*
X145239367Y-65699500D01*
X145239361Y-65699500D01*
X145239354Y-65699500D01*
X142760636Y-65699500D01*
X142643246Y-65714953D01*
X142643237Y-65714956D01*
X142497160Y-65775463D01*
X142371718Y-65871718D01*
X142275463Y-65997160D01*
X142214956Y-66143237D01*
X142214955Y-66143239D01*
X142199501Y-66260629D01*
X142199501Y-66260636D01*
X142199500Y-66260645D01*
X142199500Y-66664347D01*
X142179815Y-66731386D01*
X142127011Y-66777141D01*
X142057853Y-66787085D01*
X141996836Y-66760201D01*
X141930625Y-66705864D01*
X141930623Y-66705862D01*
X141765502Y-66617604D01*
X141586333Y-66563253D01*
X141586331Y-66563252D01*
X141400000Y-66544901D01*
X141213668Y-66563252D01*
X141213666Y-66563253D01*
X141034497Y-66617604D01*
X140869376Y-66705862D01*
X140869373Y-66705864D01*
X140724642Y-66824642D01*
X140605864Y-66969373D01*
X140605862Y-66969376D01*
X140517604Y-67134497D01*
X140463253Y-67313666D01*
X140463252Y-67313668D01*
X140444901Y-67500000D01*
X127555099Y-67500000D01*
X127536747Y-67313669D01*
X127482396Y-67134499D01*
X127394136Y-66969375D01*
X127394135Y-66969373D01*
X127275357Y-66824642D01*
X127130626Y-66705864D01*
X127130623Y-66705862D01*
X126965502Y-66617604D01*
X126786333Y-66563253D01*
X126786331Y-66563252D01*
X126600000Y-66544901D01*
X126599999Y-66544901D01*
X126486652Y-66556064D01*
X126418006Y-66543045D01*
X126367296Y-66494980D01*
X126350499Y-66432661D01*
X126350499Y-66273391D01*
X126335046Y-66156001D01*
X126335044Y-66155994D01*
X126335044Y-66155993D01*
X126274536Y-66009914D01*
X126178282Y-65884473D01*
X126052841Y-65788219D01*
X126022045Y-65775463D01*
X125906762Y-65727711D01*
X125906760Y-65727710D01*
X125789370Y-65712256D01*
X125789367Y-65712255D01*
X125789361Y-65712255D01*
X125789354Y-65712255D01*
X123310636Y-65712255D01*
X123193246Y-65727708D01*
X123193237Y-65727711D01*
X123047160Y-65788218D01*
X122921718Y-65884473D01*
X122825463Y-66009915D01*
X122764956Y-66155992D01*
X122764955Y-66155994D01*
X122751179Y-66260639D01*
X122749501Y-66273391D01*
X122749500Y-66273400D01*
X122749500Y-68752118D01*
X110389488Y-68752118D01*
X110278549Y-68571083D01*
X110278546Y-68571078D01*
X110218095Y-68500299D01*
X110117492Y-68382508D01*
X109977862Y-68263253D01*
X109928921Y-68221453D01*
X109928916Y-68221450D01*
X109717474Y-68091877D01*
X109488362Y-67996976D01*
X109247228Y-67939085D01*
X109000000Y-67919628D01*
X108752771Y-67939085D01*
X108511637Y-67996976D01*
X108282525Y-68091877D01*
X108071083Y-68221450D01*
X108071078Y-68221453D01*
X107882508Y-68382508D01*
X107721453Y-68571078D01*
X107721450Y-68571083D01*
X107591877Y-68782525D01*
X107496976Y-69011637D01*
X107439085Y-69252771D01*
X107419628Y-69500000D01*
X100000500Y-69500000D01*
X100000500Y-55000000D01*
X101194616Y-55000000D01*
X101214139Y-55384983D01*
X101272511Y-55766013D01*
X101369136Y-56139199D01*
X101369136Y-56139200D01*
X101503009Y-56500666D01*
X101503015Y-56500679D01*
X101672774Y-56846759D01*
X101672775Y-56846760D01*
X101876680Y-57173895D01*
X102112634Y-57478722D01*
X102378215Y-57758114D01*
X102378216Y-57758115D01*
X102670699Y-58009203D01*
X102670702Y-58009205D01*
X102987089Y-58229417D01*
X103324131Y-58416491D01*
X103324135Y-58416493D01*
X103465826Y-58477297D01*
X103678370Y-58568507D01*
X103678380Y-58568510D01*
X103678385Y-58568512D01*
X104046160Y-58683902D01*
X104046163Y-58683902D01*
X104046171Y-58683905D01*
X104423759Y-58761502D01*
X104730559Y-58792700D01*
X104807259Y-58800500D01*
X104807260Y-58800500D01*
X105192741Y-58800500D01*
X105256656Y-58794000D01*
X105576241Y-58761502D01*
X105953829Y-58683905D01*
X106321630Y-58568507D01*
X106675869Y-58416491D01*
X107012911Y-58229417D01*
X107329298Y-58009205D01*
X107621784Y-57758115D01*
X107887366Y-57478722D01*
X108123320Y-57173895D01*
X108327225Y-56846760D01*
X108496987Y-56500675D01*
X108630866Y-56139192D01*
X108727488Y-55766018D01*
X108785860Y-55384984D01*
X108805384Y-55000000D01*
X108805384Y-54999999D01*
X176194616Y-54999999D01*
X176214139Y-55384983D01*
X176272511Y-55766013D01*
X176369136Y-56139199D01*
X176369136Y-56139200D01*
X176503009Y-56500666D01*
X176503015Y-56500679D01*
X176672774Y-56846759D01*
X176672775Y-56846760D01*
X176876680Y-57173895D01*
X177112634Y-57478722D01*
X177378216Y-57758115D01*
X177670699Y-58009203D01*
X177670702Y-58009205D01*
X177987089Y-58229417D01*
X178324131Y-58416491D01*
X178324135Y-58416493D01*
X178465826Y-58477297D01*
X178678370Y-58568507D01*
X178678380Y-58568510D01*
X178678385Y-58568512D01*
X179046160Y-58683902D01*
X179046163Y-58683902D01*
X179046171Y-58683905D01*
X179423759Y-58761502D01*
X179730559Y-58792700D01*
X179807259Y-58800500D01*
X179807260Y-58800500D01*
X180192741Y-58800500D01*
X180256656Y-58794000D01*
X180576241Y-58761502D01*
X180953829Y-58683905D01*
X181321630Y-58568507D01*
X181675869Y-58416491D01*
X182012911Y-58229417D01*
X182329298Y-58009205D01*
X182621784Y-57758115D01*
X182887366Y-57478722D01*
X183123320Y-57173895D01*
X183327225Y-56846760D01*
X183496987Y-56500675D01*
X183630866Y-56139192D01*
X183727488Y-55766018D01*
X183785860Y-55384984D01*
X183805384Y-55000000D01*
X183785860Y-54615016D01*
X183727488Y-54233982D01*
X183630866Y-53860808D01*
X183598232Y-53772695D01*
X183496990Y-53499333D01*
X183496989Y-53499332D01*
X183496987Y-53499325D01*
X183327225Y-53153240D01*
X183123320Y-52826105D01*
X182887366Y-52521278D01*
X182621784Y-52241885D01*
X182580373Y-52206335D01*
X182329300Y-51990796D01*
X182012912Y-51770584D01*
X182012911Y-51770583D01*
X181675869Y-51583509D01*
X181675870Y-51583509D01*
X181675864Y-51583506D01*
X181321635Y-51431495D01*
X181321614Y-51431487D01*
X180953839Y-51316097D01*
X180953833Y-51316096D01*
X180953830Y-51316095D01*
X180953829Y-51316095D01*
X180576241Y-51238498D01*
X180576240Y-51238497D01*
X180576236Y-51238497D01*
X180192741Y-51199500D01*
X180192740Y-51199500D01*
X179807260Y-51199500D01*
X179807259Y-51199500D01*
X179423763Y-51238497D01*
X179046166Y-51316096D01*
X179046160Y-51316097D01*
X178678385Y-51431487D01*
X178678364Y-51431495D01*
X178324135Y-51583506D01*
X177987087Y-51770584D01*
X177670699Y-51990796D01*
X177378216Y-52241884D01*
X177112629Y-52521283D01*
X176876683Y-52826100D01*
X176672774Y-53153240D01*
X176503015Y-53499320D01*
X176503009Y-53499333D01*
X176369136Y-53860799D01*
X176369136Y-53860800D01*
X176272511Y-54233986D01*
X176214139Y-54615016D01*
X176194616Y-54999999D01*
X108805384Y-54999999D01*
X108785860Y-54615016D01*
X108727488Y-54233982D01*
X108630866Y-53860808D01*
X108598232Y-53772695D01*
X108496990Y-53499333D01*
X108496989Y-53499332D01*
X108496987Y-53499325D01*
X108327225Y-53153240D01*
X108123320Y-52826105D01*
X107887366Y-52521278D01*
X107621784Y-52241885D01*
X107580373Y-52206335D01*
X107329300Y-51990796D01*
X107012912Y-51770584D01*
X107012911Y-51770583D01*
X106675869Y-51583509D01*
X106675870Y-51583509D01*
X106675864Y-51583506D01*
X106321635Y-51431495D01*
X106321614Y-51431487D01*
X105953839Y-51316097D01*
X105953833Y-51316096D01*
X105953830Y-51316095D01*
X105953829Y-51316095D01*
X105576241Y-51238498D01*
X105576240Y-51238497D01*
X105576236Y-51238497D01*
X105192741Y-51199500D01*
X105192740Y-51199500D01*
X104807260Y-51199500D01*
X104807259Y-51199500D01*
X104423763Y-51238497D01*
X104046166Y-51316096D01*
X104046160Y-51316097D01*
X103678385Y-51431487D01*
X103678364Y-51431495D01*
X103324135Y-51583506D01*
X102987087Y-51770584D01*
X102670699Y-51990796D01*
X102378216Y-52241884D01*
X102112629Y-52521283D01*
X101876683Y-52826100D01*
X101672774Y-53153240D01*
X101503015Y-53499320D01*
X101503009Y-53499333D01*
X101369136Y-53860799D01*
X101369136Y-53860800D01*
X101272511Y-54233986D01*
X101214139Y-54615016D01*
X101194616Y-55000000D01*
X100000500Y-55000000D01*
X100009493Y-54782569D01*
X100018160Y-54584061D01*
X100018574Y-54579138D01*
X100045487Y-54363223D01*
X100071884Y-54162726D01*
X100072669Y-54158114D01*
X100117191Y-53945778D01*
X100161160Y-53747451D01*
X100162253Y-53743235D01*
X100224112Y-53535457D01*
X100285324Y-53341320D01*
X100286673Y-53337488D01*
X100365469Y-53135551D01*
X100443499Y-52947170D01*
X100445033Y-52943771D01*
X100514381Y-52801920D01*
X100540249Y-52749007D01*
X100573419Y-52685284D01*
X100634494Y-52567960D01*
X100636207Y-52564891D01*
X100662195Y-52521278D01*
X100747211Y-52378601D01*
X100856972Y-52206313D01*
X100858765Y-52203656D01*
X100984856Y-52027054D01*
X101109313Y-51864861D01*
X101111135Y-51862601D01*
X101251448Y-51696933D01*
X101390563Y-51545115D01*
X101545115Y-51390563D01*
X101696933Y-51251448D01*
X101862601Y-51111135D01*
X101864861Y-51109313D01*
X102027054Y-50984856D01*
X102203656Y-50858765D01*
X102206313Y-50856972D01*
X102378601Y-50747211D01*
X102564900Y-50636201D01*
X102567960Y-50634494D01*
X102685284Y-50573419D01*
X102749007Y-50540249D01*
X102823655Y-50503755D01*
X102943771Y-50445033D01*
X102947170Y-50443499D01*
X103135551Y-50365469D01*
X103337488Y-50286673D01*
X103341320Y-50285324D01*
X103535457Y-50224112D01*
X103743235Y-50162253D01*
X103747451Y-50161160D01*
X103945778Y-50117191D01*
X104158114Y-50072669D01*
X104162726Y-50071884D01*
X104363223Y-50045487D01*
X104579138Y-50018574D01*
X104584061Y-50018160D01*
X104782569Y-50009493D01*
X105000000Y-50000500D01*
X105000500Y-50000500D01*
X179999500Y-50000500D01*
X180000000Y-50000500D01*
X180217318Y-50009488D01*
G37*
%TD.AperFunction*%
%TD*%
M02*
