%TF.GenerationSoftware,KiCad,Pcbnew,7.0.6*%
%TF.CreationDate,2023-10-07T14:34:13+02:00*%
%TF.ProjectId,TPA3116 amplifier,54504133-3131-4362-9061-6d706c696669,rev?*%
%TF.SameCoordinates,Original*%
%TF.FileFunction,Drillmap*%
%TF.FilePolarity,Positive*%
%FSLAX45Y45*%
G04 Gerber Fmt 4.5, Leading zero omitted, Abs format (unit mm)*
G04 Created by KiCad (PCBNEW 7.0.6) date 2023-10-07 14:34:13*
%MOMM*%
%LPD*%
G01*
G04 APERTURE LIST*
%ADD10C,0.200000*%
G04 APERTURE END LIST*
D10*
X10000000Y-5500000D02*
X10000000Y-12000000D01*
X10500000Y-5000000D02*
G75*
G03*
X10000000Y-5500000I0J-500000D01*
G01*
X18000000Y-5000000D02*
X10500000Y-5000000D01*
X18500000Y-12000000D02*
X18500000Y-5500000D01*
X18500000Y-5500000D02*
G75*
G03*
X18000000Y-5000000I-500000J0D01*
G01*
X10500000Y-12500000D02*
X18000000Y-12500000D01*
X10000000Y-12000000D02*
G75*
G03*
X10500000Y-12500000I500000J0D01*
G01*
X18000000Y-12500000D02*
G75*
G03*
X18500000Y-12000000I0J500000D01*
G01*
X10250777Y-12821484D02*
X10250777Y-12621484D01*
X10250777Y-12621484D02*
X10298396Y-12621484D01*
X10298396Y-12621484D02*
X10326967Y-12631008D01*
X10326967Y-12631008D02*
X10346015Y-12650055D01*
X10346015Y-12650055D02*
X10355539Y-12669103D01*
X10355539Y-12669103D02*
X10365063Y-12707198D01*
X10365063Y-12707198D02*
X10365063Y-12735769D01*
X10365063Y-12735769D02*
X10355539Y-12773865D01*
X10355539Y-12773865D02*
X10346015Y-12792912D01*
X10346015Y-12792912D02*
X10326967Y-12811960D01*
X10326967Y-12811960D02*
X10298396Y-12821484D01*
X10298396Y-12821484D02*
X10250777Y-12821484D01*
X10450777Y-12821484D02*
X10450777Y-12688150D01*
X10450777Y-12726246D02*
X10460301Y-12707198D01*
X10460301Y-12707198D02*
X10469824Y-12697674D01*
X10469824Y-12697674D02*
X10488872Y-12688150D01*
X10488872Y-12688150D02*
X10507920Y-12688150D01*
X10574586Y-12821484D02*
X10574586Y-12688150D01*
X10574586Y-12621484D02*
X10565063Y-12631008D01*
X10565063Y-12631008D02*
X10574586Y-12640531D01*
X10574586Y-12640531D02*
X10584110Y-12631008D01*
X10584110Y-12631008D02*
X10574586Y-12621484D01*
X10574586Y-12621484D02*
X10574586Y-12640531D01*
X10698396Y-12821484D02*
X10679348Y-12811960D01*
X10679348Y-12811960D02*
X10669824Y-12792912D01*
X10669824Y-12792912D02*
X10669824Y-12621484D01*
X10803158Y-12821484D02*
X10784110Y-12811960D01*
X10784110Y-12811960D02*
X10774586Y-12792912D01*
X10774586Y-12792912D02*
X10774586Y-12621484D01*
X11031729Y-12821484D02*
X11031729Y-12621484D01*
X11031729Y-12621484D02*
X11098396Y-12764341D01*
X11098396Y-12764341D02*
X11165063Y-12621484D01*
X11165063Y-12621484D02*
X11165063Y-12821484D01*
X11346015Y-12821484D02*
X11346015Y-12716722D01*
X11346015Y-12716722D02*
X11336491Y-12697674D01*
X11336491Y-12697674D02*
X11317443Y-12688150D01*
X11317443Y-12688150D02*
X11279348Y-12688150D01*
X11279348Y-12688150D02*
X11260301Y-12697674D01*
X11346015Y-12811960D02*
X11326967Y-12821484D01*
X11326967Y-12821484D02*
X11279348Y-12821484D01*
X11279348Y-12821484D02*
X11260301Y-12811960D01*
X11260301Y-12811960D02*
X11250777Y-12792912D01*
X11250777Y-12792912D02*
X11250777Y-12773865D01*
X11250777Y-12773865D02*
X11260301Y-12754817D01*
X11260301Y-12754817D02*
X11279348Y-12745293D01*
X11279348Y-12745293D02*
X11326967Y-12745293D01*
X11326967Y-12745293D02*
X11346015Y-12735769D01*
X11441253Y-12688150D02*
X11441253Y-12888150D01*
X11441253Y-12697674D02*
X11460301Y-12688150D01*
X11460301Y-12688150D02*
X11498396Y-12688150D01*
X11498396Y-12688150D02*
X11517443Y-12697674D01*
X11517443Y-12697674D02*
X11526967Y-12707198D01*
X11526967Y-12707198D02*
X11536491Y-12726246D01*
X11536491Y-12726246D02*
X11536491Y-12783388D01*
X11536491Y-12783388D02*
X11526967Y-12802436D01*
X11526967Y-12802436D02*
X11517443Y-12811960D01*
X11517443Y-12811960D02*
X11498396Y-12821484D01*
X11498396Y-12821484D02*
X11460301Y-12821484D01*
X11460301Y-12821484D02*
X11441253Y-12811960D01*
X11622205Y-12802436D02*
X11631729Y-12811960D01*
X11631729Y-12811960D02*
X11622205Y-12821484D01*
X11622205Y-12821484D02*
X11612682Y-12811960D01*
X11612682Y-12811960D02*
X11622205Y-12802436D01*
X11622205Y-12802436D02*
X11622205Y-12821484D01*
X11622205Y-12697674D02*
X11631729Y-12707198D01*
X11631729Y-12707198D02*
X11622205Y-12716722D01*
X11622205Y-12716722D02*
X11612682Y-12707198D01*
X11612682Y-12707198D02*
X11622205Y-12697674D01*
X11622205Y-12697674D02*
X11622205Y-12716722D01*
M02*
